<?xml version="1.0" encoding="UTF-8" standalone="no"?>
<!-- Generator: Adobe Illustrator 19.0.0, SVG Export Plug-In . SVG Version: 6.00 Build 0)  -->

<svg
   version="1.1"
   id="Layer_1"
   x="0px"
   y="0px"
   viewBox="0 0 29.276543 14.713334"
   xml:space="preserve"
   sodipodi:docname="right-arrow(list).svg"
   width="29.276541"
   height="14.713334"
   inkscape:version="1.2 (dc2aedaf03, 2022-05-15)"
   xmlns:inkscape="http://www.inkscape.org/namespaces/inkscape"
   xmlns:sodipodi="http://sodipodi.sourceforge.net/DTD/sodipodi-0.dtd"
   xmlns="http://www.w3.org/2000/svg"
   xmlns:svg="http://www.w3.org/2000/svg"><defs
   id="defs7" /><sodipodi:namedview
   id="namedview5"
   pagecolor="#ffffff"
   bordercolor="#666666"
   borderopacity="1.0"
   inkscape:showpageshadow="2"
   inkscape:pageopacity="0.0"
   inkscape:pagecheckerboard="0"
   inkscape:deskcolor="#d1d1d1"
   showgrid="false"
   inkscape:zoom="39.154283"
   inkscape:cx="14.698264"
   inkscape:cy="11.914405"
   inkscape:window-width="1708"
   inkscape:window-height="1388"
   inkscape:window-x="1724"
   inkscape:window-y="8"
   inkscape:window-maximized="0"
   inkscape:current-layer="Layer_1" />

		<path
   d="M 17.012768,7.5706516 C 17.01353,7.3198103 16.913061,7.1182151 16.736975,6.9421399 L 10.615118,0.82028126 C 10.251664,0.45682942 9.6719242,0.39440025 9.308471,0.75786279 L 8.7500118,1.3163215 c -0.3634544,0.363454 -0.381533,1.0237 -0.018071,1.3871539 L 12.331742,6.3032769 0.91295665,6.281507 C 0.66484689,6.281609 0.44187899,6.3678639 0.26523561,6.5443047 0.08868648,6.7208454 -0.0028354,6.9492875 -0.00292978,7.1973947 L 0,7.9842827 C -2.426105e-4,8.2322985 0.09839564,8.4647778 0.27494439,8.6413291 0.45149365,8.8178698 0.66796517,8.8964968 0.91607493,8.8964053 L 12.299079,8.8781222 8.7416501,12.435554 c -0.3635492,0.36355 -0.3627014,1.025771 6.084e-4,1.389132 l 0.5586475,0.558647 c 0.3632649,0.363265 0.960423,0.299049 1.323973,-0.06451 L 16.744945,8.1987498 C 16.920742,8.022762 17.013488,7.8207946 17.012736,7.5707102 Z"
   id="path2"
   style="fill:#a53926;fill-opacity:1;stroke-width:0.0332904"
   inkscape:label="path2" />

</svg>
