<?xml version="1.0" encoding="UTF-8" standalone="no"?>
<!-- Generator: Adobe Illustrator 19.0.0, SVG Export Plug-In . SVG Version: 6.00 Build 0)  -->

<svg
   version="1.1"
   id="Layer_1"
   x="0px"
   y="0px"
   viewBox="0 0 18.277003 14.213"
   xml:space="preserve"
   sodipodi:docname="right-arrow(list).svg"
   width="18.277"
   height="14.213"
   inkscape:version="1.2 (dc2aedaf03, 2022-05-15)"
   xmlns:inkscape="http://www.inkscape.org/namespaces/inkscape"
   xmlns:sodipodi="http://sodipodi.sourceforge.net/DTD/sodipodi-0.dtd"
   xmlns="http://www.w3.org/2000/svg"
   xmlns:svg="http://www.w3.org/2000/svg"><defs
   id="defs7" /><sodipodi:namedview
   id="namedview5"
   pagecolor="#ffffff"
   bordercolor="#666666"
   borderopacity="1.0"
   inkscape:showpageshadow="2"
   inkscape:pageopacity="0.0"
   inkscape:pagecheckerboard="0"
   inkscape:deskcolor="#d1d1d1"
   showgrid="false"
   inkscape:zoom="39.154283"
   inkscape:cx="14.698264"
   inkscape:cy="11.914405"
   inkscape:window-width="1708"
   inkscape:window-height="1388"
   inkscape:window-x="1724"
   inkscape:window-y="8"
   inkscape:window-maximized="0"
   inkscape:current-layer="Layer_1" />

		<path
   d="M 17.167389,7.0561729 C 17.168151,6.8053316 17.067682,6.6037364 16.891596,6.4276612 L 10.769739,0.30580259 C 10.406285,-0.05764925 9.8265453,-0.12007842 9.4630921,0.24338412 L 8.9046329,0.80184283 C 8.5411785,1.1652968 8.5230999,1.8255428 8.8865619,2.1889967 L 12.486363,5.7887982 1.0675777,5.7670283 C 0.81946796,5.7671303 0.59650006,5.8533852 0.41985668,6.029826 0.24330755,6.2063667 0.15178567,6.4348088 0.15169129,6.682916 l 0.00293,0.786888 C 0.15437846,7.7178198 0.25301671,7.9502991 0.42956546,8.1268504 0.60611472,8.3033911 0.82258624,8.3820181 1.070696,8.3819266 L 12.4537,8.3636435 8.8962712,11.921075 c -0.3635492,0.36355 -0.3627014,1.025771 6.084e-4,1.389132 l 0.5586475,0.558647 C 9.818792,14.232119 10.41595,14.167903 10.7795,13.804344 l 6.120066,-6.1200729 c 0.175797,-0.1759878 0.268543,-0.3779552 0.267791,-0.6280396 z"
   id="path2"
   style="fill:#a53926;fill-opacity:1;stroke-width:0.0332904"
   inkscape:label="path2" />

</svg>
