<?xml version="1.0" encoding="UTF-8" standalone="no"?>
<svg
   width="90.898514mm"
   height="90.898514mm"
   viewBox="0 0 90.898514 90.898514"
   version="1.1"
   id="svg5"
   inkscape:export-filename="ytplay.svg"
   inkscape:export-xdpi="300"
   inkscape:export-ydpi="300"
   xmlns:inkscape="http://www.inkscape.org/namespaces/inkscape"
   xmlns:sodipodi="http://sodipodi.sourceforge.net/DTD/sodipodi-0.dtd"
   xmlns="http://www.w3.org/2000/svg"
   xmlns:svg="http://www.w3.org/2000/svg">
  <defs
     id="defs2" />
  <g
     inkscape:label="Layer 1"
     inkscape:groupmode="layer"
     id="layer1"
     transform="translate(-1.0631373)">
    <path
       id="path241"
       transform="matrix(0,-0.32138075,0.32138075,0,11.079654,57.71011)"
       inkscape:transform-center-x="0.94132348"
       inkscape:transform-center-y="1.872329"
       d="m 106.74077,66.323128 -25.506365,44.178322 -39.2647,68.00846 a 7.9433773,7.9433773 -180 0 1 -13.758333,0 L 2.7050047,134.33158 -36.559696,66.323128 a 7.9433773,7.9433773 120 0 1 6.879167,-11.915066 h 51.012734 78.5294 a 7.9433773,7.9433773 60 0 1 6.879165,11.915066 z"
       style="fill:#000000;stroke-width:7.9375" />
    <path
       style="color:#000000;fill:#000000;-inkscape-stroke:none"
       d="M 46.511719,0 C 21.439501,0 1.0625,20.377001 1.0625,45.449219 c 0,25.072218 20.377001,45.449218 45.449219,45.449218 25.072218,0 45.449218,-20.377 45.449218,-45.449218 C 91.960937,20.377001 71.583937,0 46.511719,0 Z m 0,4.84375 c 22.454291,0 40.605468,18.151178 40.605468,40.605469 0,22.454291 -18.151177,40.605468 -40.605468,40.605468 C 24.057428,86.054687 5.90625,67.90351 5.90625,45.449219 5.90625,22.994928 24.057428,4.84375 46.511719,4.84375 Z"
       id="path403" />
  </g>
</svg>
