<svg id="Layer_1" data-name="Layer 1" xmlns="http://www.w3.org/2000/svg" viewBox="0 0 381 53"><defs><style>.cls-1{fill:#0071ce;}.cls-2{fill:#002856;}.cls-3{fill:#fff;}</style></defs><title>38153LBHlogo-01</title><path class="cls-1" d="M55.18,35.05c0,1.23.86,1.6,1.85,1.72a23.15,23.15,0,0,0,4.06-.06,4.38,4.38,0,0,0,3-1.66A6.86,6.86,0,0,0,65,32.83h.9c-.34,1.76-.77,3.48-1.14,5.23-2.71,0-5.42-.12-8.12-.12s-5.42.12-8.13.12v-.92h.43c1.11,0,2.31-.15,2.31-2.06V19.27c0-1.6-1.2-1.76-2.31-1.76H48.5v-.92c1.63,0,3.23.12,4.86.12s3.11-.12,4.68-.12v.92h-.77c-1.17,0-2.09,0-2.09,1.66Z"/><path class="cls-1" d="M67,37.14h.43c1.11,0,2.28-.15,2.28-1.75V19.27c0-1.6-1.17-1.76-2.28-1.76H67v-.92c1.2,0,3,.12,4.56.12s3.38-.12,4.83-.12v.92H76c-1.11,0-2.28.16-2.28,1.76V35.39c0,1.6,1.17,1.75,2.28,1.75h.43v.92c-1.48,0-3.32-.12-4.86-.12s-3.33.12-4.53.12Z"/><path class="cls-1" d="M85.45,26h4.31c1.51,0,2-.95,2-2.49h.92c-.06,1.11-.12,2.19-.12,3.29,0,1.27,0,2.5.12,3.76h-.92c0-1.73-.49-3-2.46-3H85.45v7.85c0,1.72,1.42,1.75,3,1.75h.4v.92c-1.45,0-3.54-.12-5.3-.12-1.59,0-3.47.12-4.7.12v-.92h.43c1.11,0,2.27-.15,2.27-1.75V19.27c0-1.6-1.16-1.76-2.27-1.76h-.43v-.92c1.87,0,5.07.12,7.66.12s5.78-.12,7.88-.12a43.67,43.67,0,0,0,.06,4.71l-.93.24c-.18-2.12-.67-3.6-3.1-3.6H85.45Z"/><path class="cls-1" d="M96.07,37.14h.43c1.11,0,2.28-.15,2.28-1.75V19.27c0-1.6-1.17-1.76-2.28-1.76h-.43v-.92c1.87,0,5.07.12,7.66.12s5.78-.12,7.88-.12a43.67,43.67,0,0,0,.06,4.71l-.93.24c-.15-2-.52-3.6-3.75-3.6h-4.28V26h3.66c1.85,0,2.25-1,2.44-2.7h.92q-.09,1.8-.09,3.6c0,1.17,0,2.33.09,3.5l-.92.19c-.19-1.85-.28-3.05-2.4-3.05h-3.7v7.17c0,2,1.79,2,3.76,2,3.69,0,5.32-.25,6.24-3.75l.86.21c-.4,1.63-.76,3.26-1,4.89-2,0-5.51-.12-8.28-.12s-6.43.12-8.18.12Z"/><path class="cls-1" d="M114.56,37.14H115c1.11,0,2.28-.15,2.28-1.75V19.27c0-1.6-1.17-1.76-2.28-1.76h-.43v-.92c1.35,0,3.07.12,4.8.12s3.5-.12,4.92-.12c5.17,0,7.11,2.15,7.11,4.83,0,3.14-2.89,4.49-5.6,5v.07c3.35-.1,6.86,1.78,6.86,5.5,0,3.33-3.26,6.09-7.26,6.09-1.54,0-3.48-.12-5.39-.12s-4.12.12-5.44.12ZM121.2,26h1.51c2.62,0,4.55-1.1,4.55-4,0-3.53-2.12-4.3-4.21-4.3H121.2Zm0,8.34c0,2.16.4,2.62,2.77,2.62a4.63,4.63,0,0,0,4.56-4.86c0-3.42-2.28-5-5.36-5h-2Z"/><path class="cls-1" d="M136.25,19.85c0-2.25-1.23-2.34-2.19-2.34h-.55v-.92c1,0,2.89.12,4.77.12s3.32-.12,4.95-.12c3.88,0,7.32,1.05,7.32,5.41,0,2.77-1.84,4.47-4.27,5.42l5.26,7.88a3.43,3.43,0,0,0,3,1.84v.92c-1,0-2-.12-3-.12s-1.94.12-2.89.12a86,86,0,0,1-6.4-10h-2v6.58c0,2.37,1.1,2.46,2.52,2.46h.55v.92c-1.75,0-3.54-.12-5.29-.12-1.48,0-2.92.12-4.46.12v-.92h.55c1.14,0,2.19-.52,2.19-1.66ZM140.19,27h1.5c3.08,0,4.74-1.17,4.74-4.8a4.2,4.2,0,0,0-4.49-4.49,15.48,15.48,0,0,0-1.75.12Z"/><path class="cls-1" d="M156.06,37.14h.43c1.11,0,2.28-.15,2.28-1.75V19.27c0-1.6-1.17-1.76-2.28-1.76h-.43v-.92c1.2,0,3.05.12,4.55.12s3.39-.12,4.83-.12v.92H165c-1.1,0-2.27.16-2.27,1.76V35.39c0,1.6,1.17,1.75,2.27,1.75h.43v.92c-1.47,0-3.32-.12-4.86-.12s-3.32.12-4.52.12Z"/><path class="cls-1" d="M167.38,37.14h.43c1.11,0,2.28-.15,2.28-1.75V19.27c0-1.6-1.17-1.76-2.28-1.76h-.43v-.92c.93,0,3,.12,4.93.12s3.63-.12,4.95-.12c7.57,0,12.21,4.25,12.21,10.68a10.8,10.8,0,0,1-11.41,10.79c-1.36-.06-3.51-.12-5.6-.12s-4.28.12-5.08.12ZM174,34.53c0,2.15,1,2.43,3.2,2.43,5.23,0,7.94-4.37,7.94-9.11,0-8.12-4.13-10.15-9-10.15-.71,0-1.42.09-2.09.15Z"/><path class="cls-1" d="M211,22.59c-.92-3.79-3.54-5.11-7.14-5.11-5.51,0-8.21,4.06-8.21,9.2s2.43,10.49,8.3,10.49a6.77,6.77,0,0,0,3.42-.58v-5c0-1.26-1.2-1.57-2.34-1.57h-.4v-.92c1.54.06,3.08.12,4.62.12,1.38,0,2.73-.06,4.12-.12V30H213c-1.08,0-1.66.5-1.66,1.57v4.68l.71.4v.55a30.6,30.6,0,0,1-8.59,1.33c-6.89,0-12.09-4.13-12.09-11.54,0-7.14,6.09-10.86,12.31-10.86a18.09,18.09,0,0,1,4.43.55,16.47,16.47,0,0,0,3.47.59,28.5,28.5,0,0,0,.37,5.26Z"/><path class="cls-1" d="M214.33,37.14h.43c1.11,0,2.28-.15,2.28-1.75V19.27c0-1.6-1.17-1.76-2.28-1.76h-.43v-.92c1.88,0,5.08.12,7.66.12s5.79-.12,7.88-.12c-.06,1.32,0,3.35.06,4.71l-.92.24c-.16-2-.52-3.6-3.76-3.6H221V26h3.66c1.85,0,2.24-1,2.43-2.7H228q-.09,1.8-.09,3.6c0,1.17,0,2.33.09,3.5l-.92.19c-.19-1.85-.28-3.05-2.4-3.05H221v7.17c0,2,1.78,2,3.75,2,3.69,0,5.32-.25,6.25-3.75l.86.21c-.4,1.63-.77,3.26-1.05,4.89-2,0-5.5-.12-8.27-.12s-6.43.12-8.19.12Z"/><path class="cls-1" d="M248.17,35.39c0,1.66,1.3,1.75,2.4,1.75h.59v.92c-1.36,0-3.32-.12-5-.12s-3.41.12-4.64.12v-.92H242c1.11,0,2.28-.15,2.28-1.75V19.27c0-1.6-1.17-1.76-2.28-1.76h-.43v-.92c1.23,0,3.08.12,4.64.12s3.63-.12,5-.12v.92h-.59c-1.1,0-2.4.09-2.4,1.76V26h11.17V19.27c0-1.67-1.29-1.76-2.4-1.76h-.58v-.92c1.35,0,3.32.12,5,.12s3.42-.12,4.65-.12v.92h-.43c-1.11,0-2.28.16-2.28,1.76V35.39c0,1.6,1.17,1.75,2.28,1.75H266v.92c-1.23,0-3.08-.12-4.65-.12s-3.63.12-5,.12v-.92h.58c1.11,0,2.4-.09,2.4-1.75V27.73H248.17Z"/><path class="cls-1" d="M268.54,37.14H269c1.11,0,2.28-.15,2.28-1.75V19.27c0-1.6-1.17-1.76-2.28-1.76h-.43v-.92c1.88,0,5.08.12,7.66.12s5.79-.12,7.88-.12c-.06,1.32,0,3.35.06,4.71l-.92.24c-.16-2-.53-3.6-3.76-3.6h-4.27V26h3.66c1.84,0,2.24-1,2.43-2.7h.92q-.09,1.8-.09,3.6c0,1.17,0,2.33.09,3.5l-.92.19c-.19-1.85-.28-3.05-2.4-3.05h-3.69v7.17c0,2,1.78,2,3.75,2,3.69,0,5.32-.25,6.25-3.75l.86.21c-.4,1.63-.77,3.26-1.05,4.89-2,0-5.51-.12-8.27-.12s-6.43.12-8.19.12Z"/><path class="cls-1" d="M292.2,33.67a12.22,12.22,0,0,0-.68,2.39c0,.93,1.3,1.08,2.31,1.08h.34v.92c-1.23-.06-2.49-.12-3.72-.12s-2.22.06-3.33.12v-.92h.19a2.81,2.81,0,0,0,2.68-2L294.91,21a26.36,26.36,0,0,0,1.14-3.82,15.71,15.71,0,0,0,2.8-1.32.71.71,0,0,1,.24-.06c.09,0,.16,0,.22.09.09.25.18.53.27.77l5.67,16.09c.36,1.08.73,2.22,1.13,3.14a2,2,0,0,0,2,1.23h.19v.92c-1.39-.06-2.77-.12-4.25-.12s-3,.06-4.61.12v-.92h.34c.7,0,1.9-.12,1.9-.89a9.86,9.86,0,0,0-.61-2.22l-1.2-3.56h-7ZM296.69,20h-.06l-2.86,8.7h5.75Z"/><path class="cls-1" d="M317.27,35.05c0,1.23.87,1.6,1.85,1.72a23.14,23.14,0,0,0,4.06-.06,4.42,4.42,0,0,0,3-1.66,7.09,7.09,0,0,0,.95-2.22H328c-.34,1.76-.77,3.48-1.14,5.23-2.7,0-5.41-.12-8.12-.12s-5.42.12-8.12.12v-.92H311c1.11,0,2.31-.15,2.31-2.06V19.27c0-1.6-1.2-1.76-2.31-1.76h-.43v-.92c1.63,0,3.23.12,4.86.12s3.11-.12,4.68-.12v.92h-.77c-1.17,0-2.1,0-2.1,1.66Z"/><path class="cls-1" d="M330.72,18.13c-2.31,0-2.4.55-2.86,2.8h-.93c.13-.86.28-1.73.37-2.62a17.34,17.34,0,0,0,.19-2.61h.74c.24.92,1,.89,1.84.89H346c.83,0,1.6,0,1.66-.95l.74.12c-.13.83-.25,1.66-.34,2.49s-.06,1.66-.06,2.49l-.93.34c-.06-1.14-.21-2.95-2.27-2.95H339.7V34.5c0,2.36,1.08,2.64,2.56,2.64h.58v.92c-1.2,0-3.35-.12-5-.12-1.84,0-4,.12-5.19.12v-.92h.58c1.69,0,2.55-.15,2.55-2.58V18.13Z"/><path class="cls-1" d="M356.75,35.39c0,1.66,1.29,1.75,2.4,1.75h.58v.92c-1.35,0-3.32-.12-5-.12s-3.42.12-4.65.12v-.92h.43c1.11,0,2.28-.15,2.28-1.75V19.27c0-1.6-1.17-1.76-2.28-1.76h-.43v-.92c1.23,0,3.08.12,4.65.12s3.63-.12,5-.12v.92h-.58c-1.11,0-2.4.09-2.4,1.76V26h11.16V19.27c0-1.67-1.29-1.76-2.4-1.76h-.58v-.92c1.35,0,3.32.12,5,.12s3.42-.12,4.65-.12v.92h-.43c-1.11,0-2.28.16-2.28,1.76V35.39c0,1.6,1.17,1.75,2.28,1.75h.43v.92c-1.23,0-3.08-.12-4.65-.12s-3.63.12-5,.12v-.92h.58c1.11,0,2.4-.09,2.4-1.75V27.73H356.75Z"/><path class="cls-1" d="M378,33.27a2.45,2.45,0,1,1-2.45,2.45A2.4,2.4,0,0,1,378,33.27Zm0,4.44a2,2,0,1,0-1.94-2A2,2,0,0,0,378,37.71ZM376.77,37v-.13c.3,0,.36,0,.36-.22V34.86c0-.25,0-.34-.34-.33v-.12H378c.43,0,.82.2.82.65a.78.78,0,0,1-.57.74l.4.56a2.51,2.51,0,0,0,.54.57V37h-.48c-.23,0-.43-.49-.88-1.13h-.27v.81c0,.16,0,.15.36.19V37Zm.83-1.3h.29c.32,0,.46-.24.46-.62s-.23-.53-.47-.53h-.28Z"/><path class="cls-2" d="M2.2,30.93v.22a6.91,6.91,0,0,0,6.91,6.91H38.8V28.65a27.65,27.65,0,0,0-17.06-5.79A27,27,0,0,0,2.2,30.93Z"/><path class="cls-1" d="M38.8,26.75V16.59H2.2v9.63a31.42,31.42,0,0,1,17.86-5.45A31,31,0,0,1,38.8,26.75Z"/><path class="cls-3" d="M20.06,20.77A31.42,31.42,0,0,0,2.2,26.22v4.71a27,27,0,0,1,19.54-8.07A27.65,27.65,0,0,1,38.8,28.65v-1.9A31,31,0,0,0,20.06,20.77Z"/></svg>