<?xml version="1.0" encoding="utf-8"?>
<!-- Generator: Adobe Illustrator 25.2.0, SVG Export Plug-In . SVG Version: 6.00 Build 0)  -->
<svg version="1.1" id="Layer_1" xmlns="http://www.w3.org/2000/svg" xmlns:xlink="http://www.w3.org/1999/xlink" x="0px" y="0px"
	 viewBox="0 0 501 252" style="enable-background:new 0 0 501 252;" xml:space="preserve">
<style type="text/css">
	.st0{fill:#FFFFFF;}
	.st1{enable-background:new    ;}
	.st2{fill:#C0DC62;}
</style>
<g id="Layer_2_1_">
	<g id="Layer_1-2">
		<circle class="st0" cx="258.1" cy="78.4" r="78.4"/>
		<g class="st1">
			<path class="st2" d="M225.5,63.1c3.9,0,5.8,1.9,5.8,5.6c0,1.9-0.5,3.5-1.6,4.8c-1.8,2.7-4.7,5-8.8,7c-4,2-7.5,3.1-10.3,3.3
				c-1,0.1-1.5-0.2-1.6-0.9c-0.1-0.3,0-0.5,0.3-0.5c0.3-0.1,0.4-0.1,0.6-0.1c1.7-0.1,3.8-0.9,6.4-2.4c4.8-2.6,8.4-5.3,10.6-8
				c0.9-1.3,1.4-2.5,1.4-3.7s-0.6-1.8-1.7-1.8c-0.9,0-2.2,0.4-3.8,1.2c-3.4,1.6-7,4.3-10.7,8.3c-3.7,3.9-6.2,7.8-7.3,11.5
				c-0.4,1.2-0.5,2.3-0.5,3.4c0,1.1,0.5,2.2,1.4,3.2c0.9,1,2.4,1.5,4.3,1.5c2.2,0,4.6-0.6,7.5-1.7c8.1-3.3,14.4-8.3,18.8-15
				c0.4-0.6,0.8-0.7,1.2-0.3c0.3,0.1,0.4,0.3,0.4,0.5c0,0.2-0.1,0.5-0.3,0.8c-2.2,3.6-4.9,6.8-8.2,9.6c-6.4,5.5-12.6,8.2-18.7,8.2
				c-5.2,0-8.8-1.5-10.9-4.6c-0.8-1.2-1.2-2.7-1.2-4.4c0-1.7,0.5-3.8,1.4-6.2c1.8-4.1,5.7-8.3,11.6-12.6
				C217.4,65.2,222.1,63.1,225.5,63.1z"/>
			<path class="st2" d="M272.1,31.3c1.3-0.5,2.4-0.8,3.3-0.8c3.2,0,5.3,0.9,6.3,2.6c0.6,0.9,0.9,1.6,0.9,2.3
				c0,4.9-4.1,11.1-12.3,18.5c-7.3,6.4-14,11.9-20.1,16.5c-2,4.5-4.1,10.1-6.3,16.7c2.6-3.2,5.9-6.8,9.8-11
				c8-8.3,13.6-12.4,16.7-12.4c1.6,0,2.4,0.8,2.5,2.4c0.1,1.7-0.2,3.2-1,4.8c-0.8,1.5-1.6,2.9-2.3,4.2c-3.4,5.6-5.1,10.6-5.1,15
				c0,1.4,0.3,2.5,0.9,3.1c1,1.2,2.4,1.2,4.3,0.2c1.9-1,4.5-3,7.8-6c3.3-3,6.1-6,8.2-8.9c0.4-0.4,0.7-0.4,1-0.3
				c0.3,0.2,0.5,0.4,0.5,0.5c0,0.2-0.1,0.4-0.2,0.6c-1.1,1.9-3,4.4-5.8,7.4c-2.8,3-5.1,5.1-6.8,6.4c-3.3,2.5-6.5,3.8-9.5,3.8
				c-2.7,0-4.6-1.4-5.5-4.1c-0.2-0.6-0.3-1.4-0.3-2.3c0-0.9,0.1-1.9,0.2-2.9c0.4-3,2.3-7.7,5.7-14.2c0.7-1.3,1.1-2.2,1.1-2.8
				s-0.3-0.8-0.9-0.8c-1.2,0-3.4,1.4-6.7,4.3c-2.2,2.1-5.5,6-9.9,11.8c-4.4,5.8-6.8,8.9-7.4,9.2c-2.6,1.3-4.2,1.9-4.8,1.9
				c-0.6,0-1-0.1-1-0.3c-0.1-0.2,0-0.4,0.1-0.7c0.1-0.3,0.7-1.9,1.7-4.8c3.4-9.6,5.7-15.9,6.9-19c-2.4,3-5.3,6.4-8.9,10.3
				c-0.6,0.6-0.9,0.5-0.9-0.4c0-0.8,0.3-1.7,1-2.5c0.6-0.9,2-2.5,4.1-5c2.1-2.5,3.5-4.3,4.4-5.6c-0.6-0.4-1-0.9-1-1.5
				c0-0.6,0.2-1.1,0.6-1.4c0.5-0.3,1.2-0.2,2.3,0.3c0.7-1,1.4-2.1,1.9-3.3C256.2,45,264.4,34.3,272.1,31.3z M278.1,39.4
				c0.9-1.7,1.4-3.2,1.4-4.4s-0.5-1.8-1.6-1.8c-1,0-2.4,0.6-4.2,1.9c-7.9,6-15.1,16.2-21.5,30.4c4.7-3,9.6-7.1,14.7-12.1
				C272.1,48.4,275.8,43.7,278.1,39.4z"/>
			<path class="st2" d="M318.2,72c0,3.2-1.3,6.4-3.9,9.7c-2.6,3.3-5.7,6.1-9.2,8.6c-3.2,2.1-6.5,3.7-9.9,4.9s-5.9,1.7-7.6,1.7
				c-1.7,0-3.1-0.2-4.2-0.5c-1.6,3.7-3.8,9.8-6.6,18.5c-0.3,0.9-0.4,2.1-0.5,3.5c0,1.4-0.5,3.3-1.3,5.7c-0.8,2.4-1.6,4.3-2.4,5.8
				c-0.4,0.9-1.4,1.6-3.1,2.1s-3,0.8-3.7,0.8c-0.7,0-1.1-0.4-1.1-1.1c0-0.3,0.1-0.7,0.3-1.2c3.3-6.8,7.5-16.7,12.5-29.9
				c5-13.1,7.8-20.4,8.3-21.9c0.5-1.4,1.2-3.5,2.2-6.3c1.6-4.6,2.4-8.1,2.6-10.4c0-0.9,1.2-1.3,3.5-1.3c2.3,0,3.5,0.8,3.5,2.5
				c0,1.2-0.7,2.9-2.1,5.1c-1.4,2.2-3.5,6.6-6.2,13.1c4.2-6.3,7.6-10.5,10.2-12.4c3.5-2.8,6.8-4.2,10-4.2c1.3,0,2.6,0.2,3.9,0.6
				c2.8,1,4.4,2.6,4.6,4.9C318.2,71,318.2,71.5,318.2,72z M312.9,70.5c0-2.5-1-3.8-2.9-3.8c-1.2,0-3,0.7-5.6,2.1
				c-2.6,1.4-5.2,3.4-7.8,6.2c-2.6,2.7-4.6,5.3-6,7.7c-1.4,2.4-2.7,4.9-3.9,7.5c-1.2,2.6-1.9,4.1-2.2,4.5c4.4,0,9.2-1.9,14.5-5.7
				c5.3-3.8,9.2-8,11.8-12.4C312.2,74.2,312.9,72.2,312.9,70.5z"/>
		</g>
		<path class="st0" d="M19.7,203.4H0v-29.7h19.3v3H3.7V187H18v3H3.7v10.3h16V203.4z"/>
		<path class="st0" d="M50.8,190.8l-8.4,12.6h-4.3l10.6-15l-9.8-14.7h4.2l7.9,12.1l8.2-12.1h4.2l-10.3,14.6l10.8,15.1h-4.3
			L50.8,190.8z"/>
		<path class="st0" d="M108.2,183.2v0.4h-3.7l-0.1-0.4c-0.9-4.3-3.5-7.1-8.4-7.1c-6.1,0-9.8,5.3-9.8,12.5s3.7,12.6,9.6,12.6
			c5,0,7.6-2.9,8.4-7.1l0.1-0.4h3.7v0.4c-0.6,5.4-4.6,10.1-12.4,10.1c-8.7,0-13.5-6.6-13.5-15.3c0-9,5.6-15.6,14-15.6
			C103.6,173.1,107.6,177.4,108.2,183.2z"/>
		<path class="st0" d="M130.6,203.4v-29.7h3.7v29.7H130.6z"/>
		<path class="st0" d="M169.5,176.7v26.7h-3.7v-26.7h-10.6v-3H180v3H169.5z"/>
		<path class="st0" d="M220.2,203.4h-19.7v-29.7h19.3v3h-15.6V187h14.3v3h-14.3v10.3h16L220.2,203.4z"/>
		<path class="st0" d="M291,203.4h-3.7v-13h-16.3v13h-3.7v-29.7h3.7v13.6h16.3v-13.6h3.7V203.4z"/>
		<path class="st0" d="M334.5,203.4h-19.7v-29.7h19.3v3h-15.6V187h14.3v3h-14.3v10.3h16L334.5,203.4z"/>
		<path class="st0" d="M360.5,192.9l-3.5,10.5h-4l10.7-29.7h5l10.2,29.7h-4l-3.5-10.5H360.5z M370.4,189.9l-4.3-13.2l-4.6,13.2
			H370.4z"/>
		<path class="st0" d="M419.5,203.4h-19.8v-29.7h3.7v26.7h16L419.5,203.4z"/>
		<path class="st0" d="M446.2,176.7v26.7h-3.7v-26.7H432v-3h24.9v3H446.2z"/>
		<path class="st0" d="M501,203.4h-3.7v-13H481v13h-3.7v-29.7h3.7v13.6h16.3v-13.6h3.7V203.4z"/>
		<path class="st0" d="M112.3,230.5c0,5-3.4,8-7.7,8.6c-1.3,0.1-2.6,0.2-3.9,0.2h-5.5v12.1h-3.7v-29.7h9.2c1.3,0,2.6,0,3.9,0.2
			C109.4,222.5,112.3,225.5,112.3,230.5z M108.3,230.5c0-3.4-1.8-5-4-5.5c-1.1-0.2-2.2-0.2-3.3-0.2h-5.8v11.4h5.8
			c1.1,0,2.2,0,3.3-0.2C106.5,235.5,108.4,233.9,108.3,230.5L108.3,230.5z"/>
		<path class="st0" d="M136.4,240.9l-3.5,10.5H129l10.7-29.7h5l10.2,29.7h-4l-3.5-10.5H136.4z M146.3,237.9l-4.3-13.2l-4.6,13.2
			H146.3z"/>
		<path class="st0" d="M197.1,251.4H193c-0.9-2.4-1.5-4.9-1.6-7.4c-0.4-3.1-1.5-5.1-4.4-5.3c-0.7,0-1.4,0-2.1,0h-5.6v12.8h-3.7
			v-29.7h9.7c1.3,0,2.6,0,3.9,0.2c4.3,0.6,7.4,2.9,7.4,7.9c0.1,3.3-2.1,6.2-5.3,7c2.4,1.1,3.6,3.8,3.8,6.8
			C195.5,247.5,195.9,249.8,197.1,251.4z M185,235.6c1,0,1.9,0,2.9-0.1c2.8-0.1,4.9-2.5,4.8-5.2c0-0.1,0-0.1,0-0.2
			c0-3.3-1.6-4.8-4.3-5.2c-1-0.1-2-0.2-3-0.2h-6v10.9H185z"/>
		<path class="st0" d="M229.8,224.7v26.7h-3.7v-26.7h-10.6v-3h24.9v3H229.8z"/>
		<path class="st0" d="M278.4,251.4l-14-26.1c0.1,3.5,0.1,7.7,0.1,11.2v14.8h-3.7v-29.7h5.7l14,26.1c-0.1-3.5-0.1-7.7-0.1-11.2
			v-14.8h3.6l0.1,29.7H278.4z"/>
		<path class="st0" d="M327.6,251.4h-19.7v-29.7h19.3v3h-15.6V235h14.3v3h-14.3v10.3h16L327.6,251.4z"/>
		<path class="st0" d="M370.7,251.4h-4.1c-0.9-2.4-1.5-4.9-1.6-7.4c-0.3-3.1-1.5-5.1-4.4-5.3c-0.7,0-1.4,0-2.1,0h-5.6v12.8h-3.7
			v-29.7h9.7c1.3,0,2.6,0,3.9,0.2c4.3,0.6,7.4,2.9,7.4,7.9c0.1,3.3-2.1,6.2-5.3,7c2.4,1.1,3.6,3.8,3.8,6.8
			C369.1,247.5,369.5,249.8,370.7,251.4z M358.6,235.6c1,0,1.9,0,2.9-0.1c2.8-0.1,4.9-2.5,4.8-5.2c0-0.1,0-0.1,0-0.2
			c0-3.3-1.6-4.8-4.3-5.2c-1-0.1-2-0.2-3-0.2h-6v10.9H358.6z"/>
		<path class="st0" d="M411.1,229.9h-4c-0.3-3.7-2.5-5.9-6.3-5.9c-3.1,0-5.6,1.5-5.6,4.6s1.9,4.6,6.4,5.6c6.5,1.5,9.8,4.2,9.8,9.2
			c0,5.2-4.5,8.6-10.2,8.6c-6.5,0-10.7-3.3-11.3-9h4c0.9,3.9,3.6,6.1,7.4,6.1c3.4,0,6.1-1.8,6.1-4.9c0-3.6-2.1-5.2-7.3-6.4
			s-8.9-3.3-8.9-8.2c0-5.1,4.4-8.4,9.9-8.4C407.3,221.1,410.5,224.9,411.1,229.9z"/>
	</g>
</g>
</svg>
