<?xml version="1.0" encoding="UTF-8" standalone="no"?><!DOCTYPE svg PUBLIC "-//W3C//DTD SVG 1.1//EN" "http://www.w3.org/Graphics/SVG/1.1/DTD/svg11.dtd"><svg width="100%" height="100%" viewBox="0 0 268 298" version="1.1" xmlns="http://www.w3.org/2000/svg" xmlns:xlink="http://www.w3.org/1999/xlink" xml:space="preserve" xmlns:serif="http://www.serif.com/" style="fill-rule:evenodd;clip-rule:evenodd;stroke-linecap:round;stroke-linejoin:round;stroke-miterlimit:1.5;"><rect id="Artboard2" x="-0" y="0" width="267.957" height="297.818" style="fill:none;"/><path d="M80.718,141.026c0.758,-11.126 20.682,-18.845 44.465,-17.226c23.783,1.62 42.477,11.968 41.72,23.095c-0.758,11.126 -20.682,18.845 -44.465,17.226c-23.783,-1.62 -42.477,-11.968 -41.72,-23.095Z" style="fill:none;stroke:#000;stroke-width:4.17px;"/><path d="M80.718,151.428c0.06,-0.874 0.457,-6.706 0.457,-6.706c-0,0 -0.209,1.695 0.592,1.505c0.826,-0.196 2.679,-2.29 3.721,-3.181c7.395,-6.323 22.542,-10.012 39.695,-8.844c15.449,1.052 28.75,5.786 35.968,12.025c1.117,0.966 4.279,5.531 5.379,4.65c0.771,-0.617 -0.011,-6.901 0.395,-6.155c1.033,1.901 0.114,10.577 -0.022,12.574c-0.758,11.127 -20.682,18.845 -44.465,17.226c-23.783,-1.619 -42.477,-11.968 -41.72,-23.094Z" style="fill:none;stroke:#000;stroke-width:4.17px;"/><path d="M166.989,152.924c0,-0 -0.261,-1.788 1.421,-2.235c5.154,-1.37 18.52,-2.527 32.317,-1.295c13.596,1.215 25.956,2.345 30.866,5.096c1.699,0.952 1.795,3.437 1.712,4.358c-0.084,0.945 -1.695,3.594 -3.624,4.238c-5.387,1.799 -16.639,0.495 -30.114,-0.708c-13.837,-1.237 -26.686,-4.947 -31.49,-7.201c-1.549,-0.727 -1.088,-2.253 -1.088,-2.253Z" style="fill:none;stroke:#000;stroke-width:4.17px;"/><g id="sights"><path d="M72.143,212.347l18.736,-32.417" style="fill:none;stroke:#000;stroke-width:4.17px;"/><path d="M181.815,212.347l-18.293,-32.417" style="fill:none;stroke:#000;stroke-width:4.17px;"/><path d="M79.391,101.025l10.978,14.546" style="fill:none;stroke:#000;stroke-width:4.17px;"/><path d="M163.522,120.42l13.351,-18.119" style="fill:none;stroke:#000;stroke-width:4.17px;"/></g><g id="Findings"><path d="M166.011,36.583c-1.17,-1.326 -3.05,-1.768 -4.689,-1.104c-1.638,0.664 -2.68,2.29 -2.597,4.057c0.009,0.188 0.014,0.377 0.014,0.566c-0,0 -0,18.25 -0,18.25c-0,6.592 -5.352,11.944 -11.944,11.944c0,-0 -62.709,-0 -62.709,-0c-0.19,-0 -0.378,-0.005 -0.566,-0.014c-1.767,-0.083 -3.393,0.959 -4.057,2.597c-0.665,1.639 -0.222,3.519 1.104,4.689c2.841,2.508 6.572,4.031 10.656,4.031c-0,-0 62.709,-0 62.709,-0c8.891,-0 16.11,-7.219 16.11,-16.11l-0,-18.25c-0,-4.084 -1.523,-7.815 -4.031,-10.656Zm-3.124,2.758c0.012,0.252 0.018,0.506 0.018,0.761c0,0 0,18.25 0,18.25c0,8.892 -7.218,16.11 -16.11,16.11c0,0 -62.709,0 -62.709,0c-0.255,0 -0.509,-0.006 -0.762,-0.018c2.106,1.86 4.872,2.988 7.899,2.988l62.709,0c6.591,0 11.943,-5.352 11.943,-11.943l0,-18.25c0,-3.027 -1.128,-5.792 -2.988,-7.898Z"/><path d="M173.854,44.426c-1.17,-1.326 -3.05,-1.768 -4.689,-1.104c-1.639,0.664 -2.68,2.29 -2.597,4.057c0.009,0.188 0.013,0.376 0.013,0.566c0,0 0,18.25 0,18.25c0,6.592 -5.351,11.943 -11.943,11.943c0,0 -62.709,0 -62.709,0c-0.19,0 -0.379,-0.004 -0.567,-0.013c-1.766,-0.083 -3.392,0.958 -4.056,2.597c-0.665,1.639 -0.222,3.519 1.104,4.689c2.841,2.508 6.572,4.031 10.655,4.031c0,-0 62.71,-0 62.71,-0c8.891,-0 16.11,-7.219 16.11,-16.11l-0,-18.25c-0,-4.084 -1.523,-7.815 -4.031,-10.656Zm-3.124,2.757c0.012,0.253 0.018,0.507 0.018,0.762c0,0 0,18.25 0,18.25c0,8.891 -7.219,16.11 -16.11,16.11c0,0 -62.709,0 -62.709,0c-0.255,0 -0.509,-0.006 -0.762,-0.018c2.106,1.859 4.872,2.988 7.898,2.988l62.71,-0c6.591,-0 11.943,-5.352 11.943,-11.943l-0,-18.25c-0,-3.027 -1.129,-5.793 -2.988,-7.899Z"/><path d="M162.905,40.102c0,-8.891 -7.218,-16.11 -16.11,-16.11l-62.709,0c-8.891,0 -16.11,7.219 -16.11,16.11l0,18.25c0,8.892 7.219,16.11 16.11,16.11l62.709,0c8.892,0 16.11,-7.218 16.11,-16.11c0,0 0,-18.25 0,-18.25Zm-4.166,0c-0,-6.591 -5.352,-11.943 -11.944,-11.943l-62.709,0c-6.592,0 -11.943,5.352 -11.943,11.943l-0,18.25c-0,6.592 5.351,11.944 11.943,11.944l62.709,-0c6.592,-0 11.944,-5.352 11.944,-11.944l-0,-18.25Z"/><g><path d="M115.441,36.852l-0,13.277" style="fill:none;stroke:#000;stroke-width:4.17px;"/><ellipse cx="115.441" cy="60.328" rx="1.152" ry="1.275" style="fill:none;stroke:#000;stroke-width:4.17px;"/></g></g><g id="paper"><path d="M216.744,267.267c0,-0 -138.947,0.145 -167.991,-0c-2.107,-0.011 -6.585,-1.608 -6.585,-1.608c-0,0 2.395,-1.931 4.821,-5.051c4.814,-6.187 19.225,-34.719 19.225,-34.719l100.089,-0c16.176,-0 25.75,-2.309 25.75,-2.309c-0,0 0.663,6.263 2.224,8.8c4.301,6.992 22.467,34.887 22.467,34.887Z" style="fill:none;stroke:#000;stroke-width:4.17px;"/><path d="M73.849,257.78l10.373,-24.649" style="fill:none;stroke:#000;stroke-width:4.17px;"/><path d="M183.256,257.78l-10.373,-24.649" style="fill:none;stroke:#000;stroke-width:4.17px;"/><path d="M162.805,257.78l-6.315,-24.649" style="fill:none;stroke:#000;stroke-width:4.17px;"/><path d="M92.7,257.78l6.315,-24.649" style="fill:none;stroke:#000;stroke-width:4.17px;"/><path d="M110.3,257.78l3.802,-24.649" style="fill:none;stroke:#000;stroke-width:4.17px;"/><path d="M144.072,257.78l-1.794,-24.649" style="fill:none;stroke:#000;stroke-width:4.17px;"/><path d="M128.563,257.78l-0,-24.649" style="fill:none;stroke:#000;stroke-width:4.17px;"/></g></svg>