<?xml version="1.0" encoding="UTF-8" standalone="no"?><!DOCTYPE svg PUBLIC "-//W3C//DTD SVG 1.1//EN" "http://www.w3.org/Graphics/SVG/1.1/DTD/svg11.dtd"><svg width="100%" height="100%" viewBox="0 0 3630 3750" version="1.1" xmlns="http://www.w3.org/2000/svg" xmlns:xlink="http://www.w3.org/1999/xlink" xml:space="preserve" xmlns:serif="http://www.serif.com/" style="fill-rule:evenodd;clip-rule:evenodd;stroke-miterlimit:10;"><rect id="Artboard1" x="0" y="0" width="3625.7" height="3750" style="fill:none;"/><g id="Main-Logo" serif:id="Main Logo"><g><g id="Central-Logo" serif:id="Central Logo"><path d="M2170.68,2048.93c50.963,28.613 89.055,63.15 115.13,102.263c-63.659,66.367 -102.771,106.833 -178.959,153.392c-40.462,-38.263 -76.016,-82.621 -89.562,-115.13c84.146,-31.32 122.916,-63.491 153.391,-140.525Z" style="fill:#9a2a24;"/><path d="M2311.38,2151.2l38.263,-0c12.866,12.867 25.566,25.562 38.262,38.262c-4.233,4.234 -8.466,8.467 -12.696,12.867c-72.466,72.462 -144.929,144.929 -217.391,217.392l-12.867,-0c-12.529,-38.771 -25.058,-38.263 -38.262,-76.696c68.229,-64 136.458,-127.996 204.691,-191.825Z" style="fill:#9a2a24;"/><path d="M2388.08,2215.03l38.433,0c123.084,97.858 362.655,327.438 485.742,460.175c71.617,77.204 312.371,354.867 370.783,447.479c3.384,27.092 -227.887,250.575 -255.654,230.088c-70.941,-59.088 -344.541,-291.717 -498.612,-460.175c-63.321,-69.246 -358.592,-417.513 -357.913,-473.046c72.292,-68.058 144.759,-136.292 217.221,-204.521Z" style="fill:#9a2a24;"/><path d="M3282.86,3161.11c80.591,43.341 89.395,108.016 89.562,178.958c-16.421,38.262 -67.892,111.233 -153.392,115.129c-58.75,-9.313 -104.462,-25.396 -153.391,-89.563c69.245,-44.866 171.846,-135.445 217.221,-204.524Z" style="fill:#9a2a24;"/><path d="M764.588,1333.1c72.462,0 187.42,0.509 204.52,0c16.934,-0.679 26.755,-17.441 26.075,-32.508c0.171,-32.675 -0.337,-41.988 -0.508,-95.321c0.171,-25.567 -25.396,-25.567 -25.396,-25.567l-204.691,0l-0,-114.958c-0,-0 156.1,-2.029 294.087,-0c18.792,2.542 41.65,13.712 51.129,25.567c8.129,9.987 23.704,29.629 25.567,51.129c1.862,21.504 -0,137.987 -0,217.391c-0,19.638 -14.9,39.109 -25.567,51.13c-13.883,15.745 -36.4,25.229 -51.129,25.566c-61.458,1.354 -127.829,0 -127.829,0c-0,0 149.162,149.159 217.392,217.392l-166.259,-0l-217.391,-217.392c-0,-0.337 -0.68,-70.941 -0,-102.429Z" style="fill:#9a2a24;"/><path d="M1838.33,1652.58l0,-409.045l-255.654,191.658l-255.654,-191.658l0,409.045l-127.825,0l0,-588l114.958,0l268.521,204.521l255.654,-204.521l127.829,0l0,588l-127.829,0Z" style="fill:#9a2a24;"/><g id="Magnifying_Glass_Lens"><ellipse cx="1409.82" cy="1313.29" rx="1049.7" ry="991.292" style="fill:none;stroke:#9a2a24;stroke-width:16.92px;"/><path d="M2089.42,2128.85c93.116,-72.971 95.658,-227.379 37.587,-238.383c-70.433,-13.375 -89.396,66.537 -141.883,112.25c-52.483,45.712 -83.129,12.529 -129.35,87.533c-33.013,53.671 115.975,130.875 233.646,38.6Z" style="fill:#9a2a24;"/><ellipse cx="1354.12" cy="1256.75" rx="1049.7" ry="991.292" style="fill:none;stroke:#9a2a24;stroke-width:16.92px;"/><ellipse cx="1461.12" cy="1256.75" rx="1049.7" ry="991.292" style="fill:none;stroke:#9a2a24;stroke-width:16.92px;"/><ellipse cx="1331.26" cy="1339.03" rx="1049.7" ry="991.292" style="fill:none;stroke:#9a2a24;stroke-width:16.92px;"/></g><path d="M1429.29,463.708c425.129,40.638 485.741,191.825 485.741,191.825c0,0 -316.775,-154.066 -600.871,-89.562c-194.871,44.358 -253.283,81.608 -319.65,127.829c-13.037,9.142 -97.016,-77.037 -89.566,-89.567c7.621,-12.358 253.625,-166.429 524.346,-140.525Z" style="fill:#9a2a24;"/><path d="M790.154,693.8l38.263,0c23.533,35.721 40.633,36.063 51.129,89.563c-415.817,400.92 -255.654,882.091 -255.654,882.091c-0,0 -54.346,-32.846 -89.563,-217.391c-66.366,-348.605 91.933,-570.567 255.825,-754.263Z" style="fill:#9a2a24;"/><path d="M2157.99,987.883c103.954,111.405 91.762,434.105 38.262,588.005c-104.125,299.845 -292.054,497.258 -600.871,588.004c-262.766,77.375 -624.408,-30.134 -728.7,-166.259l25.567,0c144.25,118.009 476.258,119.871 664.7,51.13c463.054,-168.63 649.8,-461.021 601.042,-1060.88Z" style="fill:#9a2a24;"/></g></g></g></svg>