<?xml version="1.0" encoding="UTF-8" standalone="no"?><!DOCTYPE svg PUBLIC "-//W3C//DTD SVG 1.1//EN" "http://www.w3.org/Graphics/SVG/1.1/DTD/svg11.dtd"><svg width="100%" height="100%" viewBox="0 0 268 298" version="1.1" xmlns="http://www.w3.org/2000/svg" xmlns:xlink="http://www.w3.org/1999/xlink" xml:space="preserve" xmlns:serif="http://www.serif.com/" style="fill-rule:evenodd;clip-rule:evenodd;stroke-linecap:round;stroke-linejoin:round;stroke-miterlimit:1.5;"><rect id="Artboard1" x="-0" y="0" width="267.957" height="297.818" style="fill:none;"/><g id="Hospital"><clipPath id="_clip1"><path d="M24.207,15.248l0,138.765l66.753,0c0,0 0,-46.055 0,-60.545c0,-6.286 1.522,-11.135 5.018,-14.036c3.998,-3.318 21.547,-5.985 21.547,-5.985l-0,-58.199l-93.318,-0Z"/></clipPath><g clip-path="url(#_clip1)"><path d="M46.584,39.289l0,4.167l-15.541,0c-0,0 -0,104.286 -0,104.286l61.165,-0l-0,0.409c-0,1.656 0.965,3.085 2.363,3.758l-65.612,-0c-1.15,-0 -2.083,-0.933 -2.083,-2.084l0,-108.452c0,-1.151 0.933,-2.084 2.083,-2.084l17.625,0Zm47.646,0l16.337,0c1.15,0 2.083,0.933 2.083,2.084l0,25.148l-4.167,0l0,-23.065l-14.253,0l-0,-4.167Z"/><path d="M81.046,26.348l-0,-6.934c-0,-2.301 -1.866,-4.166 -4.167,-4.166l-12.944,-0c-2.302,-0 -4.167,1.865 -4.167,4.166l-0,6.934c0,0 -6.934,0 -6.934,0c-2.301,0 -4.167,1.866 -4.167,4.167l0,12.944c0,2.301 1.866,4.167 4.167,4.167l6.934,-0c-0,-0 -0,6.934 -0,6.934c-0,2.301 1.865,4.166 4.167,4.166l12.944,0c2.301,0 4.167,-1.865 4.167,-4.166l-0,-6.934c-0,-0 6.934,-0 6.934,-0c2.301,-0 4.166,-1.866 4.166,-4.167l0,-12.944c0,-2.301 -1.865,-4.167 -4.166,-4.167l-6.934,0Zm-4.167,4.167l0,-11.101l-12.944,0l-0,11.101l-11.101,-0l0,12.944l11.101,0l-0,11.101l12.944,-0l0,-11.101l11.101,0l-0,-12.944l-11.101,-0Z"/><path d="M29.734,40.83l9.564,-7.224l6.227,-0" style="fill:none;stroke:#000;stroke-width:4.17px;"/><path d="M95.684,33.606l8.756,-0l5.527,7.224" style="fill:none;stroke:#000;stroke-width:4.17px;"/><g id="windows"><path d="M56.47,66.656c-0,-1.151 -0.933,-2.084 -2.084,-2.084l-15.058,0c-1.151,0 -2.083,0.933 -2.083,2.084l-0,8.767c-0,1.15 0.932,2.083 2.083,2.083l15.058,-0c1.151,-0 2.084,-0.933 2.084,-2.083l-0,-8.767Zm-4.167,2.083l-0,4.6c-0,0 -10.892,0 -10.892,0c0,0 0,-4.6 0,-4.6l10.892,-0Z"/><path d="M79.375,66.656c0,-1.151 -0.932,-2.084 -2.083,-2.084l-15.058,0c-1.151,0 -2.083,0.933 -2.083,2.084l-0,8.767c-0,1.15 0.932,2.083 2.083,2.083l15.058,-0c1.151,-0 2.083,-0.933 2.083,-2.083l0,-8.767Zm-4.166,2.083l-0,4.6c-0,0 -10.892,0 -10.892,0c0,0 0,-4.6 0,-4.6l10.892,-0Z"/><path d="M102.601,66.656c-0,-1.151 -0.933,-2.084 -2.084,-2.084l-15.058,0c-1.15,0 -2.083,0.933 -2.083,2.084l-0,8.767c-0,1.15 0.933,2.083 2.083,2.083l15.058,-0c1.151,-0 2.084,-0.933 2.084,-2.083l-0,-8.767Zm-4.167,2.083l-0,4.6c-0,0 -10.892,0 -10.892,0c0,0 0,-4.6 0,-4.6l10.892,-0Z"/><path d="M56.47,86.785c-0,-1.151 -0.933,-2.084 -2.084,-2.084l-15.058,0c-1.151,0 -2.083,0.933 -2.083,2.084l-0,8.767c-0,1.15 0.932,2.083 2.083,2.083l15.058,-0c1.151,-0 2.084,-0.933 2.084,-2.083l-0,-8.767Zm-4.167,2.083l-0,4.6c-0,0 -10.892,0 -10.892,0c0,0 0,-4.6 0,-4.6l10.892,-0Z"/><path d="M79.375,86.785c0,-1.151 -0.932,-2.084 -2.083,-2.084l-15.058,0c-1.151,0 -2.083,0.933 -2.083,2.084l-0,8.767c-0,1.15 0.932,2.083 2.083,2.083l15.058,-0c1.151,-0 2.083,-0.933 2.083,-2.083l0,-8.767Zm-4.166,2.083l-0,4.6c-0,0 -10.892,0 -10.892,0c0,0 0,-4.6 0,-4.6l10.892,-0Z"/><path d="M102.601,86.785c-0,-1.151 -0.933,-2.084 -2.084,-2.084l-15.058,0c-1.15,0 -2.083,0.933 -2.083,2.084l-0,8.767c-0,1.15 0.933,2.083 2.083,2.083l15.058,-0c1.151,-0 2.084,-0.933 2.084,-2.083l-0,-8.767Zm-4.167,2.083l-0,4.6c-0,0 -10.892,0 -10.892,0c0,0 0,-4.6 0,-4.6l10.892,-0Z"/><path d="M56.47,107.431c-0,-1.151 -0.933,-2.084 -2.084,-2.084l-15.058,0c-1.151,0 -2.083,0.933 -2.083,2.084l-0,8.767c-0,1.15 0.932,2.083 2.083,2.083l15.058,-0c1.151,-0 2.084,-0.933 2.084,-2.083l-0,-8.767Zm-4.167,2.083l-0,4.6c-0,0 -10.892,0 -10.892,0c0,0 0,-4.6 0,-4.6l10.892,0Z"/><path d="M79.375,107.431c0,-1.151 -0.932,-2.084 -2.083,-2.084l-15.058,0c-1.151,0 -2.083,0.933 -2.083,2.084l-0,8.767c-0,1.15 0.932,2.083 2.083,2.083l15.058,-0c1.151,-0 2.083,-0.933 2.083,-2.083l0,-8.767Zm-4.166,2.083l-0,4.6c-0,0 -10.892,0 -10.892,0c0,0 0,-4.6 0,-4.6l10.892,0Z"/><path d="M102.601,107.431c-0,-1.151 -0.933,-2.084 -2.084,-2.084l-15.058,0c-1.15,0 -2.083,0.933 -2.083,2.084l-0,8.767c-0,1.15 0.933,2.083 2.083,2.083l15.058,-0c1.151,-0 2.084,-0.933 2.084,-2.083l-0,-8.767Zm-4.167,2.083l-0,4.6c-0,0 -10.892,0 -10.892,0c0,0 0,-4.6 0,-4.6l10.892,0Z"/><path d="M56.47,127.815c-0,-1.15 -0.933,-2.083 -2.084,-2.083l-15.058,0c-1.151,0 -2.083,0.933 -2.083,2.083l-0,8.767c-0,1.151 0.932,2.084 2.083,2.084l15.058,-0c1.151,-0 2.084,-0.933 2.084,-2.084l-0,-8.767Zm-4.167,2.084l-0,4.6c-0,0 -10.892,0 -10.892,0c0,0 0,-4.6 0,-4.6l10.892,-0Z"/><path d="M79.375,127.815c0,-1.15 -0.932,-2.083 -2.083,-2.083l-15.058,0c-1.151,0 -2.083,0.933 -2.083,2.083l-0,8.767c-0,1.151 0.932,2.084 2.083,2.084l15.058,-0c1.151,-0 2.083,-0.933 2.083,-2.084l0,-8.767Zm-4.166,2.084l-0,4.6c-0,0 -10.892,0 -10.892,0c0,0 0,-4.6 0,-4.6l10.892,-0Z"/><path d="M102.601,127.815c-0,-1.15 -0.933,-2.083 -2.084,-2.083l-15.058,0c-1.15,0 -2.083,0.933 -2.083,2.083l-0,8.767c-0,1.151 0.933,2.084 2.083,2.084l15.058,-0c1.151,-0 2.084,-0.933 2.084,-2.084l-0,-8.767Zm-4.167,2.084l-0,4.6c-0,0 -10.892,0 -10.892,0c0,0 0,-4.6 0,-4.6l10.892,-0Z"/></g></g></g><g><g><clipPath id="_clip2"><path d="M100.324,104.514c-1.963,1.248 -2.85,2.808 -2.85,4.28l0,13.152c0,0.674 0.326,1.307 0.875,1.698c0,-0 7.02,5.086 19.76,5.086c12.74,-0 19.759,-5.086 19.759,-5.086c0.549,-0.391 0.875,-1.024 0.875,-1.698l-0,-13.152l-2.083,2.083l2.083,-2.083c-0,-1.471 -0.886,-3.032 -2.85,-4.28c-2.913,1.501 -8.984,3.928 -17.784,3.928c-8.801,0 -14.872,-2.427 -17.785,-3.928Z"/></clipPath><g clip-path="url(#_clip2)"><path d="M99.558,108.794c-0,-3.168 8.312,-5.74 18.551,-5.74c10.238,-0 18.551,2.572 18.551,5.74l-0,13.152c-0,0 -6.602,4.7 -18.551,4.7c-11.95,0 -18.551,-4.7 -18.551,-4.7l-0,-13.152Z" style="fill:none;"/><clipPath id="_clip3"><path d="M99.558,108.794c-0,-3.168 8.312,-5.74 18.551,-5.74c10.238,-0 18.551,2.572 18.551,5.74l-0,13.152c-0,0 -6.602,4.7 -18.551,4.7c-11.95,0 -18.551,-4.7 -18.551,-4.7l-0,-13.152Z"/></clipPath><g clip-path="url(#_clip3)"><ellipse cx="118.109" cy="108.794" rx="18.551" ry="5.74" style="fill:none;stroke:#000;stroke-width:4.17px;"/></g><path d="M99.558,108.794c-0,-3.168 8.312,-5.74 18.551,-5.74c10.238,-0 18.551,2.572 18.551,5.74l-0,13.152c-0,0 -6.602,4.7 -18.551,4.7c-11.95,0 -18.551,-4.7 -18.551,-4.7l-0,-13.152Z" style="fill:none;stroke:#000;stroke-width:4.17px;"/></g></g><g><clipPath id="_clip4"><path d="M100.324,124.694c-1.963,1.247 -2.85,2.808 -2.85,4.279l0,13.153c0,0.674 0.326,1.306 0.875,1.697c0,-0 7.02,5.086 19.76,5.086c12.74,-0 19.759,-5.086 19.759,-5.086c0.549,-0.391 0.875,-1.023 0.875,-1.697l-0,-13.153l-2.083,2.084l2.083,-2.084c-0,-1.471 -0.886,-3.031 -2.85,-4.279c-2.913,1.5 -8.984,3.928 -17.784,3.928c-8.801,-0 -14.872,-2.428 -17.785,-3.928Z"/></clipPath><g clip-path="url(#_clip4)"><path d="M99.558,128.973c-0,-3.168 8.312,-5.74 18.551,-5.74c10.238,-0 18.551,2.572 18.551,5.74l-0,13.153c-0,-0 -6.602,4.699 -18.551,4.699c-11.95,0 -18.551,-4.699 -18.551,-4.699l-0,-13.153Z" style="fill:none;"/><clipPath id="_clip5"><path d="M99.558,128.973c-0,-3.168 8.312,-5.74 18.551,-5.74c10.238,-0 18.551,2.572 18.551,5.74l-0,13.153c-0,-0 -6.602,4.699 -18.551,4.699c-11.95,0 -18.551,-4.699 -18.551,-4.699l-0,-13.153Z"/></clipPath><g clip-path="url(#_clip5)"><ellipse cx="118.109" cy="128.973" rx="18.551" ry="5.74" style="fill:none;stroke:#000;stroke-width:4.17px;"/></g><path d="M99.558,128.973c-0,-3.168 8.312,-5.74 18.551,-5.74c10.238,-0 18.551,2.572 18.551,5.74l-0,13.153c-0,-0 -6.602,4.699 -18.551,4.699c-11.95,0 -18.551,-4.699 -18.551,-4.699l-0,-13.153Z" style="fill:none;stroke:#000;stroke-width:4.17px;"/></g></g><g><path d="M99.558,88.507c-0,-3.168 8.312,-5.741 18.551,-5.741c10.238,0 18.551,2.573 18.551,5.741l-0,13.152c-0,0 -6.602,4.7 -18.551,4.7c-11.95,-0 -18.551,-4.7 -18.551,-4.7l-0,-13.152Z" style="fill:none;stroke:#000;stroke-width:4.17px;"/><ellipse cx="118.109" cy="88.507" rx="18.551" ry="5.74" style="fill:none;stroke:#000;stroke-width:4.17px;"/></g></g><path id="Arrow" d="M158.953,58.626l-2.326,20.401c-0,-0 34.161,5.351 30.506,32.338l-19.711,-0l28.985,35.497l26.917,-35.497l-18.28,-0c0,-0 0.037,-46.139 -46.091,-52.739Z" style="fill:none;stroke:#000;stroke-width:4.17px;"/><g id="Laptop"><rect x="99.642" y="180.465" width="90.334" height="56.581" style="fill:none;stroke:#000;stroke-width:4.17px;"/><path d="M198.676,178.151c0,-3.058 -2.482,-5.54 -5.54,-5.54l-96.655,-0c-3.058,-0 -5.54,2.482 -5.54,5.54l0,61.209c0,3.057 2.482,5.54 5.54,5.54l96.655,-0c3.058,-0 5.54,-2.483 5.54,-5.54l0,-61.209Z" style="fill:none;stroke:#000;stroke-width:4.17px;"/><path d="M214.184,263.025l-143.318,-0l22.053,-18.125l103.14,-0l18.125,18.125Z" style="fill:none;stroke:#000;stroke-width:4.17px;"/><rect x="70.866" y="263.025" width="143.318" height="6.148" style="fill:none;stroke:#000;stroke-width:4.17px;"/></g></svg>