<?xml version="1.0" encoding="UTF-8" standalone="no"?><!DOCTYPE svg PUBLIC "-//W3C//DTD SVG 1.1//EN" "http://www.w3.org/Graphics/SVG/1.1/DTD/svg11.dtd"><svg width="100%" height="100%" viewBox="0 0 268 298" version="1.1" xmlns="http://www.w3.org/2000/svg" xmlns:xlink="http://www.w3.org/1999/xlink" xml:space="preserve" xmlns:serif="http://www.serif.com/" style="fill-rule:evenodd;clip-rule:evenodd;stroke-linecap:round;stroke-linejoin:round;stroke-miterlimit:1.5;"><rect id="Artboard1" x="-0" y="0" width="267.957" height="297.818" style="fill:none;"/><g id="Hospital"><clipPath id="_clip1"><path d="M24.207,15.248l0,138.765l63.866,0l-0,-76.507c-0,-6.287 10.414,-9.464 16.292,-10.301c3.794,-0.541 11.632,-2.633 11.632,-2.633l1.528,-49.324l-93.318,-0Z"/></clipPath><g clip-path="url(#_clip1)"><path d="M46.584,39.289l0,4.167l-15.541,0c-0,0 -0,104.286 -0,104.286l61.165,-0l-0,0.409c-0,1.656 0.965,3.085 2.363,3.758l-65.612,-0c-1.15,-0 -2.083,-0.933 -2.083,-2.084l0,-108.452c0,-1.151 0.933,-2.084 2.083,-2.084l17.625,0Zm47.646,0l16.337,0c1.15,0 2.083,0.933 2.083,2.084l0,25.148l-4.167,0l0,-23.065l-14.253,0l-0,-4.167Z"/><path d="M81.046,26.348l-0,-6.934c-0,-2.301 -1.866,-4.166 -4.167,-4.166l-12.944,-0c-2.302,-0 -4.167,1.865 -4.167,4.166l-0,6.934c0,0 -6.934,0 -6.934,0c-2.301,0 -4.167,1.866 -4.167,4.167l0,12.944c0,2.301 1.866,4.167 4.167,4.167l6.934,-0c-0,-0 -0,6.934 -0,6.934c-0,2.301 1.865,4.166 4.167,4.166l12.944,0c2.301,0 4.167,-1.865 4.167,-4.166l-0,-6.934c-0,-0 6.934,-0 6.934,-0c2.301,-0 4.166,-1.866 4.166,-4.167l0,-12.944c0,-2.301 -1.865,-4.167 -4.166,-4.167l-6.934,0Zm-4.167,4.167l0,-11.101l-12.944,0l-0,11.101l-11.101,-0l0,12.944l11.101,0l-0,11.101l12.944,-0l0,-11.101l11.101,0l-0,-12.944l-11.101,-0Z"/><path d="M29.734,40.83l9.564,-7.224l6.227,-0" style="fill:none;stroke:#000;stroke-width:4.17px;"/><path d="M95.684,33.606l8.756,-0l5.527,7.224" style="fill:none;stroke:#000;stroke-width:4.17px;"/><g id="windows"><path d="M56.47,66.656c-0,-1.151 -0.933,-2.084 -2.084,-2.084l-15.058,0c-1.151,0 -2.083,0.933 -2.083,2.084l-0,8.767c-0,1.15 0.932,2.083 2.083,2.083l15.058,-0c1.151,-0 2.084,-0.933 2.084,-2.083l-0,-8.767Zm-4.167,2.083l-0,4.6c-0,0 -10.892,0 -10.892,0c0,0 0,-4.6 0,-4.6l10.892,-0Z"/><path d="M79.375,66.656c0,-1.151 -0.932,-2.084 -2.083,-2.084l-15.058,0c-1.151,0 -2.083,0.933 -2.083,2.084l-0,8.767c-0,1.15 0.932,2.083 2.083,2.083l15.058,-0c1.151,-0 2.083,-0.933 2.083,-2.083l0,-8.767Zm-4.166,2.083l-0,4.6c-0,0 -10.892,0 -10.892,0c0,0 0,-4.6 0,-4.6l10.892,-0Z"/><path d="M102.601,66.656c-0,-1.151 -0.933,-2.084 -2.084,-2.084l-15.058,0c-1.15,0 -2.083,0.933 -2.083,2.084l-0,8.767c-0,1.15 0.933,2.083 2.083,2.083l15.058,-0c1.151,-0 2.084,-0.933 2.084,-2.083l-0,-8.767Zm-4.167,2.083l-0,4.6c-0,0 -10.892,0 -10.892,0c0,0 0,-4.6 0,-4.6l10.892,-0Z"/><path d="M56.47,86.785c-0,-1.151 -0.933,-2.084 -2.084,-2.084l-15.058,0c-1.151,0 -2.083,0.933 -2.083,2.084l-0,8.767c-0,1.15 0.932,2.083 2.083,2.083l15.058,-0c1.151,-0 2.084,-0.933 2.084,-2.083l-0,-8.767Zm-4.167,2.083l-0,4.6c-0,0 -10.892,0 -10.892,0c0,0 0,-4.6 0,-4.6l10.892,-0Z"/><path d="M79.375,86.785c0,-1.151 -0.932,-2.084 -2.083,-2.084l-15.058,0c-1.151,0 -2.083,0.933 -2.083,2.084l-0,8.767c-0,1.15 0.932,2.083 2.083,2.083l15.058,-0c1.151,-0 2.083,-0.933 2.083,-2.083l0,-8.767Zm-4.166,2.083l-0,4.6c-0,0 -10.892,0 -10.892,0c0,0 0,-4.6 0,-4.6l10.892,-0Z"/><path d="M102.601,86.785c-0,-1.151 -0.933,-2.084 -2.084,-2.084l-15.058,0c-1.15,0 -2.083,0.933 -2.083,2.084l-0,8.767c-0,1.15 0.933,2.083 2.083,2.083l15.058,-0c1.151,-0 2.084,-0.933 2.084,-2.083l-0,-8.767Zm-4.167,2.083l-0,4.6c-0,0 -10.892,0 -10.892,0c0,0 0,-4.6 0,-4.6l10.892,-0Z"/><path d="M56.47,107.431c-0,-1.151 -0.933,-2.084 -2.084,-2.084l-15.058,0c-1.151,0 -2.083,0.933 -2.083,2.084l-0,8.767c-0,1.15 0.932,2.083 2.083,2.083l15.058,-0c1.151,-0 2.084,-0.933 2.084,-2.083l-0,-8.767Zm-4.167,2.083l-0,4.6c-0,0 -10.892,0 -10.892,0c0,0 0,-4.6 0,-4.6l10.892,0Z"/><path d="M79.375,107.431c0,-1.151 -0.932,-2.084 -2.083,-2.084l-15.058,0c-1.151,0 -2.083,0.933 -2.083,2.084l-0,8.767c-0,1.15 0.932,2.083 2.083,2.083l15.058,-0c1.151,-0 2.083,-0.933 2.083,-2.083l0,-8.767Zm-4.166,2.083l-0,4.6c-0,0 -10.892,0 -10.892,0c0,0 0,-4.6 0,-4.6l10.892,0Z"/><path d="M102.601,107.431c-0,-1.151 -0.933,-2.084 -2.084,-2.084l-15.058,0c-1.15,0 -2.083,0.933 -2.083,2.084l-0,8.767c-0,1.15 0.933,2.083 2.083,2.083l15.058,-0c1.151,-0 2.084,-0.933 2.084,-2.083l-0,-8.767Zm-4.167,2.083l-0,4.6c-0,0 -10.892,0 -10.892,0c0,0 0,-4.6 0,-4.6l10.892,0Z"/><path d="M56.47,127.815c-0,-1.15 -0.933,-2.083 -2.084,-2.083l-15.058,0c-1.151,0 -2.083,0.933 -2.083,2.083l-0,8.767c-0,1.151 0.932,2.084 2.083,2.084l15.058,-0c1.151,-0 2.084,-0.933 2.084,-2.084l-0,-8.767Zm-4.167,2.084l-0,4.6c-0,0 -10.892,0 -10.892,0c0,0 0,-4.6 0,-4.6l10.892,-0Z"/><path d="M79.375,127.815c0,-1.15 -0.932,-2.083 -2.083,-2.083l-15.058,0c-1.151,0 -2.083,0.933 -2.083,2.083l-0,8.767c-0,1.151 0.932,2.084 2.083,2.084l15.058,-0c1.151,-0 2.083,-0.933 2.083,-2.084l0,-8.767Zm-4.166,2.084l-0,4.6c-0,0 -10.892,0 -10.892,0c0,0 0,-4.6 0,-4.6l10.892,-0Z"/><path d="M102.601,127.815c-0,-1.15 -0.933,-2.083 -2.084,-2.083l-15.058,0c-1.15,0 -2.083,0.933 -2.083,2.083l-0,8.767c-0,1.151 0.933,2.084 2.083,2.084l15.058,-0c1.151,-0 2.084,-0.933 2.084,-2.084l-0,-8.767Zm-4.167,2.084l-0,4.6c-0,0 -10.892,0 -10.892,0c0,0 0,-4.6 0,-4.6l10.892,-0Z"/></g></g></g><g><path d="M100.701,98.003c3.591,1.344 7.158,2.25 10.699,2.734c-3.728,0.403 -6.939,1.169 -9.222,2.195c-0.752,0.337 -1.387,0.696 -1.871,1.089c-0.251,0.204 -0.539,0.319 -0.539,0.553c0,0.234 0.288,0.348 0.539,0.552c0.484,0.394 1.119,0.752 1.871,1.09c3.46,1.554 9.052,2.514 15.347,2.514c6.294,-0 11.886,-0.96 15.346,-2.514c0.752,-0.338 1.387,-0.696 1.871,-1.09c0.251,-0.204 0.539,-0.318 0.539,-0.552c0,-0.234 -0.288,-0.349 -0.539,-0.553c-0.484,-0.393 -1.119,-0.752 -1.871,-1.089c-2.28,-1.025 -5.487,-1.791 -9.211,-2.194c3.588,-0.49 7.151,-1.407 10.692,-2.734c1.041,0.416 1.949,0.868 2.701,1.346c2.382,1.512 3.466,3.404 3.466,5.224l0,16.049c0,0.994 -0.59,1.897 -1.514,2.316c-13.966,6.337 -28.262,6.655 -42.959,0.001c-0.925,-0.419 -1.516,-1.323 -1.516,-2.317c-0,0 -0,-16.049 -0,-16.049c-0,-1.82 1.084,-3.712 3.466,-5.224c0.753,-0.478 1.662,-0.931 2.705,-1.347Zm34.58,12.743c-4,1.83 -10.456,3.093 -17.756,3.093c-7.301,-0 -13.757,-1.263 -17.757,-3.093c0,3.904 0.001,8.22 0.002,8.221c12.123,5.059 23.943,4.837 35.511,0l0,-8.221Z"/><path d="M100.701,122.099c3.591,1.344 7.158,2.25 10.699,2.734c-3.728,0.403 -6.939,1.17 -9.222,2.195c-0.752,0.338 -1.387,0.696 -1.871,1.09c-0.251,0.204 -0.539,0.318 -0.539,0.552c0,0.234 0.288,0.348 0.539,0.553c0.484,0.393 1.119,0.751 1.871,1.089c3.46,1.554 9.052,2.514 15.347,2.514c6.294,0 11.886,-0.96 15.346,-2.514c0.752,-0.338 1.387,-0.696 1.871,-1.089c0.251,-0.205 0.539,-0.319 0.539,-0.553c0,-0.234 -0.288,-0.348 -0.539,-0.552c-0.484,-0.394 -1.119,-0.752 -1.871,-1.09c-2.28,-1.024 -5.487,-1.79 -9.211,-2.194c3.588,-0.49 7.151,-1.407 10.692,-2.734c1.041,0.417 1.949,0.869 2.701,1.347c2.382,1.512 3.466,3.403 3.466,5.223l0,16.05c0,0.993 -0.59,1.897 -1.514,2.316c-13.966,6.337 -28.262,6.655 -42.959,0.001c-0.925,-0.419 -1.516,-1.323 -1.516,-2.317c-0,-0 -0,-16.05 -0,-16.05c-0,-1.82 1.084,-3.711 3.466,-5.223c0.753,-0.479 1.662,-0.931 2.705,-1.348Zm34.58,12.744c-4,1.829 -10.456,3.092 -17.756,3.092c-7.301,0 -13.757,-1.263 -17.757,-3.092c0,3.904 0.001,8.22 0.002,8.22c12.123,5.059 23.943,4.837 35.511,0l0,-8.22Z"/><path d="M94.53,80.484c-0,0 -0,16.05 -0,16.05c-0,0.994 0.591,1.898 1.516,2.317c14.697,6.654 28.993,6.336 42.959,-0.001c0.924,-0.419 1.514,-1.323 1.514,-2.316l0,-16.05c0,-1.819 -1.084,-3.711 -3.466,-5.223c-3.665,-2.328 -11.024,-4.042 -19.528,-4.042c-8.505,0 -15.864,1.714 -19.529,4.042c-2.382,1.512 -3.466,3.404 -3.466,5.223Zm40.751,6.173c-4,1.83 -10.456,3.093 -17.756,3.093c-7.301,-0 -13.757,-1.263 -17.757,-3.093c0,3.904 0.001,8.22 0.002,8.22c12.123,5.059 23.943,4.838 35.511,0.001l0,-8.221Zm-35.513,-6.173c0,-0.233 0.288,-0.348 0.539,-0.552c0.484,-0.394 1.119,-0.752 1.871,-1.089c3.46,-1.555 9.052,-2.515 15.347,-2.515c6.294,0 11.886,0.96 15.346,2.515c0.752,0.337 1.387,0.695 1.871,1.089c0.251,0.204 0.539,0.319 0.539,0.552c0,0.234 -0.288,0.349 -0.539,0.553c-0.484,0.394 -1.119,0.752 -1.871,1.089c-3.46,1.554 -9.052,2.515 -15.346,2.515c-6.295,-0 -11.887,-0.961 -15.347,-2.515c-0.752,-0.337 -1.387,-0.695 -1.871,-1.089c-0.251,-0.204 -0.539,-0.319 -0.539,-0.553Z"/></g><path id="Arrow" d="M158.953,58.626l-2.326,20.401c-0,-0 34.161,5.351 30.506,32.338l-19.711,-0l28.985,35.497l26.917,-35.497l-18.28,-0c0,-0 0.037,-46.139 -46.091,-52.739Z" style="fill:none;stroke:#000;stroke-width:4.17px;"/><g id="Laptop"><rect x="99.642" y="180.465" width="90.334" height="56.581" style="fill:none;stroke:#000;stroke-width:4.17px;"/><path d="M198.676,178.151c0,-3.058 -2.482,-5.54 -5.54,-5.54l-96.655,-0c-3.058,-0 -5.54,2.482 -5.54,5.54l0,61.209c0,3.057 2.482,5.54 5.54,5.54l96.655,-0c3.058,-0 5.54,-2.483 5.54,-5.54l0,-61.209Z" style="fill:none;stroke:#000;stroke-width:4.17px;"/><path d="M214.184,263.025l-143.318,-0l22.053,-18.125l103.14,-0l18.125,18.125Z" style="fill:none;stroke:#000;stroke-width:4.17px;"/><rect x="70.866" y="263.025" width="143.318" height="6.148" style="fill:none;stroke:#000;stroke-width:4.17px;"/></g></svg>