<?xml version="1.0" encoding="UTF-8" standalone="no"?><!DOCTYPE svg PUBLIC "-//W3C//DTD SVG 1.1//EN" "http://www.w3.org/Graphics/SVG/1.1/DTD/svg11.dtd"><svg width="100%" height="100%" viewBox="0 0 268 298" version="1.1" xmlns="http://www.w3.org/2000/svg" xmlns:xlink="http://www.w3.org/1999/xlink" xml:space="preserve" xmlns:serif="http://www.serif.com/" style="fill-rule:evenodd;clip-rule:evenodd;stroke-linecap:round;stroke-linejoin:round;stroke-miterlimit:1.5;"><rect id="Artboard3" x="-0" y="0" width="267.957" height="297.818" style="fill:none;"/><g id="Report"><g><clipPath id="_clip1"><path d="M127.203,74.386l-109.718,-0l0,156.088l48.717,0l0,-134.477l61.001,-0l0,-21.611Z"/></clipPath><g clip-path="url(#_clip1)"><path id="Paper" d="M122.68,82.636l-98.714,-5.005l0,146.324l98.714,-4.206l-0,-137.113Z" style="fill:none;stroke:#000;stroke-width:4.17px;"/><path id="Logo" d="M50.444,101.234c-0,0 1.324,2.313 0.639,3.755c-0.718,1.513 -4.211,0.963 -4.211,0.963c0,0 2.718,-0.023 3.625,-1.318c0.835,-1.191 -0.053,-3.4 -0.053,-3.4Zm-8.482,4.804c0,-0 -6.275,-6.491 -3.213,-9.827c3.213,-3.501 11.19,0.354 11.19,0.354c-0,0 -4.764,0.351 -6.853,2.639c-1.909,2.092 -1.124,6.834 -1.124,6.834Z" style="fill:none;stroke:#000;stroke-width:4.17px;"/><path d="M39.024,121.792l66.103,1.785" style="fill:none;stroke:#000;stroke-width:4.17px;"/><path d="M39.024,136.354l66.023,0.567" style="fill:none;stroke:#000;stroke-width:4.17px;"/><path d="M39.024,150.264l66.023,-0.566" style="fill:none;stroke:#000;stroke-width:4.17px;"/><path d="M39.024,163.881l66.023,-1.406" style="fill:none;stroke:#000;stroke-width:4.17px;"/><path d="M76.162,176.624l28.965,-0.533" style="fill:none;stroke:#000;stroke-width:4.17px;"/><path d="M76.162,187.633l28.965,-0.533" style="fill:none;stroke:#000;stroke-width:4.17px;"/><path d="M76.162,199.198l28.965,-1.088" style="fill:none;stroke:#000;stroke-width:4.17px;"/><path d="M51.28,177.497c-7.723,0 -13.983,6.26 -13.983,13.983c-0,7.717 6.265,13.982 13.983,13.982c4.809,0 9.28,-2.471 11.839,-6.542l-11.839,-7.44l-0,-13.983Zm11.881,21.355c1.374,-2.214 2.101,-4.767 2.101,-7.372c0,-1.358 -0.197,-2.709 -0.587,-4.01l-13.395,4.01l11.881,7.372Z" style="fill:none;stroke:#000;stroke-width:4.17px;"/></g></g></g><g id="Report1" serif:id="Report"><g><clipPath id="_clip2"><path d="M183.308,102.568l-110.964,0l0,169.556l71.959,-0l0,-149.708l35.317,-0l3.688,-19.848Z"/></clipPath><g clip-path="url(#_clip2)"><path id="Paper1" serif:id="Paper" d="M173.842,117.877l-93.278,-12.369l-0,155.172l93.278,-10.801l0,-132.002Z" style="fill:none;stroke:#000;stroke-width:4.17px;"/><path id="Logo1" serif:id="Logo" d="M106.832,131.85c-0,0 1.183,2.523 0.572,4.096c-0.642,1.65 -3.766,1.051 -3.766,1.051c0,0 2.43,-0.025 3.241,-1.438c0.747,-1.299 -0.047,-3.709 -0.047,-3.709Zm-7.584,5.24c-0,0 -5.612,-7.081 -2.874,-10.72c2.874,-3.818 10.006,0.387 10.006,0.387c0,-0 -4.26,0.382 -6.127,2.878c-1.708,2.283 -1.005,7.455 -1.005,7.455Z" style="fill:none;stroke:#000;stroke-width:4.17px;"/><path d="M95.621,150.554l62.413,4.77" style="fill:none;stroke:#000;stroke-width:4.17px;"/><path d="M95.384,166.609l62.329,2.717" style="fill:none;stroke:#000;stroke-width:4.17px;"/><path d="M95.698,182.17l62.015,0" style="fill:none;stroke:#000;stroke-width:4.17px;"/><path id="Table" d="M157.923,196.83l-61.148,1.692l-0,41.882l61.148,-6.371l0,-37.203Z" style="fill:none;stroke:#000;stroke-width:4.17px;"/><path d="M96.775,211.717l61.148,-2.484" style="fill:none;stroke:#000;stroke-width:4.17px;"/><path d="M96.775,226.023l61.148,-4.452" style="fill:none;stroke:#000;stroke-width:4.17px;"/><path d="M116.887,197.965l0,40.343" style="fill:none;stroke:#000;stroke-width:4.17px;"/><path d="M140.196,197.32l0,37.784" style="fill:none;stroke:#000;stroke-width:4.17px;"/></g></g></g><g id="Report2" serif:id="Report"><path id="Paper2" serif:id="Paper" d="M223.228,153.805l-65.194,-25.15l-0,155.172l65.194,-24.015l0,-106.007Z" style="fill:none;stroke:#000;stroke-width:4.17px;"/><path id="Logo2" serif:id="Logo" d="M181.948,157.987c-0,0 0.934,2.524 0.451,4.096c-0.507,1.651 -2.972,1.051 -2.972,1.051c0,0 1.918,-0.025 2.558,-1.437c0.589,-1.3 -0.037,-3.71 -0.037,-3.71Zm-5.986,5.24c0,0 -4.429,-7.08 -2.268,-10.719c2.268,-3.819 7.897,0.386 7.897,0.386c0,-0 -3.362,0.382 -4.836,2.879c-1.347,2.282 -0.793,7.454 -0.793,7.454Z" style="fill:none;stroke:#000;stroke-width:4.17px;"/><path d="M172.998,176.568l37.608,3.929" style="fill:none;stroke:#000;stroke-width:4.17px;"/><path d="M173.115,193.564l37.491,-0" style="fill:none;stroke:#000;stroke-width:4.17px;"/><path d="M172.998,208.628l37.608,-2.387" style="fill:none;stroke:#000;stroke-width:4.17px;"/><path d="M172.854,221.084l0,37.759l37.752,-12.358" style="fill:none;stroke:#000;stroke-width:4.17px;"/><path d="M173.007,254.005c0,0 5.709,-20.786 14.341,-21.622c8.633,-0.836 6.532,8.525 13.772,7.581c7.24,-0.944 9.486,-18.88 9.486,-18.88" style="fill:none;stroke:#000;stroke-width:4.17px;"/></g><g id="Camera"><g><path d="M224.081,44.242c2.953,0.688 4.037,6.879 2.422,13.817c-1.616,6.937 -5.324,12.012 -8.276,11.324c-2.953,-0.687 -4.037,-6.878 -2.422,-13.816c1.616,-6.938 5.324,-12.012 8.276,-11.325Z" style="fill:none;stroke:#000;stroke-width:4.17px;"/><path d="M218.227,69.446l-12.602,-1.922c0,-0 -8.058,-8.617 -5.842,-11.233c1.997,-2.359 3.479,-4.459 5.257,-6.461c2.784,-3.134 5.446,-5.65 5.446,-5.65l13.202,0.005" style="fill:none;stroke:#000;stroke-width:4.17px;"/></g><path d="M187.827,59.952c0,0 7.583,0.065 11.118,-2.784c1.521,-1.225 6.499,-9.033 13.637,-14.786c6.044,-4.87 17.129,-7.911 17.129,-7.911l-74.511,-0c0,-0 -4.236,2.469 -5.463,7.382c-1.029,4.124 1.277,15.315 1.277,15.315l36.813,2.784Z" style="fill:none;stroke:#000;stroke-width:4.17px;"/><path d="M229.711,34.471c-0,-0 -9.996,6.438 -8.379,8.479" style="fill:none;stroke:#000;stroke-width:4.17px;"/><path d="M202.654,67.273c0,1.922 -4.505,1.922 -4.505,1.922c0,-0 -25.615,-1.152 -32.387,-2.923c-3.64,-0.952 -8.25,-7.702 -8.25,-7.702" style="fill:none;stroke:#000;stroke-width:4.17px;"/><path d="M165.027,66.01l7.141,1.298l-4.697,18.929c0,0 0.441,-3.787 -3.707,-5.221c-2.86,-0.989 -5.053,1.591 -5.053,1.591l6.316,-16.597Z" style="fill:none;stroke:#000;stroke-width:4.17px;"/><path d="M145.82,74.302c-0,0 -3.808,2.299 -6.132,5.193c-3.01,3.749 -2.472,7.435 -2.472,7.435l21.095,1.985c0,0 -2.587,-2.801 -0.08,-6.403c1.728,-2.484 5.021,-1.692 5.021,-1.692l-17.432,-6.518Z" style="fill:none;stroke:#000;stroke-width:4.17px;"/><ellipse cx="162.498" cy="85.866" rx="4.987" ry="5.013" style="fill:none;stroke:#000;stroke-width:4.17px;"/></g></svg>