<?xml version="1.0" encoding="UTF-8" standalone="no"?>
<!DOCTYPE svg PUBLIC "-//W3C//DTD SVG 1.1//EN" "http://www.w3.org/Graphics/SVG/1.1/DTD/svg11.dtd">
<svg width="100%" height="100%" viewBox="0 0 209 200" version="1.1" xmlns="http://www.w3.org/2000/svg" xmlns:xlink="http://www.w3.org/1999/xlink" xml:space="preserve" xmlns:serif="http://www.serif.com/" style="fill-rule:evenodd;clip-rule:evenodd;stroke-miterlimit:10;">
    <g id="Artboard1" transform="matrix(0.993135,0,0,0.962256,-393.987,-8.74995)">
        <rect x="396.71" y="9.093" width="210.05" height="206.907" style="fill:none;"/>
        <g id="Layer_1" transform="matrix(1.00691,0,0,1.03922,-3.47883,-0.259857)">
            <g>
                <g id="Central-Logo" serif:id="Central Logo">
                    <path d="M521.9,120.63C524.91,122.32 527.16,124.36 528.7,126.67C524.94,130.59 522.63,132.98 518.13,135.73C515.74,133.47 513.64,130.85 512.84,128.93C517.81,127.08 520.1,125.18 521.9,120.63Z" style="fill:white;"/>
                    <path d="M530.21,126.67L532.47,126.67C533.23,127.43 533.98,128.18 534.73,128.93C534.48,129.18 534.23,129.43 533.98,129.69C529.7,133.97 525.42,138.25 521.14,142.53L520.38,142.53C519.64,140.24 518.9,140.27 518.12,138C522.15,134.22 526.18,130.44 530.21,126.67Z" style="fill:white;"/>
                    <path d="M534.74,130.44L537.01,130.44C544.28,136.22 558.43,149.78 565.7,157.62C569.93,162.18 584.15,178.58 587.6,184.05C587.8,185.65 574.14,198.85 572.5,197.64C568.31,194.15 552.15,180.41 543.05,170.46C539.31,166.37 521.87,145.8 521.91,142.52C526.18,138.5 530.46,134.47 534.74,130.44Z" style="fill:white;"/>
                    <path d="M587.59,186.32C592.35,188.88 592.87,192.7 592.88,196.89C591.91,199.15 588.87,203.46 583.82,203.69C580.35,203.14 577.65,202.19 574.76,198.4C578.85,195.75 584.91,190.4 587.59,186.32Z" style="fill:white;"/>
                    <path d="M438.85,78.35C443.13,78.35 449.92,78.38 450.93,78.35C451.93,78.31 452.51,77.32 452.47,76.43C452.48,74.5 452.45,73.95 452.44,70.8C452.45,69.29 450.94,69.29 450.94,69.29L438.85,69.29L438.85,62.5C438.85,62.5 448.07,62.38 456.22,62.5C457.33,62.65 458.68,63.31 459.24,64.01C459.72,64.6 460.64,65.76 460.75,67.03C460.86,68.3 460.75,75.18 460.75,79.87C460.75,81.03 459.87,82.18 459.24,82.89C458.42,83.82 457.09,84.38 456.22,84.4C452.59,84.48 448.67,84.4 448.67,84.4C448.67,84.4 457.48,93.21 461.51,97.24L451.69,97.24L438.85,84.4C438.85,84.38 438.81,80.21 438.85,78.35Z" style="fill:white;"/>
                    <path d="M502.27,97.22L502.27,73.06L487.17,84.38L472.07,73.06L472.07,97.22L464.52,97.22L464.52,62.49L471.31,62.49L487.17,74.57L502.27,62.49L509.82,62.49L509.82,97.22L502.27,97.22Z" style="fill:white;"/>
                    <g id="Magnifying_Glass_Lens">
                        <ellipse cx="476.96" cy="77.18" rx="62" ry="58.55" style="fill:none;stroke:white;stroke-width:1px;"/>
                        <path d="M517.1,125.35C522.6,121.04 522.75,111.92 519.32,111.27C515.16,110.48 514.04,115.2 510.94,117.9C507.84,120.6 506.03,118.64 503.3,123.07C501.35,126.24 510.15,130.8 517.1,125.35Z" style="fill:none;stroke:white;stroke-width:1px;stroke-linejoin:round;stroke-miterlimit:2;"/>
                        <ellipse cx="473.67" cy="73.84" rx="62" ry="58.55" style="fill:none;stroke:white;stroke-width:1px;"/>
                        <ellipse cx="479.99" cy="73.84" rx="62" ry="58.55" style="fill:none;stroke:white;stroke-width:1px;"/>
                        <ellipse cx="472.32" cy="78.7" rx="62" ry="58.55" style="fill:none;stroke:white;stroke-width:1px;"/>
                    </g>
                    <path d="M478.11,27C503.22,29.4 506.8,38.33 506.8,38.33C506.8,38.33 488.09,29.23 471.31,33.04C459.8,35.66 456.35,37.86 452.43,40.59C451.66,41.13 446.7,36.04 447.14,35.3C447.59,34.57 462.12,25.47 478.11,27Z" style="fill:white;"/>
                    <path d="M440.36,40.59L442.62,40.59C444.01,42.7 445.02,42.72 445.64,45.88C421.08,69.56 430.54,97.98 430.54,97.98C430.54,97.98 427.33,96.04 425.25,85.14C421.33,64.55 430.68,51.44 440.36,40.59Z" style="fill:white;"/>
                    <path d="M521.15,57.96C527.29,64.54 526.57,83.6 523.41,92.69C517.26,110.4 506.16,122.06 487.92,127.42C472.4,131.99 451.04,125.64 444.88,117.6L446.39,117.6C454.91,124.57 474.52,124.68 485.65,120.62C513,110.66 524.03,93.39 521.15,57.96Z" style="fill:white;"/>
                </g>
            </g>
        </g>
    </g>
</svg>
