<?xml version="1.0" encoding="UTF-8" standalone="no"?><!DOCTYPE svg PUBLIC "-//W3C//DTD SVG 1.1//EN" "http://www.w3.org/Graphics/SVG/1.1/DTD/svg11.dtd"><svg width="100%" height="100%" viewBox="0 0 871 900" version="1.1" xmlns="http://www.w3.org/2000/svg" xmlns:xlink="http://www.w3.org/1999/xlink" xml:space="preserve" xmlns:serif="http://www.serif.com/" style="fill-rule:evenodd;clip-rule:evenodd;stroke-miterlimit:10;"><rect id="Artboard1" x="0" y="0" width="870.167" height="900" style="fill:none;"/><g id="White-Background" serif:id="White Background"><path d="M870.167,169.785c0,-93.707 -76.078,-169.785 -169.785,-169.785l-530.597,0c-93.707,0 -169.785,76.078 -169.785,169.785l-0,560.43c-0,93.707 76.078,169.785 169.785,169.785l530.597,0c93.707,0 169.785,-76.078 169.785,-169.785l0,-560.43Z" style="fill:#fff;"/></g><g id="Main-Logo" serif:id="Main Logo"><g><g id="Central-Logo" serif:id="Central Logo"><path d="M520.964,491.744c12.231,6.867 21.373,15.156 27.631,24.543c-15.278,15.928 -24.665,25.64 -42.95,36.814c-9.711,-9.183 -18.244,-19.829 -21.495,-27.631c20.195,-7.517 29.5,-15.238 36.814,-33.726Z" style="fill:#9a2a24;"/><path d="M554.731,516.287l9.183,-0c3.088,3.088 6.136,6.135 9.183,9.183c-1.016,1.016 -2.032,2.032 -3.047,3.088c-17.392,17.391 -34.783,34.783 -52.174,52.174l-3.088,-0c-3.007,-9.305 -6.014,-9.183 -9.183,-18.407c16.375,-15.36 32.75,-30.719 49.126,-46.038Z" style="fill:#9a2a24;"/><path d="M573.138,531.606l9.224,-0c29.54,23.486 87.037,78.585 116.578,110.442c17.188,18.529 74.969,85.168 88.988,107.395c0.812,6.502 -54.693,60.138 -61.357,55.221c-17.026,-14.181 -82.69,-70.012 -119.667,-110.442c-15.197,-16.619 -86.062,-100.203 -85.899,-113.531c17.35,-16.334 34.742,-32.71 52.133,-49.085Z" style="fill:#9a2a24;"/><path d="M787.887,758.667c19.342,10.402 21.455,25.924 21.495,42.95c-3.941,9.183 -16.294,26.696 -36.814,27.631c-14.1,-2.235 -25.071,-6.095 -36.814,-21.495c16.619,-10.768 41.243,-32.507 52.133,-49.086Z" style="fill:#9a2a24;"/><path d="M183.501,319.945c17.391,-0 44.981,0.122 49.085,-0c4.064,-0.163 6.421,-4.186 6.258,-7.802c0.041,-7.842 -0.081,-10.077 -0.122,-22.877c0.041,-6.136 -6.095,-6.136 -6.095,-6.136l-49.126,0l-0,-27.59c-0,0 37.464,-0.487 70.581,0c4.51,0.61 9.996,3.291 12.271,6.136c1.951,2.397 5.689,7.111 6.136,12.271c0.447,5.161 -0,33.117 -0,52.174c-0,4.713 -3.576,9.386 -6.136,12.271c-3.332,3.779 -8.736,6.055 -12.271,6.136c-14.75,0.325 -30.679,0 -30.679,0c0,0 35.799,35.798 52.174,52.174l-39.902,-0l-52.174,-52.174c-0,-0.081 -0.163,-17.026 -0,-24.583Z" style="fill:#9a2a24;"/><path d="M441.2,396.62l0,-98.171l-61.357,45.998l-61.357,-45.998l0,98.171l-30.678,0l-0,-141.12l27.59,-0l64.445,49.085l61.357,-49.085l30.679,-0l-0,141.12l-30.679,0Z" style="fill:#9a2a24;"/><g id="Magnifying_Glass_Lens"><ellipse cx="338.356" cy="315.19" rx="251.929" ry="237.91" style="fill:none;stroke:#9a2a24;stroke-width:4.06px;"/><path d="M501.46,510.923c22.348,-17.513 22.958,-54.571 9.021,-57.212c-16.904,-3.21 -21.455,15.969 -34.052,26.94c-12.596,10.971 -19.951,3.007 -31.044,21.008c-7.923,12.881 27.834,31.41 56.075,9.264Z" style="fill:#9a2a24;"/><ellipse cx="324.988" cy="301.619" rx="251.929" ry="237.91" style="fill:none;stroke:#9a2a24;stroke-width:4.06px;"/><ellipse cx="350.668" cy="301.619" rx="251.929" ry="237.91" style="fill:none;stroke:#9a2a24;stroke-width:4.06px;"/><ellipse cx="319.502" cy="321.367" rx="251.929" ry="237.91" style="fill:none;stroke:#9a2a24;stroke-width:4.06px;"/></g><path d="M343.029,111.29c102.031,9.753 116.578,46.038 116.578,46.038c0,0 -76.026,-36.976 -144.209,-21.495c-46.769,10.646 -60.788,19.586 -76.716,30.679c-3.129,2.194 -23.284,-18.489 -21.496,-21.496c1.829,-2.966 60.87,-39.943 125.843,-33.726Z" style="fill:#9a2a24;"/><path d="M189.637,166.512l9.183,-0c5.648,8.573 9.752,8.655 12.271,21.495c-99.796,96.221 -61.357,211.702 -61.357,211.702c0,-0 -13.043,-7.883 -21.495,-52.174c-15.928,-83.665 22.064,-136.936 61.398,-181.023Z" style="fill:#9a2a24;"/><path d="M517.917,237.092c24.949,26.737 22.023,104.185 9.183,141.121c-24.99,71.963 -70.093,119.342 -144.209,141.121c-63.064,18.57 -149.858,-7.232 -174.888,-39.902l6.136,0c34.62,28.322 114.302,28.769 159.528,12.271c111.133,-40.471 155.952,-110.645 144.25,-254.611Z" style="fill:#9a2a24;"/></g></g></g></svg>