<?xml version="1.0" encoding="UTF-8"?>
<svg clip-rule="evenodd" fill-rule="evenodd" stroke-miterlimit="10" version="1.1" viewBox="0 0 895 216" xml:space="preserve" xmlns="http://www.w3.org/2000/svg" xmlns:serif="http://www.serif.com/">
    
    
<rect width="898.42" height="216.17" display="none" fill="#656565"/><g transform="scale(1.0266 1)">
        
        <g fill="#fff">
            <g id="Main-Logo" transform="scale(.97411 1)" serif:id="Main Logo">
                
                    <path d="m24.33 51.92s16.5-0.04 26.43 0c4.47 0.02 7.3 1.85 8.31 3.02 0.52 0.66 3.01 3.13 3.02 6.04 0.02 7.81-0.01 14.18 0 19.63 0.02 2.5-1.94 4.92-3.02 6.04-1.04 1.08-2.74 2.25-5.29 2.27-4.76 0.04-12.08 0-12.08 0l21.14 21.9h-16.62l-21.9-21.9v-10.57h20.39c2.2-0.02 3.86-1.46 3.78-3.78-0.06-3.02 0.03-5.58 0-9.06-0.2-2.2-1.63-3-3.78-3.02-5.06-0.05-13.31 0.02-20.39 0 0.01-3.52 0.01-10.57 0.01-10.57z"/>
                    <path d="m626.1 110.81v-41.53l-25.67 20.39-26.43-20.39v41.53h-12.08v-58.89h12.84l25.67 21.14 25.67-21.14h12.84v58.89c-0.01 0-8.57 0.06-12.84 0z"/>
                    <path d="m139.09 71.55h-37.75v9.82h21.14v9.06h-21.14v11.33h37.75v9.06h-49.08s-0.09-32.38 0-41.53c0.02-1.69 0.61-3.67 1.51-4.53 1.42-1.13 2.95-1.52 5.29-1.51 12.23 0.03 42.28 0 42.28 0z"/>
                    <path d="m265.94 71.55v-8.31h35.49v8.31s-24.88 0.06-35.49 0z"/>
                    <path d="m820.9 71.55v9.82h21.14v9.06h-21.14v10.57s27.05 0.82 38.51 0.76v9.06h-49.83s-0.06-29.23 0-40.77c0.17-3.19 1.85-4.34 2.26-5.29 2.13-1.22 4.39-2.25 7.55-2.26 16.25-0.07 39.26 0 39.26 0v9.06c0-0.01-26.5 0.06-37.75-0.01z"/>
                    <path d="m790.7 72.3h-21.14v38.51h-12.08v-38.51h-21.14v-9.06h54.36z"/>
                    <path d="m153.44 64h12.08l19.63 35.49 14.35-24.16 6.04-11.33h11.32l-26.42 46.81h-11.33z"/>
                    <rect x="239.51" y="64" width="9.82" height="46.81"/>
                    <path d="m368.63 97.98-17.37-33.98h-9.82l11.32 22.65-6.04 11.33h-1.51c-6.79-11.32-13.59-22.65-20.39-33.98h-11.33c8.05 16.34 19.12 31.02 27.94 46.81 3.14 0.12 7.55 0 7.55 0l8.3-14.35s5.84 10.37 7.55 14.35h7.55l27.2-46.81h-9.82c-6.79 11.07-21.13 33.98-21.13 33.98z"/>
                    
                        <path d="m701.6 64h-12.84l-28.69 46.81h12.08l6.04-9.82h34.73l6.04 9.82h12.08zm-17.36 27.94 11.33-18.12 10.57 18.12z" fill="#fff" fill-rule="nonzero"/>
                        <path d="m684.24 91.94h21.89l-10.57-18.13z" fill="none"/>
                    
                    <path d="m265.94 90.43v-8.31h18.88v8.31s-12.94 0.06-18.88 0z"/>
                    <path d="m265.94 101.75h35.49v9.06s-24.67 0.06-35.49 0z"/>
                    <g id="Central-Logo" serif:id="Central Logo"><g fill="#fff">
                        <path d="m521.9 120.63c3.01 1.69 5.26 3.73 6.8 6.04-3.76 3.92-6.07 6.31-10.57 9.06-2.39-2.26-4.49-4.88-5.29-6.8 4.97-1.85 7.26-3.75 9.06-8.3z"/>
                        <path d="m530.21 126.67h2.26l2.26 2.26c-0.25 0.25-0.5 0.5-0.75 0.76l-12.84 12.84h-0.76c-0.74-2.29-1.48-2.26-2.26-4.53 4.03-3.78 8.06-7.56 12.09-11.33z"/>
                        <path d="m534.74 130.44h2.27c7.27 5.78 21.42 19.34 28.69 27.18 4.23 4.56 18.45 20.96 21.9 26.43 0.2 1.6-13.46 14.8-15.1 13.59-4.19-3.49-20.35-17.23-29.45-27.18-3.74-4.09-21.18-24.66-21.14-27.94 4.27-4.02 8.55-8.05 12.83-12.08z"/>
                        <path d="m587.59 186.32c4.76 2.56 5.28 6.38 5.29 10.57-0.97 2.26-4.01 6.57-9.06 6.8-3.47-0.55-6.17-1.5-9.06-5.29 4.09-2.65 10.15-8 12.83-12.08z"/>
                        <path d="m444.16 73.39c4.28 0 11.07 0.03 12.08 0 1-0.04 1.58-1.03 1.54-1.92 0.01-1.93-0.02-2.48-0.03-5.63 0.01-1.51-1.5-1.51-1.5-1.51h-12.09v-6.79s9.22-0.12 17.37 0c1.11 0.15 2.46 0.81 3.02 1.51 0.48 0.59 1.4 1.75 1.51 3.02s0 8.15 0 12.84c0 1.16-0.88 2.31-1.51 3.02-0.82 0.93-2.15 1.49-3.02 1.51-3.63 0.08-7.55 0-7.55 0l12.84 12.84h-9.82l-12.84-12.84c0-0.02-0.04-4.19 0-6.05z"/>
                        <path d="m507.58 92.26v-24.16l-15.1 11.32-15.1-11.32v24.16h-7.55v-34.73h6.79l15.86 12.08 15.1-12.08h7.55v34.73z"/>
                        </g><g id="Magnifying_Glass_Lens" transform="matrix(1.1016 0 0 1.1129 -45.473 -11.7)" fill="none">
                            <ellipse cx="476.96" cy="77.18" rx="62" ry="58.55" stroke="#fff" stroke-width="1px"/>
                            <path d="m517.1 125.35c5.5-4.31 5.65-13.43 2.22-14.08-4.16-0.79-5.28 3.93-8.38 6.63s-4.91 0.74-7.64 5.17c-1.95 3.17 6.85 7.73 13.8 2.28z" display="none" stroke="#f9f9f9"/><g stroke="#fff" stroke-width="1px">
                            <ellipse cx="473.67" cy="73.84" rx="62" ry="58.55"/>
                            <ellipse cx="479.99" cy="73.84" rx="62" ry="58.55"/>
                            <ellipse cx="472.32" cy="78.7" rx="62" ry="58.55"/>
                        </g></g><g fill="#fff">
                        <path d="m476.02 22.964c25.11 2.4 28.69 11.33 28.69 11.33s-18.71-9.1-35.49-5.29c-11.51 2.62-14.96 4.82-18.88 7.55-0.77 0.54-5.73-4.55-5.29-5.29 0.45-0.73 14.98-9.83 30.97-8.3z"/>
                        <path d="m438.27 36.554h2.26c1.39 2.11 2.4 2.13 3.02 5.29-24.56 23.68-15.1 52.1-15.1 52.1s-3.21-1.94-5.29-12.84c-3.92-20.59 5.43-33.7 15.11-44.55z"/>
                        <path d="m527.97 57.569c6.14 6.58 5.42 25.64 2.26 34.73-6.15 17.71-17.25 29.37-35.49 34.73-15.52 4.57-36.88-1.78-43.04-9.82h1.51c8.52 6.97 28.13 7.08 39.26 3.02 27.35-9.96 38.38-27.23 35.5-62.66z"/>
                    </g></g>
                
                <g transform="translate(3.1685 21.396)">
                    <path d="m870.37 33.349c0.248-0.071 0.568-0.071 1.082-0.071 1.207 0 2.059 0.462 2.059 1.615 0 1.012-0.799 1.686-2.005 1.686h-1.136zm-1.313 8.234h1.313v-3.993h1.065c1.047 0.036 1.508 0.533 1.739 1.739 0.266 1.171 0.496 1.97 0.656 2.254h1.366c-0.23-0.408-0.461-1.367-0.763-2.609-0.195-0.745-0.621-1.508-1.153-1.863 0.852-0.39 1.526-1.206 1.526-2.342 0-0.745-0.248-1.366-0.727-1.81-0.586-0.532-1.402-0.763-2.68-0.763-0.763 0-1.703 0.089-2.342 0.213zm8.801-4.525c0 3.354-2.75 6.086-6.086 6.086s-6.069-2.732-6.069-6.086c0-3.371 2.733-6.122 6.069-6.122s6.086 2.751 6.086 6.122zm1.118 0c0-3.975-3.23-7.24-7.204-7.24-3.975 0-7.204 3.265-7.204 7.24 0 3.992 3.229 7.204 7.204 7.204 3.974 0 7.204-3.212 7.204-7.204z" fill="#fff" fill-rule="nonzero"/>
                </g>
            </g>
            <g id="Shadow-Layer" transform="scale(.97411 1)" display="none" serif:id="Shadow Layer">
                <g id="Shadows" fill="#fff">
                    <path d="m46.22 114.95-21.9 21.9v10.57h20.39c2.2 0.02 3.86 1.46 3.78 3.78-0.06 3.02 0.03 5.58 0 9.06-0.2 2.2-1.63 3-3.78 3.02-5.06 0.05-13.31-0.02-20.39 0v10.57s16.5 0.04 26.43 0c4.47-0.02 7.3-1.85 8.31-3.02 0.52-0.66 3.01-3.13 3.02-6.04 0.02-7.81-0.01-14.18 0-19.63 0.02-2.5-1.94-4.92-3.02-6.04-1.04-1.08-2.74-2.25-5.29-2.27-4.76-0.04-12.08 0-12.08 0l21.14-21.9z"/>
                    <path d="m626.1 114.95v41.53l-25.67-20.39-26.43 20.39v-41.53h-12.08v58.89h12.84l25.67-21.14 25.67 21.14h12.84v-58.89c-0.01 0-8.57-0.06-12.84 0z"/>
                    <path d="m90.01 156.48c0.02 1.69 0.61 3.67 1.51 4.53 1.42 1.13 2.95 1.52 5.29 1.51 12.23-0.03 42.28 0 42.28 0v-8.31h-37.75v-9.82h21.14v-9.06h-21.14v-11.33h37.75v-9.06h-49.08c0 0.01-0.09 32.39 0 41.54z"/>
                    <path d="m859.41 124.01v-9.06h-49.83s-0.06 29.23 0 40.77c0.17 3.19 1.85 4.34 2.26 5.29 2.13 1.22 4.39 2.25 7.55 2.26 16.25 0.07 39.26 0 39.26 0v-9.06s-26.51-0.07-37.75 0v-9.82h21.14v-9.06h-21.14v-10.57s27.05-0.82 38.51-0.75z"/>
                    <path d="m769.56 114.95h-12.08v38.51h-21.14v9.06h54.36v-9.06h-21.14z"/>
                    <path d="m179.11 114.95-25.67 46.81h12.08l19.63-35.49 14.35 24.16 6.04 11.33h11.32l-26.42-46.81z"/>
                    <rect x="239.51" y="114.95" width="9.82" height="46.81"/>
                    <path d="m364.85 114.95c-1.71 3.98-7.55 14.35-7.55 14.35l-8.3-14.35s-4.41-0.12-7.55 0c-8.82 15.79-19.89 30.47-27.94 46.81h11.33c6.79-11.32 13.59-22.65 20.39-33.98h1.51l6.04 11.33-11.32 22.65h9.82l17.37-33.98s14.35 22.9 21.14 33.98h9.82l-27.18-46.81z"/>
                    <path d="m712.93 124.76h-34.73l-6.04-9.82h-12.08l28.69 46.81h12.84l29.45-46.81h-12.08zm-17.37 27.19-11.33-18.12h21.9z"/>
                    <path d="m301.43 154.21v8.31h-35.49v-8.31c10.61-0.06 35.49 0 35.49 0zm-16.61-18.88s-12.94-0.06-18.88 0v8.31h18.88zm-18.88-20.38v9.06h35.49v-9.06s-24.67-0.07-35.49 0z"/>
                </g>
            </g>
        </g>
    </g></svg>
