<?xml version="1.0" encoding="UTF-8" standalone="no"?>
<svg
   width="100%"
   height="100%"
   viewBox="0 0 895 216"
   version="1.1"
   xml:space="preserve"
   style="fill-rule:evenodd;clip-rule:evenodd;stroke-miterlimit:10;"
   id="svg166"
   sodipodi:docname="reviewmate-mainlogo(whitebg).svg"
   inkscape:version="1.1.1 (3bf5ae0d25, 2021-09-20)"
   xmlns:inkscape="http://www.inkscape.org/namespaces/inkscape"
   xmlns:sodipodi="http://sodipodi.sourceforge.net/DTD/sodipodi-0.dtd"
   xmlns="http://www.w3.org/2000/svg"
   xmlns:svg="http://www.w3.org/2000/svg"
   xmlns:serif="http://www.serif.com/"><sodipodi:namedview
   id="namedview168"
   pagecolor="#ffffff"
   bordercolor="#666666"
   borderopacity="1.0"
   inkscape:pageshadow="2"
   inkscape:pageopacity="0.0"
   inkscape:pagecheckerboard="0"
   showgrid="false"
   inkscape:zoom="1.4357542"
   inkscape:cx="447.5"
   inkscape:cy="107.9572"
   inkscape:window-width="3424"
   inkscape:window-height="1388"
   inkscape:window-x="8"
   inkscape:window-y="8"
   inkscape:window-maximized="0"
   inkscape:current-layer="layer2" />
    
    <defs
   id="defs164">
        <linearGradient
   id="_Linear1"
   x1="0"
   y1="0"
   x2="1"
   y2="0"
   gradientUnits="userSpaceOnUse"
   gradientTransform="matrix(0,58.9119,-58.9119,0,43.5788,114.948)"><stop
     offset="0"
     style="stop-color:black;stop-opacity:0.5"
     id="stop94" /><stop
     offset="0.77"
     style="stop-color:black;stop-opacity:0"
     id="stop96" /><stop
     offset="1"
     style="stop-color:black;stop-opacity:0"
     id="stop98" /></linearGradient>
        <linearGradient
   id="_Linear2"
   x1="0"
   y1="0"
   x2="1"
   y2="0"
   gradientUnits="userSpaceOnUse"
   gradientTransform="matrix(0,58.9182,-58.9182,0,600.426,114.923)"><stop
     offset="0"
     style="stop-color:rgb(154,42,36);stop-opacity:0.5"
     id="stop101" /><stop
     offset="0.77"
     style="stop-color:black;stop-opacity:0"
     id="stop103" /><stop
     offset="1"
     style="stop-color:black;stop-opacity:0"
     id="stop105" /></linearGradient>
        <linearGradient
   id="_Linear3"
   x1="0"
   y1="0"
   x2="1"
   y2="0"
   gradientUnits="userSpaceOnUse"
   gradientTransform="matrix(0,47.5685,-47.5685,0,114.533,114.948)"><stop
     offset="0"
     style="stop-color:black;stop-opacity:0.5"
     id="stop108" /><stop
     offset="0.77"
     style="stop-color:black;stop-opacity:0"
     id="stop110" /><stop
     offset="1"
     style="stop-color:black;stop-opacity:0"
     id="stop112" /></linearGradient>
        <linearGradient
   id="_Linear4"
   x1="0"
   y1="0"
   x2="1"
   y2="0"
   gradientUnits="userSpaceOnUse"
   gradientTransform="matrix(0,48.353,-48.353,0,834.478,114.948)"><stop
     offset="0"
     style="stop-color:rgb(154,42,36);stop-opacity:0.5"
     id="stop115" /><stop
     offset="0.77"
     style="stop-color:black;stop-opacity:0"
     id="stop117" /><stop
     offset="1"
     style="stop-color:black;stop-opacity:0"
     id="stop119" /></linearGradient>
        <linearGradient
   id="_Linear5"
   x1="0"
   y1="0"
   x2="1"
   y2="0"
   gradientUnits="userSpaceOnUse"
   gradientTransform="matrix(0,47.5684,-47.5684,0,763.516,114.948)"><stop
     offset="0"
     style="stop-color:rgb(154,42,36);stop-opacity:0.5"
     id="stop122" /><stop
     offset="0.77"
     style="stop-color:black;stop-opacity:0"
     id="stop124" /><stop
     offset="1"
     style="stop-color:black;stop-opacity:0"
     id="stop126" /></linearGradient>
        <linearGradient
   id="_Linear6"
   x1="0"
   y1="0"
   x2="1"
   y2="0"
   gradientUnits="userSpaceOnUse"
   gradientTransform="matrix(0,46.8129,-46.8129,0,185.151,114.948)"><stop
     offset="0"
     style="stop-color:black;stop-opacity:0.5"
     id="stop129" /><stop
     offset="0.77"
     style="stop-color:black;stop-opacity:0"
     id="stop131" /><stop
     offset="1"
     style="stop-color:black;stop-opacity:0"
     id="stop133" /></linearGradient>
        <linearGradient
   id="_Linear7"
   x1="0"
   y1="0"
   x2="1"
   y2="0"
   gradientUnits="userSpaceOnUse"
   gradientTransform="matrix(0,46.8129,-46.8129,0,244.422,114.948)"><stop
     offset="0"
     style="stop-color:black;stop-opacity:0.5"
     id="stop136" /><stop
     offset="0.77"
     style="stop-color:black;stop-opacity:0"
     id="stop138" /><stop
     offset="1"
     style="stop-color:black;stop-opacity:0"
     id="stop140" /></linearGradient>
        <linearGradient
   id="_Linear8"
   x1="0"
   y1="0"
   x2="1"
   y2="0"
   gradientUnits="userSpaceOnUse"
   gradientTransform="matrix(0,46.8642,-46.8642,0,356.546,114.897)"><stop
     offset="0"
     style="stop-color:black;stop-opacity:0.5"
     id="stop143" /><stop
     offset="0.77"
     style="stop-color:black;stop-opacity:0"
     id="stop145" /><stop
     offset="1"
     style="stop-color:black;stop-opacity:0"
     id="stop147" /></linearGradient>
        <linearGradient
   id="_Linear9"
   x1="0"
   y1="0"
   x2="1"
   y2="0"
   gradientUnits="userSpaceOnUse"
   gradientTransform="matrix(0,46.8129,-46.8129,0,695.562,114.948)"><stop
     offset="0"
     style="stop-color:rgb(154,42,36);stop-opacity:0.5"
     id="stop150" /><stop
     offset="0.77"
     style="stop-color:black;stop-opacity:0"
     id="stop152" /><stop
     offset="1"
     style="stop-color:black;stop-opacity:0"
     id="stop154" /></linearGradient>
        <linearGradient
   id="_Linear10"
   x1="0"
   y1="0"
   x2="1"
   y2="0"
   gradientUnits="userSpaceOnUse"
   gradientTransform="matrix(0,47.5968,-47.5968,0,283.684,114.92)"><stop
     offset="0"
     style="stop-color:black;stop-opacity:0.5"
     id="stop157" /><stop
     offset="0.77"
     style="stop-color:black;stop-opacity:0"
     id="stop159" /><stop
     offset="1"
     style="stop-color:black;stop-opacity:0"
     id="stop161" /></linearGradient>
    </defs>
<g
   inkscape:groupmode="layer"
   id="layer2"
   inkscape:label="White background"><rect
     style="clip-rule:evenodd;opacity:1;fill:#ffffff;fill-opacity:1;fill-rule:evenodd;stroke:#ffffff;stroke-width:12.342;stroke-miterlimit:10"
     id="rect1009"
     width="894.15118"
     height="216"
     x="0.28790236"
     y="0.59226304" /></g><g
   inkscape:groupmode="layer"
   id="layer1"
   inkscape:label="Logo"><g
     id="Artboard1"
     transform="matrix(1.02658,0,0,1,0.28788356,0.59226302)"
     style="clip-rule:evenodd;fill-rule:evenodd;stroke-miterlimit:10">
        <rect
   x="0"
   y="0"
   width="871"
   height="216"
   style="fill:none"
   id="rect2" />
        <g
   id="g91">
            <g
   id="Main-Logo"
   serif:id="Main Logo"
   transform="scale(0.974112,1)">
                <g
   id="g62">
                    <path
   d="m 24.33,51.92 c 0,0 16.5,-0.04 26.43,0 4.47,0.02 7.3,1.85 8.31,3.02 0.52,0.66 3.01,3.13 3.02,6.04 0.02,7.81 -0.01,14.18 0,19.63 0.02,2.5 -1.94,4.92 -3.02,6.04 -1.04,1.08 -2.74,2.25 -5.29,2.27 -4.76,0.04 -12.08,0 -12.08,0 l 21.14,21.9 H 46.22 L 24.32,88.92 V 78.35 h 20.39 c 2.2,-0.02 3.86,-1.46 3.78,-3.78 -0.06,-3.02 0.03,-5.58 0,-9.06 -0.2,-2.2 -1.63,-3 -3.78,-3.02 -5.06,-0.05 -13.31,0.02 -20.39,0 0.01,-3.52 0.01,-10.57 0.01,-10.57 z"
   id="path4" />
                    <path
   d="M 626.1,110.81 V 69.28 L 600.43,89.67 574,69.28 v 41.53 H 561.92 V 51.92 h 12.84 l 25.67,21.14 25.67,-21.14 h 12.84 v 58.89 c -0.01,0 -8.57,0.06 -12.84,0 z"
   style="fill:#9a2a24"
   id="path6" />
                    <path
   d="m 139.09,71.55 h -37.75 v 9.82 h 21.14 v 9.06 h -21.14 v 11.33 h 37.75 v 9.06 H 90.01 c 0,0 -0.09,-32.38 0,-41.53 0.02,-1.69 0.61,-3.67 1.51,-4.53 1.42,-1.13 2.95,-1.52 5.29,-1.51 12.23,0.03 42.28,0 42.28,0 z"
   id="path8" />
                    <path
   d="m 265.94,71.55 v -8.31 h 35.49 v 8.31 c 0,0 -24.88,0.06 -35.49,0 z"
   id="path10" />
                    <path
   d="m 820.9,71.55 v 9.82 h 21.14 c 0,-1.9 0,9.06 0,9.06 H 820.9 V 101 c 0,0 27.05,0.82 38.51,0.76 v 9.06 h -49.83 c 0,0 -0.06,-29.23 0,-40.77 0.17,-3.19 1.85,-4.34 2.26,-5.29 2.13,-1.22 4.39,-2.25 7.55,-2.26 16.25,-0.07 39.26,0 39.26,0 v 9.06 c 0,-0.01 -26.5,0.06 -37.75,-0.01 z"
   style="fill:#9a2a24"
   id="path12" />
                    <path
   d="m 790.7,72.3 h -21.14 v 38.51 H 757.48 V 72.3 h -21.14 v -9.06 h 54.36 z"
   style="fill:#9a2a24"
   id="path14" />
                    <path
   d="m 153.44,64 h 12.08 L 185.15,99.49 199.5,75.33 205.54,64 h 11.32 l -26.42,46.81 h -11.33 z"
   id="path16" />
                    <rect
   x="239.50999"
   y="64"
   width="9.8199997"
   height="46.810001"
   id="rect18" />
                    <path
   d="M 368.63,97.98 351.26,64 h -9.82 l 11.32,22.65 -6.04,11.33 h -1.51 C 338.42,86.66 331.62,75.33 324.82,64 h -11.33 c 8.05,16.34 19.12,31.02 27.94,46.81 3.14,0.12 7.55,0 7.55,0 l 8.3,-14.35 c 0,0 5.84,10.37 7.55,14.35 h 7.55 L 399.58,64 h -9.82 c -6.79,11.07 -21.13,33.98 -21.13,33.98 z"
   id="path20" />
                    <g
   id="g26">
                        <path
   d="m 701.6,64 h -12.84 l -28.69,46.81 h 12.08 l 6.04,-9.82 h 34.73 l 6.04,9.82 h 12.08 z m -17.36,27.94 11.33,-18.12 10.57,18.12 z"
   style="fill:#9a2a24;fill-rule:nonzero"
   id="path22" />
                        <path
   d="m 684.24,91.94 h 21.89 L 695.56,73.81 Z"
   style="fill:none;fill-rule:nonzero"
   id="path24" />
                    </g>
                    <path
   d="m 265.94,90.43 v -8.31 h 18.88 v 8.31 c 0,0 -12.94,0.06 -18.88,0 z"
   id="path28" />
                    <path
   d="m 265.94,101.75 h 35.49 v 9.06 c 0,0 -24.67,0.06 -35.49,0 z"
   id="path30" />
                    <g
   id="Central-Logo"
   serif:id="Central Logo">
                        <path
   d="m 521.9,120.63 c 3.01,1.69 5.26,3.73 6.8,6.04 -3.76,3.92 -6.07,6.31 -10.57,9.06 -2.39,-2.26 -4.49,-4.88 -5.29,-6.8 4.97,-1.85 7.26,-3.75 9.06,-8.3 z"
   style="fill:#9a2a24"
   id="path32" />
                        <path
   d="m 530.21,126.67 h 2.26 c 0.76,0.76 1.51,1.51 2.26,2.26 -0.25,0.25 -0.5,0.5 -0.75,0.76 -4.28,4.28 -8.56,8.56 -12.84,12.84 h -0.76 c -0.74,-2.29 -1.48,-2.26 -2.26,-4.53 4.03,-3.78 8.06,-7.56 12.09,-11.33 z"
   style="fill:#9a2a24"
   id="path34" />
                        <path
   d="m 534.74,130.44 h 2.27 c 7.27,5.78 21.42,19.34 28.69,27.18 4.23,4.56 18.45,20.96 21.9,26.43 0.2,1.6 -13.46,14.8 -15.1,13.59 -4.19,-3.49 -20.35,-17.23 -29.45,-27.18 -3.74,-4.09 -21.18,-24.66 -21.14,-27.94 4.27,-4.02 8.55,-8.05 12.83,-12.08 z"
   style="fill:#9a2a24"
   id="path36" />
                        <path
   d="m 587.59,186.32 c 4.76,2.56 5.28,6.38 5.29,10.57 -0.97,2.26 -4.01,6.57 -9.06,6.8 -3.47,-0.55 -6.17,-1.5 -9.06,-5.29 4.09,-2.65 10.15,-8 12.83,-12.08 z"
   style="fill:#9a2a24"
   id="path38" />
                        <path
   d="m 438.85,78.35 c 4.28,0 11.07,0.03 12.08,0 1,-0.04 1.58,-1.03 1.54,-1.92 0.01,-1.93 -0.02,-2.48 -0.03,-5.63 0.01,-1.51 -1.5,-1.51 -1.5,-1.51 H 438.85 V 62.5 c 0,0 9.22,-0.12 17.37,0 1.11,0.15 2.46,0.81 3.02,1.51 0.48,0.59 1.4,1.75 1.51,3.02 0.11,1.27 0,8.15 0,12.84 0,1.16 -0.88,2.31 -1.51,3.02 -0.82,0.93 -2.15,1.49 -3.02,1.51 -3.63,0.08 -7.55,0 -7.55,0 0,0 8.81,8.81 12.84,12.84 h -9.82 L 438.85,84.4 c 0,-0.02 -0.04,-4.19 0,-6.05 z"
   style="fill:#9a2a24"
   id="path40" />
                        <path
   d="M 502.27,97.22 V 73.06 l -15.1,11.32 -15.1,-11.32 v 24.16 h -7.55 V 62.49 h 6.79 l 15.86,12.08 15.1,-12.08 h 7.55 v 34.73 z"
   style="fill:#9a2a24"
   id="path42" />
                        <g
   id="Magnifying_Glass_Lens">
                            <ellipse
   cx="476.95999"
   cy="77.18"
   rx="62"
   ry="58.549999"
   style="fill:none;stroke:#9a2a24;stroke-width:1px"
   id="ellipse44" />
                            <path
   d="m 517.1,125.35 c 5.5,-4.31 5.65,-13.43 2.22,-14.08 -4.16,-0.79 -5.28,3.93 -8.38,6.63 -3.1,2.7 -4.91,0.74 -7.64,5.17 -1.95,3.17 6.85,7.73 13.8,2.28 z"
   style="fill:#9a2a24"
   id="path46" />
                            <ellipse
   cx="473.67001"
   cy="73.839996"
   rx="62"
   ry="58.549999"
   style="fill:none;stroke:#9a2a24;stroke-width:1px"
   id="ellipse48" />
                            <ellipse
   cx="479.98999"
   cy="73.839996"
   rx="62"
   ry="58.549999"
   style="fill:none;stroke:#9a2a24;stroke-width:1px"
   id="ellipse50" />
                            <ellipse
   cx="472.32001"
   cy="78.699997"
   rx="62"
   ry="58.549999"
   style="fill:none;stroke:#9a2a24;stroke-width:1px"
   id="ellipse52" />
                        </g>
                        <path
   d="m 478.11,27 c 25.11,2.4 28.69,11.33 28.69,11.33 0,0 -18.71,-9.1 -35.49,-5.29 -11.51,2.62 -14.96,4.82 -18.88,7.55 -0.77,0.54 -5.73,-4.55 -5.29,-5.29 0.45,-0.73 14.98,-9.83 30.97,-8.3 z"
   style="fill:#9a2a24"
   id="path55" />
                        <path
   d="m 440.36,40.59 h 2.26 c 1.39,2.11 2.4,2.13 3.02,5.29 -24.56,23.68 -15.1,52.1 -15.1,52.1 0,0 -3.21,-1.94 -5.29,-12.84 -3.92,-20.59 5.43,-33.7 15.11,-44.55 z"
   style="fill:#9a2a24"
   id="path57" />
                        <path
   d="m 521.15,57.96 c 6.14,6.58 5.42,25.64 2.26,34.73 -6.15,17.71 -17.25,29.37 -35.49,34.73 -15.52,4.57 -36.88,-1.78 -43.04,-9.82 h 1.51 c 8.52,6.97 28.13,7.08 39.26,3.02 27.35,-9.96 38.38,-27.23 35.5,-62.66 z"
   style="fill:#9a2a24"
   id="path59" />
                    </g>
                </g>
                <g
   transform="translate(3.16849,21.3962)"
   id="g66">
                    <path
   d="m 870.37,33.349 c 0.248,-0.071 0.568,-0.071 1.082,-0.071 1.207,0 2.059,0.462 2.059,1.615 0,1.012 -0.799,1.686 -2.005,1.686 h -1.136 z m -1.313,8.234 h 1.313 V 37.59 h 1.065 c 1.047,0.036 1.508,0.533 1.739,1.739 0.266,1.171 0.496,1.97 0.656,2.254 h 1.366 c -0.23,-0.408 -0.461,-1.367 -0.763,-2.609 -0.195,-0.745 -0.621,-1.508 -1.153,-1.863 0.852,-0.39 1.526,-1.206 1.526,-2.342 0,-0.745 -0.248,-1.366 -0.727,-1.81 -0.586,-0.532 -1.402,-0.763 -2.68,-0.763 -0.763,0 -1.703,0.089 -2.342,0.213 z m 8.801,-4.525 c 0,3.354 -2.75,6.086 -6.086,6.086 -3.336,0 -6.069,-2.732 -6.069,-6.086 0,-3.371 2.733,-6.122 6.069,-6.122 3.336,0 6.086,2.751 6.086,6.122 z m 1.118,0 c 0,-3.975 -3.23,-7.24 -7.204,-7.24 -3.975,0 -7.204,3.265 -7.204,7.24 0,3.992 3.229,7.204 7.204,7.204 3.974,0 7.204,-3.212 7.204,-7.204 z"
   style="fill:#9a2a24;fill-rule:nonzero"
   id="path64" />
                </g>
            </g>
            <g
   id="Shadow-Layer"
   serif:id="Shadow Layer"
   transform="scale(0.974112,1)">
                <g
   id="Shadows">
                    <path
   d="m 46.22,114.95 -21.9,21.9 v 10.57 h 20.39 c 2.2,0.02 3.86,1.46 3.78,3.78 -0.06,3.02 0.03,5.58 0,9.06 -0.2,2.2 -1.63,3 -3.78,3.02 -5.06,0.05 -13.31,-0.02 -20.39,0 v 10.57 c 0,0 16.5,0.04 26.43,0 4.47,-0.02 7.3,-1.85 8.31,-3.02 0.52,-0.66 3.01,-3.13 3.02,-6.04 0.02,-7.81 -0.01,-14.18 0,-19.63 0.02,-2.5 -1.94,-4.92 -3.02,-6.04 -1.04,-1.08 -2.74,-2.25 -5.29,-2.27 -4.76,-0.04 -12.08,0 -12.08,0 l 21.14,-21.9 z"
   style="fill:url(#_Linear1)"
   id="path69" />
                    <path
   d="m 626.1,114.95 v 41.53 L 600.43,136.09 574,156.48 v -41.53 h -12.08 v 58.89 h 12.84 l 25.67,-21.14 25.67,21.14 h 12.84 v -58.89 c -0.01,0 -8.57,-0.06 -12.84,0 z"
   style="fill:url(#_Linear2)"
   id="path71" />
                    <path
   d="m 90.01,156.48 c 0.02,1.69 0.61,3.67 1.51,4.53 1.42,1.13 2.95,1.52 5.29,1.51 12.23,-0.03 42.28,0 42.28,0 v -8.31 h -37.75 v -9.82 h 21.14 v -9.06 H 101.34 V 124 h 37.75 v -9.06 H 90.01 c 0,0.01 -0.09,32.39 0,41.54 z"
   style="fill:url(#_Linear3)"
   id="path73" />
                    <path
   d="m 859.41,124.01 v -9.06 h -49.83 c 0,0 -0.06,29.23 0,40.77 0.17,3.19 1.85,4.34 2.26,5.29 2.13,1.22 4.39,2.25 7.55,2.26 16.25,0.07 39.26,0 39.26,0 v -9.06 c 0,0 -26.51,-0.07 -37.75,0 v -9.82 h 21.14 v -9.06 H 820.9 v -10.57 c 0,0 27.05,-0.82 38.51,-0.75 z"
   style="fill:url(#_Linear4)"
   id="path75" />
                    <path
   d="m 769.56,114.95 h -12.08 v 38.51 h -21.14 v 9.06 h 54.36 v -9.06 h -21.14 z"
   style="fill:url(#_Linear5)"
   id="path77" />
                    <path
   d="m 179.11,114.95 -25.67,46.81 h 12.08 l 19.63,-35.49 14.35,24.16 6.04,11.33 h 11.32 l -26.42,-46.81 z"
   style="fill:url(#_Linear6)"
   id="path79" />
                    <rect
   x="239.50999"
   y="114.95"
   width="9.8199997"
   height="46.810001"
   style="fill:url(#_Linear7)"
   id="rect81" />
                    <path
   d="m 364.85,114.95 c -1.71,3.98 -7.55,14.35 -7.55,14.35 L 349,114.95 c 0,0 -4.41,-0.12 -7.55,0 -8.82,15.79 -19.89,30.47 -27.94,46.81 h 11.33 c 6.79,-11.32 13.59,-22.65 20.39,-33.98 h 1.51 l 6.04,11.33 -11.32,22.65 h 9.82 l 17.37,-33.98 c 0,0 14.35,22.9 21.14,33.98 h 9.82 l -27.18,-46.81 z"
   style="fill:url(#_Linear8)"
   id="path83" />
                    <path
   d="M 712.93,124.76 H 678.2 l -6.04,-9.82 h -12.08 l 28.69,46.81 h 12.84 l 29.45,-46.81 h -12.08 z m -17.37,27.19 -11.33,-18.12 h 21.9 z"
   style="fill:url(#_Linear9)"
   id="path85" />
                    <path
   d="m 301.43,154.21 v 8.31 h -35.49 v -8.31 c 10.61,-0.06 35.49,0 35.49,0 z m -16.61,-18.88 c 0,0 -12.94,-0.06 -18.88,0 v 8.31 h 18.88 z m -18.88,-20.38 v 9.06 h 35.49 v -9.06 c 0,0 -24.67,-0.07 -35.49,0 z"
   style="fill:url(#_Linear10)"
   id="path87" />
                </g>
            </g>
        </g>
    </g></g></svg>
