<?xml version="1.0" encoding="UTF-8" standalone="no"?>
<!DOCTYPE svg PUBLIC "-//W3C//DTD SVG 1.1//EN" "http://www.w3.org/Graphics/SVG/1.1/DTD/svg11.dtd">
<svg width="100%" height="100%" viewBox="0 0 895 216" version="1.1" xmlns="http://www.w3.org/2000/svg" xmlns:xlink="http://www.w3.org/1999/xlink" xml:space="preserve" xmlns:serif="http://www.serif.com/" style="fill-rule:evenodd;clip-rule:evenodd;stroke-miterlimit:10;">
    <g id="Artboard1" transform="matrix(1.02658,0,0,1,0,0)">
        <rect x="0" y="0" width="871" height="216" style="fill:none;"/>
        <g>
            <g id="Main-Logo" serif:id="Main Logo" transform="matrix(0.974112,0,0,1,0,0)">
                <g>
                    <path d="M24.33,51.92C24.33,51.92 40.83,51.88 50.76,51.92C55.23,51.94 58.06,53.77 59.07,54.94C59.59,55.6 62.08,58.07 62.09,60.98C62.11,68.79 62.08,75.16 62.09,80.61C62.11,83.11 60.15,85.53 59.07,86.65C58.03,87.73 56.33,88.9 53.78,88.92C49.02,88.96 41.7,88.92 41.7,88.92L62.84,110.82L46.22,110.82L24.32,88.92L24.32,78.35L44.71,78.35C46.91,78.33 48.57,76.89 48.49,74.57C48.43,71.55 48.52,68.99 48.49,65.51C48.29,63.31 46.86,62.51 44.71,62.49C39.65,62.44 31.4,62.51 24.32,62.49C24.33,58.97 24.33,51.92 24.33,51.92Z"/>
                    <path d="M626.1,110.81L626.1,69.28L600.43,89.67L574,69.28L574,110.81L561.92,110.81L561.92,51.92L574.76,51.92L600.43,73.06L626.1,51.92L638.94,51.92L638.94,110.81C638.93,110.81 630.37,110.87 626.1,110.81Z" style="fill:rgb(154,42,36);"/>
                    <path d="M139.09,71.55L101.34,71.55L101.34,81.37L122.48,81.37L122.48,90.43L101.34,90.43L101.34,101.76L139.09,101.76L139.09,110.82L90.01,110.82C90.01,110.82 89.92,78.44 90.01,69.29C90.03,67.6 90.62,65.62 91.52,64.76C92.94,63.63 94.47,63.24 96.81,63.25C109.04,63.28 139.09,63.25 139.09,63.25L139.09,71.55Z"/>
                    <path d="M265.94,71.55L265.94,63.24L301.43,63.24L301.43,71.55C301.43,71.55 276.55,71.61 265.94,71.55Z"/>
                    <path d="M820.9,71.55L820.9,81.37L842.04,81.37C842.04,79.47 842.04,90.43 842.04,90.43L820.9,90.43L820.9,101C820.9,101 847.95,101.82 859.41,101.76L859.41,110.82L809.58,110.82C809.58,110.82 809.52,81.59 809.58,70.05C809.75,66.86 811.43,65.71 811.84,64.76C813.97,63.54 816.23,62.51 819.39,62.5C835.64,62.43 858.65,62.5 858.65,62.5L858.65,71.56C858.65,71.55 832.15,71.62 820.9,71.55Z" style="fill:rgb(154,42,36);"/>
                    <path d="M790.7,72.3L769.56,72.3L769.56,110.81L757.48,110.81L757.48,72.3L736.34,72.3L736.34,63.24L790.7,63.24L790.7,72.3Z" style="fill:rgb(154,42,36);"/>
                    <path d="M153.44,64L165.52,64L185.15,99.49L199.5,75.33L205.54,64L216.86,64L190.44,110.81L179.11,110.81L153.44,64Z"/>
                    <rect x="239.51" y="64" width="9.82" height="46.81"/>
                    <path d="M368.63,97.98L351.26,64L341.44,64L352.76,86.65L346.72,97.98L345.21,97.98C338.42,86.66 331.62,75.33 324.82,64L313.49,64C321.54,80.34 332.61,95.02 341.43,110.81C344.57,110.93 348.98,110.81 348.98,110.81L357.28,96.46C357.28,96.46 363.12,106.83 364.83,110.81L372.38,110.81L399.58,64L389.76,64C382.97,75.07 368.63,97.98 368.63,97.98Z"/>
                    <g>
                        <path d="M701.6,64L688.76,64L660.07,110.81L672.15,110.81L678.19,100.99L712.92,100.99L718.96,110.81L731.04,110.81L701.6,64ZM684.24,91.94L695.57,73.82L706.14,91.94L684.24,91.94Z" style="fill:rgb(154,42,36);fill-rule:nonzero;"/>
                        <path d="M684.24,91.94L706.13,91.94L695.56,73.81L684.24,91.94Z" style="fill:none;fill-rule:nonzero;"/>
                    </g>
                    <path d="M265.94,90.43L265.94,82.12L284.82,82.12L284.82,90.43C284.82,90.43 271.88,90.49 265.94,90.43Z"/>
                    <path d="M265.94,101.75L301.43,101.75L301.43,110.81C301.43,110.81 276.76,110.87 265.94,110.81L265.94,101.75Z"/>
                    <g id="Central-Logo" serif:id="Central Logo">
                        <path d="M521.9,120.63C524.91,122.32 527.16,124.36 528.7,126.67C524.94,130.59 522.63,132.98 518.13,135.73C515.74,133.47 513.64,130.85 512.84,128.93C517.81,127.08 520.1,125.18 521.9,120.63Z" style="fill:rgb(154,42,36);"/>
                        <path d="M530.21,126.67L532.47,126.67C533.23,127.43 533.98,128.18 534.73,128.93C534.48,129.18 534.23,129.43 533.98,129.69C529.7,133.97 525.42,138.25 521.14,142.53L520.38,142.53C519.64,140.24 518.9,140.27 518.12,138C522.15,134.22 526.18,130.44 530.21,126.67Z" style="fill:rgb(154,42,36);"/>
                        <path d="M534.74,130.44L537.01,130.44C544.28,136.22 558.43,149.78 565.7,157.62C569.93,162.18 584.15,178.58 587.6,184.05C587.8,185.65 574.14,198.85 572.5,197.64C568.31,194.15 552.15,180.41 543.05,170.46C539.31,166.37 521.87,145.8 521.91,142.52C526.18,138.5 530.46,134.47 534.74,130.44Z" style="fill:rgb(154,42,36);"/>
                        <path d="M587.59,186.32C592.35,188.88 592.87,192.7 592.88,196.89C591.91,199.15 588.87,203.46 583.82,203.69C580.35,203.14 577.65,202.19 574.76,198.4C578.85,195.75 584.91,190.4 587.59,186.32Z" style="fill:rgb(154,42,36);"/>
                        <path d="M438.85,78.35C443.13,78.35 449.92,78.38 450.93,78.35C451.93,78.31 452.51,77.32 452.47,76.43C452.48,74.5 452.45,73.95 452.44,70.8C452.45,69.29 450.94,69.29 450.94,69.29L438.85,69.29L438.85,62.5C438.85,62.5 448.07,62.38 456.22,62.5C457.33,62.65 458.68,63.31 459.24,64.01C459.72,64.6 460.64,65.76 460.75,67.03C460.86,68.3 460.75,75.18 460.75,79.87C460.75,81.03 459.87,82.18 459.24,82.89C458.42,83.82 457.09,84.38 456.22,84.4C452.59,84.48 448.67,84.4 448.67,84.4C448.67,84.4 457.48,93.21 461.51,97.24L451.69,97.24L438.85,84.4C438.85,84.38 438.81,80.21 438.85,78.35Z" style="fill:rgb(154,42,36);"/>
                        <path d="M502.27,97.22L502.27,73.06L487.17,84.38L472.07,73.06L472.07,97.22L464.52,97.22L464.52,62.49L471.31,62.49L487.17,74.57L502.27,62.49L509.82,62.49L509.82,97.22L502.27,97.22Z" style="fill:rgb(154,42,36);"/>
                        <g id="Magnifying_Glass_Lens">
                            <ellipse cx="476.96" cy="77.18" rx="62" ry="58.55" style="fill:none;stroke:rgb(154,42,36);stroke-width:1px;"/>
                            <path d="M517.1,125.35C522.6,121.04 522.75,111.92 519.32,111.27C515.16,110.48 514.04,115.2 510.94,117.9C507.84,120.6 506.03,118.64 503.3,123.07C501.35,126.24 510.15,130.8 517.1,125.35Z" style="fill:rgb(154,42,36);"/>
                            <ellipse cx="473.67" cy="73.84" rx="62" ry="58.55" style="fill:none;stroke:rgb(154,42,36);stroke-width:1px;"/>
                            <ellipse cx="479.99" cy="73.84" rx="62" ry="58.55" style="fill:none;stroke:rgb(154,42,36);stroke-width:1px;"/>
                            <ellipse cx="472.32" cy="78.7" rx="62" ry="58.55" style="fill:none;stroke:rgb(154,42,36);stroke-width:1px;"/>
                        </g>
                        <path d="M478.11,27C503.22,29.4 506.8,38.33 506.8,38.33C506.8,38.33 488.09,29.23 471.31,33.04C459.8,35.66 456.35,37.86 452.43,40.59C451.66,41.13 446.7,36.04 447.14,35.3C447.59,34.57 462.12,25.47 478.11,27Z" style="fill:rgb(154,42,36);"/>
                        <path d="M440.36,40.59L442.62,40.59C444.01,42.7 445.02,42.72 445.64,45.88C421.08,69.56 430.54,97.98 430.54,97.98C430.54,97.98 427.33,96.04 425.25,85.14C421.33,64.55 430.68,51.44 440.36,40.59Z" style="fill:rgb(154,42,36);"/>
                        <path d="M521.15,57.96C527.29,64.54 526.57,83.6 523.41,92.69C517.26,110.4 506.16,122.06 487.92,127.42C472.4,131.99 451.04,125.64 444.88,117.6L446.39,117.6C454.91,124.57 474.52,124.68 485.65,120.62C513,110.66 524.03,93.39 521.15,57.96Z" style="fill:rgb(154,42,36);"/>
                    </g>
                </g>
                <g transform="matrix(1,0,0,1,3.16849,21.3962)">
                    <path d="M870.37,33.349C870.618,33.278 870.938,33.278 871.452,33.278C872.659,33.278 873.511,33.74 873.511,34.893C873.511,35.905 872.712,36.579 871.506,36.579L870.37,36.579L870.37,33.349ZM869.057,41.583L870.37,41.583L870.37,37.59L871.435,37.59C872.482,37.626 872.943,38.123 873.174,39.329C873.44,40.5 873.67,41.299 873.83,41.583L875.196,41.583C874.966,41.175 874.735,40.216 874.433,38.974C874.238,38.229 873.812,37.466 873.28,37.111C874.132,36.721 874.806,35.905 874.806,34.769C874.806,34.024 874.558,33.403 874.079,32.959C873.493,32.427 872.677,32.196 871.399,32.196C870.636,32.196 869.696,32.285 869.057,32.409L869.057,41.583ZM877.858,37.058C877.858,40.412 875.108,43.144 871.772,43.144C868.436,43.144 865.703,40.412 865.703,37.058C865.703,33.687 868.436,30.936 871.772,30.936C875.108,30.936 877.858,33.687 877.858,37.058ZM878.976,37.058C878.976,33.083 875.746,29.818 871.772,29.818C867.797,29.818 864.568,33.083 864.568,37.058C864.568,41.05 867.797,44.262 871.772,44.262C875.746,44.262 878.976,41.05 878.976,37.058Z" style="fill:rgb(154,42,36);fill-rule:nonzero;"/>
                </g>
            </g>
            <g id="Shadow-Layer" serif:id="Shadow Layer" transform="matrix(0.974112,0,0,1,0,0)">
                <g id="Shadows">
                    <path d="M46.22,114.95L24.32,136.85L24.32,147.42L44.71,147.42C46.91,147.44 48.57,148.88 48.49,151.2C48.43,154.22 48.52,156.78 48.49,160.26C48.29,162.46 46.86,163.26 44.71,163.28C39.65,163.33 31.4,163.26 24.32,163.28L24.32,173.85C24.32,173.85 40.82,173.89 50.75,173.85C55.22,173.83 58.05,172 59.06,170.83C59.58,170.17 62.07,167.7 62.08,164.79C62.1,156.98 62.07,150.61 62.08,145.16C62.1,142.66 60.14,140.24 59.06,139.12C58.02,138.04 56.32,136.87 53.77,136.85C49.01,136.81 41.69,136.85 41.69,136.85L62.83,114.95L46.22,114.95Z" style="fill:url(#_Linear1);"/>
                    <path d="M626.1,114.95L626.1,156.48L600.43,136.09L574,156.48L574,114.95L561.92,114.95L561.92,173.84L574.76,173.84L600.43,152.7L626.1,173.84L638.94,173.84L638.94,114.95C638.93,114.95 630.37,114.89 626.1,114.95Z" style="fill:url(#_Linear2);"/>
                    <path d="M90.01,156.48C90.03,158.17 90.62,160.15 91.52,161.01C92.94,162.14 94.47,162.53 96.81,162.52C109.04,162.49 139.09,162.52 139.09,162.52L139.09,154.21L101.34,154.21L101.34,144.39L122.48,144.39L122.48,135.33L101.34,135.33L101.34,124L139.09,124L139.09,114.94L90.01,114.94C90.01,114.95 89.92,147.33 90.01,156.48Z" style="fill:url(#_Linear3);"/>
                    <path d="M859.41,124.01L859.41,114.95L809.58,114.95C809.58,114.95 809.52,144.18 809.58,155.72C809.75,158.91 811.43,160.06 811.84,161.01C813.97,162.23 816.23,163.26 819.39,163.27C835.64,163.34 858.65,163.27 858.65,163.27L858.65,154.21C858.65,154.21 832.14,154.14 820.9,154.21L820.9,144.39L842.04,144.39L842.04,135.33L820.9,135.33L820.9,124.76C820.9,124.76 847.95,123.94 859.41,124.01Z" style="fill:url(#_Linear4);"/>
                    <path d="M769.56,114.95L757.48,114.95L757.48,153.46L736.34,153.46L736.34,162.52L790.7,162.52L790.7,153.46L769.56,153.46L769.56,114.95Z" style="fill:url(#_Linear5);"/>
                    <path d="M179.11,114.95L153.44,161.76L165.52,161.76L185.15,126.27L199.5,150.43L205.54,161.76L216.86,161.76L190.44,114.95L179.11,114.95Z" style="fill:url(#_Linear6);"/>
                    <rect x="239.51" y="114.95" width="9.82" height="46.81" style="fill:url(#_Linear7);"/>
                    <path d="M364.85,114.95C363.14,118.93 357.3,129.3 357.3,129.3L349,114.95C349,114.95 344.59,114.83 341.45,114.95C332.63,130.74 321.56,145.42 313.51,161.76L324.84,161.76C331.63,150.44 338.43,139.11 345.23,127.78L346.74,127.78L352.78,139.11L341.46,161.76L351.28,161.76L368.65,127.78C368.65,127.78 383,150.68 389.79,161.76L399.61,161.76L372.43,114.95L364.85,114.95Z" style="fill:url(#_Linear8);"/>
                    <path d="M712.93,124.76L678.2,124.76L672.16,114.94L660.08,114.94L688.77,161.75L701.61,161.75L731.06,114.94L718.98,114.94L712.93,124.76ZM695.56,151.95L684.23,133.83L706.13,133.83L695.56,151.95Z" style="fill:url(#_Linear9);"/>
                    <path d="M301.43,154.21L301.43,162.52L265.94,162.52L265.94,154.21C276.55,154.15 301.43,154.21 301.43,154.21ZM284.82,135.33C284.82,135.33 271.88,135.27 265.94,135.33L265.94,143.64L284.82,143.64L284.82,135.33ZM265.94,114.95L265.94,124.01L301.43,124.01L301.43,114.95C301.43,114.95 276.76,114.88 265.94,114.95Z" style="fill:url(#_Linear10);"/>
                </g>
            </g>
        </g>
    </g>
    <defs>
        <linearGradient id="_Linear1" x1="0" y1="0" x2="1" y2="0" gradientUnits="userSpaceOnUse" gradientTransform="matrix(1.66884e-14,58.9119,-58.9119,1.66884e-14,43.5788,114.948)"><stop offset="0" style="stop-color:black;stop-opacity:0.5"/><stop offset="0.77" style="stop-color:black;stop-opacity:0"/><stop offset="1" style="stop-color:black;stop-opacity:0"/></linearGradient>
        <linearGradient id="_Linear2" x1="0" y1="0" x2="1" y2="0" gradientUnits="userSpaceOnUse" gradientTransform="matrix(3.6077e-15,58.9182,-58.9182,3.6077e-15,600.426,114.923)"><stop offset="0" style="stop-color:rgb(154,42,36);stop-opacity:0.5"/><stop offset="0.77" style="stop-color:black;stop-opacity:0"/><stop offset="1" style="stop-color:black;stop-opacity:0"/></linearGradient>
        <linearGradient id="_Linear3" x1="0" y1="0" x2="1" y2="0" gradientUnits="userSpaceOnUse" gradientTransform="matrix(2.91273e-15,47.5685,-47.5685,2.91273e-15,114.533,114.948)"><stop offset="0" style="stop-color:black;stop-opacity:0.5"/><stop offset="0.77" style="stop-color:black;stop-opacity:0"/><stop offset="1" style="stop-color:black;stop-opacity:0"/></linearGradient>
        <linearGradient id="_Linear4" x1="0" y1="0" x2="1" y2="0" gradientUnits="userSpaceOnUse" gradientTransform="matrix(2.96077e-15,48.353,-48.353,2.96077e-15,834.478,114.948)"><stop offset="0" style="stop-color:rgb(154,42,36);stop-opacity:0.5"/><stop offset="0.77" style="stop-color:black;stop-opacity:0"/><stop offset="1" style="stop-color:black;stop-opacity:0"/></linearGradient>
        <linearGradient id="_Linear5" x1="0" y1="0" x2="1" y2="0" gradientUnits="userSpaceOnUse" gradientTransform="matrix(2.91272e-15,47.5684,-47.5684,2.91272e-15,763.516,114.948)"><stop offset="0" style="stop-color:rgb(154,42,36);stop-opacity:0.5"/><stop offset="0.77" style="stop-color:black;stop-opacity:0"/><stop offset="1" style="stop-color:black;stop-opacity:0"/></linearGradient>
        <linearGradient id="_Linear6" x1="0" y1="0" x2="1" y2="0" gradientUnits="userSpaceOnUse" gradientTransform="matrix(2.86646e-15,46.8129,-46.8129,2.86646e-15,185.151,114.948)"><stop offset="0" style="stop-color:black;stop-opacity:0.5"/><stop offset="0.77" style="stop-color:black;stop-opacity:0"/><stop offset="1" style="stop-color:black;stop-opacity:0"/></linearGradient>
        <linearGradient id="_Linear7" x1="0" y1="0" x2="1" y2="0" gradientUnits="userSpaceOnUse" gradientTransform="matrix(2.86646e-15,46.8129,-46.8129,2.86646e-15,244.422,114.948)"><stop offset="0" style="stop-color:black;stop-opacity:0.5"/><stop offset="0.77" style="stop-color:black;stop-opacity:0"/><stop offset="1" style="stop-color:black;stop-opacity:0"/></linearGradient>
        <linearGradient id="_Linear8" x1="0" y1="0" x2="1" y2="0" gradientUnits="userSpaceOnUse" gradientTransform="matrix(2.8696e-15,46.8642,-46.8642,2.8696e-15,356.546,114.897)"><stop offset="0" style="stop-color:black;stop-opacity:0.5"/><stop offset="0.77" style="stop-color:black;stop-opacity:0"/><stop offset="1" style="stop-color:black;stop-opacity:0"/></linearGradient>
        <linearGradient id="_Linear9" x1="0" y1="0" x2="1" y2="0" gradientUnits="userSpaceOnUse" gradientTransform="matrix(2.86646e-15,46.8129,-46.8129,2.86646e-15,695.562,114.948)"><stop offset="0" style="stop-color:rgb(154,42,36);stop-opacity:0.5"/><stop offset="0.77" style="stop-color:black;stop-opacity:0"/><stop offset="1" style="stop-color:black;stop-opacity:0"/></linearGradient>
        <linearGradient id="_Linear10" x1="0" y1="0" x2="1" y2="0" gradientUnits="userSpaceOnUse" gradientTransform="matrix(2.91446e-15,47.5968,-47.5968,2.91446e-15,283.684,114.92)"><stop offset="0" style="stop-color:black;stop-opacity:0.5"/><stop offset="0.77" style="stop-color:black;stop-opacity:0"/><stop offset="1" style="stop-color:black;stop-opacity:0"/></linearGradient>
    </defs>
</svg>
