<?xml version="1.0" encoding="UTF-8" standalone="no"?>
<!DOCTYPE svg PUBLIC "-//W3C//DTD SVG 1.1//EN" "http://www.w3.org/Graphics/SVG/1.1/DTD/svg11.dtd">
<svg width="100%" height="100%" viewBox="0 0 904 835" version="1.1" xmlns="http://www.w3.org/2000/svg" xmlns:xlink="http://www.w3.org/1999/xlink" xml:space="preserve" xmlns:serif="http://www.serif.com/" style="fill-rule:evenodd;clip-rule:evenodd;stroke-linejoin:round;stroke-miterlimit:2;">
    <g id="Artboard1" transform="matrix(1.21096,0,0,1,-158.212,0)">
        <rect x="130.651" y="0" width="746.344" height="834.085" style="fill:none;"/>
        <g>
            <g transform="matrix(0.600747,0,0,0.542156,123.325,480.078)">
                <path d="M293.471,119.84L299.882,274.133C299.882,281.601 304.401,287.664 309.966,287.664C315.531,287.664 320.05,281.601 320.05,274.133L326.461,119.84C326.461,107.624 319.07,97.706 309.966,97.706C300.862,97.706 293.471,107.624 293.471,119.84Z"/>
            </g>
            <g transform="matrix(0.742399,0,0,1.01931,83.7263,335.575)">
                <path d="M304.163,313.712C296.808,313.712 290.572,319.118 290.572,326.051C290.572,332.984 296.808,338.39 304.163,338.39C311.518,338.39 317.754,332.984 317.754,326.051C317.754,319.118 311.518,313.712 304.163,313.712ZM304.163,327.45C303.205,327.45 302.178,326.954 302.178,326.051C302.178,325.148 303.205,324.652 304.163,324.652C305.121,324.652 306.148,325.148 306.148,326.051C306.148,326.954 305.121,327.45 304.163,327.45Z"/>
            </g>
            <g transform="matrix(0.630905,0,0,0.700006,181.443,428.829)">
                <path d="M168.13,95.845C133.934,165.483 73.952,287.637 41.174,354.388C41.174,354.388 41.174,354.388 41.174,354.388C34.598,367.781 34.95,383.96 42.101,396.998C49.251,410.037 62.153,418.018 76.075,418.018L329.986,418.018C343.91,418.018 356.809,410.037 363.961,396.999C371.112,383.96 371.464,367.781 364.886,354.387C332.11,287.637 272.127,165.483 237.932,95.845C231.037,81.804 217.626,73.042 203.031,73.042C188.436,73.042 175.025,81.804 168.13,95.845L168.13,95.845ZM186.592,106.643C189.839,100.03 196.156,95.902 203.031,95.902C209.906,95.902 216.223,100.03 219.47,106.643C253.665,176.281 313.648,298.435 346.425,365.186C346.425,365.186 346.426,365.187 346.426,365.187C349.524,371.495 349.358,379.116 345.989,385.257C342.621,391.399 336.544,395.158 329.986,395.158L76.075,395.158C69.518,395.158 63.441,391.399 60.073,385.258C60.073,385.258 60.073,385.257 60.073,385.257C56.704,379.116 56.538,371.495 59.636,365.186C92.414,298.435 152.396,176.281 186.592,106.643L186.592,106.643Z"/>
            </g>
            <g transform="matrix(0.883534,-0.617719,0.66553,0.465303,210.39,-24.6977)">
                <path d="M135.475,327.592C135.475,324.521 134.051,322.63 131.738,322.63L-60.262,322.63C-62.575,322.63 -65.425,324.521 -67.738,327.592C-70.051,330.662 -71.475,334.446 -71.475,337.516L-71.475,503.793C-71.475,506.864 -70.051,508.755 -67.738,508.755L124.262,508.755C126.575,508.755 129.425,506.864 131.738,503.793C134.051,500.723 135.475,496.939 135.475,493.869L135.475,327.592ZM120.525,342.478L120.525,488.907C120.525,488.907 -30.674,488.907 -56.525,488.907C-56.525,488.907 -56.525,342.478 -56.525,342.478C-56.525,342.478 120.525,342.478 120.525,342.478L120.525,342.478Z"/>
            </g>
            <g transform="matrix(0.576366,0.402964,-3.69444e-17,1.01746,190.731,-15.7673)">
                <path d="M523.464,50.886C523.464,48.076 521.279,46.345 517.732,46.345L325.732,46.345C322.185,46.345 317.815,48.076 314.268,50.886C310.721,53.695 308.536,57.157 308.536,59.966L308.536,226.243C308.536,229.053 310.721,230.784 314.268,230.784L506.268,230.784C509.815,230.784 514.185,229.053 517.732,226.243C521.279,223.434 523.464,219.972 523.464,217.163L523.464,50.886ZM500.536,64.507L500.536,212.622C500.536,212.622 331.464,212.622 331.464,212.622C331.464,212.622 331.464,64.507 331.464,64.507L500.536,64.507Z"/>
            </g>
            <g transform="matrix(0.883534,-0.617719,5.66335e-17,1.01746,33.4611,55.676)">
                <path d="M711.477,503.37C711.477,500.561 710.052,497.101 707.738,494.292C705.425,491.483 702.575,489.752 700.262,489.752L508.262,489.752C505.948,489.752 504.523,491.483 504.523,494.292L504.523,661.472C504.523,664.281 505.948,667.741 508.262,670.55C510.575,673.359 513.425,675.09 515.738,675.09L707.738,675.09C710.052,675.09 711.477,673.359 711.477,670.55L711.477,503.37ZM696.523,507.91L696.523,656.932C696.523,656.932 519.477,656.932 519.477,656.932C519.477,656.932 519.477,507.91 519.477,507.91L696.523,507.91Z"/>
            </g>
            <g transform="matrix(0.715158,0.5,-4.58408e-17,1.1547,130.651,0)">
                <path d="M471.059,27.446C471.059,25.899 469.959,24.946 468.173,24.946L368.428,24.946C366.642,24.946 364.442,25.899 362.656,27.446C360.87,28.992 359.77,30.898 359.77,32.444L359.77,50.674C359.77,52.221 360.87,53.174 362.656,53.174L462.401,53.174C464.187,53.174 466.387,52.221 468.173,50.674C469.959,49.128 471.059,47.222 471.059,45.676L471.059,27.446ZM459.515,34.944L459.515,43.176C459.515,43.176 371.314,43.176 371.314,43.176C371.314,43.176 371.314,34.944 371.314,34.944L459.515,34.944Z"/>
            </g>
            <g transform="matrix(0.715158,0.5,-4.58408e-17,1.1547,130.651,-16.6633)">
                <path d="M471.059,74.112C471.059,72.565 469.959,71.612 468.173,71.612L368.428,71.612C366.642,71.612 364.442,72.565 362.656,74.112C360.87,75.658 359.77,77.564 359.77,79.11L359.77,98.875C359.77,100.422 360.87,101.375 362.656,101.375L462.401,101.375C464.187,101.375 466.387,100.422 468.173,98.875C469.959,97.329 471.059,95.423 471.059,93.877L471.059,74.112ZM459.515,81.61L459.515,91.377C459.515,91.377 371.314,91.377 371.314,91.377C371.314,91.377 371.314,81.61 371.314,81.61L459.515,81.61Z"/>
            </g>
            <g transform="matrix(0.589944,-0.315115,0.35458,0.973447,64.2333,246.615)">
                <path d="M740.446,486.177C737.865,485.364 734.943,485.364 732.362,486.177L625.947,519.7C623.45,520.486 621.481,521.968 620.473,523.82L576.394,604.753C575.418,606.545 575.418,608.543 576.394,610.335L620.473,691.268C621.481,693.12 623.45,694.602 625.947,695.388L732.362,728.911C734.943,729.724 737.865,729.724 740.446,728.911L846.861,695.388C849.358,694.602 851.327,693.12 852.335,691.268L896.414,610.335C897.39,608.543 897.39,606.545 896.414,604.753L852.335,523.82C851.327,521.968 849.358,520.486 846.861,519.7L740.446,486.177ZM736.404,501.273L834.878,532.294C834.878,532.294 875.861,607.544 875.861,607.544C875.861,607.544 834.878,682.794 834.878,682.794C834.878,682.794 736.404,713.815 736.404,713.815C736.404,713.815 637.93,682.794 637.93,682.794C637.93,682.794 596.947,607.544 596.947,607.544C596.947,607.544 637.93,532.294 637.93,532.294L736.404,501.273Z"/>
            </g>
            <g transform="matrix(0.825794,0,0,1,130.651,0)">
                <path d="M373.444,387.986C373.444,387.986 371.322,405.964 362.624,423.766C354.529,440.333 340.588,457.148 316.038,456.467C252.768,454.713 242.854,525.801 242.854,525.801C242.274,530.178 245.357,534.203 249.734,534.783C254.111,535.363 258.136,532.28 258.716,527.903C258.716,527.903 265.745,471.079 315.594,472.461C341.432,473.177 358.676,459.687 369.954,443.034C385.832,419.592 389.336,389.844 389.336,389.844C389.849,385.459 386.705,381.482 382.319,380.969C377.934,380.456 373.957,383.6 373.444,387.986L373.444,387.986Z"/>
            </g>
            <g transform="matrix(0.825794,0,0,1,130.651,0)">
                <path d="M524.907,356.564C524.906,356.568 521.784,377.331 526.88,400.753C532.159,425.016 546.102,451.876 580.01,462.907C625.973,477.859 627.535,511.543 627.535,511.543C627.634,515.957 631.299,519.46 635.713,519.361C640.127,519.262 643.63,515.597 643.531,511.183C643.531,511.183 643.346,466.686 584.96,447.691C584.96,447.691 584.96,447.691 584.96,447.691C557.654,438.809 546.765,416.89 542.514,397.352C538.082,376.976 540.733,358.918 540.733,358.918C541.383,354.551 538.364,350.478 533.997,349.828C529.63,349.178 525.557,352.197 524.907,356.564ZM524.907,356.564C524.907,356.564 524.907,356.564 524.907,356.564Z"/>
            </g>
            <g transform="matrix(0.825794,0,0,1,135.614,-2.59484)">
                <path d="M437.886,408.114L443.897,674.834C443.997,679.248 447.661,682.751 452.075,682.652C456.489,682.553 459.992,678.888 459.893,674.474L453.882,407.754C453.782,403.34 450.118,399.837 445.704,399.936C441.29,400.035 437.787,403.7 437.886,408.114Z"/>
            </g>
            <g transform="matrix(0.825794,0,0,1,137.82,30.2135)">
                <path d="M463.452,572.43L434.717,572.928C430.303,573.005 426.781,576.651 426.857,581.066C426.934,585.48 430.58,589.002 434.995,588.926L463.73,588.428C468.144,588.351 471.666,584.705 471.59,580.29C471.513,575.876 467.867,572.354 463.452,572.43Z"/>
            </g>
            <g transform="matrix(0.825794,0,0,1,128.87,-4.57323)">
                <path d="M676.279,659.55L676.279,559.959L709.93,559.959C717.711,559.959 724.097,561.28 729.09,563.922C734.082,566.564 737.778,570.187 740.177,574.791C742.576,579.394 743.776,584.63 743.776,590.498C743.776,596.365 742.576,601.569 740.177,606.107C737.778,610.646 734.099,614.204 729.138,616.781C724.178,619.359 717.84,620.647 710.125,620.647L682.893,620.647L682.893,609.754L709.736,609.754C715.052,609.754 719.34,608.976 722.598,607.42C725.856,605.864 728.223,603.652 729.698,600.783C731.173,597.913 731.91,594.485 731.91,590.498C731.91,586.51 731.165,583.025 729.673,580.043C728.182,577.06 725.799,574.75 722.525,573.113C719.251,571.476 714.923,570.657 709.541,570.657L688.339,570.657L688.339,659.55L676.279,659.55ZM723.157,614.812L747.666,659.55L733.661,659.55L709.541,614.812L723.157,614.812Z" style="fill-rule:nonzero;"/>
            </g>
        </g>
    </g>
</svg>
