<?xml version="1.0" encoding="UTF-8" standalone="no"?>
<!DOCTYPE svg PUBLIC "-//W3C//DTD SVG 1.1//EN" "http://www.w3.org/Graphics/SVG/1.1/DTD/svg11.dtd">
<svg width="100%" height="100%" viewBox="0 0 904 835" version="1.1" xmlns="http://www.w3.org/2000/svg" xmlns:xlink="http://www.w3.org/1999/xlink" xml:space="preserve" xmlns:serif="http://www.serif.com/" style="fill-rule:evenodd;clip-rule:evenodd;stroke-linecap:round;stroke-linejoin:round;stroke-miterlimit:1.5;">
    <g id="Artboard1" transform="matrix(1.21096,0,0,1,-158.212,0)">
        <rect x="130.651" y="0" width="746.344" height="834.085" style="fill:none;"/>
        <g transform="matrix(0.727478,0,0,0.727478,76.9123,279.309)">
            <g transform="matrix(0.825794,0,0,0.745254,63.799,275.98)">
                <path d="M293.471,119.84L299.882,274.133C299.882,281.601 304.401,287.664 309.966,287.664C315.531,287.664 320.05,281.601 320.05,274.133L326.461,119.84C326.461,107.624 319.07,97.706 309.966,97.706C300.862,97.706 293.471,107.624 293.471,119.84Z"/>
            </g>
            <g transform="matrix(1.02051,0,0,1.40115,9.36662,77.344)">
                <ellipse cx="304.163" cy="326.051" rx="5.803" ry="5.47" style="fill:none;stroke:black;stroke-width:14.57px;"/>
            </g>
            <g transform="matrix(0.867249,0,0,0.962237,143.689,205.532)">
                <path d="M177.361,101.244C182.432,90.917 192.296,84.472 203.031,84.472C213.766,84.472 223.63,90.917 228.701,101.244C262.896,170.882 322.879,293.036 355.656,359.787C360.494,369.638 360.235,381.538 354.975,391.128C349.715,400.718 340.227,406.588 329.986,406.588C262.998,406.588 143.063,406.588 76.075,406.588C65.835,406.588 56.346,400.718 51.087,391.128C45.827,381.538 45.568,369.638 50.405,359.787C83.183,293.036 143.165,170.882 177.361,101.244Z" style="fill:none;stroke:black;stroke-width:21.84px;"/>
            </g>
        </g>
        <g transform="matrix(0.881146,0,0,0.881146,48.0672,-35.023)">
            <g transform="matrix(1.00271,-0.701041,0.755301,0.528066,184.218,11.718)">
                <rect x="-64" y="332.554" width="192" height="166.277" style="fill:none;stroke:black;stroke-width:12.02px;"/>
            </g>
            <g transform="matrix(0.65411,0.457318,-4.19277e-17,1.1547,161.907,21.853)">
                <rect x="320" y="55.426" width="192" height="166.277" style="fill:none;stroke:black;stroke-width:14.3px;"/>
            </g>
            <g transform="matrix(1.00271,-0.701041,6.42725e-17,1.1547,-16.5762,102.933)">
                <rect x="512" y="498.831" width="192" height="167.18" style="fill:none;stroke:black;stroke-width:19.81px;"/>
            </g>
        </g>
        <g transform="matrix(0.715158,0.5,-4.58408e-17,1.1547,130.651,0)">
            <rect x="365.542" y="29.945" width="99.745" height="18.23" style="fill:none;stroke:black;stroke-width:7.57px;"/>
        </g>
        <g transform="matrix(0.715158,0.5,-4.58408e-17,1.1547,130.651,-16.6633)">
            <rect x="365.542" y="76.611" width="99.745" height="19.765" style="fill:none;stroke:black;stroke-width:7.57px;"/>
        </g>
        <g transform="matrix(0.589944,-0.315115,0.35458,0.973447,64.2333,246.615)">
            <path d="M736.404,493.088L842.819,526.611L886.898,607.544L842.819,688.477L736.404,722L629.989,688.477L585.91,607.544L629.989,526.611L736.404,493.088Z" style="fill:none;stroke:black;stroke-width:17.15px;"/>
        </g>
        <g transform="matrix(0.825794,0,0,1,130.651,0)">
            <path d="M381.39,388.915C381.39,388.915 372.373,466.032 315.816,464.464C259.258,462.896 250.785,526.852 250.785,526.852" style="fill:none;stroke:black;stroke-width:16px;"/>
        </g>
        <g transform="matrix(0.825794,0,0,1,130.651,0)">
            <path d="M532.82,357.741C532.82,357.741 521.271,435.386 582.485,455.299C634.654,472.271 635.533,511.363 635.533,511.363" style="fill:none;stroke:black;stroke-width:16px;"/>
        </g>
        <g transform="matrix(0.825794,0,0,1,135.614,-2.59484)">
            <path d="M445.884,407.934L451.895,674.654" style="fill:none;stroke:black;stroke-width:16px;"/>
        </g>
        <g transform="matrix(0.825794,0,0,1,137.82,30.2135)">
            <path d="M463.591,580.429L434.856,580.927" style="fill:none;stroke:black;stroke-width:16px;"/>
        </g>
        <g transform="matrix(0.825794,0,0,1,128.87,-4.57323)">
            <path d="M676.279,659.55L676.279,559.959L709.93,559.959C717.711,559.959 724.097,561.28 729.09,563.922C734.082,566.564 737.778,570.187 740.177,574.791C742.576,579.394 743.776,584.63 743.776,590.498C743.776,596.365 742.576,601.569 740.177,606.107C737.778,610.646 734.099,614.204 729.138,616.781C724.178,619.359 717.84,620.647 710.125,620.647L682.893,620.647L682.893,609.754L709.736,609.754C715.052,609.754 719.34,608.976 722.598,607.42C725.856,605.864 728.223,603.652 729.698,600.783C731.173,597.913 731.91,594.485 731.91,590.498C731.91,586.51 731.165,583.025 729.673,580.043C728.182,577.06 725.799,574.75 722.525,573.113C719.251,571.476 714.923,570.657 709.541,570.657L688.339,570.657L688.339,659.55L676.279,659.55ZM723.157,614.812L747.666,659.55L733.661,659.55L709.541,614.812L723.157,614.812Z" style="fill-rule:nonzero;"/>
        </g>
    </g>
</svg>
