<?xml version="1.0" encoding="UTF-8" standalone="no"?>
<!DOCTYPE svg PUBLIC "-//W3C//DTD SVG 1.1//EN" "http://www.w3.org/Graphics/SVG/1.1/DTD/svg11.dtd">
<svg width="100%" height="100%" viewBox="0 0 336 188" version="1.1" xmlns="http://www.w3.org/2000/svg" xmlns:xlink="http://www.w3.org/1999/xlink" xml:space="preserve" xmlns:serif="http://www.serif.com/" style="fill-rule:evenodd;clip-rule:evenodd;stroke-linejoin:round;stroke-miterlimit:2;">
    <g transform="matrix(3.08128,0.0271305,-0.0271306,3.08129,92.2476,53.641)">
        <g id="Artboard3">
            <g id="Page-1">
                <g id="Trifecta-3M-001-Lockup-CMYK-Pos">
                    <path id="Shape" d="M38.839,0.578L35.278,15.118L31.706,0.578L21.229,0.578L21.229,5.947C19.971,1.248 15.533,0.068 11.42,0.001C6.411,-0.065 1.157,2.113 0.963,8.76L7.894,8.76C7.894,6.753 9.428,5.604 11.156,5.631C13.276,5.616 14.255,6.523 14.306,7.941C14.232,9.169 13.509,10.026 11.172,10.026L8.842,10.026L8.842,14.853L10.958,14.853C12.158,14.853 13.832,15.507 13.898,17.225C13.979,19.271 12.558,20.175 10.815,20.19C7.696,20.077 7.192,17.67 7.192,15.605L0,15.605C0.031,16.996 -0.311,26.065 10.966,25.999C16.367,26.05 20.138,23.771 21.245,20.631L21.245,25.442L28.343,25.442L28.343,9.761L32.18,25.446L38.381,25.446L42.233,9.776L42.233,25.462L49.312,25.462L49.312,0.578L38.839,0.578ZM21.249,15.083C20.367,13.248 19.125,12.445 18.422,12.192C19.889,11.537 20.662,10.649 21.249,8.876L21.249,15.083Z" style="fill-rule:nonzero;"/>
                </g>
            </g>
        </g>
    </g>
</svg>
