<?xml version="1.0" encoding="UTF-8" standalone="no"?>
<!DOCTYPE svg PUBLIC "-//W3C//DTD SVG 1.1//EN" "http://www.w3.org/Graphics/SVG/1.1/DTD/svg11.dtd">
<svg width="100%" height="100%" viewBox="0 0 336 180" version="1.1" xmlns="http://www.w3.org/2000/svg" xmlns:xlink="http://www.w3.org/1999/xlink" xml:space="preserve" xmlns:serif="http://www.serif.com/" style="fill-rule:evenodd;clip-rule:evenodd;stroke-linejoin:round;stroke-miterlimit:2;">
    <g id="Artboard1" transform="matrix(0.0722903,0,0,0.0683149,33.3506,34.352)">
        <rect x="-461.342" y="-502.848" width="4647.93" height="2634.86" style="fill:none;"/>
        <g id="g8" transform="matrix(1.5335,0,0,1.62274,-100.257,-33.916)">
            <g id="g239">
                <path id="path259" d="M2021.07,970.4L2019.52,968.64L2021.28,970.192C2022.92,971.642 2023.33,972.16 2022.83,972.16C2022.72,972.16 2021.92,971.368 2021.07,970.4ZM1674.24,968.12C1674.24,968.01 1675.18,967.074 1676.32,966.04L1678.4,964.16L1676.52,966.24C1674.77,968.179 1674.24,968.614 1674.24,968.12ZM2035.46,959.84L2034.24,958.4L2035.68,959.619C2037.03,960.765 2037.41,961.28 2036.9,961.28C2036.78,961.28 2036.13,960.632 2035.46,959.84ZM1662.4,955.52C1663.04,954.816 1663.7,954.24 1663.88,954.24C1664.05,954.24 1663.68,954.816 1663.04,955.52C1662.4,956.224 1661.74,956.8 1661.56,956.8C1661.39,956.8 1661.76,956.224 1662.4,955.52ZM1922.18,955.36L1920.96,953.92L1922.4,955.139C1923.75,956.285 1924.13,956.8 1923.62,956.8C1923.5,956.8 1922.85,956.152 1922.18,955.36ZM1544.32,952.12C1544.32,952.01 1545.26,951.074 1546.4,950.04L1548.48,948.16L1546.6,950.24C1544.85,952.179 1544.32,952.614 1544.32,952.12ZM1775.62,904.8L1774.4,903.36L1775.84,904.579C1777.19,905.725 1777.57,906.24 1777.06,906.24C1776.94,906.24 1776.29,905.592 1775.62,904.8ZM1971.12,895.52C1970.32,894.505 1970.35,894.482 1971.36,895.278C1971.98,895.761 1972.48,896.265 1972.48,896.398C1972.48,896.925 1971.95,896.586 1971.12,895.52ZM2080.56,893.6C2079.76,892.585 2079.78,892.562 2080.8,893.358C2081.42,893.841 2081.92,894.345 2081.92,894.478C2081.92,895.005 2081.39,894.666 2080.56,893.6ZM1559.65,858.4L1557.44,856L1559.84,858.206C1561.16,859.419 1562.24,860.499 1562.24,860.606C1562.24,861.094 1561.7,860.634 1559.65,858.4ZM1557.12,630.798C1557.12,630.665 1557.62,630.161 1558.24,629.678C1559.26,628.882 1559.28,628.905 1558.48,629.92C1557.65,630.986 1557.12,631.325 1557.12,630.798ZM1160.88,628C1160.08,626.985 1160.11,626.962 1161.12,627.758C1161.74,628.241 1162.24,628.745 1162.24,628.878C1162.24,629.405 1161.71,629.066 1160.88,628ZM579.84,626.24C580.667,625.36 581.487,624.64 581.663,624.64C581.839,624.64 581.307,625.36 580.48,626.24C579.653,627.12 578.833,627.84 578.657,627.84C578.481,627.84 579.013,627.12 579.84,626.24ZM168.946,621.6L163.52,616L169.12,621.426C172.2,624.41 174.72,626.93 174.72,627.026C174.72,627.492 173.985,626.801 168.946,621.6ZM588.8,617.28C589.627,616.4 590.447,615.68 590.623,615.68C590.799,615.68 590.267,616.4 589.44,617.28C588.613,618.16 587.793,618.88 587.617,618.88C587.441,618.88 587.973,618.16 588.8,617.28ZM1146.16,613.28C1145.36,612.265 1145.38,612.242 1146.4,613.038C1147.02,613.521 1147.52,614.025 1147.52,614.158C1147.52,614.685 1146.99,614.346 1146.16,613.28ZM1575.68,612.238C1575.68,612.105 1576.18,611.601 1576.8,611.118C1577.82,610.322 1577.84,610.345 1577.04,611.36C1576.21,612.426 1575.68,612.765 1575.68,612.238ZM1501.12,563.2C1501.76,562.496 1502.42,561.92 1502.6,561.92C1502.77,561.92 1502.4,562.496 1501.76,563.2C1501.12,563.904 1500.46,564.48 1500.28,564.48C1500.11,564.48 1500.48,563.904 1501.12,563.2ZM230.366,558.88L228.16,556.48L230.56,558.686C231.88,559.899 232.96,560.979 232.96,561.086C232.96,561.574 232.418,561.114 230.366,558.88ZM1215.33,558.88L1213.12,556.48L1215.52,558.686C1216.84,559.899 1217.92,560.979 1217.92,561.086C1217.92,561.574 1217.38,561.114 1215.33,558.88ZM1509.44,554.88C1510.08,554.176 1510.74,553.6 1510.92,553.6C1511.09,553.6 1510.72,554.176 1510.08,554.88C1509.44,555.584 1508.78,556.16 1508.6,556.16C1508.43,556.16 1508.8,555.584 1509.44,554.88ZM224.64,275.598C224.64,275.465 225.144,274.961 225.76,274.478C226.775,273.682 226.798,273.705 226.002,274.72C225.166,275.786 224.64,276.125 224.64,275.598ZM1508.43,272.16L1506.88,270.4L1508.64,271.952C1509.61,272.805 1510.4,273.597 1510.4,273.712C1510.4,274.214 1509.88,273.805 1508.43,272.16ZM520.62,269.28L516.8,265.28L520.8,269.1C524.516,272.648 525.093,273.28 524.62,273.28C524.521,273.28 522.721,271.48 520.62,269.28ZM1214.72,269.838C1214.72,269.705 1215.22,269.201 1215.84,268.718C1216.86,267.922 1216.88,267.945 1216.08,268.96C1215.25,270.026 1214.72,270.365 1214.72,269.838ZM1502.03,265.76L1500.48,264L1502.24,265.552C1503.21,266.405 1504,267.197 1504,267.312C1504,267.813 1503.48,267.405 1502.03,265.76ZM235.52,264.718C235.52,264.585 236.024,264.081 236.64,263.598C237.655,262.802 237.678,262.825 236.882,263.84C236.046,264.906 235.52,265.245 235.52,264.718ZM160.64,215.438C160.64,215.305 161.144,214.801 161.76,214.318C162.775,213.522 162.798,213.545 162.002,214.56C161.166,215.626 160.64,215.965 160.64,215.438ZM1146.24,214.798C1146.24,214.665 1146.74,214.161 1147.36,213.678C1148.38,212.882 1148.4,212.905 1147.6,213.92C1146.77,214.986 1146.24,215.325 1146.24,214.798ZM2473.6,203.278C2473.6,203.145 2474.1,202.641 2474.72,202.158C2475.74,201.362 2475.76,201.385 2474.96,202.4C2474.13,203.466 2473.6,203.805 2473.6,203.278ZM1159.68,201.358C1159.68,201.225 1160.18,200.721 1160.8,200.238C1161.82,199.442 1161.84,199.465 1161.04,200.48C1160.21,201.546 1159.68,201.885 1159.68,201.358ZM176.64,199.438C176.64,199.305 177.144,198.801 177.76,198.318C178.775,197.522 178.798,197.545 178.002,198.56C177.166,199.626 176.64,199.965 176.64,199.438ZM575.278,197.92C574.482,196.905 574.505,196.882 575.52,197.678C576.586,198.514 576.925,199.04 576.398,199.04C576.265,199.04 575.761,198.536 575.278,197.92ZM2494.67,156.96L2493.12,155.2L2494.88,156.752C2495.85,157.605 2496.64,158.397 2496.64,158.512C2496.64,159.013 2496.12,158.605 2494.67,156.96ZM2503.97,147.68L2501.44,144.96L2504.16,147.49C2506.69,149.843 2507.17,150.4 2506.69,150.4C2506.59,150.4 2505.36,149.176 2503.97,147.68Z" style="fill-rule:nonzero;"/>
                <path id="path257" d="M1941.6,978.748C1942.39,978.596 1943.69,978.596 1944.48,978.748C1945.27,978.901 1944.62,979.026 1943.04,979.026C1941.46,979.026 1940.81,978.901 1941.6,978.748ZM350.56,976.216C351,976.039 351.72,976.039 352.16,976.216C352.6,976.394 352.24,976.539 351.36,976.539C350.48,976.539 350.12,976.394 350.56,976.216ZM298.548,910.4C298.548,874.144 298.625,859.406 298.72,877.649C298.814,895.892 298.814,925.556 298.72,943.569C298.625,961.582 298.548,946.656 298.548,910.4ZM1111.99,910.4C1111.99,874.144 1112.07,859.406 1112.16,877.649C1112.25,895.892 1112.25,925.556 1112.16,943.569C1112.07,961.582 1111.99,946.656 1111.99,910.4ZM1226.55,910.4C1226.55,874.144 1226.62,859.406 1226.72,877.649C1226.81,895.892 1226.81,925.556 1226.72,943.569C1226.62,961.582 1226.55,946.656 1226.55,910.4ZM1781.41,947.2C1781.41,931.184 1781.5,924.632 1781.6,932.64C1781.7,940.648 1781.7,953.752 1781.6,961.76C1781.5,969.768 1781.41,963.216 1781.41,947.2ZM1799.33,947.84C1799.33,932.176 1799.42,925.768 1799.52,933.6C1799.62,941.432 1799.62,954.248 1799.52,962.08C1799.42,969.912 1799.33,963.504 1799.33,947.84ZM2072.37,971.147C2072.4,970.401 2072.55,970.249 2072.76,970.76C2072.94,971.222 2072.92,971.774 2072.71,971.987C2072.49,972.199 2072.34,971.821 2072.37,971.147L2072.37,971.147ZM2089.7,968.32C2089.7,967.44 2089.85,967.08 2090.02,967.52C2090.2,967.96 2090.2,968.68 2090.02,969.12C2089.85,969.56 2089.7,969.2 2089.7,968.32ZM2045.6,964.039C2046.22,963.878 2047.22,963.878 2047.84,964.039C2048.46,964.2 2047.95,964.332 2046.72,964.332C2045.49,964.332 2044.98,964.2 2045.6,964.039ZM1939.37,962.756C1940,962.594 1940.86,962.605 1941.29,962.78C1941.73,962.955 1941.22,963.088 1940.16,963.075C1939.1,963.062 1938.75,962.919 1939.37,962.756L1939.37,962.756ZM118.95,939.993C119.218,939.726 132.38,939.582 148.199,939.674L176.96,939.841L147.712,940.16C131.625,940.336 118.682,940.261 118.95,939.993ZM1984.05,936.587C1984.08,935.841 1984.23,935.689 1984.44,936.2C1984.62,936.662 1984.6,937.214 1984.39,937.427C1984.17,937.639 1984.02,937.261 1984.05,936.587L1984.05,936.587ZM1671.24,931.52C1671.25,929.408 1671.36,928.621 1671.5,929.771C1671.65,930.922 1671.64,932.65 1671.49,933.611C1671.35,934.573 1671.23,933.632 1671.24,931.52L1671.24,931.52ZM1616.12,931.52C1616.14,930.464 1616.28,930.11 1616.44,930.732C1616.61,931.355 1616.6,932.219 1616.42,932.652C1616.24,933.086 1616.11,932.576 1616.12,931.52L1616.12,931.52ZM1913.73,931.52C1913.74,930.464 1913.88,930.11 1914.04,930.732C1914.21,931.355 1914.19,932.219 1914.02,932.652C1913.84,933.086 1913.71,932.576 1913.73,931.52L1913.73,931.52ZM1984.05,926.347C1984.08,925.601 1984.23,925.449 1984.44,925.96C1984.62,926.422 1984.6,926.974 1984.39,927.187C1984.17,927.399 1984.02,927.021 1984.05,926.347L1984.05,926.347ZM1742.13,919.947C1742.16,919.201 1742.31,919.049 1742.52,919.56C1742.7,920.022 1742.68,920.574 1742.47,920.787C1742.25,920.999 1742.1,920.621 1742.13,919.947L1742.13,919.947ZM412.261,915.2C412.261,914.32 412.406,913.96 412.584,914.4C412.761,914.84 412.761,915.56 412.584,916C412.406,916.44 412.261,916.08 412.261,915.2ZM1469.66,910.4C1469.66,907.584 1469.77,906.512 1469.91,908.017C1470.05,909.522 1470.04,911.826 1469.9,913.137C1469.76,914.448 1469.65,913.216 1469.65,910.4L1469.66,910.4ZM412.261,906.24C412.261,905.36 412.406,905 412.584,905.44C412.761,905.88 412.761,906.6 412.584,907.04C412.406,907.48 412.261,907.12 412.261,906.24ZM1938.73,900.661C1939.7,900.514 1941.14,900.518 1941.93,900.67C1942.72,900.822 1941.92,900.942 1940.16,900.937C1938.4,900.931 1937.76,900.808 1938.73,900.661L1938.73,900.661ZM1643.05,900.036C1643.67,899.874 1644.54,899.885 1644.97,900.06C1645.41,900.235 1644.9,900.368 1643.84,900.355C1642.78,900.342 1642.43,900.199 1643.05,900.036L1643.05,900.036ZM1762.09,900.036C1762.72,899.874 1763.58,899.885 1764.01,900.06C1764.45,900.235 1763.94,900.368 1762.88,900.355C1761.82,900.342 1761.47,900.199 1762.09,900.036L1762.09,900.036ZM1819.05,900.036C1819.67,899.874 1820.54,899.885 1820.97,900.06C1821.41,900.235 1820.9,900.368 1819.84,900.355C1818.78,900.342 1818.43,900.199 1819.05,900.036L1819.05,900.036ZM2050.4,899.416C2050.84,899.239 2051.56,899.239 2052,899.416C2052.44,899.594 2052.08,899.739 2051.2,899.739C2050.32,899.739 2049.96,899.594 2050.4,899.416ZM2054.24,899.416C2054.68,899.239 2055.4,899.239 2055.84,899.416C2056.28,899.594 2055.92,899.739 2055.04,899.739C2054.16,899.739 2053.8,899.594 2054.24,899.416ZM2146.56,893.12C2146.56,889.659 2146.68,886.951 2146.84,887.103C2147.29,887.559 2147.42,898.556 2146.97,899.002C2146.74,899.228 2146.56,896.581 2146.56,893.12ZM1741.67,892.48C1741.67,889.312 1741.77,887.935 1741.91,889.421C1742.04,890.906 1742.04,893.498 1741.92,895.181C1741.79,896.863 1741.68,895.648 1741.67,892.48L1741.67,892.48ZM1642.41,884.021C1643.38,883.874 1644.82,883.878 1645.61,884.03C1646.4,884.182 1645.6,884.302 1643.84,884.297C1642.08,884.291 1641.44,884.168 1642.41,884.021L1642.41,884.021ZM2050.72,884.021C2051.69,883.874 2053.27,883.874 2054.24,884.021C2055.21,884.167 2054.42,884.287 2052.48,884.287C2050.54,884.287 2049.75,884.167 2050.72,884.021ZM1512.2,859.082C1512.66,858.897 1513.21,858.92 1513.43,859.133C1513.64,859.345 1513.26,859.497 1512.59,859.469C1511.84,859.438 1511.69,859.286 1512.2,859.082L1512.2,859.082ZM1519.2,859.095C1519.64,858.918 1520.36,858.918 1520.8,859.095C1521.24,859.273 1520.88,859.418 1520,859.418C1519.12,859.418 1518.76,859.273 1519.2,859.095ZM1514.4,841.781C1515.37,841.634 1516.95,841.634 1517.92,841.781C1518.89,841.928 1518.1,842.047 1516.16,842.047C1514.22,842.047 1513.43,841.928 1514.4,841.781ZM361.44,707.415C361.88,707.238 362.6,707.238 363.04,707.415C363.48,707.593 363.12,707.738 362.24,707.738C361.36,707.738 361,707.593 361.44,707.415ZM391.212,707.396C391.835,707.233 392.699,707.244 393.132,707.419C393.565,707.595 393.056,707.727 392,707.714C390.944,707.702 390.589,707.558 391.212,707.396L391.212,707.396ZM351.88,706.762C352.342,706.577 352.894,706.6 353.107,706.813C353.319,707.025 352.941,707.176 352.267,707.149C351.521,707.118 351.369,706.966 351.88,706.762L351.88,706.762ZM401.16,706.762C401.622,706.577 402.174,706.6 402.387,706.813C402.599,707.025 402.221,707.176 401.547,707.149C400.801,707.118 400.649,706.966 401.16,706.762L401.16,706.762ZM1344.81,706.116C1345.43,705.953 1346.3,705.964 1346.73,706.139C1347.16,706.315 1346.66,706.447 1345.6,706.434C1344.54,706.422 1344.19,706.278 1344.81,706.116L1344.81,706.116ZM1375.2,706.135C1375.64,705.958 1376.36,705.958 1376.8,706.135C1377.24,706.313 1376.88,706.458 1376,706.458C1375.12,706.458 1374.76,706.313 1375.2,706.135ZM1335.56,705.482C1336.02,705.297 1336.57,705.32 1336.79,705.533C1337,705.745 1336.62,705.897 1335.95,705.869C1335.2,705.838 1335.05,705.686 1335.56,705.482L1335.56,705.482ZM1384.84,705.482C1385.3,705.297 1385.85,705.32 1386.07,705.533C1386.28,705.745 1385.9,705.897 1385.23,705.869C1384.48,705.838 1384.33,705.686 1384.84,705.482L1384.84,705.482ZM886.077,459.84C886.077,330.656 886.15,277.903 886.24,342.612C886.33,407.321 886.33,513.017 886.24,577.492C886.15,641.967 886.077,589.024 886.077,459.84ZM367.52,619.079C368.136,618.918 369.144,618.918 369.76,619.079C370.376,619.24 369.872,619.372 368.64,619.372C367.408,619.372 366.904,619.24 367.52,619.079ZM382.24,619.079C382.856,618.918 383.864,618.918 384.48,619.079C385.096,619.24 384.592,619.372 383.36,619.372C382.128,619.372 381.624,619.24 382.24,619.079ZM1358.24,619.054C1359.56,618.916 1361.72,618.916 1363.04,619.054C1364.36,619.192 1363.28,619.305 1360.64,619.305C1358,619.305 1356.92,619.192 1358.24,619.054ZM393.48,618.443C393.942,618.258 394.494,618.281 394.707,618.493C394.919,618.706 394.541,618.857 393.867,618.829C393.121,618.799 392.969,618.647 393.48,618.443L393.48,618.443ZM1344.52,618.443C1344.98,618.258 1345.53,618.281 1345.75,618.493C1345.96,618.706 1345.58,618.857 1344.91,618.829C1344.16,618.799 1344.01,618.647 1344.52,618.443L1344.52,618.443ZM1068.85,437.387C1068.88,436.641 1069.03,436.489 1069.24,437C1069.42,437.462 1069.4,438.014 1069.19,438.227C1068.97,438.439 1068.82,438.061 1068.85,437.387L1068.85,437.387ZM83.891,435.467C83.921,434.721 84.073,434.569 84.277,435.08C84.462,435.542 84.439,436.094 84.227,436.307C84.014,436.519 83.863,436.141 83.891,435.467L83.891,435.467ZM1652.58,430.72C1652.58,429.84 1652.73,429.48 1652.9,429.92C1653.08,430.36 1653.08,431.08 1652.9,431.52C1652.73,431.96 1652.58,431.6 1652.58,430.72ZM1155.89,428.427C1155.92,427.681 1156.07,427.529 1156.28,428.04C1156.46,428.502 1156.44,429.054 1156.23,429.267C1156.01,429.479 1155.86,429.101 1155.89,428.427L1155.89,428.427ZM1068.29,427.2C1068.3,426.144 1068.44,425.789 1068.6,426.412C1068.77,427.035 1068.76,427.899 1068.58,428.332C1068.4,428.765 1068.27,428.256 1068.29,427.2L1068.29,427.2ZM170.981,425.6C170.981,424.72 171.126,424.36 171.304,424.8C171.481,425.24 171.481,425.96 171.304,426.4C171.126,426.84 170.981,426.48 170.981,425.6ZM83.392,421.76C83.392,419.824 83.512,419.032 83.658,420C83.805,420.968 83.805,422.552 83.658,423.52C83.512,424.488 83.392,423.696 83.392,421.76ZM1565.68,414.08C1565.68,410.032 1565.79,408.376 1565.91,410.4C1566.04,412.424 1566.04,415.736 1565.91,417.76C1565.79,419.784 1565.68,418.128 1565.68,414.08ZM83.392,407.04C83.392,405.104 83.512,404.312 83.658,405.28C83.805,406.248 83.805,407.832 83.658,408.8C83.512,409.768 83.392,408.976 83.392,407.04ZM170.981,402.56C170.981,401.68 171.126,401.32 171.304,401.76C171.481,402.2 171.481,402.92 171.304,403.36C171.126,403.8 170.981,403.44 170.981,402.56ZM1068.29,400.96C1068.3,399.904 1068.44,399.549 1068.6,400.172C1068.77,400.795 1068.76,401.659 1068.58,402.092C1068.4,402.525 1068.27,402.016 1068.29,400.96L1068.29,400.96ZM1155.89,399.627C1155.92,398.881 1156.07,398.729 1156.28,399.24C1156.46,399.702 1156.44,400.254 1156.23,400.467C1156.01,400.679 1155.86,400.301 1155.89,399.627L1155.89,399.627ZM1652.58,397.44C1652.58,396.56 1652.73,396.2 1652.9,396.64C1653.08,397.08 1653.08,397.8 1652.9,398.24C1652.73,398.68 1652.58,398.32 1652.58,397.44ZM83.891,393.227C83.921,392.481 84.073,392.329 84.277,392.84C84.462,393.302 84.439,393.854 84.227,394.067C84.014,394.279 83.863,393.901 83.891,393.227L83.891,393.227ZM1068.85,390.667C1068.88,389.921 1069.03,389.769 1069.24,390.28C1069.42,390.742 1069.4,391.294 1069.19,391.507C1068.97,391.719 1068.82,391.341 1068.85,390.667L1068.85,390.667ZM84.531,385.547C84.561,384.801 84.713,384.649 84.917,385.16C85.102,385.622 85.079,386.174 84.867,386.387C84.654,386.599 84.503,386.221 84.531,385.547L84.531,385.547ZM2441.76,213.294C2443.08,213.156 2445.24,213.156 2446.56,213.294C2447.88,213.432 2446.8,213.545 2444.16,213.545C2441.52,213.545 2440.44,213.432 2441.76,213.294ZM2373.17,209.547C2373.2,208.801 2373.35,208.649 2373.56,209.16C2373.74,209.622 2373.72,210.174 2373.51,210.387C2373.29,210.599 2373.14,210.221 2373.17,209.547L2373.17,209.547ZM362.76,209.483C363.222,209.298 363.774,209.321 363.987,209.533C364.199,209.746 363.821,209.897 363.147,209.869C362.401,209.839 362.249,209.687 362.76,209.483L362.76,209.483ZM388.36,209.483C388.822,209.298 389.374,209.321 389.587,209.533C389.799,209.746 389.421,209.897 388.747,209.869C388.001,209.839 387.849,209.687 388.36,209.483L388.36,209.483ZM1375.88,209.483C1376.34,209.298 1376.89,209.321 1377.11,209.533C1377.32,209.746 1376.94,209.897 1376.27,209.869C1375.52,209.839 1375.37,209.687 1375.88,209.483L1375.88,209.483ZM1359.52,208.839C1360.14,208.678 1361.14,208.678 1361.76,208.839C1362.38,209 1361.87,209.132 1360.64,209.132C1359.41,209.132 1358.9,209 1359.52,208.839ZM2386.02,206.08C2386.02,205.2 2386.17,204.84 2386.34,205.28C2386.52,205.72 2386.52,206.44 2386.34,206.88C2386.17,207.32 2386.02,206.96 2386.02,206.08ZM2386.05,198.72C2386.06,197.664 2386.2,197.309 2386.36,197.932C2386.53,198.555 2386.52,199.419 2386.34,199.852C2386.16,200.285 2386.03,199.776 2386.05,198.72L2386.05,198.72ZM2448.52,197.963C2448.98,197.778 2449.53,197.801 2449.75,198.013C2449.96,198.226 2449.58,198.377 2448.91,198.349C2448.16,198.319 2448.01,198.167 2448.52,197.963L2448.52,197.963ZM2442.1,171.691C2443.6,171.555 2445.91,171.557 2447.22,171.695C2448.53,171.832 2447.3,171.943 2444.48,171.94C2441.66,171.937 2440.59,171.826 2442.1,171.69L2442.1,171.691ZM2453,156.363C2453.46,156.178 2454.01,156.201 2454.23,156.413C2454.44,156.626 2454.06,156.777 2453.39,156.749C2452.64,156.719 2452.49,156.567 2453,156.363L2453,156.363ZM2447.84,138.417C2448.98,138.275 2450.86,138.275 2452,138.417C2453.14,138.559 2452.21,138.675 2449.92,138.675C2447.63,138.675 2446.7,138.559 2447.84,138.417ZM886.063,94.4C886.063,70.464 886.142,60.765 886.24,72.847C886.337,84.928 886.337,104.512 886.24,116.367C886.142,128.221 886.062,118.336 886.063,94.4ZM2443.4,125.643C2443.86,125.458 2444.41,125.481 2444.63,125.693C2444.84,125.906 2444.46,126.057 2443.79,126.029C2443.04,125.999 2442.89,125.847 2443.4,125.643L2443.4,125.643ZM2455.56,125.643C2456.02,125.458 2456.57,125.481 2456.79,125.693C2457,125.906 2456.62,126.057 2455.95,126.029C2455.2,125.999 2455.05,125.847 2455.56,125.643L2455.56,125.643ZM1336.2,122.443C1336.66,122.258 1337.21,122.281 1337.43,122.493C1337.64,122.706 1337.26,122.857 1336.59,122.829C1335.84,122.799 1335.69,122.647 1336.2,122.443L1336.2,122.443ZM1345.45,121.796C1346.08,121.634 1346.94,121.645 1347.37,121.82C1347.81,121.996 1347.3,122.128 1346.24,122.115C1345.18,122.102 1344.83,121.959 1345.45,121.796L1345.45,121.796ZM1374.25,121.796C1374.88,121.634 1375.74,121.645 1376.17,121.82C1376.61,121.996 1376.1,122.128 1375.04,122.115C1373.98,122.102 1373.63,121.959 1374.25,121.796L1374.25,121.796ZM356.96,121.176C357.4,120.999 358.12,120.999 358.56,121.176C359,121.354 358.64,121.499 357.76,121.499C356.88,121.499 356.52,121.354 356.96,121.176ZM396.04,121.163C396.502,120.978 397.054,121.001 397.267,121.213C397.479,121.426 397.101,121.577 396.427,121.549C395.681,121.519 395.529,121.367 396.04,121.163L396.04,121.163ZM373.6,120.488C375.448,120.359 378.472,120.359 380.32,120.488C382.168,120.617 380.656,120.723 376.96,120.723C373.264,120.723 371.752,120.617 373.6,120.488Z" style="fill-rule:nonzero;"/>
                <path id="path255" d="M2067.84,969.92C2068.67,969.04 2069.49,968.32 2069.66,968.32C2069.84,968.32 2069.31,969.04 2068.48,969.92C2067.65,970.8 2066.83,971.52 2066.66,971.52C2066.48,971.52 2067.01,970.8 2067.84,969.92ZM1917.06,968.8L1915.84,967.36L1917.28,968.579C1918.63,969.725 1919.01,970.24 1918.5,970.24C1918.38,970.24 1917.73,969.592 1917.06,968.8ZM1471.28,962.08C1470.48,961.065 1470.51,961.042 1471.52,961.838C1472.59,962.674 1472.92,963.2 1472.4,963.2C1472.27,963.2 1471.76,962.696 1471.28,962.08ZM1468.08,958.88C1467.28,957.865 1467.31,957.842 1468.32,958.638C1468.94,959.121 1469.44,959.625 1469.44,959.758C1469.44,960.285 1468.91,959.946 1468.08,958.88ZM1624.91,955.68L1623.36,953.92L1625.12,955.472C1626.77,956.922 1627.17,957.44 1626.67,957.44C1626.56,957.44 1625.77,956.648 1624.91,955.68ZM2152.96,906.638C2152.96,906.505 2153.46,906.001 2154.08,905.518C2155.1,904.722 2155.12,904.745 2154.32,905.76C2153.49,906.826 2152.96,907.165 2152.96,906.638ZM1609.6,898.958C1609.6,898.825 1610.1,898.321 1610.72,897.838C1611.74,897.042 1611.76,897.065 1610.96,898.08C1610.13,899.146 1609.6,899.485 1609.6,898.958ZM1612.16,896.398C1612.16,896.265 1612.66,895.761 1613.28,895.278C1614.3,894.482 1614.32,894.505 1613.52,895.52C1612.69,896.586 1612.16,896.925 1612.16,896.398ZM1917.76,894.72C1918.4,894.016 1919.06,893.44 1919.24,893.44C1919.41,893.44 1919.04,894.016 1918.4,894.72C1917.76,895.424 1917.1,896 1916.92,896C1916.75,896 1917.12,895.424 1917.76,894.72ZM1800.64,893.44C1801.28,892.736 1801.94,892.16 1802.12,892.16C1802.29,892.16 1801.92,892.736 1801.28,893.44C1800.64,894.144 1799.98,894.72 1799.8,894.72C1799.63,894.72 1800,894.144 1800.64,893.44ZM2196.1,892.64L2194.88,891.2L2196.32,892.419C2197.67,893.565 2198.05,894.08 2197.54,894.08C2197.42,894.08 2196.77,893.432 2196.1,892.64ZM1482.88,872.718C1482.88,872.585 1483.38,872.081 1484,871.598C1485.02,870.802 1485.04,870.825 1484.24,871.84C1483.41,872.906 1482.88,873.245 1482.88,872.718ZM1469.44,861.12C1470.27,860.24 1471.09,859.52 1471.26,859.52C1471.44,859.52 1470.91,860.24 1470.08,861.12C1469.25,862 1468.43,862.72 1468.26,862.72C1468.08,862.72 1468.61,862 1469.44,861.12ZM1559.04,628.878C1559.04,628.745 1559.54,628.241 1560.16,627.758C1561.17,626.962 1561.2,626.985 1560.4,628C1559.57,629.066 1559.04,629.405 1559.04,628.878ZM1157.4,624.48L1155.52,622.4L1157.6,624.28C1159.54,626.032 1159.97,626.56 1159.48,626.56C1159.37,626.56 1158.43,625.624 1157.4,624.48ZM584,622.08C585.375,620.672 586.644,619.52 586.82,619.52C586.996,619.52 586.015,620.672 584.64,622.08C583.265,623.488 581.996,624.64 581.82,624.64C581.644,624.64 582.625,623.488 584,622.08ZM1149.72,616.8L1147.84,614.72L1149.92,616.6C1151.86,618.352 1152.29,618.88 1151.8,618.88C1151.69,618.88 1150.75,617.944 1149.72,616.8ZM1573.76,614.158C1573.76,614.025 1574.26,613.521 1574.88,613.038C1575.89,612.242 1575.92,612.265 1575.12,613.28C1574.29,614.346 1573.76,614.685 1573.76,614.158ZM1498.24,566.158C1498.24,566.025 1498.74,565.521 1499.36,565.038C1500.38,564.242 1500.4,564.265 1499.6,565.28C1498.77,566.346 1498.24,566.685 1498.24,566.158ZM234.499,563.04L233.28,561.6L234.72,562.819C236.073,563.965 236.451,564.48 235.939,564.48C235.818,564.48 235.17,563.832 234.499,563.04ZM1219.46,563.04L1218.24,561.6L1219.68,562.819C1221.03,563.965 1221.41,564.48 1220.9,564.48C1220.78,564.48 1220.13,563.832 1219.46,563.04ZM520.64,559.36C521.277,558.656 521.942,558.08 522.118,558.08C522.294,558.08 521.917,558.656 521.28,559.36C520.643,560.064 519.978,560.64 519.802,560.64C519.626,560.64 520.003,560.064 520.64,559.36ZM226.819,555.36L225.6,553.92L227.04,555.139C228.393,556.285 228.771,556.8 228.259,556.8C228.138,556.8 227.49,556.152 226.819,555.36ZM1211.14,554.72L1209.92,553.28L1211.36,554.499C1212.71,555.645 1213.09,556.16 1212.58,556.16C1212.46,556.16 1211.81,555.512 1211.14,554.72ZM2108.16,464.96C2124.88,448.24 2138.7,434.56 2138.88,434.56C2139.05,434.56 2125.52,448.24 2108.8,464.96C2092.08,481.68 2078.26,495.36 2078.09,495.36C2077.91,495.36 2091.44,481.68 2108.16,464.96ZM2108.16,363.04L2077.76,332.48L2108.32,362.877C2136.72,391.132 2139.17,393.6 2138.72,393.6C2138.63,393.6 2124.88,379.848 2108.16,363.04L2108.16,363.04ZM222.72,277.518C222.72,277.385 223.224,276.881 223.84,276.398C224.855,275.602 224.878,275.625 224.082,276.64C223.246,277.706 222.72,278.045 222.72,277.518ZM525.699,274.4L524.48,272.96L525.92,274.179C527.273,275.325 527.651,275.84 527.139,275.84C527.018,275.84 526.37,275.192 525.699,274.4ZM1212.16,272.32C1212.99,271.44 1213.81,270.72 1213.98,270.72C1214.16,270.72 1213.63,271.44 1212.8,272.32C1211.97,273.2 1211.15,273.92 1210.98,273.92C1210.8,273.92 1211.33,273.2 1212.16,272.32ZM1218.56,265.92C1219.39,265.04 1220.21,264.32 1220.38,264.32C1220.56,264.32 1220.03,265.04 1219.2,265.92C1218.37,266.8 1217.55,267.52 1217.38,267.52C1217.2,267.52 1217.73,266.8 1218.56,265.92ZM515.118,263.84C514.322,262.825 514.345,262.802 515.36,263.598C516.426,264.434 516.765,264.96 516.238,264.96C516.105,264.96 515.601,264.456 515.118,263.84ZM2395.16,256.48L2393.28,254.4L2395.36,256.28C2397.3,258.032 2397.73,258.56 2397.24,258.56C2397.13,258.56 2396.19,257.624 2395.16,256.48ZM1573.68,213.92C1572.88,212.905 1572.9,212.882 1573.92,213.678C1574.99,214.514 1575.33,215.04 1574.8,215.04C1574.67,215.04 1574.16,214.536 1573.68,213.92ZM590.339,212.96L589.12,211.52L590.56,212.739C591.352,213.41 592,214.058 592,214.179C592,214.691 591.485,214.313 590.339,212.96ZM163.52,212.48C164.157,211.776 164.822,211.2 164.998,211.2C165.174,211.2 164.797,211.776 164.16,212.48C163.523,213.184 162.858,213.76 162.682,213.76C162.506,213.76 162.883,213.184 163.52,212.48ZM1153.6,207.36C1156.4,204.544 1158.83,202.24 1159.01,202.24C1159.19,202.24 1157.04,204.544 1154.24,207.36C1151.44,210.176 1149.01,212.48 1148.83,212.48C1148.65,212.48 1150.8,210.176 1153.6,207.36ZM174.72,201.28C175.547,200.4 176.367,199.68 176.543,199.68C176.719,199.68 176.187,200.4 175.36,201.28C174.533,202.16 173.713,202.88 173.537,202.88C173.361,202.88 173.893,202.16 174.72,201.28ZM577.539,200.16L576.32,198.72L577.76,199.939C578.552,200.61 579.2,201.258 579.2,201.379C579.2,201.891 578.685,201.513 577.539,200.16ZM1560.24,200.48C1559.44,199.465 1559.47,199.442 1560.48,200.238C1561.55,201.074 1561.88,201.6 1561.36,201.6C1561.23,201.6 1560.72,201.096 1560.24,200.48ZM2473.86,164.32L2472.64,162.88L2474.08,164.099C2475.43,165.245 2475.81,165.76 2475.3,165.76C2475.18,165.76 2474.53,165.112 2473.86,164.32ZM2403.84,157.838C2403.84,157.705 2404.34,157.201 2404.96,156.718C2405.97,155.922 2406,155.945 2405.2,156.96C2404.37,158.026 2403.84,158.365 2403.84,157.838Z" style="fill-rule:nonzero;"/>
                <path id="path253" d="M1896.62,1011.06C1896.45,1010.61 1896.39,982.448 1896.48,948.48L1896.65,886.72L1896.8,948.96L1896.96,1011.2L1913.6,1011.2L1913.6,988.16C1913.6,975.488 1913.82,965.12 1914.08,965.12C1914.34,965.119 1914.42,975.559 1914.24,988.32L1913.92,1011.52L1905.43,1011.7C1898.99,1011.83 1896.86,1011.68 1896.62,1011.06ZM1510.28,978.763C1510.74,978.578 1511.29,978.601 1511.51,978.813C1511.72,979.026 1511.34,979.177 1510.67,979.15C1509.92,979.119 1509.77,978.967 1510.28,978.763L1510.28,978.763ZM1521.16,978.763C1521.62,978.578 1522.17,978.601 1522.39,978.813C1522.6,979.026 1522.22,979.177 1521.55,979.15C1520.8,979.119 1520.65,978.967 1521.16,978.763L1521.16,978.763ZM1638.92,978.763C1639.38,978.578 1639.93,978.601 1640.15,978.813C1640.36,979.026 1639.98,979.177 1639.31,979.15C1638.56,979.119 1638.41,978.967 1638.92,978.763L1638.92,978.763ZM88.64,976.21C96.306,975.747 105.457,975.719 105.183,976.16C105.019,976.424 100.509,976.587 95.162,976.522C89.815,976.456 86.88,976.316 88.64,976.21L88.64,976.21ZM196,976.164C198.728,976.044 203.192,976.044 205.92,976.164C208.648,976.284 206.416,976.383 200.96,976.383C195.504,976.383 193.272,976.284 196,976.164ZM311.52,976.158C318.648,976.055 330.312,976.055 337.44,976.158C344.568,976.261 338.736,976.346 324.48,976.346C310.224,976.346 304.392,976.261 311.52,976.158ZM434.4,976.158C438.712,976.048 445.768,976.048 450.08,976.158C454.392,976.269 450.864,976.36 442.24,976.36C433.616,976.36 430.088,976.269 434.4,976.158ZM535.237,976.158C539.746,976.048 546.946,976.048 551.237,976.158C555.529,976.269 551.84,976.359 543.04,976.358C534.24,976.358 530.729,976.267 535.237,976.157L535.237,976.158ZM605.739,975.849C605.569,975.402 605.505,951.997 605.599,923.837L605.768,872.636L605.924,924.316L606.08,976L634.872,976L635.042,924.32L635.212,872.64L635.2,976.32L620.624,976.492C609.311,976.626 605.979,976.482 605.739,975.852L605.739,975.849ZM689.76,976.158C694.072,976.048 701.128,976.048 705.44,976.158C709.752,976.269 706.224,976.36 697.6,976.36C688.976,976.36 685.448,976.269 689.76,976.158ZM790.597,976.158C795.106,976.048 802.306,976.048 806.597,976.158C810.889,976.269 807.2,976.359 798.4,976.358C789.6,976.358 786.089,976.267 790.597,976.157L790.597,976.158ZM875.397,976.158C879.729,976.047 886.641,976.048 890.757,976.158C894.873,976.269 891.328,976.36 882.88,976.36C874.432,976.359 871.065,976.268 875.397,976.157L875.397,976.158ZM958.597,976.158C962.929,976.047 969.841,976.048 973.957,976.158C978.073,976.269 974.528,976.36 966.08,976.36C957.632,976.359 954.265,976.268 958.597,976.157L958.597,976.158ZM1059.4,976.158C1063.91,976.048 1071.11,976.048 1075.4,976.158C1079.69,976.269 1076,976.359 1067.2,976.358C1058.4,976.358 1054.89,976.267 1059.4,976.157L1059.4,976.158ZM1126.71,976.164L1141.11,975.974L1141.28,933.586L1141.45,891.198L1141.43,976.318L1112.31,976.355L1126.71,976.164L1126.71,976.164ZM1203.04,976.158C1207.35,976.047 1214.41,976.047 1218.72,976.158C1223.03,976.269 1219.5,976.359 1210.88,976.359C1202.26,976.359 1198.73,976.269 1203.04,976.158ZM1304.48,976.158C1308.62,976.047 1315.38,976.047 1319.52,976.158C1323.66,976.27 1320.27,976.361 1312,976.361C1303.73,976.361 1300.34,976.27 1304.48,976.158ZM1728.77,976.164C1731.13,976.041 1735.16,976.041 1737.73,976.164C1740.3,976.286 1738.37,976.386 1733.44,976.387C1728.51,976.387 1726.41,976.289 1728.77,976.166L1728.77,976.164ZM1785.73,976.164C1788.09,976.041 1792.12,976.041 1794.69,976.164C1797.26,976.286 1795.33,976.386 1790.4,976.387C1785.47,976.387 1783.37,976.289 1785.73,976.166L1785.73,976.164ZM1838.37,975.838C1838.2,975.398 1838.14,962.078 1838.24,946.238L1838.41,917.438L1838.57,946.7L1838.72,975.961L1855.68,976.359L1847.18,976.498C1840.86,976.602 1838.6,976.433 1838.37,975.838ZM2076.16,976.215C2083.08,975.748 2090.74,975.719 2090.46,976.16C2090.3,976.424 2086.37,976.588 2081.72,976.525C2077.08,976.461 2074.58,976.322 2076.16,976.215L2076.16,976.215ZM2129.57,975.84C2129.41,975.4 2129.35,955.168 2129.44,930.88L2129.61,886.72L2129.92,975.964L2138.72,976.162L2147.52,976.359L2138.7,976.5C2132.13,976.604 2129.8,976.436 2129.57,975.84ZM2188.45,975.84C2188.28,975.4 2188.22,962.656 2188.32,947.52L2188.49,920L2188.65,947.982L2188.8,975.964L2197.6,976.162L2206.4,976.359L2197.58,976.5C2191.01,976.604 2188.68,976.436 2188.45,975.84ZM2089.65,970.507C2089.68,969.761 2089.83,969.609 2090.04,970.12C2090.22,970.582 2090.2,971.134 2089.99,971.347C2089.77,971.559 2089.62,971.181 2089.65,970.507L2089.65,970.507ZM2072.45,968.64C2072.46,967.584 2072.6,967.23 2072.76,967.852C2072.93,968.475 2072.91,969.339 2072.74,969.772C2072.56,970.206 2072.43,969.696 2072.45,968.64L2072.45,968.64ZM2049.16,964.043C2049.62,963.858 2050.17,963.881 2050.39,964.093C2050.6,964.306 2050.22,964.457 2049.55,964.43C2048.8,964.399 2048.65,964.247 2049.16,964.043L2049.16,964.043ZM1942.28,962.763C1942.74,962.578 1943.29,962.601 1943.51,962.813C1943.72,963.026 1943.34,963.177 1942.67,963.15C1941.92,963.119 1941.77,962.967 1942.28,962.763L1942.28,962.763ZM1514.4,962.102C1515.37,961.955 1516.95,961.955 1517.92,962.102C1518.89,962.248 1518.1,962.368 1516.16,962.368C1514.22,962.368 1513.43,962.248 1514.4,962.102ZM2071.86,937.28C2071.87,935.52 2071.99,934.876 2072.14,935.849C2072.29,936.822 2072.28,938.262 2072.13,939.049C2071.98,939.836 2071.86,939.04 2071.86,937.28L2071.86,937.28ZM1598.13,935.307C1598.16,934.561 1598.31,934.409 1598.52,934.92C1598.7,935.382 1598.68,935.934 1598.47,936.147C1598.25,936.359 1598.1,935.981 1598.13,935.307L1598.13,935.307ZM1616.05,934.667C1616.08,933.921 1616.23,933.769 1616.44,934.28C1616.62,934.742 1616.6,935.294 1616.39,935.507C1616.17,935.719 1616.02,935.341 1616.05,934.667L1616.05,934.667ZM1913.65,934.667C1913.68,933.921 1913.83,933.769 1914.04,934.28C1914.22,934.742 1914.2,935.294 1913.99,935.507C1913.77,935.719 1913.62,935.341 1913.65,934.667L1913.65,934.667ZM1984.21,931.84C1984.21,929.552 1984.32,928.616 1984.46,929.76C1984.61,930.904 1984.61,932.776 1984.46,933.92C1984.32,935.064 1984.21,934.128 1984.21,931.84ZM1966.26,931.52C1966.27,929.76 1966.39,929.116 1966.54,930.089C1966.69,931.062 1966.68,932.502 1966.53,933.289C1966.38,934.076 1966.26,933.28 1966.26,931.52L1966.26,931.52ZM1616.05,928.267C1616.08,927.521 1616.23,927.369 1616.44,927.88C1616.62,928.342 1616.6,928.894 1616.39,929.107C1616.17,929.319 1616.02,928.941 1616.05,928.267L1616.05,928.267ZM1913.65,928.267C1913.68,927.521 1913.83,927.369 1914.04,927.88C1914.22,928.342 1914.2,928.894 1913.99,929.107C1913.77,929.319 1913.62,928.941 1913.65,928.267L1913.65,928.267ZM1598.13,927.627C1598.16,926.881 1598.31,926.729 1598.52,927.24C1598.7,927.702 1598.68,928.254 1598.47,928.467C1598.25,928.679 1598.1,928.301 1598.13,927.627L1598.13,927.627ZM136.759,922.401C142.808,922.296 152.888,922.296 159.159,922.401C165.429,922.506 160.48,922.592 148.16,922.592C135.84,922.592 130.709,922.506 136.759,922.401ZM1469.49,916.107C1469.52,915.361 1469.67,915.209 1469.88,915.72C1470.06,916.182 1470.04,916.734 1469.83,916.947C1469.61,917.159 1469.46,916.781 1469.49,916.107L1469.49,916.107ZM1855.41,914.827C1855.44,914.081 1855.59,913.929 1855.8,914.44C1855.98,914.902 1855.96,915.454 1855.75,915.667C1855.53,915.879 1855.38,915.501 1855.41,914.827L1855.41,914.827ZM2071.73,914.827C2071.76,914.081 2071.91,913.929 2072.12,914.44C2072.3,914.902 2072.28,915.454 2072.07,915.667C2071.85,915.879 2071.7,915.501 2071.73,914.827L2071.73,914.827ZM412.334,910.72C412.334,909.136 412.459,908.488 412.612,909.28C412.764,910.072 412.764,911.368 412.612,912.16C412.459,912.952 412.334,912.304 412.334,910.72ZM381.601,910.4C381.608,908.992 381.74,908.491 381.893,909.287C382.046,910.084 382.04,911.236 381.88,911.847C381.72,912.459 381.594,911.808 381.601,910.4L381.601,910.4ZM1469.49,904.587C1469.52,903.841 1469.67,903.689 1469.88,904.2C1470.06,904.662 1470.04,905.214 1469.83,905.427C1469.61,905.639 1469.46,905.261 1469.49,904.587L1469.49,904.587ZM1450.93,902.667C1450.96,901.921 1451.11,901.769 1451.32,902.28C1451.5,902.742 1451.48,903.294 1451.27,903.507C1451.05,903.719 1450.9,903.341 1450.93,902.667L1450.93,902.667ZM333.31,872.483C336.231,872.364 340.839,872.365 343.55,872.483C346.262,872.603 343.872,872.7 338.24,872.699C332.608,872.699 330.39,872.601 333.31,872.482L333.31,872.483ZM565.394,858.88C565.394,850.96 565.486,847.72 565.598,851.68C565.71,855.64 565.71,862.12 565.598,866.08C565.485,870.04 565.394,866.8 565.394,858.88ZM1367.31,858.88C1367.31,850.96 1367.41,847.72 1367.52,851.68C1367.63,855.64 1367.63,862.12 1367.52,866.08C1367.4,870.04 1367.31,866.8 1367.31,858.88ZM364.96,707.399C365.576,707.238 366.584,707.238 367.2,707.399C367.816,707.56 367.312,707.692 366.08,707.692C364.848,707.692 364.344,707.56 364.96,707.399ZM387.047,707.387C387.844,707.234 388.996,707.24 389.607,707.4C390.219,707.56 389.568,707.686 388.16,707.678C386.752,707.671 386.251,707.54 387.047,707.387L387.047,707.387ZM353.8,706.763C354.262,706.578 354.814,706.601 355.027,706.813C355.239,707.026 354.861,707.177 354.187,707.15C353.441,707.119 353.289,706.967 353.8,706.763L353.8,706.763ZM399.24,706.763C399.702,706.578 400.254,706.601 400.467,706.813C400.679,707.026 400.301,707.177 399.627,707.15C398.881,707.119 398.729,706.967 399.24,706.763L399.24,706.763ZM1348,706.119C1348.62,705.958 1349.62,705.958 1350.24,706.119C1350.86,706.28 1350.35,706.412 1349.12,706.412C1347.89,706.412 1347.38,706.28 1348,706.119ZM1371.04,706.119C1371.66,705.958 1372.66,705.958 1373.28,706.119C1373.9,706.28 1373.39,706.412 1372.16,706.412C1370.93,706.412 1370.42,706.28 1371.04,706.119ZM1337.48,705.483C1337.94,705.298 1338.49,705.321 1338.71,705.533C1338.92,705.746 1338.54,705.897 1337.87,705.87C1337.12,705.839 1336.97,705.687 1337.48,705.483L1337.48,705.483ZM1382.92,705.483C1383.38,705.298 1383.93,705.321 1384.15,705.533C1384.36,705.746 1383.98,705.897 1383.31,705.87C1382.56,705.839 1382.41,705.687 1382.92,705.483L1382.92,705.483ZM1803.52,667.68L1773.12,637.12L1803.68,667.518C1820.49,684.236 1834.24,697.988 1834.24,698.078C1834.24,698.527 1831.77,696.085 1803.52,667.68ZM364,619.096C364.44,618.919 365.16,618.919 365.6,619.096C366.04,619.274 365.68,619.419 364.8,619.419C363.92,619.419 363.56,619.274 364,619.096ZM386.4,619.096C386.84,618.919 387.56,618.919 388,619.096C388.44,619.274 388.08,619.419 387.2,619.419C386.32,619.419 385.96,619.274 386.4,619.096ZM1352.81,619.067C1353.6,618.914 1354.76,618.92 1355.37,619.08C1355.98,619.24 1355.33,619.366 1353.92,619.359C1352.51,619.352 1352.01,619.22 1352.81,619.067L1352.81,619.067ZM1366.25,619.067C1367.04,618.914 1368.2,618.92 1368.81,619.08C1369.42,619.24 1368.77,619.366 1367.36,619.359C1365.95,619.352 1365.45,619.22 1366.25,619.067L1366.25,619.067ZM355.72,618.443C356.182,618.258 356.734,618.281 356.947,618.493C357.159,618.706 356.781,618.857 356.107,618.829C355.361,618.799 355.209,618.647 355.72,618.443L355.72,618.443ZM84.531,441.227C84.561,440.481 84.713,440.329 84.917,440.84C85.102,441.302 85.079,441.854 84.867,442.067C84.654,442.279 84.503,441.901 84.531,441.227L84.531,441.227ZM1651.89,437.387C1651.92,436.641 1652.07,436.489 1652.28,437C1652.46,437.462 1652.44,438.014 1652.23,438.227C1652.01,438.439 1651.86,438.061 1651.89,437.387L1651.89,437.387ZM1068.85,435.467C1068.88,434.721 1069.03,434.569 1069.24,435.08C1069.42,435.542 1069.4,436.094 1069.19,436.307C1068.97,436.519 1068.82,436.141 1068.85,435.467L1068.85,435.467ZM83.891,432.907C83.921,432.161 84.073,432.009 84.277,432.52C84.462,432.982 84.439,433.534 84.227,433.747C84.014,433.959 83.863,433.581 83.891,432.907L83.891,432.907ZM170.931,428.427C170.961,427.681 171.113,427.529 171.317,428.04C171.502,428.502 171.479,429.054 171.267,429.267C171.054,429.479 170.903,429.101 170.931,428.427L170.931,428.427ZM1652.61,427.2C1652.62,426.144 1652.76,425.789 1652.92,426.412C1653.09,427.035 1653.08,427.899 1652.9,428.332C1652.72,428.765 1652.59,428.256 1652.61,427.2L1652.61,427.2ZM1068.33,422.4C1068.33,420.816 1068.46,420.168 1068.61,420.96C1068.76,421.752 1068.76,423.048 1068.61,423.84C1068.46,424.632 1068.33,423.984 1068.33,422.4ZM1565.57,422.72C1565.58,421.664 1565.72,421.309 1565.88,421.932C1566.05,422.555 1566.04,423.419 1565.86,423.852C1565.68,424.285 1565.55,423.776 1565.57,422.72L1565.57,422.72ZM1155.44,414.08C1155.44,410.384 1155.54,408.872 1155.67,410.72C1155.8,412.568 1155.8,415.592 1155.67,417.44C1155.54,419.288 1155.44,417.776 1155.44,414.08ZM83.405,414.08C83.405,411.792 83.521,410.856 83.663,412C83.805,413.144 83.805,415.016 83.663,416.16C83.521,417.304 83.405,416.368 83.405,414.08ZM1068.33,405.76C1068.33,404.176 1068.46,403.528 1068.61,404.32C1068.76,405.112 1068.76,406.408 1068.61,407.2C1068.46,407.992 1068.33,407.344 1068.33,405.76ZM1565.57,405.44C1565.58,404.384 1565.72,404.029 1565.88,404.652C1566.05,405.275 1566.04,406.139 1565.86,406.572C1565.68,407.005 1565.55,406.496 1565.57,405.44L1565.57,405.44ZM1652.61,400.96C1652.62,399.904 1652.76,399.549 1652.92,400.172C1653.09,400.795 1653.08,401.659 1652.9,402.092C1652.72,402.525 1652.59,402.016 1652.6,400.96L1652.61,400.96ZM170.931,400.267C170.961,399.521 171.113,399.369 171.317,399.88C171.502,400.342 171.479,400.894 171.267,401.107C171.054,401.319 170.903,400.941 170.931,400.267L170.931,400.267ZM83.941,395.52C83.941,394.64 84.086,394.28 84.264,394.72C84.441,395.16 84.441,395.88 84.264,396.32C84.086,396.76 83.941,396.4 83.941,395.52ZM1068.85,392.587C1068.88,391.841 1069.03,391.689 1069.24,392.2C1069.42,392.662 1069.4,393.214 1069.19,393.427C1068.97,393.639 1068.82,393.261 1068.85,392.587L1068.85,392.587ZM1651.89,390.667C1651.92,389.921 1652.07,389.769 1652.28,390.28C1652.46,390.742 1652.44,391.294 1652.23,391.507C1652.01,391.719 1651.86,391.341 1651.89,390.667L1651.89,390.667ZM2456.84,278.603C2457.3,278.418 2457.85,278.441 2458.07,278.653C2458.28,278.866 2457.9,279.017 2457.23,278.989C2456.48,278.959 2456.33,278.807 2456.84,278.603L2456.84,278.603ZM2425.15,248.484C2427.89,248.363 2432.21,248.364 2434.75,248.486C2437.28,248.607 2435.04,248.705 2429.76,248.704C2424.48,248.704 2422.41,248.604 2425.15,248.484L2425.15,248.484ZM2473.79,248.483C2476.89,248.366 2481.78,248.366 2484.67,248.484C2487.56,248.602 2485.02,248.699 2479.04,248.698C2473.06,248.697 2470.69,248.6 2473.79,248.483L2473.79,248.483ZM360.2,209.483C360.662,209.298 361.214,209.321 361.427,209.533C361.639,209.746 361.261,209.897 360.587,209.869C359.841,209.839 359.689,209.687 360.2,209.483L360.2,209.483ZM390.92,209.483C391.382,209.298 391.934,209.321 392.147,209.533C392.359,209.746 391.981,209.897 391.307,209.869C390.561,209.839 390.409,209.687 390.92,209.483L390.92,209.483ZM1377.8,209.483C1378.26,209.298 1378.81,209.321 1379.03,209.533C1379.24,209.746 1378.86,209.897 1378.19,209.869C1377.44,209.839 1377.29,209.687 1377.8,209.483L1377.8,209.483ZM1353.77,208.821C1354.74,208.674 1356.18,208.678 1356.97,208.83C1357.76,208.982 1356.96,209.102 1355.2,209.097C1353.44,209.092 1352.8,208.968 1353.77,208.821L1353.77,208.821ZM1364.65,208.821C1365.62,208.674 1367.06,208.678 1367.85,208.83C1368.64,208.982 1367.84,209.102 1366.08,209.097C1364.32,209.092 1363.68,208.968 1364.65,208.821L1364.65,208.821ZM2373.17,207.627C2373.2,206.881 2373.35,206.729 2373.56,207.24C2373.74,207.702 2373.72,208.254 2373.51,208.467C2373.29,208.679 2373.14,208.301 2373.17,207.627L2373.17,207.627ZM2373.17,197.387C2373.2,196.641 2373.35,196.489 2373.56,197C2373.74,197.462 2373.72,198.014 2373.51,198.227C2373.29,198.439 2373.14,198.061 2373.17,197.387L2373.17,197.387ZM1803.52,160.32C1820.24,143.6 1834.06,129.92 1834.24,129.92C1834.41,129.92 1820.88,143.6 1804.16,160.32C1787.44,177.04 1773.62,190.72 1773.44,190.72C1773.27,190.72 1786.8,177.04 1803.52,160.32ZM2450.4,156.376C2450.84,156.199 2451.56,156.199 2452,156.376C2452.44,156.554 2452.08,156.699 2451.2,156.699C2450.32,156.699 2449.96,156.554 2450.4,156.376ZM2444.68,138.443C2445.14,138.258 2445.69,138.281 2445.91,138.493C2446.12,138.706 2445.74,138.857 2445.07,138.829C2444.32,138.799 2444.17,138.647 2444.68,138.443L2444.68,138.443ZM2454.28,138.443C2454.74,138.258 2455.29,138.281 2455.51,138.493C2455.72,138.706 2455.34,138.857 2454.67,138.829C2453.92,138.799 2453.77,138.647 2454.28,138.443L2454.28,138.443ZM820.32,137.76C832.376,137.663 852.104,137.663 864.16,137.76C876.216,137.858 866.352,137.937 842.24,137.937C818.128,137.937 808.264,137.858 820.32,137.76ZM2445.6,125.639C2446.22,125.478 2447.22,125.478 2447.84,125.639C2448.46,125.8 2447.95,125.932 2446.72,125.932C2445.49,125.932 2444.98,125.8 2445.6,125.639ZM2452,125.639C2452.62,125.478 2453.62,125.478 2454.24,125.639C2454.86,125.8 2454.35,125.932 2453.12,125.932C2451.89,125.932 2451.38,125.8 2452,125.639ZM1338.12,122.443C1338.58,122.258 1339.13,122.281 1339.35,122.493C1339.56,122.706 1339.18,122.857 1338.51,122.829C1337.76,122.799 1337.61,122.647 1338.12,122.443L1338.12,122.443ZM1382.28,122.443C1382.74,122.258 1383.29,122.281 1383.51,122.493C1383.72,122.706 1383.34,122.857 1382.67,122.829C1381.92,122.799 1381.77,122.647 1382.28,122.443L1382.28,122.443ZM1348.97,121.787C1349.76,121.634 1350.92,121.64 1351.53,121.8C1352.14,121.96 1351.49,122.086 1350.08,122.079C1348.67,122.072 1348.17,121.94 1348.97,121.787L1348.97,121.787ZM1370.09,121.787C1370.88,121.634 1372.04,121.64 1372.65,121.8C1373.26,121.96 1372.61,122.086 1371.2,122.079C1369.79,122.072 1369.29,121.94 1370.09,121.787L1370.09,121.787ZM359.52,121.176C359.96,120.999 360.68,120.999 361.12,121.176C361.56,121.354 361.2,121.499 360.32,121.499C359.44,121.499 359.08,121.354 359.52,121.176ZM392.8,121.176C393.24,120.999 393.96,120.999 394.4,121.176C394.84,121.354 394.48,121.499 393.6,121.499C392.72,121.499 392.36,121.354 392.8,121.176ZM820.32,50.72C832.376,50.623 852.104,50.623 864.16,50.72C876.216,50.818 866.352,50.897 842.24,50.897C818.128,50.897 808.264,50.818 820.32,50.72Z" style="fill-rule:nonzero;"/>
                <path id="path251" d="M393.6,959.118C393.6,958.985 394.104,958.481 394.72,957.998C395.735,957.202 395.758,957.225 394.962,958.24C394.126,959.306 393.6,959.645 393.6,959.118ZM1662.34,907.36L1661.12,905.92L1662.56,907.139C1663.91,908.285 1664.29,908.8 1663.78,908.8C1663.66,908.8 1663.01,908.152 1662.34,907.36ZM1748.16,905.6C1748.8,904.896 1749.46,904.32 1749.64,904.32C1749.81,904.32 1749.44,904.896 1748.8,905.6C1748.16,906.304 1747.5,906.88 1747.32,906.88C1747.15,906.88 1747.52,906.304 1748.16,905.6ZM2067.12,903.84C2066.32,902.825 2066.35,902.802 2067.36,903.598C2067.98,904.081 2068.48,904.585 2068.48,904.718C2068.48,905.245 2067.95,904.906 2067.12,903.84ZM1675.47,896.8L1673.92,895.04L1675.68,896.592C1676.65,897.445 1677.44,898.237 1677.44,898.352C1677.44,898.854 1676.92,898.445 1675.47,896.8ZM2023.68,895.758C2023.68,895.625 2024.18,895.121 2024.8,894.638C2025.82,893.842 2025.84,893.865 2025.04,894.88C2024.21,895.946 2023.68,896.285 2023.68,895.758ZM371.118,882.08C370.322,881.065 370.345,881.042 371.36,881.838C372.426,882.674 372.765,883.2 372.238,883.2C372.105,883.2 371.601,882.696 371.118,882.08ZM1976.64,556.32L2118.72,414.08L1976.64,271.84L1834.56,129.6L2119.36,414.08L1834.56,698.56L1976.64,556.32ZM2311.04,667.84C2327.76,651.12 2341.58,637.44 2341.76,637.44C2341.93,637.44 2328.4,651.12 2311.68,667.84C2294.96,684.56 2281.14,698.24 2280.97,698.24C2280.79,698.24 2294.32,684.56 2311.04,667.84ZM1884.48,525.6L1995.84,414.08L1884.48,302.56L1773.12,191.04L1996.48,414.08L1773.12,637.12L1884.48,525.6ZM1561.6,626.36C1561.6,626.25 1562.54,625.314 1563.68,624.28L1565.76,622.4L1563.88,624.48C1562.13,626.419 1561.6,626.854 1561.6,626.36ZM1153.87,620.96L1152.32,619.2L1154.08,620.752C1155.05,621.605 1155.84,622.397 1155.84,622.512C1155.84,623.014 1155.32,622.605 1153.87,620.96ZM1569.28,618.68C1569.28,618.57 1570.22,617.634 1571.36,616.6L1573.44,614.72L1571.56,616.8C1569.81,618.739 1569.28,619.174 1569.28,618.68ZM160.558,612.64C159.762,611.625 159.785,611.602 160.8,612.398C161.416,612.881 161.92,613.385 161.92,613.518C161.92,614.045 161.394,613.706 160.558,612.64ZM592.64,612.878C592.64,612.745 593.144,612.241 593.76,611.758C594.775,610.962 594.798,610.985 594.002,612C593.166,613.066 592.64,613.405 592.64,612.878ZM517.12,562.88C517.947,562 518.767,561.28 518.943,561.28C519.119,561.28 518.587,562 517.76,562.88C516.933,563.76 516.113,564.48 515.937,564.48C515.761,564.48 516.293,563.76 517.12,562.88ZM524.16,555.84C524.987,554.96 525.807,554.24 525.983,554.24C526.159,554.24 525.627,554.96 524.8,555.84C523.973,556.72 523.153,557.44 522.977,557.44C522.801,557.44 523.333,556.72 524.16,555.84ZM1208.88,552.48C1208.08,551.465 1208.11,551.442 1209.12,552.238C1209.74,552.721 1210.24,553.225 1210.24,553.358C1210.24,553.885 1209.71,553.546 1208.88,552.48ZM2504.32,256.32C2505.51,255.088 2506.64,254.08 2506.81,254.08C2506.99,254.08 2506.15,255.088 2504.96,256.32C2503.77,257.552 2502.64,258.56 2502.47,258.56C2502.29,258.56 2503.13,257.552 2504.32,256.32ZM2495.36,247.36C2496.19,246.48 2497.01,245.76 2497.18,245.76C2497.36,245.76 2496.83,246.48 2496,247.36C2495.17,248.24 2494.35,248.96 2494.18,248.96C2494,248.96 2494.53,248.24 2495.36,247.36ZM1567.03,207.2L1561.92,201.92L1567.2,207.025C1570.1,209.833 1572.48,212.209 1572.48,212.305C1572.48,212.772 1571.77,212.104 1567.03,207.2ZM583.985,206.56L578.88,201.28L584.16,206.385C587.064,209.193 589.44,211.569 589.44,211.665C589.44,212.132 588.726,211.464 583.985,206.56ZM169.28,206.72C171.37,204.608 173.224,202.88 173.4,202.88C173.576,202.88 172.01,204.608 169.92,206.72C167.83,208.832 165.976,210.56 165.8,210.56C165.624,210.56 167.19,208.832 169.28,206.72ZM2311.04,160.16L2280.64,129.6L2311.2,159.997C2328.01,176.716 2341.76,190.468 2341.76,190.557C2341.76,191.007 2339.29,188.565 2311.04,160.16ZM2458.16,174.88C2457.36,173.865 2457.39,173.842 2458.4,174.638C2459.02,175.121 2459.52,175.625 2459.52,175.758C2459.52,176.285 2458.99,175.946 2458.16,174.88Z" style="fill-rule:nonzero;"/>
                <path id="path249" d="M2254.91,1013.28C2257.65,1013.16 2261.97,1013.16 2264.51,1013.28C2267.05,1013.4 2264.8,1013.5 2259.52,1013.5C2254.24,1013.5 2252.16,1013.4 2254.91,1013.28L2254.91,1013.28ZM1513.76,978.734C1515.08,978.596 1517.24,978.596 1518.56,978.734C1519.88,978.872 1518.8,978.985 1516.16,978.985C1513.52,978.985 1512.44,978.872 1513.76,978.734ZM1642.09,978.734C1643.24,978.591 1644.97,978.594 1645.93,978.74C1646.89,978.886 1645.95,979.002 1643.84,978.999C1641.73,978.993 1640.94,978.876 1642.09,978.733L1642.09,978.734ZM2042.4,978.74C2043.37,978.593 2044.95,978.593 2045.92,978.74C2046.89,978.886 2046.1,979.006 2044.16,979.006C2042.22,979.006 2041.43,978.886 2042.4,978.74ZM1855.66,945.92C1855.66,929.2 1855.74,922.36 1855.84,930.72C1855.94,939.08 1855.94,952.76 1855.84,961.12C1855.74,969.48 1855.66,962.64 1855.66,945.92ZM1642.73,963.387C1643.52,963.234 1644.68,963.24 1645.29,963.4C1645.9,963.56 1645.25,963.686 1643.84,963.678C1642.43,963.671 1641.93,963.54 1642.73,963.387L1642.73,963.387ZM1519.88,962.123C1520.34,961.938 1520.89,961.961 1521.11,962.173C1521.32,962.386 1520.94,962.537 1520.27,962.51C1519.52,962.479 1519.37,962.327 1519.88,962.123L1519.88,962.123ZM479.52,949.281C486.472,949.177 497.848,949.177 504.8,949.281C511.752,949.384 506.064,949.469 492.16,949.469C478.256,949.469 472.568,949.384 479.52,949.281ZM734.837,949.281C741.766,949.178 753.286,949.178 760.437,949.281C767.589,949.384 761.92,949.468 747.84,949.468C733.76,949.469 727.909,949.384 734.837,949.281ZM1003.68,949.281C1010.63,949.177 1022.01,949.177 1028.96,949.281C1035.91,949.384 1030.22,949.469 1016.32,949.469C1002.42,949.469 996.728,949.384 1003.68,949.281ZM327.974,948.32C327.806,947.88 327.745,930.672 327.839,910.08L328.011,872.64L328.165,910.541L328.32,948.443L336.8,948.642L345.28,948.841L336.78,948.98C330.464,949.084 328.201,948.915 327.974,948.32ZM1689.06,934.4C1689.06,933.52 1689.21,933.16 1689.38,933.6C1689.56,934.04 1689.56,934.76 1689.38,935.2C1689.21,935.64 1689.06,935.28 1689.06,934.4ZM1598.24,931.52C1598.25,930.112 1598.38,929.611 1598.53,930.407C1598.69,931.204 1598.68,932.356 1598.52,932.967C1598.36,933.579 1598.23,932.928 1598.24,931.52L1598.24,931.52ZM1689.06,928.64C1689.06,927.76 1689.21,927.4 1689.38,927.84C1689.56,928.28 1689.56,929 1689.38,929.44C1689.21,929.88 1689.06,929.52 1689.06,928.64ZM1197.1,884.48C1197.1,862.48 1197.18,853.48 1197.28,864.48C1197.38,875.48 1197.38,893.48 1197.28,904.48C1197.18,915.48 1197.1,906.48 1197.1,884.48ZM2205.54,916.48C2205.54,915.6 2205.69,915.24 2205.86,915.68C2206.04,916.12 2206.04,916.84 2205.86,917.28C2205.69,917.72 2205.54,917.36 2205.54,916.48ZM1450.93,916.107C1450.96,915.361 1451.11,915.209 1451.32,915.72C1451.5,916.182 1451.48,916.734 1451.27,916.947C1451.05,917.159 1450.9,916.781 1450.93,916.107L1450.93,916.107ZM381.491,914.187C381.521,913.441 381.673,913.289 381.877,913.8C382.062,914.262 382.039,914.814 381.827,915.027C381.614,915.239 381.463,914.861 381.491,914.187L381.491,914.187ZM2089.01,914.187C2089.04,913.441 2089.19,913.289 2089.4,913.8C2089.58,914.262 2089.56,914.814 2089.35,915.027C2089.13,915.239 2088.98,914.861 2089.01,914.187L2089.01,914.187ZM381.491,907.147C381.521,906.401 381.673,906.249 381.877,906.76C382.062,907.222 382.039,907.774 381.827,907.987C381.614,908.199 381.463,907.821 381.491,907.147L381.491,907.147ZM1450.93,904.587C1450.96,903.841 1451.11,903.689 1451.32,904.2C1451.5,904.662 1451.48,905.214 1451.27,905.427C1451.05,905.639 1450.9,905.261 1450.93,904.587L1450.93,904.587ZM2177.16,884.683C2177.62,884.498 2178.17,884.521 2178.39,884.733C2178.6,884.946 2178.22,885.097 2177.55,885.07C2176.8,885.039 2176.65,884.887 2177.16,884.683L2177.16,884.683ZM349.612,844.996C350.235,844.834 351.099,844.845 351.532,845.02C351.965,845.195 351.456,845.328 350.4,845.315C349.344,845.302 348.989,845.159 349.612,844.996L349.612,844.996ZM372.32,707.365C374.872,707.243 379.048,707.243 381.6,707.365C384.152,707.486 382.064,707.586 376.96,707.586C371.856,707.586 369.768,707.486 372.32,707.365ZM356.36,706.763C356.822,706.578 357.374,706.601 357.587,706.813C357.799,707.026 357.421,707.177 356.747,707.15C356.001,707.119 355.849,706.967 356.36,706.763L356.36,706.763ZM1356.35,706.084C1359.09,705.964 1363.41,705.964 1365.95,706.084C1368.49,706.205 1366.24,706.303 1360.96,706.302C1355.68,706.302 1353.61,706.202 1356.35,706.082L1356.35,706.084ZM1381,705.483C1381.46,705.298 1382.01,705.321 1382.23,705.533C1382.44,705.746 1382.06,705.897 1381.39,705.87C1380.64,705.839 1380.49,705.687 1381,705.483L1381,705.483ZM361.48,619.083C361.942,618.898 362.494,618.921 362.707,619.133C362.919,619.346 362.541,619.497 361.867,619.469C361.121,619.439 360.969,619.287 361.48,619.083L361.48,619.083ZM389,619.083C389.462,618.898 390.014,618.921 390.227,619.133C390.439,619.346 390.061,619.497 389.387,619.469C388.641,619.439 388.489,619.287 389,619.083L389,619.083ZM1348.96,619.096C1349.4,618.919 1350.12,618.919 1350.56,619.096C1351,619.274 1350.64,619.419 1349.76,619.419C1348.88,619.419 1348.52,619.274 1348.96,619.096ZM1370.72,619.096C1371.16,618.919 1371.88,618.919 1372.32,619.096C1372.76,619.274 1372.4,619.419 1371.52,619.419C1370.64,619.419 1370.28,619.274 1370.72,619.096ZM1651.89,435.467C1651.92,434.721 1652.07,434.569 1652.28,435.08C1652.46,435.542 1652.44,436.094 1652.23,436.307C1652.01,436.519 1651.86,436.141 1651.89,435.467L1651.89,435.467ZM1068.85,432.907C1068.88,432.161 1069.03,432.009 1069.24,432.52C1069.42,432.982 1069.4,433.534 1069.19,433.747C1068.97,433.959 1068.82,433.581 1068.85,432.907L1068.85,432.907ZM83.941,430.08C83.941,429.2 84.086,428.84 84.264,429.28C84.441,429.72 84.441,430.44 84.264,430.88C84.086,431.32 83.941,430.96 83.941,430.08ZM1565.54,426.24C1565.54,425.36 1565.69,425 1565.86,425.44C1566.04,425.88 1566.04,426.6 1565.86,427.04C1565.69,427.48 1565.54,427.12 1565.54,426.24ZM1652.65,422.4C1652.65,420.816 1652.78,420.168 1652.93,420.96C1653.08,421.752 1653.08,423.048 1652.93,423.84C1652.78,424.632 1652.65,423.984 1652.65,422.4ZM1155.33,422.72C1155.34,421.664 1155.48,421.309 1155.64,421.932C1155.81,422.555 1155.8,423.419 1155.62,423.852C1155.44,424.285 1155.31,423.776 1155.33,422.72L1155.33,422.72ZM170.467,414.4C170.465,411.232 170.573,409.855 170.708,411.341C170.842,412.826 170.843,415.418 170.712,417.101C170.579,418.783 170.469,417.568 170.467,414.4L170.467,414.4ZM1068.38,414.08C1068.38,411.088 1068.49,409.864 1068.63,411.36C1068.76,412.856 1068.76,415.304 1068.63,416.8C1068.49,418.296 1068.38,417.072 1068.38,414.08ZM1652.65,405.76C1652.65,404.176 1652.78,403.528 1652.93,404.32C1653.08,405.112 1653.08,406.408 1652.93,407.2C1652.78,407.992 1652.65,407.344 1652.65,405.76ZM1155.33,405.44C1155.34,404.384 1155.48,404.029 1155.64,404.652C1155.81,405.275 1155.8,406.139 1155.62,406.572C1155.44,407.005 1155.31,406.496 1155.33,405.44L1155.33,405.44ZM1565.54,401.92C1565.54,401.04 1565.69,400.68 1565.86,401.12C1566.04,401.56 1566.04,402.28 1565.86,402.72C1565.69,403.16 1565.54,402.8 1565.54,401.92ZM83.941,398.08C83.941,397.2 84.086,396.84 84.264,397.28C84.441,397.72 84.441,398.44 84.264,398.88C84.086,399.32 83.941,398.96 83.941,398.08ZM1068.85,395.147C1068.88,394.401 1069.03,394.249 1069.24,394.76C1069.42,395.222 1069.4,395.774 1069.19,395.987C1068.97,396.199 1068.82,395.821 1068.85,395.147L1068.85,395.147ZM1651.89,392.587C1651.92,391.841 1652.07,391.689 1652.28,392.2C1652.46,392.662 1652.44,393.214 1652.23,393.427C1652.01,393.639 1651.86,393.261 1651.89,392.587L1651.89,392.587ZM2444,278.616C2444.44,278.439 2445.16,278.439 2445.6,278.616C2446.04,278.794 2445.68,278.939 2444.8,278.939C2443.92,278.939 2443.56,278.794 2444,278.616ZM2454.92,278.603C2455.38,278.418 2455.93,278.441 2456.15,278.653C2456.36,278.866 2455.98,279.017 2455.31,278.989C2454.56,278.959 2454.41,278.807 2454.92,278.603L2454.92,278.603ZM2447.84,266.417C2448.98,266.275 2450.86,266.275 2452,266.417C2453.14,266.559 2452.21,266.675 2449.92,266.675C2447.63,266.675 2446.7,266.559 2447.84,266.417ZM2420.15,202.24L2420.16,156.48L2449.28,156.443L2434.89,156.634L2420.49,156.824L2420.32,202.412L2420.15,248L2420.16,202.24L2420.15,202.24ZM2439.32,231.04C2439.32,221.36 2439.41,217.4 2439.52,222.24C2439.63,227.08 2439.63,235 2439.52,239.84C2439.41,244.68 2439.32,240.72 2439.32,231.04ZM820.32,224.8C832.376,224.703 852.104,224.703 864.16,224.8C876.216,224.898 866.352,224.977 842.24,224.977C818.128,224.977 808.264,224.898 820.32,224.8ZM358.28,209.483C358.742,209.298 359.294,209.321 359.507,209.533C359.719,209.746 359.341,209.897 358.667,209.869C357.921,209.839 357.769,209.687 358.28,209.483L358.28,209.483ZM372.027,208.805C374.417,208.681 378.161,208.682 380.347,208.807C382.532,208.931 380.576,209.032 376,209.031C371.424,209.03 369.636,208.928 372.027,208.805L372.027,208.805ZM1349.93,208.837C1350.56,208.674 1351.42,208.685 1351.85,208.86C1352.29,209.036 1351.78,209.168 1350.72,209.155C1349.66,209.142 1349.31,208.999 1349.93,208.836L1349.93,208.837ZM1370.08,208.856C1370.52,208.679 1371.24,208.679 1371.68,208.856C1372.12,209.034 1371.76,209.179 1370.88,209.179C1370,209.179 1369.64,209.034 1370.08,208.856ZM2526.13,207.627C2526.16,206.881 2526.31,206.73 2526.52,207.24C2526.7,207.702 2526.68,208.254 2526.47,208.467C2526.25,208.679 2526.1,208.301 2526.13,207.627L2526.13,207.627ZM2373.33,202.24C2373.33,199.952 2373.44,199.016 2373.58,200.16C2373.72,201.304 2373.72,203.176 2373.58,204.32C2373.44,205.464 2373.33,204.528 2373.33,202.24ZM2514.08,202.56C2514.09,201.152 2514.22,200.651 2514.37,201.447C2514.53,202.244 2514.52,203.396 2514.36,204.007C2514.2,204.619 2514.07,203.968 2514.08,202.56L2514.08,202.56ZM2439.31,185.28C2439.31,177.888 2439.41,174.952 2439.52,178.755C2439.63,182.558 2439.63,188.606 2439.52,192.195C2439.4,195.784 2439.31,192.672 2439.31,185.28L2439.31,185.28ZM2526.13,196.747C2526.16,196.001 2526.31,195.849 2526.52,196.36C2526.7,196.822 2526.68,197.374 2526.47,197.587C2526.25,197.799 2526.1,197.421 2526.13,196.747L2526.13,196.747ZM2480.83,184.32C2480.83,182.384 2480.95,181.592 2481.1,182.56C2481.24,183.528 2481.24,185.112 2481.1,186.08C2480.95,187.048 2480.83,186.256 2480.83,184.32ZM2461.6,184.64C2461.61,183.232 2461.74,182.731 2461.89,183.527C2462.05,184.324 2462.04,185.476 2461.88,186.087C2461.72,186.699 2461.59,186.048 2461.6,184.64L2461.6,184.64ZM1340.04,122.443C1340.5,122.258 1341.05,122.281 1341.27,122.493C1341.48,122.706 1341.1,122.857 1340.43,122.829C1339.68,122.799 1339.53,122.647 1340.04,122.443L1340.04,122.443ZM1380.36,122.443C1380.82,122.258 1381.37,122.281 1381.59,122.493C1381.8,122.706 1381.42,122.857 1380.75,122.829C1380,122.799 1379.85,122.647 1380.36,122.443L1380.36,122.443ZM400.52,121.803C400.982,121.618 401.534,121.641 401.747,121.853C401.959,122.066 401.581,122.217 400.907,122.189C400.161,122.159 400.009,122.007 400.52,121.803L400.52,121.803ZM1356.99,121.765C1359.38,121.641 1363.12,121.642 1365.31,121.767C1367.49,121.891 1365.54,121.992 1360.96,121.991C1356.38,121.99 1354.6,121.888 1356.99,121.765L1356.99,121.765ZM362.412,121.157C363.035,120.994 363.899,121.005 364.332,121.18C364.765,121.356 364.256,121.488 363.2,121.475C362.144,121.462 361.789,121.319 362.412,121.156L362.412,121.157ZM389.932,121.157C390.555,120.994 391.419,121.005 391.852,121.18C392.285,121.356 391.776,121.488 390.72,121.475C389.664,121.462 389.309,121.319 389.932,121.156L389.932,121.157Z" style="fill-rule:nonzero;"/>
                <path id="path247" d="M1804,667.681L1773.44,637.122L1884.96,525.601L1996.48,414.08L1884.96,302.558L1773.44,191.037L1834.56,129.922L1976.64,272.001L2118.72,414.08L1976.64,556.161L1834.56,698.241L1804,667.681Z" style="fill-rule:nonzero;"/>
                <path id="path245" d="M1610.16,964.64C1609.36,963.625 1609.38,963.602 1610.4,964.398C1611.47,965.234 1611.81,965.76 1611.28,965.76C1611.15,965.76 1610.64,965.256 1610.16,964.64ZM1624.32,907.84C1625.15,906.96 1625.97,906.24 1626.14,906.24C1626.32,906.24 1625.79,906.96 1624.96,907.84C1624.13,908.72 1623.31,909.44 1623.14,909.44C1622.96,909.44 1623.49,908.72 1624.32,907.84ZM1805.12,905.6C1805.76,904.896 1806.42,904.32 1806.6,904.32C1806.77,904.32 1806.4,904.896 1805.76,905.6C1805.12,906.304 1804.46,906.88 1804.28,906.88C1804.11,906.88 1804.48,906.304 1805.12,905.6ZM2037.12,905.358C2037.12,905.225 2037.62,904.721 2038.24,904.238C2039.26,903.442 2039.28,903.465 2038.48,904.48C2037.65,905.546 2037.12,905.885 2037.12,905.358ZM1546.16,869.92C1545.36,868.905 1545.38,868.882 1546.4,869.678C1547.47,870.514 1547.81,871.04 1547.28,871.04C1547.15,871.04 1546.64,870.536 1546.16,869.92ZM394.192,862.88L392.64,861.12L394.4,862.672C395.368,863.525 396.16,864.317 396.16,864.432C396.16,864.934 395.642,864.525 394.192,862.88ZM2178.88,596.96L2077.76,495.68L2179.04,596.799C2234.74,652.415 2280.32,697.991 2280.32,698.079C2280.32,698.168 2280.25,698.24 2280.16,698.24C2280.07,698.24 2234.49,652.664 2178.88,596.96ZM2240.32,535.52L2139.2,434.24L2240.48,535.359C2296.18,590.975 2341.76,636.551 2341.76,636.639C2341.76,636.728 2341.69,636.8 2341.6,636.8C2341.51,636.8 2295.93,591.224 2240.32,535.52ZM1555.2,632.078C1555.2,631.945 1555.7,631.441 1556.32,630.958C1557.34,630.162 1557.36,630.185 1556.56,631.2C1555.73,632.266 1555.2,632.605 1555.2,632.078ZM576,629.518C576,629.385 576.504,628.881 577.12,628.398C578.135,627.602 578.158,627.625 577.362,628.64C576.526,629.706 576,630.045 576,629.518ZM175.918,628C175.122,626.985 175.145,626.962 176.16,627.758C177.226,628.594 177.565,629.12 177.038,629.12C176.905,629.12 176.401,628.616 175.918,628ZM1565.44,622.52C1565.44,622.41 1566.38,621.474 1567.52,620.44L1569.6,618.56L1567.72,620.64C1565.97,622.579 1565.44,623.014 1565.44,622.52ZM162.819,614.88L161.6,613.44L163.04,614.659C164.393,615.805 164.771,616.32 164.259,616.32C164.138,616.32 163.49,615.672 162.819,614.88ZM590.72,614.798C590.72,614.665 591.224,614.161 591.84,613.678C592.855,612.882 592.878,612.905 592.082,613.92C591.246,614.986 590.72,615.325 590.72,614.798ZM1144.88,611.36C1144.08,610.345 1144.11,610.322 1145.12,611.118C1145.74,611.601 1146.24,612.105 1146.24,612.238C1146.24,612.765 1145.71,612.426 1144.88,611.36ZM1576.96,610.318C1576.96,610.185 1577.46,609.681 1578.08,609.198C1579.1,608.402 1579.12,608.425 1578.32,609.44C1577.49,610.506 1576.96,610.845 1576.96,610.318ZM238.638,567.2C237.842,566.185 237.865,566.162 238.88,566.958C239.496,567.441 240,567.945 240,568.078C240,568.605 239.474,568.266 238.638,567.2ZM513.92,566.158C513.92,566.025 514.424,565.521 515.04,565.038C516.055,564.242 516.078,564.265 515.282,565.28C514.446,566.346 513.92,566.685 513.92,566.158ZM1505.6,559.36C1507.33,557.6 1508.9,556.16 1509.07,556.16C1509.25,556.16 1507.97,557.6 1506.24,559.36C1504.51,561.12 1502.94,562.56 1502.77,562.56C1502.59,562.56 1503.87,561.12 1505.6,559.36ZM526.08,553.998C526.08,553.865 526.584,553.361 527.2,552.878C528.215,552.082 528.238,552.105 527.442,553.12C526.606,554.186 526.08,554.525 526.08,553.998ZM2240.32,292.48C2295.93,236.864 2341.58,191.36 2341.76,191.36C2341.93,191.36 2296.58,236.864 2240.96,292.48C2185.35,348.096 2139.7,393.6 2139.52,393.6C2139.35,393.6 2184.7,348.096 2240.32,292.48ZM2178.88,231.04C2234.49,175.424 2280.14,129.92 2280.32,129.92C2280.49,129.92 2235.14,175.424 2179.52,231.04C2123.91,286.656 2078.26,332.16 2078.08,332.16C2077.91,332.16 2123.26,286.656 2178.88,231.04ZM225.92,273.744C225.92,273.647 228.152,271.415 230.88,268.784L235.84,264L231.056,268.96C226.613,273.567 225.92,274.212 225.92,273.744ZM1505.56,268.64L1503.68,266.56L1505.76,268.44C1507.7,270.192 1508.13,270.72 1507.64,270.72C1507.53,270.72 1506.59,269.784 1505.56,268.64ZM2404.13,247.52L2401.6,244.8L2404.32,247.33C2406.85,249.683 2407.33,250.24 2406.85,250.24C2406.74,250.24 2405.52,249.016 2404.13,247.52ZM1162.24,199.438C1162.24,199.305 1162.74,198.801 1163.36,198.318C1164.38,197.522 1164.4,197.545 1163.6,198.56C1162.77,199.626 1162.24,199.965 1162.24,199.438ZM573.358,196.64C572.562,195.625 572.585,195.602 573.6,196.398C574.666,197.234 575.005,197.76 574.478,197.76C574.345,197.76 573.841,197.256 573.358,196.64ZM2456.96,195.598C2456.96,195.465 2457.46,194.961 2458.08,194.478C2459.1,193.682 2459.12,193.705 2458.32,194.72C2457.49,195.786 2456.96,196.125 2456.96,195.598ZM2395.52,148.16C2396.71,146.928 2397.84,145.92 2398.01,145.92C2398.19,145.92 2397.35,146.928 2396.16,148.16C2394.97,149.392 2393.85,150.4 2393.67,150.4C2393.49,150.4 2394.33,149.392 2395.52,148.16Z" style="fill-rule:nonzero;"/>
                <path id="path243" d="M2021.38,970.08L2020.16,968.64L2021.6,969.859C2022.95,971.005 2023.33,971.52 2022.82,971.52C2022.7,971.52 2022.05,970.872 2021.38,970.08ZM1675.52,966.08C1676.35,965.2 1677.17,964.48 1677.34,964.48C1677.52,964.48 1676.99,965.2 1676.16,966.08C1675.33,966.96 1674.51,967.68 1674.34,967.68C1674.16,967.68 1674.69,966.96 1675.52,966.08ZM2064.64,958.478C2064.64,958.345 2065.14,957.841 2065.76,957.358C2066.78,956.562 2066.8,956.585 2066,957.6C2065.17,958.666 2064.64,959.005 2064.64,958.478ZM1662.72,955.84C1663.55,954.96 1664.37,954.24 1664.54,954.24C1664.72,954.24 1664.19,954.96 1663.36,955.84C1662.53,956.72 1661.71,957.44 1661.54,957.44C1661.36,957.44 1661.89,956.72 1662.72,955.84ZM1922.18,956L1920.96,954.56L1922.4,955.779C1923.75,956.925 1924.13,957.44 1923.62,957.44C1923.5,957.44 1922.85,956.792 1922.18,956ZM1544.96,952.12C1544.96,952.01 1545.9,951.074 1547.04,950.04L1549.12,948.16L1547.24,950.24C1545.49,952.179 1544.96,952.614 1544.96,952.12ZM1484.72,950.56C1483.92,949.545 1483.94,949.522 1484.96,950.318C1486.03,951.154 1486.37,951.68 1485.84,951.68C1485.71,951.68 1485.2,951.176 1484.72,950.56ZM1482.16,948C1481.36,946.985 1481.38,946.962 1482.4,947.758C1483.47,948.594 1483.81,949.12 1483.28,949.12C1483.15,949.12 1482.64,948.616 1482.16,948ZM1776.26,904.8L1775.04,903.36L1776.48,904.579C1777.83,905.725 1778.21,906.24 1777.7,906.24C1777.58,906.24 1776.93,905.592 1776.26,904.8ZM1970.82,895.84L1969.6,894.4L1971.04,895.619C1971.83,896.29 1972.48,896.938 1972.48,897.059C1972.48,897.571 1971.97,897.193 1970.82,895.84ZM2080.26,893.92L2079.04,892.48L2080.48,893.699C2081.83,894.845 2082.21,895.36 2081.7,895.36C2081.58,895.36 2080.93,894.712 2080.26,893.92ZM1559.01,858.4L1556.8,856L1559.2,858.206C1560.52,859.419 1561.6,860.499 1561.6,860.606C1561.6,861.094 1561.06,860.634 1559.01,858.4ZM181.678,633.12C180.882,632.105 180.905,632.082 181.92,632.878C182.536,633.361 183.04,633.865 183.04,633.998C183.04,634.525 182.514,634.186 181.678,633.12ZM1161.22,627.68L1160,626.24L1161.44,627.459C1162.79,628.605 1163.17,629.12 1162.66,629.12C1162.54,629.12 1161.89,628.472 1161.22,627.68ZM577.92,627.64C577.92,627.53 578.856,626.594 580,625.56L582.08,623.68L580.2,625.76C578.448,627.699 577.92,628.134 577.92,627.64ZM169.586,621.6L164.16,616L169.76,621.426C172.84,624.41 175.36,626.93 175.36,627.026C175.36,627.492 174.625,626.801 169.586,621.6ZM586.88,618.68C586.88,618.57 587.816,617.634 588.96,616.6L591.04,614.72L589.16,616.8C587.408,618.739 586.88,619.174 586.88,618.68ZM1146.8,613.28C1146,612.265 1146.03,612.242 1147.04,613.038C1147.66,613.521 1148.16,614.025 1148.16,614.158C1148.16,614.685 1147.63,614.346 1146.8,613.28ZM1501.12,563.84C1501.76,563.136 1502.42,562.56 1502.6,562.56C1502.77,562.56 1502.4,563.136 1501.76,563.84C1501.12,564.544 1500.46,565.12 1500.28,565.12C1500.11,565.12 1500.48,564.544 1501.12,563.84ZM230.366,559.52L228.16,557.12L230.56,559.326C231.88,560.539 232.96,561.619 232.96,561.726C232.96,562.214 232.418,561.754 230.366,559.52ZM1215.01,559.2L1212.48,556.48L1215.2,559.01C1217.73,561.363 1218.21,561.92 1217.73,561.92C1217.62,561.92 1216.4,560.696 1215.01,559.2ZM1510.08,554.88C1510.72,554.176 1511.38,553.6 1511.56,553.6C1511.73,553.6 1511.36,554.176 1510.72,554.88C1510.08,555.584 1509.42,556.16 1509.24,556.16C1509.07,556.16 1509.44,555.584 1510.08,554.88ZM224,275.598C224,275.465 224.504,274.961 225.12,274.478C226.135,273.682 226.158,273.705 225.362,274.72C224.526,275.786 224,276.125 224,275.598ZM1509.07,272.16L1507.52,270.4L1509.28,271.952C1510.25,272.805 1511.04,273.597 1511.04,273.712C1511.04,274.214 1510.52,273.805 1509.07,272.16ZM520.942,268.96L516.8,264.64L521.12,268.782C523.496,271.059 525.44,273.003 525.44,273.102C525.44,273.573 524.788,272.973 520.942,268.96ZM1215.04,268.8C1215.68,268.096 1216.34,267.52 1216.52,267.52C1216.69,267.52 1216.32,268.096 1215.68,268.8C1215.04,269.504 1214.38,270.08 1214.2,270.08C1214.03,270.08 1214.4,269.504 1215.04,268.8ZM1502.03,265.12L1500.48,263.36L1502.24,264.912C1503.21,265.765 1504,266.557 1504,266.672C1504,267.174 1503.48,266.765 1502.03,265.12ZM235.52,264.078C235.52,263.945 236.024,263.441 236.64,262.958C237.655,262.162 237.678,262.185 236.882,263.2C236.046,264.266 235.52,264.605 235.52,264.078ZM1575.6,216.48C1574.8,215.465 1574.83,215.442 1575.84,216.238C1576.91,217.074 1577.25,217.6 1576.72,217.6C1576.59,217.6 1576.08,217.096 1575.6,216.48ZM592.558,215.84C591.762,214.825 591.785,214.802 592.8,215.598C593.416,216.081 593.92,216.585 593.92,216.718C593.92,217.245 593.394,216.906 592.558,215.84ZM160.64,216.078C160.64,215.945 161.144,215.441 161.76,214.958C162.775,214.162 162.798,214.185 162.002,215.2C161.166,216.266 160.64,216.605 160.64,216.078ZM1147.2,214.4C1147.84,213.696 1148.5,213.12 1148.68,213.12C1148.85,213.12 1148.48,213.696 1147.84,214.4C1147.2,215.104 1146.54,215.68 1146.36,215.68C1146.19,215.68 1146.56,215.104 1147.2,214.4ZM2473.92,202.24C2474.56,201.536 2475.22,200.96 2475.4,200.96C2475.57,200.96 2475.2,201.536 2474.56,202.24C2473.92,202.944 2473.26,203.52 2473.08,203.52C2472.91,203.52 2473.28,202.944 2473.92,202.24ZM1160.64,200.96C1161.28,200.256 1161.94,199.68 1162.12,199.68C1162.29,199.68 1161.92,200.256 1161.28,200.96C1160.64,201.664 1159.98,202.24 1159.8,202.24C1159.63,202.24 1160,201.664 1160.64,200.96ZM177.6,199.04C178.237,198.336 178.902,197.76 179.078,197.76C179.254,197.76 178.877,198.336 178.24,199.04C177.603,199.744 176.938,200.32 176.762,200.32C176.586,200.32 176.963,199.744 177.6,199.04ZM1557.68,198.56C1556.88,197.545 1556.9,197.522 1557.92,198.318C1558.99,199.154 1559.33,199.68 1558.8,199.68C1558.66,199.68 1558.16,199.176 1557.68,198.56ZM2495.31,156.96L2493.76,155.2L2495.52,156.752C2496.49,157.605 2497.28,158.397 2497.28,158.512C2497.28,159.014 2496.76,158.605 2495.31,156.96ZM2503.97,148.32L2501.44,145.6L2504.16,148.13C2506.69,150.483 2507.17,151.04 2506.69,151.04C2506.59,151.04 2505.36,149.816 2503.97,148.32Z" style="fill-rule:nonzero;"/>
                <path id="path241" d="M2250.88,1012.58C2250.88,1012.28 2255.75,1001.78 2261.71,989.23L2272.53,966.419L2253.39,926.932C2242.86,905.214 2234.24,887.354 2234.24,887.243C2234.24,887.131 2238.63,887.05 2244,887.061L2253.76,887.083L2267.52,917.765C2275.09,934.639 2281.44,948.454 2281.64,948.463C2281.85,948.473 2287.87,934.962 2295.02,918.439C2302.18,901.916 2308.23,888.083 2308.47,887.7C2308.75,887.238 2311.9,887.064 2317.82,887.182L2326.74,887.36L2269.12,1013.09L2260,1013.1C2254.98,1013.11 2250.88,1012.88 2250.88,1012.58L2250.88,1012.58ZM1896.96,1011.2L1896.96,887.04L1913.6,887.04L1913.6,901.339L1915.61,898.3C1920.79,890.486 1931.58,885.509 1943.36,885.501C1955.25,885.493 1963.47,888.758 1971.23,896.574C1979.26,904.659 1983.15,914.485 1983.8,928.32C1984.57,944.828 1980.06,958.112 1970.45,967.639C1963.78,974.246 1952.92,978.56 1942.96,978.56C1933.64,978.56 1923.53,974.443 1917.28,968.104L1913.6,964.368L1913.6,1011.2L1896.96,1011.2ZM1948.01,962.017C1957.33,959.115 1963.36,951.775 1965.77,940.374C1968.3,928.445 1965.3,915.401 1958.28,907.786C1956.81,906.188 1953.84,904.056 1951.45,902.88C1947.46,900.915 1946.84,900.8 1940.17,900.8C1933.67,900.8 1932.82,900.946 1929.29,902.676C1918.68,907.878 1912.88,919.865 1913.78,934.719C1914.81,951.709 1925.21,963.009 1939.94,963.157C1942.41,963.182 1945.81,962.702 1948.01,962.017ZM1502.08,977.306C1482.59,973.138 1467.12,961.19 1458.54,943.68C1446.59,919.304 1449.34,887.122 1465.08,867.101C1478.91,849.513 1501.91,840.055 1524.16,842.798C1538.7,844.59 1549.15,849.199 1558.24,857.837C1563.72,863.033 1567.23,867.907 1570.26,874.482C1572.21,878.743 1573.94,883.84 1573.43,883.84C1573.31,883.84 1569.61,885.114 1565.22,886.672L1557.24,889.504L1556.16,886.192C1554.6,881.394 1551.11,875.013 1548.14,871.557C1544.64,867.481 1537.97,863.171 1531.82,861.02C1527.07,859.362 1526.01,859.237 1516.48,859.22C1506.86,859.203 1505.93,859.311 1501.13,861.008C1484.55,866.863 1473.84,879.858 1470.35,898.361C1468.77,906.745 1469.36,920.58 1471.62,928.19C1475.74,942.054 1483.77,952.047 1495.33,957.681C1509.68,964.682 1527.55,963.937 1540.25,955.808C1547.38,951.252 1553.89,942.974 1556.84,934.72C1557.47,932.96 1558.04,931.438 1558.11,931.337C1558.28,931.081 1572.68,936.416 1573.32,936.972C1574.26,937.788 1569.99,947.503 1566.12,953.378C1557.8,966.007 1545.24,974.283 1529.43,977.549C1522.66,978.946 1509.19,978.827 1502.08,977.306ZM1635.2,978.121C1622.54,976.023 1609.71,966.467 1604,954.88C1599.87,946.508 1598.51,939.752 1598.9,929.6C1599.25,920.383 1600.46,915.464 1604.19,908.16C1609.84,897.101 1619.44,889.466 1632.04,886.006C1637.64,884.468 1649.95,884.441 1655.68,885.955C1672.18,890.313 1684.5,903.459 1688.1,920.557C1689.49,927.168 1689.32,938.014 1687.71,944.32C1685.46,953.178 1681.87,959.532 1675.58,965.833C1666.54,974.897 1657.2,978.611 1643.84,978.464C1639.97,978.421 1636.08,978.267 1635.2,978.121L1635.2,978.121ZM1648.97,963.143C1662.98,960.553 1671.64,948.564 1671.67,931.711C1671.68,924.627 1670.82,920.501 1668.13,914.838C1665.49,909.264 1661.14,905.02 1655.18,902.198C1651.15,900.29 1650.43,900.16 1643.81,900.16C1636.92,900.16 1636.61,900.223 1631.86,902.57C1620.89,907.988 1615.46,918.817 1616.2,933.76C1616.71,944.054 1619.44,950.659 1625.57,956.387C1631.94,962.353 1640.26,964.754 1648.97,963.143ZM2033.79,977.362C2020.41,972.946 2012.48,960.753 2014.7,948.011C2016.48,937.797 2023.03,930.796 2034.26,927.124C2036.03,926.545 2044.18,925.075 2052.37,923.857C2060.56,922.639 2068.03,921.273 2068.97,920.821C2071.46,919.626 2072.43,917.356 2072.09,913.522C2071.26,904.384 2064.38,899.2 2053.07,899.2C2043.6,899.2 2036.85,903.366 2034,910.964C2033.25,912.968 2032.64,915.135 2032.64,915.778C2032.64,916.874 2032.12,916.829 2024.49,915.066C2020,914.03 2016.26,913.112 2016.17,913.024C2016.08,912.937 2016.45,911.18 2016.99,909.12C2019.75,898.498 2027.2,890.952 2039.01,886.791C2044,885.033 2045.21,884.864 2052.8,884.852C2061.88,884.839 2066.79,885.786 2072.83,888.718C2077.23,890.854 2083.13,896.344 2085.29,900.317C2088.75,906.674 2089.12,909.394 2089.37,930.56C2089.5,941.296 2089.68,955.912 2089.76,963.04L2089.92,976L2081.84,976L2073.76,976L2073.36,974C2073.14,972.9 2072.96,970.308 2072.96,968.24C2072.96,966.172 2072.74,964.491 2072.48,964.505C2072.22,964.519 2071.08,965.779 2069.96,967.306C2067.56,970.574 2061.63,974.7 2056.47,976.694C2051.22,978.725 2039.01,979.084 2033.79,977.362ZM2053.89,963.76C2060.74,962.307 2066.42,958.26 2069.16,952.875C2070.91,949.453 2072.3,942.771 2072.31,937.709L2072.32,933.658L2070.56,934.01C2069.59,934.203 2062.75,935.263 2055.36,936.365C2041.07,938.494 2038.52,939.216 2035.6,941.954C2033.06,944.343 2032,947.153 2032,951.534C2032,961.362 2041.14,966.466 2053.89,963.76ZM86.891,973.222C87.501,971.694 99.232,942.179 112.96,907.634L137.92,844.824L158.4,844.804L183.634,908.321C197.513,943.256 209.256,972.782 209.73,973.936L210.591,976.032L191.277,975.679L188.412,968.319C186.836,964.271 183.663,956.135 181.361,950.239L177.175,939.519L118.63,939.519L115.551,947.679C113.858,952.167 110.747,960.375 108.637,965.919L104.802,975.999L85.781,975.999L86.891,973.221L86.891,973.222ZM170.24,922.161C170.24,921.195 148.535,865.093 147.92,864.47C147.513,864.058 125.419,920.982 125.435,922.4C125.438,922.664 135.52,922.88 147.84,922.88C163.989,922.88 170.24,922.679 170.24,922.161ZM298.88,976L298.88,844.8L322.08,844.81C334.84,844.816 348.592,845.095 352.64,845.43C380.664,847.753 400.24,862.096 408.295,886.206C416.191,909.843 411.742,937.798 397.347,954.991C388.696,965.324 373.546,973.048 357.44,975.338C354.976,975.688 340.792,975.98 325.92,975.987L298.88,976ZM356.16,947.531C368.874,944.225 377.15,935.878 380.604,922.88C381.973,917.726 382.127,904.344 380.876,899.2C378.689,890.205 373.028,881.969 366.201,877.847C359.235,873.641 355.177,872.788 340.64,872.471L327.68,872.189L327.68,949.319L340,948.925C347.873,948.672 353.706,948.169 356.16,947.531ZM427.513,975.52C427.509,975.256 438.525,945.739 451.993,909.927L476.48,844.813L509.878,844.801L533.754,908.961C546.885,944.249 557.87,973.774 558.163,974.572L558.697,976.024L542.956,975.852L527.214,975.681L522.56,962.561L517.905,949.441L466.88,949.119L462.168,962.56L457.456,976.001L442.488,976.001C434.256,976.001 427.517,975.785 427.513,975.521L427.513,975.52ZM507.554,919.52C506.906,917.672 503.58,908.109 500.162,898.269C496.745,888.428 493.664,879.644 493.317,878.749C492.767,877.33 491.663,879.994 484.743,899.444C480.374,911.722 476.8,922.018 476.8,922.324C476.8,922.63 483.984,922.88 492.766,922.88L508.731,922.88L507.554,919.52ZM606.08,976L606.08,872.96L565.76,872.96L565.76,844.8L675.84,844.8L675.84,872.96L634.88,872.96L634.88,976L606.08,976ZM682.876,975.52C682.876,975.256 693.89,945.741 707.356,909.931L731.84,844.822L748.64,844.811C757.88,844.805 765.44,844.909 765.44,845.043C765.44,845.176 775.839,873.184 788.549,907.283C801.258,941.381 812.188,970.797 812.838,972.651L814.019,976.022L798.295,975.851L782.571,975.68L777.935,962.56L773.3,949.44L722.24,949.118L712.816,976L697.848,976C689.616,976 682.878,975.784 682.876,975.52L682.876,975.52ZM762.589,918.56C755.797,898.923 749.414,880.63 748.801,879.04C748.103,877.23 747.605,878.4 740.11,899.481C735.738,911.78 732.16,922.076 732.16,922.361C732.16,922.647 739.343,922.88 748.122,922.88L764.084,922.88L762.589,918.56ZM867.127,974.24C865.162,969.165 819.84,845.409 819.84,845.119C819.84,844.931 826.965,844.855 835.673,844.949L851.507,845.12L867.144,890.88C875.744,916.048 882.875,936.76 882.99,936.907C883.106,937.053 883.331,937.042 883.492,936.882C883.652,936.721 890.778,915.937 899.328,890.695L914.873,844.8L930.124,844.8C942.555,844.8 945.336,844.959 945.167,845.659C945.053,846.131 934.311,875.651 921.297,911.259L897.633,976L867.808,976L867.127,974.24ZM951.957,973.6C952.431,972.28 962.908,944.416 975.24,911.68C987.573,878.944 998.283,850.499 999.041,848.469L1000.42,844.779L1017.16,844.949L1033.9,845.12L1057.76,909.12C1070.88,944.32 1081.79,973.768 1082,974.56L1082.38,976L1051.2,976L1041.75,949.12L990.853,949.12L988.177,956.64C986.705,960.776 984.587,966.824 983.47,970.079L981.44,975.999L951.097,975.999L951.957,973.599L951.957,973.6ZM1032.31,922.4C1032.28,920.962 1017.13,878.627 1016.65,878.629C1016.12,878.629 1012.91,887.254 1003.81,913.12L1000.37,922.88L1016.35,922.88C1025.13,922.88 1032.32,922.664 1032.31,922.4ZM1112.32,976L1112.32,844.78L1129.97,844.95L1147.62,845.12L1171.9,884.452C1185.25,906.085 1196.45,924.071 1196.8,924.42C1197.23,924.841 1197.44,911.499 1197.44,884.928L1197.44,844.8L1226.24,844.8L1226.24,976.023L1195.27,975.68L1168.82,933.456C1154.27,910.232 1142.09,890.951 1141.74,890.608C1141.34,890.203 1141.12,905.07 1141.12,932.992L1141.12,976L1112.32,976ZM1297.28,976L1297.28,872.96L1256.96,872.96L1256.96,844.8L1367.04,844.8L1367.04,872.96L1326.72,872.96L1326.72,976L1297.28,976ZM1724.8,931.52L1724.8,887.04L1741.44,887.04L1741.44,898.552L1745.76,894.219C1750.97,888.993 1755.61,886.606 1763.04,885.323C1767.3,884.588 1769.36,884.542 1773.01,885.101C1781.68,886.434 1789.9,891.744 1793.36,898.249C1794.19,899.828 1795.09,901.12 1795.34,901.12C1795.6,901.12 1796.26,900.254 1796.8,899.195C1798.27,896.358 1804.19,890.776 1807.83,888.792C1815.28,884.741 1827.06,883.68 1834.85,886.359C1842.7,889.06 1848.17,893.778 1851.77,900.948C1855.18,907.753 1855.34,909.634 1855.35,944.16L1855.36,976L1838.78,976L1838.59,944.8L1838.4,913.6L1836.74,910.08C1834.82,906.02 1832.45,903.476 1828.81,901.558C1826.73,900.462 1825.09,900.2 1820.16,900.182C1814.78,900.163 1813.66,900.364 1810.44,901.946C1806.16,904.047 1803.32,907.072 1801.03,911.971L1799.36,915.52L1799.18,945.76L1798.99,976L1781.76,976L1781.76,946.271C1781.76,927.293 1781.51,915.371 1781.07,913.301C1780.07,908.643 1777,904.488 1772.86,902.174C1768.04,899.482 1760.81,899.059 1755.2,901.139C1749.61,903.211 1745.16,907.915 1743.4,913.608C1742.15,917.675 1742.08,919.382 1742.08,946.947L1742.08,976L1724.8,976L1724.8,931.52L1724.8,931.52ZM2129.92,931.52L2129.92,887.04L2146.56,887.04L2146.59,893.6C2146.63,899.974 2146.66,900.115 2147.71,898.566C2152.95,890.877 2160.27,886.421 2169.85,885.089C2183.21,883.231 2196.19,889.63 2201.59,900.732C2205.59,908.952 2205.62,909.298 2205.92,944.16L2206.19,976L2188.8,976L2188.8,947.927C2188.8,931.977 2188.52,918.366 2188.16,916.407C2187.14,910.887 2184.45,906.238 2180.89,903.849C2176.92,901.188 2173.66,900.33 2167.58,900.351C2159.11,900.379 2152.96,904.389 2149.33,912.245L2147.52,916.16L2147.15,976L2129.92,976L2129.92,931.52L2129.92,931.52ZM352.32,706.531C289.627,700.359 236.072,678.221 188.598,638.855C180.297,631.972 162.298,614.144 154.862,605.44C106.965,549.372 82.148,479.953 84.048,407.36C84.995,371.173 91.439,339.325 104.507,306.24C127.128,248.965 168.698,198.985 221.12,166.033C251.764,146.77 286.145,133.159 321.182,126.42C370.475,116.94 422.36,120.299 469.44,136.02C519.923,152.877 564.815,183.1 599.653,223.683C609.747,235.441 624.468,255.804 623.529,256.709C621.688,258.485 549.45,303.934 549.098,303.538C548.854,303.264 547.21,300.88 545.444,298.24C528.903,273.514 503.745,250.364 477.12,235.37C433.632,210.881 383.228,203.042 334.08,213.126C267.331,226.822 210.752,274.092 185.356,337.381C175.139,362.843 170.677,386.401 170.706,414.72C170.733,440.466 174.735,462.915 183.485,486.4C203.681,540.604 247.128,584.608 301.308,605.731C335.299,618.983 373.701,622.926 409.92,616.882C440.008,611.862 469.019,600.044 493.44,582.859C513.197,568.956 533.152,548.721 545.99,529.574L549.44,524.427L586.24,547.945C606.48,560.88 623.303,571.563 623.624,571.686C624.891,572.171 609.105,593.911 598.881,605.76C555.684,655.828 496.973,689.722 431.567,702.352C413.383,705.863 403.877,706.706 380.16,706.909C368.016,707.013 355.488,706.843 352.32,706.531ZM1333.42,704.98C1282.93,699.755 1240.06,684.461 1198.72,656.926C1155.3,628.006 1121.88,589.889 1098.6,542.72C1081.8,508.677 1072.32,473.779 1069.39,435.2C1068.44,422.801 1069,392.556 1070.37,381.44C1078.74,313.8 1107.11,254.893 1153.92,207.997C1200.89,160.937 1259.92,132.281 1327.36,123.807C1338.36,122.425 1370.55,121.858 1382.79,122.831C1445.21,127.79 1503.15,151.695 1550.4,191.984C1559.42,199.674 1575.04,215.297 1582.7,224.28C1636.25,287.115 1660.72,368.75 1650.52,450.56C1639.37,539.937 1587.67,618.69 1509.44,665.459C1475.76,685.597 1437.42,698.687 1396.37,704.07C1382.97,705.826 1346.66,706.351 1333.42,704.98ZM1386.88,617.947C1418.94,613.557 1448.14,602.675 1473.92,585.508C1486.52,577.12 1495.64,569.675 1505.94,559.377C1534.34,530.973 1553.93,494.82 1561.86,456.19C1565.1,440.435 1565.72,433.615 1565.72,414.08C1565.72,394.545 1565.1,387.725 1561.86,371.97C1549.52,311.837 1509.1,258.977 1454.11,231.076C1364.04,185.373 1254.86,211.255 1195.1,292.48C1174.23,320.845 1161.76,352.155 1156.73,388.8C1155.15,400.311 1155.13,427.683 1156.69,439.04C1160.17,464.494 1166.74,485.907 1177.58,507.2C1209.81,570.502 1271.44,612.175 1342.72,618.86C1351.57,619.69 1378.17,619.14 1386.88,617.947L1386.88,617.947ZM2179.36,596.958L2078.08,495.677L2108.64,465.119L2139.2,434.562L2240.48,535.842L2341.76,637.123L2311.2,667.681L2280.64,698.238L2179.36,596.958ZM798.72,694.4L798.72,225.28L885.76,225.28L885.76,694.4L798.72,694.4ZM2139.2,393.602L2078.08,332.477L2280.64,129.918L2341.76,191.043L2139.2,393.602ZM2441.42,278.382C2429.74,277.057 2416.14,271.866 2405.96,264.842C2390.13,253.921 2378.05,234.973 2374.71,215.834C2373.48,208.787 2373.5,196.238 2374.74,189.085C2380.27,157.387 2405.82,132.196 2437.75,126.954C2446.57,125.506 2460.36,126.059 2468.48,128.185C2502.73,137.153 2526.15,167.019 2526.28,201.92C2526.34,215.162 2524.14,224.699 2518.33,236.501C2507.98,257.52 2487.62,273.026 2464.63,277.394C2458.19,278.618 2447.51,279.072 2441.42,278.382ZM2457.92,266.173C2483.11,263.099 2504.61,244.833 2511.65,220.51C2516.97,202.163 2513.96,182.626 2503.37,166.706C2496.78,156.809 2488.31,149.53 2477.35,144.356C2467.45,139.684 2462.3,138.604 2449.92,138.604C2440.92,138.604 2438.56,138.821 2433.92,140.072C2411.61,146.091 2393.9,163.712 2387.7,186.058C2386.52,190.308 2386.31,192.734 2386.31,202.56C2386.3,213.32 2386.42,214.46 2388.07,219.84C2394.81,241.883 2410.65,257.888 2431.79,264.013C2441.2,266.74 2448.4,267.335 2457.92,266.173ZM2420.48,202.56L2420.48,156.8L2437.47,156.8C2454.94,156.8 2460.65,157.387 2466.35,159.769C2473.01,162.549 2477.68,167.868 2479.7,174.958C2481.22,180.275 2480.8,191.139 2478.91,195.312C2477.11,199.295 2472.78,203.891 2468.62,206.239C2465.43,208.04 2465.28,208.228 2466.12,209.515C2467.94,212.34 2488.96,247.789 2488.96,248.048C2488.96,248.198 2484.28,248.311 2478.56,248.3L2468.16,248.279L2458.55,230.86L2448.94,213.44L2439.04,213.066L2439.04,248.32L2420.48,248.32L2420.48,202.56L2420.48,202.56ZM2453.35,197.615C2457.38,196.409 2460.53,192.851 2461.44,188.495C2462.92,181.343 2460.88,175.571 2455.99,173.12C2454,172.122 2451.85,171.793 2446.24,171.625L2439.04,171.41L2439.04,198.4L2444.89,198.4C2448.1,198.4 2451.91,198.047 2453.35,197.615ZM798.72,137.6L798.72,51.2L885.76,51.2L885.76,137.6L798.72,137.6Z" style="fill-rule:nonzero;"/>
            </g>
        </g>
    </g>
</svg>
