<?xml version="1.0" encoding="UTF-8" standalone="no"?>
<!DOCTYPE svg PUBLIC "-//W3C//DTD SVG 1.1//EN" "http://www.w3.org/Graphics/SVG/1.1/DTD/svg11.dtd">
<svg width="100%" height="100%" viewBox="0 0 336 180" version="1.1" xmlns="http://www.w3.org/2000/svg" xmlns:xlink="http://www.w3.org/1999/xlink" xml:space="preserve" xmlns:serif="http://www.serif.com/" style="fill-rule:evenodd;clip-rule:evenodd;stroke-linejoin:round;stroke-miterlimit:2;">
    <g id="Artboard1" transform="matrix(0.7482,0,0,0.852825,-9.85037,52.7646)">
        <rect x="13.165" y="-61.87" width="449.078" height="211.063" style="fill:none;"/>
        <g id="g1786" transform="matrix(0.974819,0,0,0.855228,32.9922,17.4342)">
            <g id="g10089">
                <path id="path2067" d="M57.767,61.333C57.767,61.333 0,49.129 0,31.562C0,13.995 68.474,0 68.474,0C68.474,0 20.57,14.757 21.041,31.98C21.43,46.154 57.767,61.333 57.767,61.333Z" style="fill-rule:nonzero;"/>
                <path id="path9359" d="M57.161,56.178C57.161,56.178 25.895,44.653 25.895,30.911C25.895,17.17 61.264,6.88 61.264,6.88C61.264,6.88 31.277,19.677 31.044,30.762C30.811,41.848 57.161,56.178 57.161,56.178Z" style="fill-rule:nonzero;"/>
                <path id="path10120" d="M52.399,50.162C52.399,50.162 43.983,44.258 43.117,28.939C42.782,23.025 43.369,19.642 45.891,14.373C47.937,12.676 54.068,9.973 54.068,9.973C47.546,15.921 44.298,23.218 44.694,30.667C45.597,43.42 52.399,50.162 52.399,50.162Z" style="fill-rule:nonzero;"/>
                <path id="path10122" d="M30.007,30.762C30.007,30.762 33.37,26.562 39.456,25.15C45.542,23.738 54.144,25.126 54.144,25.126C54.144,25.126 48.181,22.01 40.246,23.188C32.312,24.366 31.747,25.924 31.747,25.924L30.007,30.762Z" style="fill-rule:nonzero;"/>
                <path id="path10124" d="M41.591,17.112C41.591,17.112 37.508,21.759 37.111,29.316C36.713,36.874 39.843,45.784 39.843,45.784C39.843,45.784 34.314,39.109 34.377,30.067C34.439,21.026 35.942,21.553 35.942,21.553L41.591,17.112Z" style="fill-rule:nonzero;"/>
                <path id="path10126" d="M32.239,36.896C32.239,36.896 36.22,32.625 42.617,32.173C49.014,31.72 56.843,34.781 56.843,34.781C56.843,34.781 49.216,32.594 42.51,34.325C35.803,36.057 34.237,39.559 34.237,39.559L32.239,36.896Z" style="fill-rule:nonzero;"/>
            </g>
            <path id="path10749" d="M94.467,34.931L85.745,34.931C85.745,34.931 85.397,39.125 81.032,39.125C76.666,39.125 74.772,34.961 74.772,34.961C74.772,34.961 74.677,28.409 74.677,25.133C74.677,23.652 75.693,19.767 80.629,19.767C85.564,19.767 85.57,23.806 85.57,23.806L94.481,23.806C94.481,23.806 93.728,13.726 81.54,13.726C69.352,13.726 66.626,24.582 66.626,24.582L66.626,34.54C66.626,34.54 68.01,44.755 80.426,44.755C92.842,44.755 94.467,34.931 94.467,34.931Z" style="fill-rule:nonzero;"/>
            <path id="path10751" d="M110.184,23.148C107.343,23.148 98.287,23.679 98.287,33.621C98.287,43.563 106.095,44.183 109.648,44.24C113.202,44.298 121.6,44.532 121.686,34.086C121.771,23.64 113.024,23.148 110.184,23.148ZM110.428,27.602C113.9,27.602 113.824,30.336 113.824,30.336L113.824,36.729C113.824,40.479 111.795,40.52 109.986,40.566C108.402,40.607 106.455,39.729 106.455,37.381C106.455,34.988 106.455,30.227 106.455,30.227C106.455,30.227 106.955,27.602 110.428,27.602Z" style="fill-rule:nonzero;"/>
            <path id="path10751-6" d="M196.534,23.148C193.694,23.148 184.638,23.679 184.638,33.621C184.638,43.563 192.445,44.183 195.999,44.24C199.553,44.298 207.951,44.532 208.036,34.086C208.122,23.64 199.374,23.148 196.534,23.148ZM196.778,27.602C200.251,27.602 200.175,30.336 200.175,30.336L200.175,36.729C200.175,40.479 198.146,40.52 196.337,40.566C194.752,40.607 192.806,39.729 192.806,37.381C192.806,34.988 192.806,30.227 192.806,30.227C192.806,30.227 193.306,27.602 196.778,27.602Z" style="fill-rule:nonzero;"/>
            <path id="path10751-6-1" d="M267.285,23.148C264.521,23.148 255.709,23.679 255.709,33.621C255.709,43.563 263.307,44.183 266.766,44.24C269.819,44.291 276.544,44.475 278.135,37.328L271.135,37.328C271.09,37.328 271.048,37.324 271.006,37.316C270.785,40.479 268.756,40.522 267.094,40.566C265.552,40.607 263.432,39.705 263.432,37.357C263.432,36.652 263.432,36.183 263.432,35.248C263.48,35.258 263.529,35.264 263.58,35.264L271.09,35.264C273.457,35.271 275.944,35.28 277.934,35.281C278.192,27.665 273.899,23.217 267.285,23.148L267.285,23.148ZM267.523,27.602C270.902,27.602 271.029,30.336 271.029,30.336L271.053,32.316L263.58,32.316C263.529,32.316 263.48,32.322 263.432,32.332L263.432,30.203C263.432,29.447 264.144,27.602 267.523,27.602L267.523,27.602Z" style="fill-rule:nonzero;"/>
            <path id="path10751-6-1-8" d="M324.684,23.148C321.92,23.148 313.107,23.679 313.107,33.621C313.107,43.563 320.706,44.183 324.164,44.24C327.217,44.291 333.942,44.475 335.533,37.328L328.533,37.328C328.489,37.328 328.446,37.324 328.404,37.316C328.183,40.479 326.154,40.522 324.492,40.566C322.95,40.607 320.83,39.705 320.83,37.357C320.83,36.652 320.83,36.183 320.83,35.248C320.878,35.258 320.927,35.264 320.979,35.264L328.488,35.264C330.855,35.271 333.342,35.28 335.332,35.281C335.59,27.665 331.297,23.217 324.684,23.148L324.684,23.148ZM324.922,27.602C328.301,27.602 328.428,30.336 328.428,30.336L328.451,32.316L320.978,32.316C320.927,32.316 320.878,32.322 320.83,32.332L320.83,30.203C320.83,29.447 321.543,27.602 324.922,27.602L324.922,27.602Z" style="fill-rule:nonzero;"/>
            <path id="path10751-6-6" d="M242.059,22.932C239.219,22.932 230.162,23.462 230.162,33.404C230.162,43.347 237.97,43.966 241.523,44.023C244.849,44.077 252.088,44.572 253.117,36.039L245.373,36.039L245.373,36.799C245.373,39.779 243.67,40.303 241.861,40.35C240.277,40.391 238.33,39.512 238.33,37.164C238.33,34.771 238.33,30.01 238.33,30.01C238.33,30.01 238.83,27.385 242.303,27.385C245.775,27.385 245.699,30.119 245.699,30.119L245.699,30.17L253.145,30.17C251.39,23.305 244.516,22.932 242.059,22.932L242.059,22.932Z" style="fill-rule:nonzero;"/>
            <path id="rect10835" d="M127.506,23.148C127.14,23.148 126.846,23.46 126.846,23.848L126.846,43.553C126.846,43.941 127.14,44.252 127.506,44.252L133.4,44.252C133.766,44.252 134.059,43.941 134.059,43.553L134.059,30.135C134.059,30.135 135.066,27.58 137.76,27.529C140.454,27.479 141.205,30.484 141.205,30.484L141.205,43.141C141.205,43.756 141.515,44.252 141.9,44.252L147.723,44.252C148.108,44.252 148.418,43.756 148.418,43.141L148.418,30.135C148.418,30.135 149.425,27.58 152.119,27.529C153.703,27.5 154.611,28.524 155.094,29.375L155.094,43.141C155.094,43.756 155.404,44.252 155.789,44.252L161.611,44.252C161.997,44.252 162.307,43.756 162.307,43.141L162.307,27.816C162.307,26.048 160.319,23.148 157.041,23.148L155.77,23.148C155.71,23.148 155.654,23.165 155.6,23.187C155.599,23.188 155.599,23.187 155.598,23.187C152.025,23.562 148.418,26.555 148.418,26.555C148.418,25.939 146.43,23.148 143.152,23.148L141.883,23.148C141.871,23.148 141.859,23.15 141.848,23.15C138.088,23.211 134.058,26.555 134.058,26.555L134.058,23.848C134.058,23.46 133.766,23.148 133.4,23.148L127.506,23.148Z" style="fill-rule:nonzero;"/>
            <path id="rect10835-5-6-2" d="M182.264,15.094L174.377,15.113C174.377,15.113 172.742,15.598 171.889,16.539C171.035,17.48 170.461,19.997 170.461,20.385L170.461,24.16L167.396,24.16C167.009,24.16 166.695,24.472 166.695,24.859L166.695,27.738C166.695,28.126 167.009,28.437 167.396,28.437L170.461,28.437L170.461,43.553C170.461,43.941 170.756,44.252 171.121,44.252L177.014,44.252C177.379,44.252 177.674,43.941 177.674,43.553L177.674,28.438L181.992,28.438C182.38,28.438 182.691,28.126 182.691,27.738L182.691,24.859C182.691,24.472 182.38,24.16 181.992,24.16L177.674,24.16L177.674,20.385C177.674,19.903 178.029,19.018 178.492,19.016C178.832,19.014 182.254,19 182.254,19L182.264,15.094Z" style="fill-rule:nonzero;"/>
            <path id="rect10835-5-6-2-9" d="M214.363,23.148C213.998,23.148 213.703,23.46 213.703,23.848L213.703,43.553C213.703,43.941 213.998,44.252 214.363,44.252L220.256,44.252C220.621,44.252 220.916,43.941 220.916,43.553L220.916,32.754C220.916,32.754 222.529,28.726 227.123,29.598C227.123,29.598 227.856,24.037 227.5,24.018C223.491,23.804 220.916,27.57 220.916,27.57L220.916,23.848C220.916,23.46 220.621,23.148 220.256,23.148L214.363,23.148Z" style="fill-rule:nonzero;"/>
            <path id="rect10835-5-6-2-9-9" d="M387.758,17.783C387.739,17.784 387.723,17.786 387.715,17.789C385.809,18.505 383.42,19.401 381.6,20.115C381.184,20.248 380.959,20.427 380.959,20.814L380.959,24.082L378.377,24.082C377.982,24.082 377.664,24.521 377.664,25.066L377.664,27.963C377.664,28.508 377.982,28.947 378.377,28.947L380.959,28.947L380.959,40.518C380.959,40.905 381.54,42.495 382.957,43.311C384.374,44.126 386.489,44.472 388.32,44.51C389.818,44.541 392.742,43.711 392.742,43.711L392.791,40.594C392.793,40.473 392.73,40.383 392.603,40.383C392.603,40.383 391.722,40.397 390.473,40.397C388.963,40.397 387.969,39.26 387.969,38.602L387.969,28.947L392.564,28.947C392.96,28.947 393.277,28.508 393.277,27.963L393.277,25.066C393.277,24.521 392.96,24.082 392.564,24.082L387.969,24.082L387.969,20.814C387.969,20.814 387.93,18.878 387.93,17.893C387.903,17.801 387.815,17.782 387.758,17.783L387.758,17.783Z" style="fill-rule:nonzero;"/>
            <path id="rect10835-5-6-2-9-9-3" d="M398.32,14.594C397.955,14.594 397.66,15.033 397.66,15.578L397.66,43.268C397.66,43.813 397.955,44.252 398.32,44.252L404.215,44.252C404.58,44.252 404.875,43.813 404.875,43.268L404.875,29.424C404.875,29.424 406.236,27.348 408.564,27.348C410.893,27.348 412.164,30.17 412.164,30.17L412.164,43.572C412.164,43.949 412.459,44.252 412.824,44.252L418.717,44.252C419.082,44.252 419.377,43.949 419.377,43.572L419.377,32.113C419.377,31.736 419.256,26.948 417.225,25.215C415.193,23.481 412.164,23.51 412.164,23.51C412.164,23.51 410.522,23.353 408.006,24.117C405.49,24.881 404.875,26.139 404.875,26.139L404.875,15.578C404.875,15.033 404.58,14.594 404.215,14.594L398.32,14.594Z" style="fill-rule:nonzero;"/>
            <path id="rect10835-5-6-2-9-1" d="M283.189,14.566C282.794,14.566 282.477,15.005 282.477,15.551L282.477,43.268C282.477,43.813 282.794,44.252 283.189,44.252L289.559,44.252C289.954,44.252 290.273,43.813 290.273,43.268L290.273,31.488L300.98,31.488L300.98,43.268C300.98,43.813 301.299,44.252 301.693,44.252L308.053,44.252C308.447,44.252 308.766,43.813 308.766,43.268L308.766,15.551C308.766,15.005 308.447,14.566 308.053,14.566L301.693,14.566C301.299,14.566 300.98,15.005 300.98,15.551L300.98,26.344L290.273,26.344L290.273,15.551C290.273,15.005 289.954,14.566 289.559,14.566L283.189,14.566Z" style="fill-rule:nonzero;"/>
            <path id="rect10835-5-6-2-9-1-2-7" d="M372.959,15.499C372.959,15 372.554,14.595 372.055,14.595L366.65,14.595C366.151,14.595 365.746,15 365.746,15.499L365.746,43.348C365.746,43.847 366.151,44.252 366.65,44.252L372.055,44.252C372.554,44.252 372.959,43.847 372.959,43.348L372.959,15.499Z"/>
            <path id="path11381" d="M350.375,22.881C342.337,22.881 340.348,28.736 340.348,28.736L346.023,28.811C346.023,28.811 346.792,26.08 349.82,26.08C352.848,26.08 353.575,29.904 353.288,30.763C353.001,31.623 348.423,30.888 345.441,31.609C342.46,32.331 339.828,33.551 339.203,35.713C338.713,37.411 338.344,39.787 339.379,41.361C340.625,43.257 342.83,44.252 345.539,44.252C349.553,44.252 353.633,41.545 353.633,41.545L353.611,43.588L359.414,43.557L359.414,28.682C359.414,28.682 358.413,22.881 350.375,22.881L350.375,22.881ZM349.332,34.078C352.71,34.078 353.006,34.768 353.006,34.768L353.038,38.537C353.038,38.537 352.328,40.881 349.109,40.844C345.408,40.8 345.637,38.171 345.637,37.195C345.637,35.486 347.247,34.078 349.332,34.078L349.332,34.078Z" style="fill-rule:nonzero;"/>
        </g>
    </g>
</svg>
