<?xml version="1.0" encoding="UTF-8" standalone="no"?>
<!DOCTYPE svg PUBLIC "-//W3C//DTD SVG 1.1//EN" "http://www.w3.org/Graphics/SVG/1.1/DTD/svg11.dtd">
<svg width="100%" height="100%" viewBox="0 0 896 480" version="1.1" xmlns="http://www.w3.org/2000/svg" xmlns:xlink="http://www.w3.org/1999/xlink" xml:space="preserve" xmlns:serif="http://www.serif.com/" style="fill-rule:evenodd;clip-rule:evenodd;stroke-linejoin:round;stroke-miterlimit:2;">
    <g transform="matrix(1.10865,0,0,1.17957,61.072,56.4685)">
        <g id="Artboard2">
            <g id="path5486">
                <path d="M63,298L63,267L70,267L70,279L95,279L95,267L101,267L101,298L95,298L95,283L70,283L70,298L63,298ZM108.88,286.076C108.957,279.516 118.459,275.032 125.016,274.805C131.293,274.587 140.366,278.582 141.175,284.5L141.5,287.5C133,287.687 124.5,287.508 116,287.695C116.106,292.506 121.341,294.801 125.221,294.801C128.674,294.801 134.657,293.37 134.657,291L141.07,291C141.07,295.563 130.701,297.978 125.1,297.978C117.029,297.978 108.802,292.781 108.88,286.076ZM125.152,278.089C121.521,278.15 116,280.151 116,284L135.017,284C135.017,279.9 128.985,278.024 125.152,278.089ZM146,294.029C145.342,292.858 145.486,291.241 146,290C146.698,288.314 148.294,287.049 149.87,286.13C152.15,284.8 157.5,284.011 157.5,284.011L170,283.999L170,280.516C169.956,278.76 164.886,277.808 161.728,277.808C158.57,277.808 152.615,278.472 152.615,281.681L147.431,281.681C147.453,280.031 147.943,278.125 148.958,277.21C150.659,275.755 153.084,275.322 155.298,274.999C160.014,274.312 164.953,274.516 169.581,275.655C171.258,276.068 172.976,276.709 174.277,277.846C175.542,278.953 177,281.254 177,282.093L177,297.999L170.167,297.999C169.931,297.291 169.695,296.583 169.458,295.874C167.596,296.583 165.83,297.64 163.87,297.999C160.142,298.683 156.149,299.017 152.5,297.991C150.057,297.304 147.242,296.242 146,294.029ZM170,292.102L170,287L164.75,287.1C164.75,287.1 161.232,286.945 159.5,287.199C157.853,287.442 156.018,287.542 154.689,288.546C153.575,289.387 152.235,290.746 152.5,292.117C154.557,295.926 157.626,295.046 160.462,295.123C163.795,295.214 167.688,293.068 170,292.102ZM185,298L185,267L192,267L192,298L185,298ZM202.363,296.902C200.895,295.646 201,294 201,294L201,279.233C199.667,278.885 198.333,278.536 197,278.187L197,275L201,275L201,270L208,270L208,275.037L213.5,275.091L213.5,278.746C211.667,278.815 208,278.831 208,278.831L208,286.591C208,286.591 208.011,293.257 208.014,293.634C208.022,294.786 209.73,294.706 210.575,294.739C211.988,294.794 214,294.868 214,294.868L214,298L205,298C205,298 203.688,298.035 202.363,296.902ZM219,267L225,267L225,277.462C228.132,276.452 230.509,274.769 233.859,274.641C240.063,274.179 248,277.476 248,281.357L248,298L241,298L241,281.807C241,280.209 236.919,278.244 234.57,278.244C232.474,278.244 230.335,278.737 228.434,279.621C227.131,280.227 225,282.23 225,282.23L225,298L219,298L219,267ZM258.33,295.235C256.482,293.809 254.764,291.937 254,289.73C253.296,287.695 253.296,285.305 254,283.27C254.737,281.142 256.441,279.395 258.177,277.96C259.832,276.591 261.832,275.578 263.901,275C266.054,274.399 268.357,274.546 270.593,274.548C272.767,274.55 275.006,274.413 277.099,275C279.21,275.592 281.38,276.482 282.941,278.021C284.012,279.077 284.36,280.674 285.07,282L278,282L278,280.321C278,279.095 276.512,278.652 274.598,278.317C272.384,277.93 270.051,277.981 267.856,278.466C265.861,278.907 263.653,279.448 262.242,280.926C261.444,281.762 261.211,283.027 261,284.164C260.716,285.695 260.716,287.305 261,288.836C261.211,289.973 261.457,291.226 262.242,292.074C263.613,293.553 265.736,294.251 267.71,294.663C269.948,295.13 272.423,295.248 274.566,294.45C276.276,293.814 278.815,293.876 278.815,291L285.07,291C284.327,292.39 284.006,294.109 282.839,295.169C281.028,296.815 278.466,297.527 276.064,298C272.282,298.745 268.271,298.721 264.5,297.922C262.306,297.457 260.106,296.606 258.33,295.235ZM327,298.127L327,275L332.6,275L334.785,277.185L338.869,275L345,275L345,279L337.5,279.064L334.09,281.654L333.5,297.5L327,298.127ZM411.318,296.674C406.853,295.332 403.069,291.303 403,288L408.901,288C408.901,290.39 411.352,291.738 413.241,292.758C415.857,294.171 419.075,294.143 422.048,294.173C425.195,294.204 428.539,294.179 431.398,292.864C432.653,292.287 434.201,291.47 434.506,290.123C434.763,288.986 434.007,287.68 433.134,286.907C430.585,284.652 426.751,284.61 423.323,284.074L415.5,282.85L411.786,281.777C411.786,281.777 409.696,281.313 408.817,280.742C407.001,279.563 404.824,278.125 404.37,276.008C403.966,274.122 404.989,271.991 406.256,270.537C407.928,268.62 410.619,267.791 413.064,267.089C416.603,266.073 420.387,265.91 424.064,266.093C427.736,266.276 431.627,266.628 434.896,268.174C438.73,270.295 440.179,272.165 440.127,275.971C438.151,275.971 436.047,276 434.07,276C434.07,275.492 433.131,273.141 432.042,272.21C430.341,270.755 427.917,270.32 425.702,270C422.44,269.527 418.714,269.432 415.825,270.473C413.911,271.23 411.431,272.313 411,274.326C410.809,275.217 411.533,276.195 412.25,276.758C415.258,279.118 419.751,278.813 423.405,279.428L433.311,281.096C435.673,282.187 437.74,283.009 439.25,284.783C440.232,285.937 441.039,287.465 441,288.98C440.956,290.719 439.938,292.417 438.75,293.687C437.274,295.264 435.162,296.214 433.101,296.861C429.586,297.964 425.784,297.959 422.101,297.924C418.482,297.889 414.874,297.985 411.318,296.674ZM447,290.131C446.312,289.014 446.146,286.288 446.146,286.288C446.146,286.288 446.292,283.55 447,282.445C449.214,278.99 452.992,276.523 456.802,275C458.756,274.219 463.074,274.302 463.074,274.302C463.074,274.302 467.182,274.296 469.064,275C472.949,276.453 477.058,278.558 479.333,282.026C480.205,283.353 480.237,286.703 480.237,286.703C480.237,286.703 480.142,289.765 479.333,290.974C477.027,294.421 472.954,296.562 469.064,298C467.089,298.73 462.782,298.682 462.782,298.682C462.782,298.682 458.44,298.741 456.5,297.912C452.737,296.302 449.145,293.617 447,290.131ZM473.08,286.558C472.994,284.375 472.081,282.012 470.456,280.551C468.557,278.842 465.702,278.221 463.147,278.239C460.789,278.255 458.232,278.941 456.433,280.465C454.527,282.081 452.86,284.599 452.937,287.097C453.004,289.266 454.591,291.348 456.322,292.656C458.392,294.221 461.229,294.803 463.823,294.737C466.374,294.673 469.271,294.114 471.086,292.32C472.532,290.892 473.16,288.589 473.08,286.558ZM486,298.127L486,267L493.052,267L492.5,297.5L486,298.127ZM507.5,297.929L502.602,295.217L501.871,293.358L501.141,291.5L501.07,283.25L501,275L508,275L508,293.049L510.674,294.066L513.347,295.083L516.391,294.414L519.434,293.746L521.217,292.632L523,291.519L523,275L530,275L530,298L523.167,298L522.786,296.857L522.404,295.713L518.131,298L507.5,297.929ZM543.105,298.105L539,294L539,279.233L535,278.187L535,275L539,275L539,270L546,270L546,274.867L551.5,275.5L551.5,278.5L546,279.133L546,293.786L549.164,295L553.167,295L552.755,296.25L552.344,297.5L543.105,298.105ZM557,298.127L557,274.873L563.5,275.5L563.5,297.5L557,298.127ZM576.949,296.421L573.399,294.945L570,289.191L570,284.094L572.394,278.84L579.92,275L593.08,275L600.606,278.84L603,284.094L603,289.191L601.302,292.066L599.603,294.942L595.781,296.471L591.96,298L580.5,297.897L576.949,296.421ZM591.928,293.537L594.758,292.074L596,288.836L596,283.222L594.088,280.861L592.177,278.5L580.823,278.5L578.912,280.861L577,283.222L577,289.618L578.25,291.185L579.5,292.751L583.5,294.939L589.099,295L591.928,293.537ZM610,275L615.833,275L615.934,277.287C615.934,277.287 619.169,275.836 620.885,275.435C622.976,274.947 625.155,274.6 627.294,274.788C630.079,275.033 633.439,275.046 635.365,277.073C638.075,279.923 638,284.183 638,288.573L638,298L632,298L632,290C632.171,285.739 632.244,282.398 629.887,279.887C628.561,278.474 626.214,278.195 624.282,278.342C621.266,278.571 618.242,279.986 616,282.046L616,298L610,298L610,275ZM644,291L650.28,291C650.28,294.236 655.903,294.816 659.121,294.816C661.703,294.963 667.281,294.328 667.26,291.384C667.239,288.468 662.277,288.103 659.149,288.103C654.758,288.103 650.654,287.194 648.518,286.001C646.381,284.807 645.044,283.43 645,281.536C644.956,279.674 646.688,278.004 648.25,276.989C651.204,275.07 655.082,274.949 658.604,274.87C662.128,274.791 666.086,274.615 669.05,276.525C670.551,277.493 672,278.214 672,280.999L666.5,280.936C666.5,278.484 661.606,277.907 658.872,277.923C656.096,277.939 651.144,278.297 651.162,281.073C651.181,283.921 656.268,284.267 659.116,284.199C662.548,284.117 666.996,284.027 669.974,286.189C671.576,287.352 672.97,289.441 672.801,291.414C672.627,293.457 670.742,295.169 669,296.248C665.961,298.131 662.884,298.432 658.5,298.432C653.108,298.432 644.588,297.642 644,291ZM557,271L557,267L564,267L564,271L557,271ZM493,246.16L489.5,245.5L489.21,237.868L488.92,230.237L493.61,230.765L498.299,231.294L501.666,229.48L505.033,227.667L507.845,223.084L510.657,218.5L512.38,213.972L514.102,209.444L505.116,183.5L483,118.861L482.996,117.5L490.979,117.826L498.962,118.151L503.126,131.326L507.291,144.5L520.808,188.5L521.365,187L521.921,185.5L534.176,145.5L538.338,131.76L542.501,118.02L559.215,118L557.793,121.5L546.198,155.5L525.203,216.5L522.022,224.5L518.84,232.5L511.168,242.693L504.374,245.917L500.437,246.369L496.501,246.821L493.001,246.16L493,246.16ZM168.5,211.849L157.314,210.111L147.312,206.311L142.691,203.131L138.069,199.952L133.898,195.109L129.727,190.267L127.027,185.379L124.327,180.492L120.093,167.5L118,151.855L118.014,139.5L120.726,121.5L123.516,114.5L126.305,107.5L130.115,101.86L133.926,96.219L143.5,88.013L154.07,82.993L158.785,81.934L163.5,80.876L179.5,80.853L184.385,81.961L189.269,83.069L194.577,85.58L199.884,88.091L204.9,92.6L209.916,97.11L212.92,102.36L215.924,107.611L217.462,113.515L219,119.42L219,121L203.077,121L200.836,112.5L198.359,108.221L195.881,103.942L190.691,100.522L185.5,97.103L171.98,94.651L165.96,95.77L159.939,96.89L155.403,99.156L150.866,101.421L146.996,105.62L143.125,109.82L137.975,119.982L134.641,133.5L134.677,159.5L136.412,165.929L138.147,172.357L140.636,177.269L143.125,182.18L147.171,186.57L151.217,190.959L156.686,193.635L162.154,196.31L169.406,196.776L176.659,197.241L182.079,195.663L187.5,194.085L196.03,187.805L198.403,183.652L200.776,179.5L201.988,174.25L203.199,169L219.09,169L217.851,176.5L214.569,187.5L210.528,193.406L206.486,199.312L200.993,203.151L195.5,206.989L183.49,210.783L168.5,211.849ZM245.249,208.127C242.579,206.728 240.183,204.75 238.153,202.522C236.232,200.413 234.666,198.137 233.498,195.341C231.673,192.129 231.713,188.647 231.382,185.056L232,178.356C233.33,172.302 236.033,168.066 239.808,164.637C243.616,159.933 248.771,158.199 254.3,156.426C261.236,153.269 268.416,153.556 275.872,153.252L288.85,152.707L288.828,144.8C288.633,139.117 286.932,135.9 283.732,133.095C280.011,129.832 274.178,128.977 269.462,129.001C264.517,128.352 258.857,129.381 254.877,132.394C251.363,135.054 248.591,139.813 248.5,143.977L241.25,143.988L234,144L234,140.363C234,133.229 238.227,126.818 243.466,122.65C250.112,117.364 260.147,116.202 268.059,116.002C278.839,114.57 285.792,116.559 292.815,121.229C297.97,124.656 303.984,129.165 303.382,136.5L304.114,209L289,209L289,200.987C289,200.987 286.329,203.068 284.895,203.961C281.932,205.806 278.947,207.745 275.64,208.862C269.833,210.823 263.616,212.275 257.5,211.87C253.239,211.588 249.031,210.108 245.249,208.127ZM283.142,192.29C285.473,190.56 287.292,187.876 289,185.847L289,165C289,165 283.886,164.899 281.332,165C276.571,165.188 271.81,165.537 267.082,166.129C264.873,166.405 262.613,166.558 260.5,167.257C258.016,168.079 255.591,169.234 253.5,170.805C251.724,172.141 250.047,173.746 248.952,175.68C247.79,177.734 247.329,180.149 247,182.487C246.781,184.042 246.655,185.666 247,187.198C247.542,189.604 248.552,192.023 250.172,193.883C251.468,195.369 253.259,196.473 255.12,197.125C259.032,198.495 263.394,198.852 267.5,198.289C273.033,197.531 279.351,195.026 283.142,192.29ZM564.721,182L580,182C581.153,196.556 591.728,198.394 600.577,198.821C608.147,199.186 618.491,193.707 619.484,186.194C620.401,179.254 616.846,175.428 608.099,172.378C597.317,168.619 581.96,167.932 573.195,159.092C569.015,154.877 567.001,150.836 567,142.395C566.016,134.941 569.809,128.406 574.077,124.077C579.863,117.089 589.977,116.574 598.552,115.89C609.544,115.823 620.853,118.124 627.272,126.388C629.056,128.762 630.319,131.599 630.956,134.5C631.492,136.942 630.985,139.5 631,142L616.951,142C616.951,138.932 615.736,135.942 613.903,133.59C612.427,131.698 610.192,130.381 607.936,129.562C604.913,128.465 603.02,128.839 598.34,128.575C598.34,128.575 591.445,128.42 588.476,129.9C585.729,131.268 583.167,133.606 582,136.445C580.938,139.028 580.822,142.291 582,144.822C583.055,147.088 585.535,148.467 587.737,149.649C591.657,151.754 596.275,152.16 600.544,153.415C604.812,154.67 609.172,155.65 613.35,157.18C618.932,159.71 626.47,162.956 629.737,167.253C632.64,171.296 633.903,176.973 633.978,181.572C634.329,186.945 632.537,192.441 629.832,197.044C627.361,201.247 623.083,204.332 619.329,207.225C614.456,210.979 607.631,211.482 601.5,211.985C593.196,212.023 582.361,211.161 575.484,205.447C568.87,199.95 565.092,188.395 564.721,182ZM342.5,210.795L336.05,209.263L331.042,205.981L329.271,202.741L327.5,199.5L327.201,165.301L326.903,131.101L321.701,130.801L316.5,130.5L316.204,124.304L315.907,118.108L321.204,117.804L326.5,117.5L327.066,95L342,95L342,118L355,118L355,131L341.919,131L342.5,193.931L344.289,195.716L346.078,197.5L357,197.24L357,209.738L349.5,210.978L342.5,210.795ZM667.5,210.795L661.5,209.347L659.339,208.186L657.179,207.025L654.839,203.263L652.5,199.5L652.201,165.301L651.903,131.101L646.701,130.801L641.5,130.5L641.204,124.304L640.907,118.108L646.204,117.804L651.5,117.5L652.066,95L667,95L667,118L680,118L680,131L667,131L667,189.702L668.123,192.922L669.245,196.143L671.828,197.125L674.41,198.106L682,196.824L682,209.738L674.5,210.978L667.5,210.795ZM71.5,210.057L60.91,206.277L53.5,200.31L48.05,192.5L45,180.58L45,169.198L31.93,158.594L28.044,153.547L24.157,148.5L18.919,138.048L16.022,128.5L16.015,109.5L19.803,97.044L27.083,84.026L38.669,69.5L57.575,51.5L64.787,46.01L72,40.521L71.993,38.5L67.252,21.5L64.336,12.5L92.5,26.596L123.5,37.732L143.5,42.953L155.349,44.976L167.199,47L169.5,47.002L151,56.315L132.5,65.627L114.5,76.308L99,86.553L83.5,96.797L64.5,110.805L64.239,110.559L63.979,110.312L67.121,101.5L71.963,81.63L71.095,80.762L62.753,89.131L54.41,97.5L38.583,118.455L34.866,125.636L31.15,132.818L30.446,137.509L29.743,142.199L30.917,146.116L32.09,150.033L38.14,156.923L41.623,159.076L45.105,161.228L45.703,160.5L50.796,149.204L59.204,140.796L70.5,135.558L87.5,135.526L92.794,137.905L98.087,140.284L101.536,144.312L104.984,148.341L109.037,159.174L109.268,166.837L109.5,174.5L54.949,174.5L56.15,180.5L61.127,190.959L64.814,194.014L68.5,197.069L79.356,200.245L85.835,199.725L92.315,199.205L99.06,195.744L105.805,192.284L107.192,203.386L105.363,204.723L103.535,206.061L98.517,207.642L93.5,209.223L71.5,210.057ZM96.994,163.75L96.989,161.5L95.94,157.723L94.891,153.945L91.711,150.324L88.531,146.702L85.298,145.351L82.064,144L73.5,144.044L65.483,147.686L62.116,151.52L58.75,155.355L57.375,158.645L56,161.936L56,164.853L57.75,165.311L59.5,165.768L97,166L96.994,163.75ZM456,209L456,83.333L456.412,82.917L456.825,82.5L463.912,82.832L471,83.164L471,209L456,209ZM287.594,293.837C286.936,292.666 287.08,291.049 287.594,289.808C288.292,288.122 289.888,286.857 291.464,285.938C293.744,284.608 299.094,283.819 299.094,283.819L311.594,283.807L311.594,280.324C311.55,278.568 306.48,277.616 303.322,277.616C300.164,277.616 294.209,278.28 294.209,281.489L289.025,281.489C289.047,279.839 289.536,277.933 290.552,277.017C292.253,275.563 294.677,275.13 296.892,274.807C301.608,274.12 306.547,274.324 311.175,275.463C312.852,275.876 314.57,276.517 315.87,277.654C317.136,278.761 318.594,281.062 318.594,281.901L318.594,297.807L311.761,297.807C311.524,297.099 311.288,296.391 311.052,295.682C309.189,296.391 307.424,297.448 305.464,297.807C301.736,298.49 297.742,298.825 294.094,297.799C291.651,297.112 288.836,296.05 287.594,293.837ZM311.594,291.91L311.594,286.808L306.344,286.908C306.344,286.908 302.826,286.753 301.094,287.007C299.446,287.249 297.612,287.35 296.283,288.353C295.169,289.195 293.829,290.554 294.094,291.925C296.151,295.734 299.22,294.854 302.055,294.931C305.389,295.022 309.282,292.876 311.594,291.91ZM347.102,285.92C347.178,279.359 356.68,274.876 363.237,274.649C369.515,274.431 378.588,278.426 379.396,284.344L379.721,287.344C371.221,287.53 362.721,287.352 354.221,287.538C354.327,292.35 359.562,294.645 363.442,294.645C366.895,294.645 372.879,293.214 372.879,290.844L379.292,290.844C379.292,295.407 368.923,297.822 363.321,297.822C355.25,297.822 347.023,292.625 347.102,285.92ZM363.374,277.933C359.742,277.994 354.221,279.995 354.221,283.844L373.238,283.844C373.238,279.744 367.206,277.868 363.374,277.933ZM377.67,208.061C374.999,206.663 372.603,204.684 370.574,202.456C368.653,200.347 367.087,198.071 365.918,195.275C364.094,192.063 364.134,188.581 363.802,184.99L364.42,178.29C365.751,172.237 368.454,168 372.229,164.572C376.037,159.867 381.191,158.133 386.721,156.361C393.656,153.203 400.837,153.491 408.293,153.187L421.27,152.641L421.248,144.734C421.053,139.051 419.353,135.834 416.153,133.029C412.432,129.767 406.599,128.911 401.882,128.935C396.937,128.286 391.277,129.315 387.298,132.328C383.784,134.989 381.012,139.748 380.92,143.911L373.67,143.922L366.42,143.934L366.42,140.297C366.42,133.164 370.648,126.752 375.887,122.585C382.532,117.298 392.568,116.136 400.479,115.936C411.259,114.505 418.212,116.493 425.235,121.163C430.39,124.591 436.405,129.099 435.803,136.434L436.535,208.934L421.42,208.934L421.42,200.922C421.42,200.922 418.75,203.002 417.315,203.895C414.352,205.741 411.368,207.679 408.061,208.796C402.254,210.757 396.036,212.209 389.92,211.804C385.66,211.522 381.452,210.043 377.67,208.061ZM415.563,192.224C417.893,190.494 419.713,187.81 421.42,185.781L421.42,164.934C421.42,164.934 416.306,164.833 413.752,164.934C408.991,165.122 404.23,165.472 399.502,166.063C397.294,166.339 395.034,166.492 392.92,167.192C390.437,168.013 388.012,169.168 385.92,170.74C384.144,172.075 382.467,173.68 381.373,175.614C380.21,177.668 379.749,180.084 379.42,182.421C379.202,183.976 379.075,185.6 379.42,187.132C379.962,189.538 380.972,191.958 382.593,193.817C383.888,195.303 385.68,196.407 387.541,197.059C391.452,198.429 395.814,198.787 399.92,198.224C405.453,197.465 411.772,194.96 415.563,192.224Z" style="fill-rule:nonzero;"/>
            </g>
        </g>
    </g>
</svg>
