<?xml version="1.0" encoding="UTF-8" standalone="no"?>
<!DOCTYPE svg PUBLIC "-//W3C//DTD SVG 1.1//EN" "http://www.w3.org/Graphics/SVG/1.1/DTD/svg11.dtd">
<svg width="100%" height="100%" viewBox="0 0 360 89" version="1.1" xmlns="http://www.w3.org/2000/svg" xmlns:xlink="http://www.w3.org/1999/xlink" xml:space="preserve" xmlns:serif="http://www.serif.com/" style="fill-rule:evenodd;clip-rule:evenodd;stroke-miterlimit:10;">
    <rect id="Artboard1" x="0" y="0" width="360" height="88.298" style="fill:none;"/>
    <g id="Artboard11" serif:id="Artboard1">
        <g>
            <g>
                <g>
                    <path d="M96.7,39.8L114.4,39.8L114.4,44.4L102,44.4L102,49.7L113,49.7L113,53.8L101.9,53.8L101.9,59.5L114.5,59.5L114.5,64.1L96.7,64.1L96.7,39.8Z" style="fill-rule:nonzero;"/>
                    <path d="M119.2,58.9C121,59.9 123,60.6 124.9,60.6C126.6,60.6 127.7,60.1 127.7,58.9C127.7,55.9 117.6,57.9 117.6,50.9C117.6,47.1 121,45.1 125,45.1C127,45.1 129.3,45.5 132,46.8L130.1,50.4C128.3,49.5 126.3,49.1 125.1,49.1C123.6,49.1 122.6,49.6 122.6,50.8C122.6,53.8 132.6,51.7 132.6,58.7C132.6,62.6 129.4,64.7 125,64.7C122.2,64.7 119.6,64 117.2,62.7L119.2,58.9Z" style="fill-rule:nonzero;"/>
                    <path d="M136.5,58.9C138.3,59.9 140.3,60.6 142.2,60.6C143.9,60.6 145,60.1 145,58.9C145,55.9 134.9,57.9 134.9,50.9C134.9,47.1 138.3,45.1 142.3,45.1C144.3,45.1 146.6,45.5 149.3,46.8L147.4,50.4C145.6,49.5 143.6,49.1 142.4,49.1C140.9,49.1 139.9,49.6 139.9,50.8C139.9,53.8 149.9,51.7 149.9,58.7C149.9,62.6 146.7,64.7 142.3,64.7C139.5,64.7 136.9,64 134.5,62.7L136.5,58.9Z" style="fill-rule:nonzero;"/>
                    <path d="M161.5,45C166.9,45 169.9,48.5 169.9,53.5C169.9,54.2 169.8,55.2 169.7,55.8L157.5,55.8C157.7,58.9 159.2,60.4 162,60.4C163.8,60.4 165.6,59.8 167.1,58.8L169.3,62.1C167,63.7 164.3,64.6 161.6,64.6C156.1,64.6 152.2,61 152.2,54.7C152.2,48.7 156.4,45 161.5,45ZM157.6,52.8L165,52.8C165,50.5 164.1,48.7 161.7,48.7C159.6,48.7 158.1,50.1 157.6,52.8Z" style="fill-rule:nonzero;"/>
                    <path d="M173,45.5L178.1,45.5L178.3,47.7C179.7,46.3 181.6,45.1 183.9,45.1C188.1,45.1 189.8,47.7 189.8,51.9L189.8,64.2L184.6,64.2L184.6,51.7C184.6,50 183.9,49 182.2,49C180.7,49 179.4,49.8 178.2,51.1L178.2,64.2L173,64.2L173,45.5Z" style="fill-rule:nonzero;"/>
                    <path d="M195.2,49.1L192.3,49.1L192.3,45.4L195.2,45.4L195.2,40.8L200.4,40.8L200.4,45.4L205.5,45.4L205.5,49.1L200.4,49.1L200.4,58.3C200.4,59.7 201,60.3 202.1,60.3C203,60.3 203.9,60 204.6,59.4L206.5,62.5C205,63.6 203.1,64.4 201,64.4C197,64.4 195.2,62.5 195.2,58.3L195.2,49.1Z" style="fill-rule:nonzero;"/>
                    <path d="M208.9,38.1L214.1,38.1L214.1,42.5L208.9,42.5L208.9,38.1ZM208.9,45.7L214.1,45.7L214.1,64.1L208.9,64.1L208.9,45.7Z" style="fill-rule:nonzero;"/>
                    <path d="M228.3,52.9L228.3,51.3C228.3,49.9 227.5,49.2 225.8,49.2C224,49.2 222.2,49.9 219.8,51L218,47.2C220.5,45.9 223.4,45.1 226,45.1C231.3,45.1 233.5,47.7 233.5,51.5L233.5,59.2C233.5,60.2 234.1,60.6 235,60.6L235,64.2C231.4,64.2 230,63.7 228.9,61.9C227.4,63.6 225.6,64.5 223.1,64.5C219.9,64.5 217.6,62.5 217.6,59.5C217.5,55.5 221.3,53.4 228.3,52.9ZM224.8,60.8C226.3,60.8 227.5,60.1 228.3,59.2L228.3,55.7C225.4,55.9 222.7,56.6 222.7,58.9C222.7,60.1 223.5,60.8 224.8,60.8Z" style="fill-rule:nonzero;"/>
                    <path d="M246.5,39.8L251.7,39.8L251.7,49.5L261.2,49.5L261.2,39.8L266.4,39.8L266.4,64.1L261.2,64.1L261.2,54.1L251.7,54.1L251.7,64.2L246.5,64.2L246.5,39.8Z" style="fill-rule:nonzero;"/>
                    <path d="M279.6,45C285,45 288,48.5 288,53.5C288,54.2 287.9,55.2 287.8,55.8L275.6,55.8C275.8,58.9 277.3,60.4 280.1,60.4C281.9,60.4 283.7,59.8 285.2,58.8L287.4,62.1C285.1,63.7 282.4,64.6 279.7,64.6C274.2,64.6 270.3,61 270.3,54.7C270.2,48.7 274.4,45 279.6,45ZM275.6,52.8L283,52.8C283,50.5 282.1,48.7 279.7,48.7C277.7,48.7 276.1,50.1 275.6,52.8Z" style="fill-rule:nonzero;"/>
                    <path d="M300.9,52.9L300.9,51.3C300.9,49.9 300.1,49.2 298.4,49.2C296.6,49.2 294.8,49.9 292.4,51L290.6,47.2C293.1,45.9 296,45.1 298.6,45.1C303.9,45.1 306.1,47.7 306.1,51.5L306.1,59.2C306.1,60.2 306.7,60.6 307.6,60.6L307.6,64.2C304,64.2 302.6,63.7 301.5,61.9C300,63.6 298.2,64.5 295.7,64.5C292.5,64.5 290.2,62.5 290.2,59.5C290.2,55.5 294,53.4 300.9,52.9ZM297.5,60.8C299,60.8 300.2,60.1 301,59.2L301,55.7C298.1,55.9 295.4,56.6 295.4,58.9C295.4,60.1 296.2,60.8 297.5,60.8Z" style="fill-rule:nonzero;"/>
                    <rect x="310.8" y="37.9" width="5.2" height="26.2" style="fill-rule:nonzero;"/>
                    <path d="M321.5,49.1L318.6,49.1L318.6,45.4L321.5,45.4L321.5,40.8L326.7,40.8L326.7,45.4L331.8,45.4L331.8,49.1L326.7,49.1L326.7,58.3C326.7,59.7 327.3,60.3 328.4,60.3C329.3,60.3 330.2,60 330.9,59.4L332.8,62.5C331.3,63.6 329.4,64.4 327.3,64.4C323.3,64.4 321.5,62.5 321.5,58.3L321.5,49.1Z" style="fill-rule:nonzero;"/>
                    <path d="M335.2,37.9L340.4,37.9L340.4,47.5C341.8,46.1 343.7,44.9 346,44.9C350.2,44.9 351.9,47.5 351.9,51.7L351.9,64L346.7,64L346.7,51.7C346.7,50 346,49 344.3,49C342.8,49 341.5,49.8 340.4,51.1L340.4,64.2L335.2,64.2L335.2,37.9Z" style="fill-rule:nonzero;"/>
                </g>
            </g>
        </g>
        <g>
            <g>
                <path d="M63.8,29.6C63.9,29.6 63.9,29.6 63.9,29.7L63.9,29.8C60.4,32.1 53.2,34.3 53.2,34.3C51,34.9 48.5,35.4 45.7,35.4C42.5,35.4 39,34.8 34.8,32.8L34.7,32.7C28.1,29.6 23.4,26.7 19.5,25.2C16.8,24.1 13.5,23.4 12.6,23.3L12.2,23.3C12.2,23.3 12.1,23.3 12.1,23.2C12.1,23.2 12,23.1 12.1,23.1L12.2,23C12.4,22.7 14,21.3 16.2,19.9C18.4,18.5 21,17.1 23.3,17.1L24.6,17.1C30.8,17.4 36.7,19.1 43.3,22.9L43.7,23.1C51,27.5 57.8,29.6 63.8,29.6Z" style="fill-rule:nonzero;"/>
                <path d="M74.5,21.4C74.5,21.4 74.6,21.4 74.6,21.5L74.6,21.7C74.4,22 70,27.6 64.3,27.6L63.8,27.6C57.8,27.4 51.5,25.4 44.7,21.5C37.5,17.4 30.9,15.3 25,15.3C24.9,15.3 24.9,15.3 24.9,15.2C24.9,15.1 24.9,15.1 25,15C27.5,13.9 30.2,12.9 33,12.2C34.9,11.7 37,11.3 39.4,11.3C43.1,11.3 47.4,12.1 52.2,14.4C58.8,17.5 63.8,19.3 67.4,20.2C70.7,21 74.4,21.4 74.4,21.4L74.5,21.4Z" style="fill-rule:nonzero;"/>
            </g>
            <g>
                <g>
                    <path d="M23.2,30.2L23.2,30C23.2,30 23.3,29.9 23.3,30C27,31.9 32.6,37.1 32.6,37.1C34.2,38.7 35.9,40.6 37.3,43C38.9,45.8 40.1,49.1 40.5,53.7L40.5,53.8C41.1,61.1 41,66.6 41.6,70.7C42,73.6 43.1,76.8 43.4,77.6L43.6,78L43.6,78.1C43.6,78.1 43.6,78.2 43.5,78.2L43.4,78.2C43.1,78.2 41,77.4 38.7,76.3C36.4,75.1 33.9,73.5 32.7,71.6L32.1,70.5C29.2,65 27.8,59 27.7,51.4L27.7,51C27.7,42.3 26.2,35.4 23.2,30.2Z" style="fill-rule:nonzero;"/>
                    <path d="M10.7,25L10.7,24.9C10.7,24.8 10.9,24.8 10.9,24.8C11.3,24.8 18.2,25.8 21.2,30.8C21.2,30.8 21.3,31.1 21.5,31.2C24.4,36.5 25.8,42.9 25.8,50.8C25.9,59.1 27.4,65.9 30.3,71L30.3,71.2L30.1,71.2C27.9,69.6 25.7,67.8 23.7,65.7C22.3,64.3 20.9,62.6 19.7,60.5C17.9,57.3 16.4,53.2 16,47.9C15.4,40.6 14.4,35.4 13.4,31.8C12.4,28.5 10.9,25.2 10.9,25.2C10.9,25.2 10.8,25 10.7,25Z" style="fill-rule:nonzero;"/>
                </g>
                <g>
                    <path d="M43.9,65.1C43.9,65.1 43.8,65.2 43.7,65.2C43.7,65.2 43.6,65.2 43.6,65.1C43.4,60.9 45.1,53.5 45.1,53.5C45.7,51.3 46.4,48.9 47.9,46.4C49.5,43.6 51.7,40.9 55.6,38.3L55.7,38.2C61.7,34 66.5,31.4 69.8,28.8C72.1,27 74.3,24.5 74.8,23.8L75,23.5L75.1,23.4L75.2,23.4L75.2,23.5C75.3,23.8 75.7,25.9 75.9,28.5C76,31.1 75.9,34.1 74.8,36L74.1,37.1C70.8,42.3 66.3,46.6 59.8,50.4L59.4,50.6C52.1,55 46.9,59.8 43.9,65.1Z" style="fill-rule:nonzero;"/>
                    <path d="M45.6,78.4L45.5,78.5C45.4,78.5 45.4,78.4 45.4,78.4C45.2,78.1 42.6,71.5 45.4,66.5C45.4,66.5 45.5,66.3 45.7,66.1C48.9,61 53.7,56.5 60.5,52.6C67.6,48.4 72.7,43.7 75.8,38.6C75.8,38.5 75.9,38.5 76,38.5C76.1,38.5 76.1,38.6 76.1,38.6C75.8,41.3 75.4,44.2 74.5,46.9C74,48.8 73.2,50.8 72,52.9C70.2,56.1 67.3,59.4 63,62.4C57,66.6 53,70 50.4,72.6C48,75.1 45.9,78.1 45.9,78.1C45.9,78.1 45.7,78.4 45.6,78.4Z" style="fill-rule:nonzero;"/>
                </g>
            </g>
        </g>
        <g>
            <path d="M65.8,75.1C65.8,77 64.3,78.6 62.3,78.6C60.4,78.6 58.8,77.1 58.8,75.1C58.8,73.2 60.3,71.6 62.3,71.6C64.3,71.7 65.8,73.2 65.8,75.1Z" style="fill:none;fill-rule:nonzero;stroke:black;stroke-width:0.25px;"/>
            <g>
                <path d="M61,73.1L62.6,73.1C63.6,73.1 63.9,73.7 63.9,74.2C63.9,74.7 63.6,75.1 63.1,75.3L64,77L63.5,77L62.8,75.5L61.6,75.5L61.6,77L61,77L61,73.1ZM62.6,75C63.2,75 63.5,74.6 63.5,74.3C63.5,73.9 63.3,73.6 62.7,73.6L61.5,73.6L61.5,75L62.6,75Z" style="fill-rule:nonzero;"/>
            </g>
        </g>
    </g>
</svg>
