<?xml version="1.0" encoding="UTF-8" standalone="no"?>
<!DOCTYPE svg PUBLIC "-//W3C//DTD SVG 1.1//EN" "http://www.w3.org/Graphics/SVG/1.1/DTD/svg11.dtd">
<svg width="100%" height="100%" viewBox="0 0 336 256" version="1.1" xmlns="http://www.w3.org/2000/svg" xmlns:xlink="http://www.w3.org/1999/xlink" xml:space="preserve" xmlns:serif="http://www.serif.com/" style="fill-rule:evenodd;clip-rule:evenodd;stroke-linejoin:round;stroke-miterlimit:2;">
    <g id="Artboard1" transform="matrix(0.320366,0,0,0.342536,20.1071,29.6364)">
        <rect x="-62.763" y="-86.521" width="1048.8" height="747.366" style="fill:none;"/>
        <g transform="matrix(1.16162,0,0,1.08644,29.2461,74.2942)">
            <g id="Image">
                <path id="path9682" d="M516.961,386.538C483.557,381.675 449.857,367.334 425.895,347.786L420.29,343.213L420.764,352.357C421.184,360.45 421.007,361.784 419.226,363.977C416.534,367.291 410.009,367.454 406.84,364.285C404.859,362.303 404.516,360.094 402.889,338.808C401.91,325.988 401.099,311.675 401.089,307L401.07,298.5L405.198,303.5C410.958,310.476 425.52,324.662 434.206,331.76C470.848,361.699 518.462,375.514 564.3,369.505C588.991,366.269 612.743,358.076 632.849,345.861C640.493,341.217 644.912,340.821 648.545,344.455C653.342,349.251 651.188,355.54 643.074,360.426C620.836,373.818 595.6,382.691 568.999,386.471C556.374,388.265 529.068,388.3 516.961,386.538L516.961,386.538ZM664,333.48C664,333.106 667.816,328.747 672.48,323.792C688.6,306.668 703.73,281.08 711.383,258C728.819,205.412 719.155,145.896 686.024,101.826C677.256,90.162 676.384,87.324 680.112,82.585C681.942,80.258 682.839,79.94 686.826,80.2C691.113,80.479 691.76,80.911 696.287,86.5C714.459,108.939 728.523,139.728 734.202,169.5C736.181,179.878 736.486,184.608 736.459,204.5C736.425,229.505 735.547,236.592 730.069,256.083C725.335,272.923 716.682,292.354 708.001,305.631L705.955,308.762L712.227,307.416C722.107,305.296 725.509,305.561 727.927,308.635C730.683,312.138 730.606,317.218 727.75,320.378C725.771,322.568 722.913,323.351 704,326.89C692.175,329.103 679.575,331.398 676,331.99C672.425,332.581 668.263,333.312 666.75,333.612C665.237,333.913 664,333.853 664,333.48ZM304.575,271.94C283.267,268.373 269.336,255.54 263.389,234C260.915,225.04 260.866,203.122 263.3,194C268.582,174.199 281.974,160.012 299.112,156.061C305.636,154.556 318.781,154.792 325.465,156.533C346.025,161.888 358.937,180.058 358.985,203.703C359.002,211.938 357.816,215.307 354.343,216.89C352.697,217.639 339.905,218 314.953,218L278,218L278.012,220.75C278.03,224.879 280.557,233.575 283.471,239.53C286.624,245.974 292.388,251.356 299.88,254.852C304.757,257.127 306.822,257.475 315.5,257.487C327.329,257.502 333.158,255.802 341.329,249.951C347.695,245.392 352.541,244.73 355.512,248.013C358.753,251.594 357.879,255.892 353.036,260.19C341.829,270.135 322.209,274.892 304.575,271.94L304.575,271.94ZM343,203.684C343,202.96 342.507,199.697 341.906,196.434C338.721,179.167 327.452,169 311.5,169C300.537,169 292.273,173.343 286.143,182.327C283.037,186.877 279.66,195.337 278.589,201.25L277.909,205L310.455,205C336.699,205 343,204.745 343,203.684ZM577.347,271.905C566.288,270.058 552.225,263.029 548.937,257.706C546.632,253.975 547.075,250.355 550.153,247.75C553.163,245.203 556.549,245.593 561.601,249.07C564.055,250.758 568.637,253.346 571.782,254.82C576.854,257.197 578.694,257.5 588.078,257.5C598.095,257.5 598.912,257.341 603.473,254.5C614.791,247.449 614.944,234.408 603.79,227.367C601.435,225.88 593.511,222.481 586.182,219.812C563.755,211.647 557.292,207.627 552.532,198.882C548.512,191.496 548.455,181.678 552.384,173.647C555.633,167.007 559.302,163.713 568,159.628C573.874,156.869 575.658,156.537 586.533,156.174C595.534,155.874 600.191,156.19 605.019,157.426C612.853,159.433 622.651,164.651 625.335,168.246C629.251,173.491 626.637,181 620.895,181C619.358,181 615.49,179.417 612.3,177.482C592.29,165.346 567.888,168.893 566.332,184.164C565.423,193.087 570.737,197.512 591.389,205.031C613.71,213.158 620.845,217.478 625.763,225.845C628.228,230.037 628.5,231.446 628.497,240C628.495,247.938 628.124,250.195 626.24,253.723C618.519,268.192 598.865,275.5 577.347,271.905ZM13.073,269.365C11.036,266.776 11,265.827 11,214.421L11,162.112L13.372,159.354C16.428,155.801 22.472,155.63 25.216,159.018C26.878,161.071 27,164.836 27,213.976C27,265.832 26.965,266.775 24.927,269.365C23.329,271.398 21.973,272 19,272C16.027,272 14.671,271.398 13.073,269.365ZM69.229,271.331C68.53,271.049 67.292,269.532 66.479,267.959C65.266,265.613 65.001,259.476 65.006,233.8C65.009,216.585 65.42,200.025 65.919,197C68.088,183.858 75.358,172.188 85.863,164.989C112.5,146.734 149.606,159.344 159.036,189.855C160.835,195.677 161,199.255 161,232.45C161,266.289 160.879,268.8 159.171,270.345C156.246,272.992 150.529,272.487 148.073,269.365C146.069,266.817 146,265.611 146,232.903C146,201.228 145.869,198.726 143.946,193.586C141.231,186.329 134.343,178.807 127.203,175.3C122.371,172.928 120.278,172.505 113.5,172.533C106.354,172.562 104.829,172.926 99.215,175.941C91.844,179.899 87.692,184.299 84.101,191.954L81.5,197.5L81.192,232.723L80.884,267.946L78.307,269.973C75.869,271.891 72.043,272.463 69.229,271.331ZM207.039,269.811C205.047,267.674 205,266.539 205,220.811L205,174L194.934,174C189.398,174 184.045,173.56 183.039,173.021C180.365,171.59 178.888,166.621 180.102,163.138C181.517,159.079 184.76,158 195.547,158L205,158L205,136.689C205,116.624 205.119,115.249 207.039,113.189C210.07,109.935 216.198,110.165 218.927,113.635C220.874,116.109 221,117.54 221,137.135L221,158L231.045,158C240.378,158 241.265,158.174 243.545,160.455C246.793,163.702 246.793,168.298 243.545,171.545C241.265,173.826 240.378,174 231.045,174L221,174L221,220.365C221,265.757 220.957,266.786 218.927,269.365C216.198,272.835 210.07,273.065 207.039,269.811ZM392.073,269.365C390.018,266.753 390,266.094 390,191.5C390,116.906 390.018,116.247 392.073,113.635C394.717,110.273 400.942,109.942 404,113C405.965,114.965 406,116.333 406,191.5C406,266.667 405.965,268.035 404,270C400.942,273.058 394.717,272.727 392.073,269.365ZM448.073,269.365C446.018,266.753 446,266.094 446,191.5C446,116.906 446.018,116.247 448.073,113.635C450.717,110.273 456.942,109.942 460,113C461.965,114.965 462,116.333 462,190.865C462,266.102 461.983,266.752 459.927,269.365C458.329,271.398 456.973,272 454,272C451.027,272 449.671,271.398 448.073,269.365ZM504.223,270.443L502,268.887L502,214.598C502,161.141 502.031,160.282 504.05,158.455C506.921,155.856 512.486,156.041 515.272,158.828L517.5,161.056L517.5,268.177L515.139,270.089C512.283,272.401 507.251,272.564 504.223,270.443ZM15.313,133.908C10.902,132.617 8,128.613 8,123.815C8,115.69 13.087,111.212 21.096,112.286C28.038,113.217 31.517,118.603 29.896,125.907C28.442,132.458 22.153,135.909 15.313,133.908ZM505.212,133.871C497.61,131.679 495.659,120.374 501.917,114.782C508.714,108.71 519.468,112.612 520.672,121.587C521.396,126.987 518.955,131.703 514.466,133.579C510.633,135.18 509.838,135.205 505.212,133.871ZM396.077,79.411C389.463,73.846 393.062,67.056 411.058,51.158C439.829,25.739 475.687,9.694 514.35,4.939C529.892,3.028 559.554,4.243 574.597,7.408C592.124,11.095 607.617,16.439 622.745,24.016C631.625,28.463 635.874,30.143 635.561,29.084C632.884,20.025 632.062,13.644 633.251,11.162C635.871,5.696 644.407,4.64 647.524,9.397C649.772,12.828 663.521,72 662.07,72C661.673,72 660.258,70.823 658.924,69.385C654.904,65.048 641.119,54.718 630.5,48.083C600.582,29.391 571.735,20.907 538,20.88C491.503,20.843 448.809,38.424 415.5,71.324C403.784,82.896 401.399,83.889 396.077,79.411Z" style="fill-rule:nonzero;"/>
            </g>
        </g>
    </g>
</svg>
