<?xml version="1.0" encoding="UTF-8" standalone="no"?>
<!-- Created with Inkscape (http://www.inkscape.org/) -->

<svg
   version="1.1"
   id="svg2"
   width="336"
   height="180"
   viewBox="0 0 336 180"
   sodipodi:docname="JTS-Health-Partners-Logo.png"
   xmlns:inkscape="http://www.inkscape.org/namespaces/inkscape"
   xmlns:sodipodi="http://sodipodi.sourceforge.net/DTD/sodipodi-0.dtd"
   xmlns="http://www.w3.org/2000/svg"
   xmlns:svg="http://www.w3.org/2000/svg">
  <defs
     id="defs6" />
  <sodipodi:namedview
     id="namedview4"
     pagecolor="#ffffff"
     bordercolor="#666666"
     borderopacity="1.0"
     inkscape:showpageshadow="2"
     inkscape:pageopacity="0.0"
     inkscape:pagecheckerboard="0"
     inkscape:deskcolor="#d1d1d1"
     showgrid="false" />
  <g
     inkscape:groupmode="layer"
     inkscape:label="Image"
     id="g8">
    <path
       style="fill:#000000;stroke-width:0.352795"
       d="m 108.40957,121.1308 v -12.87701 h 1.02898 c 0.56594,0 1.08676,0.17332 1.15737,0.38515 0.0878,0.26337 0.78336,0.19475 2.19974,-0.217 4.71876,-1.37178 9.08328,0.88701 10.61301,5.49261 1.44755,4.35816 -0.74347,9.36844 -4.84492,11.07911 -1.64962,0.68803 -4.68302,0.70349 -6.58188,0.0335 l -1.45554,-0.51352 v 4.74708 4.74707 h -1.05838 -1.05838 z m 9.87825,1.74843 c 2.15161,-1.0895 3.17515,-3.02978 3.17515,-6.01899 0,-2.20909 -0.88574,-4.26118 -2.32938,-5.39675 -1.88412,-1.48206 -5.2802,-1.79 -7.68034,-0.69642 l -0.92692,0.42233 v 5.57568 c 0,5.41942 0.0222,5.58774 0.79379,6.0062 1.84413,1.0002 5.10582,1.05073 6.9677,0.10795 z m 13.82596,1.94687 c -1.45976,-0.88999 -2.29165,-2.76134 -1.97585,-4.44469 0.48424,-2.58122 3.01634,-4.3382 7.33619,-5.09047 l 2.33417,-0.40648 v -1.53169 c 0,-3.40259 -3.18427,-4.57332 -6.8565,-2.52087 -0.93469,0.52241 -1.75882,0.94984 -1.8314,0.94984 -0.0726,0 -0.13196,-0.45673 -0.13196,-1.01495 0,-0.88561 0.236,-1.11885 1.85217,-1.83046 2.26483,-0.99723 5.22754,-1.09098 6.87352,-0.2175 1.98881,1.05539 2.21094,1.94974 2.21094,8.90135 v 6.22627 l 1.25495,-0.74043 c 1.56334,-0.9224 1.64242,-0.92023 1.50375,0.0412 -0.1429,0.99081 -2.19975,2.39349 -3.50974,2.39349 -0.75253,0 -1.05048,-0.20316 -1.20586,-0.82223 l -0.20636,-0.82224 -1.62412,0.82224 c -2.05236,1.03903 -4.42661,1.08144 -6.0239,0.1076 z m 6.10694,-1.85888 1.41118,-0.79793 0.1038,-2.76661 0.1038,-2.76661 -1.69138,0.24795 c -3.42462,0.50204 -5.54787,1.92057 -5.96014,3.98194 -0.51646,2.5823 3.00981,3.81053 6.03274,2.10126 z m 12.77429,2.3532 c -0.13754,-0.13755 -0.25008,-4.0338 -0.25008,-8.65836 v -8.40827 h 1.05839 1.05838 v 2.14419 2.1442 l 1.14918,-1.52681 c 0.66021,-0.87715 1.86628,-1.88297 2.83451,-2.36388 1.64095,-0.81503 1.72569,-0.82166 3.21755,-0.25191 0.84272,0.32183 1.7939,0.87431 2.11373,1.22772 0.54117,0.59798 0.53691,0.69766 -0.0614,1.43657 l -0.64294,0.794 -1.35578,-0.92005 c -1.76974,-1.20098 -2.72264,-1.16071 -4.24913,0.17956 -2.68314,2.35583 -2.8105,2.7278 -3.00569,8.77864 -0.16673,5.16878 -0.21584,5.47396 -0.8965,5.57139 -0.39606,0.0567 -0.83265,-0.009 -0.97019,-0.14699 z m 21.54056,-0.80838 -1.15215,-1.02869 -0.10958,-6.73279 -0.10958,-6.7328 h -2.09539 c -1.99988,0 -2.09538,-0.0402 -2.09538,-0.88198 0,-0.84279 0.0941,-0.88199 2.11677,-0.88199 h 2.11676 v -1.85578 c 0,-1.53517 0.16762,-2.03687 0.97019,-2.90402 l 0.97019,-1.04824 0.10221,2.88822 0.10221,2.88822 2.36735,0.104 c 2.14933,0.0944 2.37773,0.1771 2.48009,0.89778 0.10789,0.75969 0.004,0.79379 -2.40994,0.79379 h -2.52267 l 0.11677,6.33339 c 0.0801,4.34228 0.25086,6.46725 0.5433,6.75919 0.52968,0.52879 3.29799,0.51646 4.29877,-0.0192 0.68025,-0.36405 0.74302,-0.30645 0.74302,0.68189 0,1.30163 -0.93469,1.76765 -3.54535,1.76765 -1.41852,0 -1.94585,-0.18786 -2.88759,-1.02869 z m 12.68053,0.80838 c -0.13755,-0.13755 -0.25008,-4.0338 -0.25008,-8.65836 v -8.40827 h 1.05838 c 0.98018,0 1.05839,0.0939 1.05839,1.27133 v 1.27132 l 1.23015,-1.08008 c 2.68998,-2.36184 6.30739,-2.25488 8.70048,0.25726 1.71676,1.80217 2.11066,3.84307 1.98631,10.29167 l -0.0983,5.09904 h -1.05838 -1.05839 v -5.99751 c 0,-5.06825 -0.0966,-6.17424 -0.62336,-7.13812 -1.17278,-2.14591 -3.49234,-2.72962 -6.11464,-1.53871 -2.68557,1.21964 -2.93277,1.92785 -3.04331,8.71902 -0.0926,5.68957 -0.12907,5.95992 -0.81705,6.0584 -0.39606,0.0567 -0.83264,-0.009 -0.97018,-0.14699 z m 26.03312,-0.25167 c -3.09665,-1.40544 -4.78852,-4.03665 -5.03654,-7.83288 -0.13317,-2.0383 -0.0193,-2.81615 0.63501,-4.33709 1.54929,-3.60143 5.15913,-5.52118 8.7583,-4.65775 3.18346,0.7637 5.67219,3.73963 5.69014,6.80406 l 0.008,1.32298 h -6.5267 -6.5267 v 1.03542 c 0,2.17159 1.49571,4.42392 3.70434,5.57823 1.80212,0.94185 4.78397,0.69671 7.04464,-0.57913 1.06752,-0.60247 2.03278,-1.0954 2.14503,-1.0954 0.11226,0 0.15435,0.50766 0.0936,1.12813 -0.0935,0.95453 -0.38049,1.26667 -1.8649,2.02856 -2.10168,1.07873 -6.37827,1.39714 -8.12391,0.60487 z m 7.43099,-11.38339 c -0.36441,-1.45195 -1.20205,-2.50271 -2.47764,-3.10801 -2.91577,-1.38363 -6.42039,0.14835 -7.39584,3.23296 l -0.25102,0.79378 h 5.17755 5.17754 z m 9.92964,11.63506 c -0.13755,-0.13755 -0.25008,-4.0338 -0.25008,-8.65836 v -8.40827 h 1.05838 1.05839 v 2.14419 2.1442 l 1.14918,-1.52681 c 0.6602,-0.87715 1.86628,-1.88297 2.83451,-2.36388 1.64095,-0.81503 1.72569,-0.82166 3.21755,-0.25191 0.84272,0.32183 1.7939,0.87431 2.11373,1.22772 0.54116,0.59798 0.5369,0.69766 -0.0614,1.43657 l -0.64294,0.794 -1.35578,-0.92005 c -1.76974,-1.20098 -2.72264,-1.16071 -4.24913,0.17956 -2.68315,2.35583 -2.81051,2.7278 -3.00569,8.77864 -0.16674,5.16878 -0.21584,5.47396 -0.89651,5.57139 -0.39606,0.0567 -0.83264,-0.009 -0.97018,-0.14699 z m 18.18344,-0.47578 c -1.27835,-0.58026 -1.49938,-0.83623 -1.49938,-1.73639 v -1.05579 l 1.5959,0.70594 c 3.11807,1.37927 6.56546,0.77168 7.07197,-1.24641 0.36558,-1.45657 -0.46502,-2.29586 -3.88653,-3.92722 -3.70409,-1.76609 -4.5817,-2.71892 -4.59577,-4.98965 -0.008,-1.21707 0.20785,-1.70369 1.21323,-2.74098 1.99006,-2.05322 4.66622,-2.39793 7.633,-0.98317 0.94432,0.45032 1.19925,0.78298 1.19925,1.56493 0,0.54617 -0.062,0.99304 -0.13787,0.99304 -0.0758,0 -0.82993,-0.31403 -1.67578,-0.69784 -2.19961,-0.9981 -4.34419,-0.93788 -5.43468,0.15261 -1.79965,1.79965 -0.83903,3.37945 2.99559,4.92642 2.60799,1.05213 3.78316,2.01061 4.48473,3.65779 0.91642,2.15162 -0.37852,4.77422 -2.81272,5.69652 -1.55004,0.58729 -4.48923,0.43448 -6.15094,-0.3198 z m 26.41892,-28.381963 c -3.36951,-11.913066 -6.02776,-21.819693 -5.90723,-22.014725 0.3009,-0.486868 31.46056,-21.582933 31.87878,-21.582933 0.18447,0 0.95297,2.143228 1.70778,4.762729 0.75481,2.6195 1.45319,4.761713 1.55195,4.760471 0.0988,-0.0012 1.68776,-0.872318 3.53111,-1.935727 1.84336,-1.063408 3.3908,-1.816491 3.43877,-1.673517 0.048,0.142973 1.75601,8.594727 3.79566,18.781674 3.48514,17.406362 3.67109,18.54924 3.08794,18.978676 -0.72816,0.536227 -36.66425,21.594915 -36.83952,21.588095 -0.0654,-0.002 -2.87572,-9.75168 -6.24524,-21.664743 z M 26.552953,112.96512 c -0.367736,-0.0999 -0.708617,-1.0895 -1.079584,-3.13423 l -0.542153,-2.98828 h 1.11963 c 3.901472,0 6.455141,-1.35492 7.276373,-3.86069 0.290869,-0.88751 0.452691,-8.303238 0.552806,-25.333072 l 0.14155,-24.07824 h 3.325703 3.325703 l -0.01188,21.785074 c -0.0126,23.104868 -0.218484,27.720738 -1.374215,30.809708 -0.731558,1.95527 -3.146793,4.70171 -4.947936,5.62647 -2.099516,1.07795 -5.982356,1.66305 -7.785997,1.17326 z M 149.27602,98.426565 c -2.66339,-0.88163 -4.09606,-1.808599 -6.09022,-3.940516 -5.68625,-6.079065 -5.41057,-16.827902 0.5752,-22.426887 2.66482,-2.49263 5.11441,-3.459249 8.7479,-3.451963 5.33853,0.01071 9.42322,2.449813 11.63537,6.947875 0.9772,1.986986 1.94239,6.65554 1.47303,7.124908 -0.0949,0.09492 -5.32749,0.172588 -11.62792,0.172588 h -11.45533 l 0.18423,2.29506 c 0.48224,6.007787 5.33856,10.509056 11.35911,10.528646 3.17092,0.0103 5.82458,-0.78604 8.60277,-2.581674 1.2102,-0.782192 2.27439,-1.422165 2.36486,-1.422165 0.0905,0 0.16449,0.797285 0.16449,1.771742 0,1.726726 -0.0421,1.798474 -1.65854,2.823565 -2.86164,1.814793 -5.25863,2.535712 -8.9253,2.684355 -2.60745,0.105704 -3.79515,-0.01097 -5.34965,-0.525534 z m 12.18514,-19.366539 c -0.79193,-3.28546 -3.20499,-6.098698 -5.83971,-6.808155 -0.83257,-0.224189 -2.46884,-0.343015 -3.63614,-0.264057 -3.61441,0.244484 -6.09333,1.917063 -7.78291,5.25128 -1.50598,2.971897 -2.04442,2.791118 8.31323,2.791118 h 9.17938 z m 13.09741,19.385068 c -2.61828,-1.233579 -4.75371,-4.361411 -4.76076,-6.97322 -0.001,-0.401364 0.23684,-1.533906 0.52872,-2.516757 1.25871,-4.238546 6.48077,-7.160469 14.37489,-8.043239 l 2.02857,-0.226847 -10e-4,-2.885173 c -0.002,-4.763251 -1.4358,-6.236942 -6.06687,-6.236441 -2.13012,2.3e-4 -2.96297,0.183683 -4.81806,1.061286 -1.23353,0.583555 -2.70204,1.388027 -3.26335,1.787719 l -1.02048,0.726711 V 73.333746 71.52836 l 2.5845,-1.227373 c 1.42147,-0.675055 3.5647,-1.40966 4.76272,-1.632457 4.38105,-0.814741 8.92183,0.875822 10.52972,3.920283 0.80578,1.525702 0.82128,1.750693 0.82658,11.995019 0.003,5.742087 0.15008,10.668812 0.32691,10.948285 0.26428,0.417685 0.67053,0.276394 2.28234,-0.793788 1.07845,-0.716057 2.04264,-1.301918 2.14265,-1.301918 0.1,0 0.18182,0.597885 0.18182,1.328632 0,1.203294 -0.16464,1.436421 -1.74525,2.471182 -3.12968,2.048862 -4.90155,2.371832 -5.81983,1.060811 -0.30205,-0.431245 -0.54919,-1.158884 -0.54919,-1.616974 0,-0.458086 -0.11907,-0.779969 -0.2646,-0.715288 -0.14553,0.06468 -1.49427,0.736738 -2.99721,1.493461 -3.40401,1.713919 -6.92335,2.088884 -9.26241,0.986859 z m 7.66006,-2.884753 c 1.02597,-0.384134 2.46074,-1.189479 3.18838,-1.789657 l 1.32298,-1.091233 v -4.601745 -4.601745 l -2.38136,0.234595 c -6.87361,0.677143 -11.259,3.916434 -10.91389,8.061592 0.31614,3.797059 4.24023,5.489387 8.78389,3.788193 z m 35.3313,2.819415 c -3.48211,-1.77672 -3.62036,-2.369902 -3.63926,-15.615385 l -0.0155,-10.848438 h -3.88074 -3.88074 v -1.411178 -1.411179 h 3.88074 3.88074 v -3.300817 c 0,-3.237261 0.0241,-3.332363 1.25095,-4.939126 2.06196,-2.700475 2.277,-2.388746 2.277,3.300817 v 4.939126 h 4.05714 4.05714 v 1.411179 1.411178 h -4.05714 -4.05714 l 0.008,9.966451 c 0.009,10.134053 0.22208,12.450877 1.21435,13.176445 1.32567,0.969349 3.85244,0.839232 7.88428,-0.406003 0.77742,-0.240105 0.81109,-0.17838 0.70559,1.293617 -0.10144,1.415511 -0.22968,1.60245 -1.52196,2.218638 -0.85638,0.408342 -2.45143,0.729329 -4.05714,0.816458 -2.18499,0.118561 -2.90045,0.01372 -4.10674,-0.601783 z M 89.18225,98.369686 c -1.93741,-0.386254 -4.79713,-1.504482 -6.7013,-2.6204 l -1.58937,-0.931438 v -4.226333 -4.226336 l 1.91193,1.911936 c 2.74321,2.743204 5.95244,4.245761 9.36984,4.386931 2.21781,0.09162 2.91388,-0.02427 4.23835,-0.705589 3.03038,-1.558876 3.95987,-4.445633 2.44139,-7.582377 -0.95533,-1.973445 -2.54727,-3.304 -7.88723,-6.592184 -7.80894,-4.808508 -10.21704,-7.804502 -10.22946,-12.7268 -0.009,-3.566201 0.89505,-5.92429 3.11963,-8.137262 2.13195,-2.12082 4.21431,-3.165656 7.42265,-3.724365 3.24755,-0.565537 6.98548,0.0128 10.33959,1.599753 l 2.55776,1.210173 v 3.721734 c 0,2.046953 -0.0575,3.721733 -0.12789,3.721733 -0.0703,0 -0.74506,-0.492298 -1.49938,-1.093997 -6.22262,-4.963605 -15.65967,-4.042027 -15.65967,1.529251 0,3.147603 1.40527,4.602585 8.64347,8.949191 5.24845,3.151749 7.71274,5.411896 9.19326,8.431688 0.91485,1.866013 1.03779,2.492901 1.03779,5.291921 0,2.69798 -0.13906,3.466758 -0.92525,5.115523 -0.98619,2.068164 -2.53577,3.825082 -4.54307,5.15092 -2.46287,1.626743 -7.31981,2.302564 -11.11304,1.546327 z m 110.83634,0.12345 c -0.29876,-0.298764 -0.29901,-11.425973 -7e-4,-30.033924 l 0.2336,-14.569756 1.6181,0.105173 1.61815,0.105173 -0.0176,1.322981 c -0.01,0.727639 -0.0494,10.769058 -0.0882,22.314265 l -0.0706,20.991286 h -1.52877 c -0.84083,0 -1.63462,-0.105839 -1.76398,-0.235198 z m 31.41533,0.01662 C 231.29543,98.371247 231.18213,88.282669 231.18213,76.09067 V 53.923403 h 1.76397 1.76397 v 9.87037 9.870369 l 1.44946,-1.572473 c 4.65855,-5.053932 13.16839,-4.711444 16.87729,0.679245 1.96734,2.85944 2.1562,4.292054 2.05267,15.571049 l -0.0937,10.209971 h -1.58758 -1.58757 l -0.1764,-10.760239 c -0.16628,-10.142957 -0.21978,-10.841194 -0.93265,-12.171417 -1.38144,-2.57781 -3.40452,-3.704345 -6.65244,-3.704345 -3.19074,0 -6.25919,1.633902 -8.23482,4.384914 l -1.10346,1.536538 -0.0936,10.357276 -0.0936,10.357273 -1.42398,0.104798 c -0.78319,0.05764 -1.53729,-0.0085 -1.67578,-0.146996 z M 58.312717,78.992082 V 59.582151 l -7.496888,-0.09521 -7.496888,-0.09522 -0.102466,-2.910556 -0.102467,-2.910557 h 18.712389 18.712386 v 2.998755 2.998756 h -7.75847 -7.758471 l -0.09121,19.31551 -0.09121,19.31551 -3.263351,0.10144 -3.263351,0.101435 z m 50.348643,19.16486 c -0.13849,-0.13849 -0.25179,-10.227067 -0.25179,-22.419067 V 53.570608 h 1.76397 1.76397 v 9.87037 9.870369 l 1.44946,-1.572472 c 4.65855,-5.053933 13.16839,-4.711445 16.87729,0.679245 1.96735,2.859439 2.1562,4.292054 2.05267,15.571049 l -0.0937,10.20997 h -1.58758 -1.58757 l -0.1764,-10.760238 c -0.16628,-10.142958 -0.21978,-10.841195 -0.93265,-12.171418 -1.38144,-2.577809 -3.40452,-3.704344 -6.65244,-3.704344 -3.19074,0 -6.25919,1.633901 -8.23482,4.384913 l -1.10346,1.536538 -0.0936,10.357276 -0.0936,10.357273 -1.42398,0.104798 c -0.78319,0.05764 -1.53729,-0.0085 -1.67578,-0.146995 z"
       id="path302" />
  </g>
</svg>
