<?xml version="1.0" encoding="UTF-8" standalone="no"?>
<!DOCTYPE svg PUBLIC "-//W3C//DTD SVG 1.1//EN" "http://www.w3.org/Graphics/SVG/1.1/DTD/svg11.dtd">
<svg width="100%" height="100%" viewBox="0 0 336 180" version="1.1" xmlns="http://www.w3.org/2000/svg" xmlns:xlink="http://www.w3.org/1999/xlink" xml:space="preserve" xmlns:serif="http://www.serif.com/" style="fill-rule:evenodd;clip-rule:evenodd;stroke-linejoin:round;stroke-miterlimit:2;">
    <g id="Artboard2" transform="matrix(0.927967,0,0,1.20129,13.3787,-58.1361)">
        <rect x="-14.417" y="48.395" width="362.082" height="149.839" style="fill:none;"/>
        <g transform="matrix(0.880556,0,0,0.680205,-1.84876,104.891)">
            <path d="M55.18,35.05C55.18,36.28 56.04,36.65 57.03,36.77C58.382,36.869 59.741,36.849 61.09,36.71C62.274,36.587 63.357,35.988 64.09,35.05C64.521,34.369 64.829,33.618 65,32.83L65.9,32.83C65.56,34.59 65.13,36.31 64.76,38.06C62.05,38.06 59.34,37.94 56.64,37.94C53.94,37.94 51.22,38.06 48.51,38.06L48.51,37.14L48.94,37.14C50.05,37.14 51.25,36.99 51.25,35.08L51.25,19.27C51.25,17.67 50.05,17.51 48.94,17.51L48.5,17.51L48.5,16.59C50.13,16.59 51.73,16.71 53.36,16.71C54.99,16.71 56.47,16.59 58.04,16.59L58.04,17.51L57.27,17.51C56.1,17.51 55.18,17.51 55.18,19.17L55.18,35.05Z" style="fill-rule:nonzero;"/>
        </g>
        <g transform="matrix(0.880556,0,0,0.680205,-1.84876,104.891)">
            <path d="M67,37.14L67.43,37.14C68.54,37.14 69.71,36.99 69.71,35.39L69.71,19.27C69.71,17.67 68.54,17.51 67.43,17.51L67,17.51L67,16.59C68.2,16.59 70,16.71 71.56,16.71C73.12,16.71 74.94,16.59 76.39,16.59L76.39,17.51L76,17.51C74.89,17.51 73.72,17.67 73.72,19.27L73.72,35.39C73.72,36.99 74.89,37.14 76,37.14L76.43,37.14L76.43,38.06C74.95,38.06 73.11,37.94 71.57,37.94C70.03,37.94 68.24,38.06 67.04,38.06L67,37.14Z" style="fill-rule:nonzero;"/>
        </g>
        <g transform="matrix(0.880556,0,0,0.680205,-1.84876,104.891)">
            <path d="M85.45,26L89.76,26C91.27,26 91.76,25.05 91.76,23.51L92.68,23.51C92.62,24.62 92.56,25.7 92.56,26.8C92.56,28.07 92.56,29.3 92.68,30.56L91.76,30.56C91.76,28.83 91.27,27.56 89.3,27.56L85.45,27.56L85.45,35.41C85.45,37.13 86.87,37.16 88.45,37.16L88.85,37.16L88.85,38.08C87.4,38.08 85.31,37.96 83.55,37.96C81.96,37.96 80.08,38.08 78.85,38.08L78.85,37.16L79.28,37.16C80.39,37.16 81.55,37.01 81.55,35.41L81.55,19.27C81.55,17.67 80.39,17.51 79.28,17.51L78.85,17.51L78.85,16.59C80.72,16.59 83.92,16.71 86.51,16.71C89.1,16.71 92.29,16.59 94.39,16.59C94.325,18.16 94.345,19.732 94.45,21.3L93.52,21.54C93.34,19.42 92.85,17.94 90.42,17.94L85.45,17.94L85.45,26Z" style="fill-rule:nonzero;"/>
        </g>
        <g transform="matrix(0.880556,0,0,0.680205,-1.84876,104.891)">
            <path d="M96.07,37.14L96.5,37.14C97.61,37.14 98.78,36.99 98.78,35.39L98.78,19.27C98.78,17.67 97.61,17.51 96.5,17.51L96.07,17.51L96.07,16.59C97.94,16.59 101.14,16.71 103.73,16.71C106.32,16.71 109.51,16.59 111.61,16.59C111.545,18.16 111.565,19.732 111.67,21.3L110.74,21.54C110.59,19.54 110.22,17.94 106.99,17.94L102.71,17.94L102.71,26L106.37,26C108.22,26 108.62,25 108.81,23.3L109.73,23.3C109.67,24.5 109.64,25.7 109.64,26.9C109.64,28.07 109.64,29.23 109.73,30.4L108.81,30.59C108.62,28.74 108.53,27.54 106.41,27.54L102.71,27.54L102.71,34.71C102.71,36.71 104.5,36.71 106.47,36.71C110.16,36.71 111.79,36.46 112.71,32.96L113.57,33.17C113.17,34.8 112.81,36.43 112.57,38.06C110.57,38.06 107.06,37.94 104.29,37.94C101.52,37.94 97.86,38.06 96.11,38.06L96.07,37.14Z" style="fill-rule:nonzero;"/>
        </g>
        <g transform="matrix(0.880556,0,0,0.680205,-1.84876,104.891)">
            <path d="M114.56,37.14L115,37.14C116.11,37.14 117.28,36.99 117.28,35.39L117.28,19.27C117.28,17.67 116.11,17.51 115,17.51L114.57,17.51L114.57,16.59C115.92,16.59 117.64,16.71 119.37,16.71C121.1,16.71 122.87,16.59 124.29,16.59C129.46,16.59 131.4,18.74 131.4,21.42C131.4,24.56 128.51,25.91 125.8,26.42L125.8,26.49C129.15,26.39 132.66,28.27 132.66,31.99C132.66,35.32 129.4,38.08 125.4,38.08C123.86,38.08 121.92,37.96 120.01,37.96C118.1,37.96 115.89,38.08 114.57,38.08L114.56,37.14ZM121.2,26L122.71,26C125.33,26 127.26,24.9 127.26,22C127.26,18.47 125.14,17.7 123.05,17.7L121.2,17.7L121.2,26ZM121.2,34.34C121.2,36.5 121.6,36.96 123.97,36.96C126.485,36.925 128.536,34.846 128.536,32.33C128.536,32.254 128.534,32.177 128.53,32.1C128.53,28.68 126.25,27.1 123.17,27.1L121.17,27.1L121.2,34.34Z" style="fill-rule:nonzero;"/>
        </g>
        <g transform="matrix(0.880556,0,0,0.680205,-1.84876,104.891)">
            <path d="M136.25,19.85C136.25,17.6 135.02,17.51 134.06,17.51L133.51,17.51L133.51,16.59C134.51,16.59 136.4,16.71 138.28,16.71C140.16,16.71 141.6,16.59 143.23,16.59C147.11,16.59 150.55,17.64 150.55,22C150.55,24.77 148.71,26.47 146.28,27.42L151.54,35.3C152.124,36.417 153.279,37.126 154.54,37.14L154.54,38.06C153.54,38.06 152.54,37.94 151.54,37.94C150.54,37.94 149.6,38.06 148.65,38.06C146.289,34.878 144.15,31.537 142.25,28.06L140.25,28.06L140.25,34.64C140.25,37.01 141.35,37.1 142.77,37.1L143.32,37.1L143.32,38.02C141.57,38.02 139.78,37.9 138.03,37.9C136.55,37.9 135.11,38.02 133.57,38.02L133.57,37.1L134.12,37.1C135.26,37.1 136.31,36.58 136.31,35.44L136.25,19.85ZM140.19,27L141.69,27C144.77,27 146.43,25.83 146.43,22.2C146.437,22.1 146.441,22 146.441,21.899C146.441,19.595 144.545,17.699 142.241,17.699C142.14,17.699 142.04,17.703 141.94,17.71C141.355,17.717 140.771,17.757 140.19,17.83L140.19,27Z" style="fill-rule:nonzero;"/>
        </g>
        <g transform="matrix(0.880556,0,0,0.680205,-1.84876,104.891)">
            <path d="M156.06,37.14L156.49,37.14C157.6,37.14 158.77,36.99 158.77,35.39L158.77,19.27C158.77,17.67 157.6,17.51 156.49,17.51L156.06,17.51L156.06,16.59C157.26,16.59 159.11,16.71 160.61,16.71C162.11,16.71 164,16.59 165.44,16.59L165.44,17.51L165,17.51C163.9,17.51 162.73,17.67 162.73,19.27L162.73,35.39C162.73,36.99 163.9,37.14 165,37.14L165.43,37.14L165.43,38.06C163.96,38.06 162.11,37.94 160.57,37.94C159.03,37.94 157.25,38.06 156.05,38.06L156.06,37.14Z" style="fill-rule:nonzero;"/>
        </g>
        <g transform="matrix(0.880556,0,0,0.680205,-1.84876,104.891)">
            <path d="M167.38,37.14L167.81,37.14C168.92,37.14 170.09,36.99 170.09,35.39L170.09,19.27C170.09,17.67 168.92,17.51 167.81,17.51L167.38,17.51L167.38,16.59C168.31,16.59 170.38,16.71 172.31,16.71C174.24,16.71 175.94,16.59 177.26,16.59C184.83,16.59 189.47,20.84 189.47,27.27L189.47,27.277C189.47,33.202 184.595,38.077 178.67,38.077C178.467,38.077 178.263,38.071 178.06,38.06C176.7,38 174.55,37.94 172.46,37.94C170.37,37.94 168.18,38.06 167.38,38.06L167.38,37.14ZM174,34.53C174,36.68 175,36.96 177.2,36.96C182.43,36.96 185.14,32.59 185.14,27.85C185.14,19.73 181.01,17.7 176.14,17.7C175.43,17.7 174.72,17.79 174.05,17.85L174,34.53Z" style="fill-rule:nonzero;"/>
        </g>
        <g transform="matrix(0.880556,0,0,0.680205,-1.84876,104.891)">
            <path d="M211,22.59C210.08,18.8 207.46,17.48 203.86,17.48C198.35,17.48 195.65,21.54 195.65,26.68C195.65,31.82 198.08,37.17 203.95,37.17C205.121,37.277 206.3,37.077 207.37,36.59L207.37,31.59C207.37,30.33 206.17,30.02 205.03,30.02L204.63,30.02L204.63,29.1C206.17,29.16 207.71,29.22 209.25,29.22C210.63,29.22 211.98,29.16 213.37,29.1L213.37,30L213,30C211.92,30 211.34,30.5 211.34,31.57L211.34,36.25L212.05,36.65L212.05,37.2C209.265,38.05 206.372,38.498 203.46,38.53C196.57,38.53 191.37,34.4 191.37,26.99C191.37,19.85 197.46,16.13 203.68,16.13C205.174,16.13 206.662,16.314 208.11,16.68C209.242,17 210.406,17.198 211.58,17.27C211.541,19.031 211.664,20.792 211.95,22.53L211,22.59Z" style="fill-rule:nonzero;"/>
        </g>
        <g transform="matrix(0.880556,0,0,0.680205,-1.84876,104.891)">
            <path d="M214.33,37.14L214.76,37.14C215.87,37.14 217.04,36.99 217.04,35.39L217.04,19.27C217.04,17.67 215.87,17.51 214.76,17.51L214.33,17.51L214.33,16.59C216.21,16.59 219.41,16.71 221.99,16.71C224.57,16.71 227.78,16.59 229.87,16.59C229.81,17.91 229.87,19.94 229.93,21.3L229.01,21.54C228.85,19.54 228.49,17.94 225.25,17.94L221,17.94L221,26L224.66,26C226.51,26 226.9,25 227.09,23.3L228,23.3C227.94,24.5 227.91,25.7 227.91,26.9C227.91,28.07 227.91,29.23 228,30.4L227.08,30.59C226.89,28.74 226.8,27.54 224.68,27.54L221,27.54L221,34.71C221,36.71 222.78,36.71 224.75,36.71C228.44,36.71 230.07,36.46 231,32.96L231.86,33.17C231.46,34.8 231.09,36.43 230.81,38.06C228.81,38.06 225.31,37.94 222.54,37.94C219.77,37.94 216.11,38.06 214.35,38.06L214.33,37.14Z" style="fill-rule:nonzero;"/>
        </g>
        <g transform="matrix(0.880556,0,0,0.680205,-1.84876,104.891)">
            <path d="M248.17,35.39C248.17,37.05 249.47,37.14 250.57,37.14L251.16,37.14L251.16,38.06C249.8,38.06 247.84,37.94 246.16,37.94C244.48,37.94 242.75,38.06 241.52,38.06L241.52,37.14L242,37.14C243.11,37.14 244.28,36.99 244.28,35.39L244.28,19.27C244.28,17.67 243.11,17.51 242,17.51L241.57,17.51L241.57,16.59C242.8,16.59 244.65,16.71 246.21,16.71C247.77,16.71 249.84,16.59 251.21,16.59L251.21,17.51L250.62,17.51C249.52,17.51 248.22,17.6 248.22,19.27L248.22,26L259.39,26L259.39,19.27C259.39,17.6 258.1,17.51 256.99,17.51L256.41,17.51L256.41,16.59C257.76,16.59 259.73,16.71 261.41,16.71C263.09,16.71 264.83,16.59 266.06,16.59L266.06,17.51L265.63,17.51C264.52,17.51 263.35,17.67 263.35,19.27L263.35,35.39C263.35,36.99 264.52,37.14 265.63,37.14L266,37.14L266,38.06C264.77,38.06 262.92,37.94 261.35,37.94C259.78,37.94 257.72,38.06 256.35,38.06L256.35,37.14L256.93,37.14C258.04,37.14 259.33,37.05 259.33,35.39L259.33,27.73L248.17,27.73L248.17,35.39Z" style="fill-rule:nonzero;"/>
        </g>
        <g transform="matrix(0.880556,0,0,0.680205,-1.84876,104.891)">
            <path d="M268.54,37.14L269,37.14C270.11,37.14 271.28,36.99 271.28,35.39L271.28,19.27C271.28,17.67 270.11,17.51 269,17.51L268.57,17.51L268.57,16.59C270.45,16.59 273.65,16.71 276.23,16.71C278.81,16.71 282.02,16.59 284.11,16.59C284.05,17.91 284.11,19.94 284.17,21.3L283.25,21.54C283.09,19.54 282.72,17.94 279.49,17.94L275.22,17.94L275.22,26L278.88,26C280.72,26 281.12,25 281.31,23.3L282.23,23.3C282.17,24.5 282.14,25.7 282.14,26.9C282.14,28.07 282.14,29.23 282.23,30.4L281.31,30.59C281.12,28.74 281.03,27.54 278.91,27.54L275.22,27.54L275.22,34.71C275.22,36.71 277,36.71 278.97,36.71C282.66,36.71 284.29,36.46 285.22,32.96L286.08,33.17C285.68,34.8 285.31,36.43 285.03,38.06C283.03,38.06 279.52,37.94 276.76,37.94C274,37.94 270.33,38.06 268.57,38.06L268.54,37.14Z" style="fill-rule:nonzero;"/>
        </g>
        <g transform="matrix(0.880556,0,0,0.680205,-1.84876,104.891)">
            <path d="M292.2,33.67C291.893,34.441 291.665,35.242 291.52,36.06C291.52,36.99 292.82,37.14 293.83,37.14L294.17,37.14L294.17,38.06C292.94,38 291.68,37.94 290.45,37.94C289.22,37.94 288.23,38 287.12,38.06L287.12,37.14L287.31,37.14C288.543,37.135 289.635,36.32 289.99,35.14L294.91,21C295.386,19.757 295.767,18.48 296.05,17.18C297.025,16.833 297.962,16.391 298.85,15.86C298.926,15.826 299.007,15.806 299.09,15.8C299.18,15.8 299.25,15.8 299.31,15.89C299.4,16.14 299.49,16.42 299.58,16.66L305.25,32.75C305.61,33.83 305.98,34.97 306.38,35.89C306.71,36.687 307.52,37.185 308.38,37.12L308.57,37.12L308.57,38.04C307.18,37.98 305.8,37.92 304.32,37.92C302.84,37.92 301.32,37.98 299.71,38.04L299.71,37.12L300.05,37.12C300.75,37.12 301.95,37 301.95,36.23C301.834,35.469 301.629,34.724 301.34,34.01L300.14,30.45L293.14,30.45L292.2,33.67ZM296.69,20L296.63,20L293.77,28.7L299.52,28.7L296.69,20Z" style="fill-rule:nonzero;"/>
        </g>
        <g transform="matrix(0.880556,0,0,0.680205,-1.84876,104.891)">
            <path d="M317.27,35.05C317.27,36.28 318.14,36.65 319.12,36.77C320.472,36.869 321.831,36.849 323.18,36.71C324.362,36.583 325.444,35.984 326.18,35.05C326.621,34.37 326.943,33.619 327.13,32.83L328,32.83C327.66,34.59 327.23,36.31 326.86,38.06C324.16,38.06 321.45,37.94 318.74,37.94C316.03,37.94 313.32,38.06 310.62,38.06L310.62,37.14L311,37.14C312.11,37.14 313.31,36.99 313.31,35.08L313.31,19.27C313.31,17.67 312.11,17.51 311,17.51L310.57,17.51L310.57,16.59C312.2,16.59 313.8,16.71 315.43,16.71C317.06,16.71 318.54,16.59 320.11,16.59L320.11,17.51L319.34,17.51C318.17,17.51 317.24,17.51 317.24,19.17L317.27,35.05Z" style="fill-rule:nonzero;"/>
        </g>
        <g transform="matrix(0.880556,0,0,0.680205,-1.84876,104.891)">
            <path d="M330.72,18.13C328.41,18.13 328.32,18.68 327.86,20.93L326.93,20.93C327.06,20.07 327.21,19.2 327.3,18.31C327.429,17.446 327.492,16.574 327.49,15.7L328.23,15.7C328.47,16.62 329.23,16.59 330.07,16.59L346,16.59C346.83,16.59 347.6,16.59 347.66,15.64L348.4,15.76C348.27,16.59 348.15,17.42 348.06,18.25C347.97,19.08 348,19.91 348,20.74L347.07,21.08C347.01,19.94 346.86,18.13 344.8,18.13L339.7,18.13L339.7,34.5C339.7,36.86 340.78,37.14 342.26,37.14L342.84,37.14L342.84,38.06C341.64,38.06 339.49,37.94 337.84,37.94C336,37.94 333.84,38.06 332.65,38.06L332.65,37.14L333.23,37.14C334.92,37.14 335.78,36.99 335.78,34.56L335.78,18.13L330.72,18.13Z" style="fill-rule:nonzero;"/>
        </g>
        <g transform="matrix(0.880556,0,0,0.680205,-1.84876,104.891)">
            <path d="M356.75,35.39C356.75,37.05 358.04,37.14 359.15,37.14L359.73,37.14L359.73,38.06C358.38,38.06 356.41,37.94 354.73,37.94C353.05,37.94 351.31,38.06 350.08,38.06L350.08,37.14L350.51,37.14C351.62,37.14 352.79,36.99 352.79,35.39L352.79,19.27C352.79,17.67 351.62,17.51 350.51,17.51L350.08,17.51L350.08,16.59C351.31,16.59 353.16,16.71 354.73,16.71C356.3,16.71 358.36,16.59 359.73,16.59L359.73,17.51L359.15,17.51C358.04,17.51 356.75,17.6 356.75,19.27L356.75,26L367.91,26L367.91,19.27C367.91,17.6 366.62,17.51 365.51,17.51L364.93,17.51L364.93,16.59C366.28,16.59 368.25,16.71 369.93,16.71C371.61,16.71 373.35,16.59 374.58,16.59L374.58,17.51L374.15,17.51C373.04,17.51 371.87,17.67 371.87,19.27L371.87,35.39C371.87,36.99 373.04,37.14 374.15,37.14L374.58,37.14L374.58,38.06C373.35,38.06 371.5,37.94 369.93,37.94C368.36,37.94 366.3,38.06 364.93,38.06L364.93,37.14L365.51,37.14C366.62,37.14 367.91,37.05 367.91,35.39L367.91,27.73L356.75,27.73L356.75,35.39Z" style="fill-rule:nonzero;"/>
        </g>
        <g transform="matrix(0.880556,0,0,0.680205,-1.84876,104.891)">
            <path d="M378,33.27C379.344,33.27 380.45,34.376 380.45,35.72C380.45,37.064 379.344,38.17 378,38.17C376.656,38.17 375.55,37.064 375.55,35.72C375.55,35.703 375.549,35.686 375.549,35.669C375.549,34.353 376.633,33.269 377.949,33.269C377.966,33.269 377.983,33.27 378,33.27ZM378,37.71C378.02,37.711 378.04,37.711 378.06,37.711C379.157,37.711 380.06,36.808 380.06,35.711C380.06,34.614 379.157,33.711 378.06,33.711C376.963,33.711 376.06,34.613 376.06,35.71C376.06,36.785 376.926,37.678 378,37.71ZM376.77,37L376.77,36.87C377.07,36.87 377.13,36.87 377.13,36.65L377.13,34.86C377.13,34.61 377.13,34.52 376.79,34.53L376.79,34.41L378,34.41C378.43,34.41 378.82,34.61 378.82,35.06C378.815,35.405 378.582,35.707 378.25,35.8L378.65,36.36C378.799,36.577 378.981,36.77 379.19,36.93L379.19,37L378.71,37C378.48,37 378.28,36.51 377.83,35.87L377.56,35.87L377.56,36.68C377.56,36.84 377.56,36.83 377.92,36.87L377.92,37L376.77,37ZM377.6,35.7L377.89,35.7C378.21,35.7 378.35,35.46 378.35,35.08C378.35,34.7 378.12,34.55 377.88,34.55L377.6,34.55L377.6,35.7Z" style="fill-rule:nonzero;"/>
        </g>
        <g transform="matrix(0.880556,0,0,0.680205,-1.84876,104.891)">
            <path d="M2.2,30.93L2.2,31.15C2.2,34.941 5.319,38.06 9.11,38.06L38.8,38.06L38.8,28.65C33.92,24.87 27.912,22.831 21.74,22.86C14.404,22.782 7.343,25.698 2.2,30.93Z" style="fill-rule:nonzero;"/>
        </g>
        <g transform="matrix(0.880556,0,0,0.680205,-1.84876,104.891)">
            <path d="M38.8,26.75L38.8,16.59L2.2,16.59L2.2,26.22C7.463,22.636 13.693,20.735 20.06,20.77C26.789,20.676 33.369,22.776 38.8,26.75Z" style="fill-rule:nonzero;"/>
        </g>
    </g>
</svg>
