<?xml version="1.0" encoding="UTF-8" standalone="no"?>
<!DOCTYPE svg PUBLIC "-//W3C//DTD SVG 1.1//EN" "http://www.w3.org/Graphics/SVG/1.1/DTD/svg11.dtd">
<svg width="100%" height="100%" viewBox="0 0 336 180" version="1.1" xmlns="http://www.w3.org/2000/svg" xmlns:xlink="http://www.w3.org/1999/xlink" xml:space="preserve" xmlns:serif="http://www.serif.com/" style="fill-rule:evenodd;clip-rule:evenodd;stroke-linejoin:round;stroke-miterlimit:2;">
    <g id="Artboard1" transform="matrix(0.94885,0,0,0.882339,4.49788,-13.6523)">
        <rect x="-4.74" y="15.473" width="354.113" height="204.003" style="fill:none;"/>
        <g id="path293" transform="matrix(0.202973,0,0,0.218273,17.7802,60.7191)">
            <path d="M410.667,490.667L410.667,400L424.309,400L423.784,417.954L423.26,435.908L425.963,433.376C436.054,423.926 455.38,427.035 461.193,439.043C463.713,444.249 464,447.185 464,467.754L464,490.667L450.667,490.667L450.667,471.291C450.667,449.423 449.203,443.565 443.166,441.27C438.452,439.478 433.034,440.727 429.582,444.403C425.618,448.622 424.07,457.162 424.033,475L424,490.667L410.667,490.667ZM493.494,488.463C482.84,483.033 477.015,467.816 479.665,452.34C482.287,437.037 492.928,428 508.325,428C521.347,428 529.778,433.479 532.014,443.396C534.69,455.262 527.722,462.751 511.642,465.29C492.179,468.364 492.586,468.098 497.883,474.259C500.782,477.63 501.934,477.998 509.55,477.984C514.197,477.976 519.765,477.676 521.921,477.318C525.541,476.717 525.937,477.059 527.079,481.775C527.942,485.34 527.855,487.345 526.791,488.409C525.906,489.294 519.538,490.108 511.632,490.347C500.772,490.676 497.084,490.292 493.494,488.463ZM507.295,454.693C516.659,453.072 519.362,450.95 518.16,446.163C516.904,441.157 508.978,438.999 502.221,441.822C494.893,444.884 489.635,458.194 496.333,456.728C497.983,456.366 502.916,455.451 507.295,454.693ZM550.92,487.966C542.661,482.93 540.355,469.608 546.33,461.449C550.738,455.431 556.758,453.338 569.667,453.335C580.988,453.332 581.333,453.242 581.333,450.232C581.333,442.513 571.864,439.213 557.193,441.82L551.053,442.912L549.648,437.377C548.302,432.071 548.39,431.78 551.788,430.371C557.217,428.119 573.766,427.496 579.336,429.334C586.626,431.74 592.736,437.757 594.546,444.315C595.524,447.857 595.968,457.539 595.725,470L595.333,490L591.046,490.414C587.399,490.767 586.63,490.318 585.901,487.414C585.43,485.537 584.836,484 584.581,484C584.327,484 581.908,485.5 579.206,487.333C572.647,491.785 557.731,492.118 550.92,487.966ZM577.436,474.769C579.727,472.478 581.333,469.456 581.333,467.436C581.333,464.082 581.119,464 572.297,464C562.041,464 557.333,466.301 557.333,471.314C557.333,476.196 560.761,478.667 567.531,478.667C572.393,478.667 574.282,477.924 577.436,474.769ZM617.741,487.45L614,484.234L613.226,400L626.667,400L626.667,437.224C626.667,457.698 627.031,475.398 627.476,476.558C627.921,477.718 629.113,478.667 630.125,478.667C631.763,478.667 636,486.477 636,489.496C636,490.14 632.733,490.667 628.741,490.667C622.991,490.667 620.704,489.998 617.741,487.45ZM657.021,486.779L652.667,482.892L652.305,465.113C651.851,442.799 651.543,441.333 647.308,441.333C644.284,441.333 644,440.826 644,435.422C644,429.964 644.281,429.478 647.667,429.089C651.117,428.692 651.373,428.201 652,420.778C652.642,413.187 652.843,412.827 657.333,411.213C665.269,408.361 665.333,408.426 665.333,419.333L665.333,429.333L681.333,429.333L681.333,441.333L665.333,441.333L665.333,457.421C665.333,475.409 666.325,478.667 671.8,478.667C674.736,478.667 675.977,479.655 677.775,483.425C679.023,486.042 679.699,488.742 679.277,489.425C678.855,490.108 674.654,490.667 669.942,490.667C662.363,490.667 660.873,490.218 657.021,486.779ZM696.95,489.839C696.428,489.317 696,468.889 696,444.444L696,400L710.667,400L710.667,413.009C710.667,420.164 710.109,427.964 709.426,430.342C708.744,432.721 708.487,434.667 708.856,434.667C709.224,434.667 712.205,433.096 715.48,431.177C720.567,428.196 722.597,427.771 729.402,428.263C738.403,428.914 743.151,431.706 747.333,438.806C749.726,442.868 750,445.731 750,466.667L750,490L736.667,490L735.978,468.667C735.599,456.933 734.806,446.338 734.215,445.122C732.368,441.318 726.146,439.525 720.854,441.271C712.648,443.98 711.418,447.448 710.667,470L710,490L703.95,490.395C700.623,490.612 697.473,490.362 696.95,489.839ZM780.642,488.809C774.936,486.323 768.375,478.343 766.592,471.723C764.362,463.44 765.48,448.405 768.804,442C773.203,433.521 780.997,428.848 791.753,428.24C796.688,427.962 803.334,428.436 806.522,429.294C812.229,430.831 812.306,430.929 811.541,435.646C810.422,442.543 809.305,443.15 801.109,441.316C788.533,438.502 780.896,443.757 779.16,456.42C777.986,464.985 781.447,473.967 787.033,476.856C791.036,478.926 799.908,478.825 807.428,476.623C809.743,475.944 810.443,476.661 811.761,481.062C812.626,483.948 813.333,486.631 813.333,487.024C813.333,490.526 787.784,491.921 780.642,488.809ZM833.034,488.657C822.795,482.907 822.009,465.025 831.67,457.649C836.042,454.312 837.627,453.961 850.225,453.545C857.801,453.295 864,452.935 864,452.744C864,449.975 860.528,444.058 858.27,442.979C852.444,440.194 850.184,439.97 842.313,441.398C833.268,443.038 832.241,442.516 831.138,435.72L830.372,431.003L837.334,429.333C848.105,426.749 861.532,428.185 867.905,432.601C876.099,438.279 877.333,443.006 877.333,468.694L877.333,490.667L872.667,490.667C869.833,490.667 867.992,490.012 867.98,489C867.969,488.083 867.4,486.449 866.716,485.368C865.671,483.715 864.917,483.926 861.964,486.702C858.906,489.575 857.048,490.045 847.56,490.349C839.719,490.6 835.649,490.126 833.034,488.657ZM859.139,475.397C861.079,473.599 862.667,471.248 862.667,470.173C862.667,469.098 863.031,467.269 863.476,466.109C864.169,464.303 862.87,464 854.439,464C843.572,464 838.667,466.168 838.667,470.971C838.667,478.924 852.18,481.846 859.139,475.397ZM895.617,489.839C895.094,489.317 894.667,475.453 894.667,459.031L894.667,429.172L899.656,429.586C903.439,429.9 904.747,430.644 905.067,432.667C906.047,438.851 906.579,439.02 911.49,434.708C917.031,429.843 921.224,428 926.753,428C930.487,428 930.667,428.269 930.667,433.842C930.667,439.61 930.595,439.702 924.947,441.124C913.63,443.973 910.524,450.428 909.449,473.333L908.667,490L902.617,490.395C899.29,490.612 896.14,490.362 895.617,489.839ZM955.663,487.908C938.926,479.072 936.686,447.091 951.908,434.282C957.66,429.442 964.344,427.626 974.118,428.249C987.116,429.076 995.111,436.285 995.111,447.177C995.111,458.677 989.923,462.659 970.567,466.017C963.672,467.214 957.763,468.459 957.437,468.785C957.112,469.111 958.063,471.017 959.55,473.022C963.257,478.015 970.202,479.594 979.7,477.602C988.424,475.772 989.615,476.463 989.84,483.487C990.037,489.657 988.22,490.369 972,490.475C963.173,490.532 959.56,489.965 955.663,487.908ZM969.962,454.693C979.326,453.072 982.028,450.95 980.827,446.163C979.596,441.26 971.647,438.997 965.166,441.706C957.881,444.749 952.369,458.179 959,456.728C960.65,456.366 965.583,455.451 969.962,454.693ZM1042.08,489.167C1039.19,488.49 1036.6,487.711 1036.33,487.436C1036.05,487.161 1036.5,484.413 1037.33,481.33C1038.78,475.97 1039.03,475.757 1043.09,476.491C1062.07,479.925 1070.67,478.769 1070.67,472.783C1070.67,468.573 1068.92,467.454 1058,464.652C1041.18,460.337 1036.32,455.222 1037.67,443.257C1038.44,436.477 1040.87,433.156 1047.32,430.094C1052.55,427.617 1067.12,427.461 1076,429.788C1082.4,431.465 1082.96,432.871 1080.18,440.195L1078.91,443.537L1069.12,441.606C1058.51,439.513 1052.73,440.555 1051.08,444.854C1049.77,448.257 1054.7,451.395 1065.53,454.049C1078.13,457.136 1084,462.189 1084.88,470.712C1085.66,478.278 1082.17,485.113 1075.89,488.331C1070.82,490.928 1051.62,491.403 1042.08,489.167ZM1112.67,488.852C1102.78,484.253 1097.33,474.092 1097.33,460.242C1097.33,439.188 1107.25,428.059 1126,428.059C1135.38,428.059 1144.07,431.495 1147.35,436.504C1153.14,445.337 1150.39,457.929 1141.79,462.012C1139.21,463.232 1131.7,465.044 1125.08,466.039C1118.46,467.033 1112.88,468.031 1112.68,468.257C1111.42,469.662 1115.21,474.879 1118.85,476.76C1123.08,478.949 1133.19,478.886 1140.81,476.623C1143.24,475.902 1143.82,476.573 1145.09,481.553C1146.04,485.324 1146.1,487.771 1145.24,488.627C1143.05,490.814 1117.27,490.992 1112.67,488.852ZM1122,455.313C1132.71,453.964 1136,452.249 1136,448.002C1136,443.528 1133.66,441.412 1127.79,440.556C1120.31,439.468 1113.37,445.067 1111.41,453.773C1110.69,456.964 1110.93,457.439 1112.95,456.849C1114.26,456.466 1118.33,455.774 1122,455.313ZM1166.28,489.839C1165.76,489.317 1165.33,475.453 1165.33,459.031L1165.33,429.172L1170.22,429.586C1174.42,429.941 1175.32,430.624 1176.59,434.407L1178.06,438.814L1181.19,435.482C1185.26,431.154 1192.01,428 1197.2,428C1201.19,428 1201.33,428.198 1201.33,433.842C1201.33,439.643 1201.29,439.694 1195.4,441.178C1191.26,442.22 1188.5,443.982 1186.26,447.003C1181.46,453.503 1181.05,455.265 1180.16,473.333L1179.33,490L1173.28,490.395C1169.96,490.612 1166.81,490.362 1166.28,489.839ZM1235.6,489.73C1235.26,489.145 1233.1,483.175 1230.81,476.463C1228.51,469.751 1223.37,456.401 1219.39,446.796L1212.14,429.333L1226.83,429.333L1230.58,437.667C1234.86,447.169 1239.19,459.233 1241.47,468L1243.03,474L1246.05,464.261C1247.71,458.904 1251.38,448.854 1254.2,441.928L1259.33,429.335L1266.33,429.334C1270.34,429.334 1273.33,429.933 1273.33,430.735C1273.33,431.505 1270.85,437.955 1267.81,445.068C1264.76,452.181 1259.73,465.2 1256.62,474L1250.96,490L1243.6,490.396C1239.55,490.614 1235.95,490.314 1235.6,489.73ZM1292.95,489.839C1292.43,489.317 1292,478.229 1292,465.2L1292,441.51L1288.39,441.089C1285.14,440.71 1284.77,440.123 1284.72,435.333L1284.67,430L1295.69,429.612L1306.72,429.225L1306.36,459.612L1306,490L1299.95,490.395C1296.62,490.612 1293.47,490.362 1292.95,489.839ZM1335.71,487.994C1325.11,482.259 1319.68,467.805 1322.33,452.34C1325.63,433.072 1341.84,424.059 1363.41,429.492C1366.67,430.312 1369.33,431.292 1369.33,431.67C1369.33,434.516 1365.96,442.66 1364.79,442.634C1363.99,442.616 1360.74,442.004 1357.58,441.274C1343.93,438.126 1336.01,444.759 1336.01,459.333C1336.01,468.664 1339.28,475.268 1345,477.491C1348.6,478.891 1359.83,478.41 1364.25,476.667C1366.01,475.971 1366.85,476.956 1368.14,481.267C1370.48,489.076 1369.11,489.933 1353.6,490.338C1342.75,490.622 1339.87,490.244 1335.71,487.994ZM1396.67,488.648C1390.33,485.227 1387.1,481.574 1383.95,474.26C1381.52,468.611 1381.12,465.687 1381.62,457.109C1382.71,438.247 1392.66,428.118 1410.17,428.038C1425.42,427.967 1433.38,433.865 1434.39,445.974C1435.44,458.704 1430.48,462.722 1409.49,466.12C1403.33,467.117 1397.97,468.249 1397.59,468.635C1396.13,470.091 1400.51,475.887 1404.23,477.427C1407.93,478.963 1418.18,478.545 1424.91,476.583C1427.45,475.844 1428.02,476.464 1429.34,481.37C1430.45,485.464 1430.46,487.407 1429.4,488.471C1428.59,489.279 1421.82,490.13 1414.3,490.37C1403.65,490.71 1399.79,490.333 1396.67,488.648ZM1414.32,453.925C1420.05,452.987 1422.27,448.96 1419.44,444.64C1416.69,440.451 1409.59,439.107 1404.4,441.794C1399.12,444.524 1397.35,446.889 1396.45,452.393L1395.7,457.024L1402.85,455.827C1406.78,455.17 1411.94,454.313 1414.32,453.925ZM1453.33,489.093C1450.77,488.36 1448.48,487.575 1448.25,487.348C1448.01,487.121 1448.5,484.413 1449.33,481.33C1450.78,475.97 1451.03,475.757 1455.09,476.491C1466.29,478.517 1477,478.938 1479.76,477.46C1484.11,475.133 1483.57,469.871 1478.73,467.368C1476.57,466.249 1474.11,465.333 1473.27,465.333C1468.44,465.333 1456.27,460.472 1453.06,457.26C1449.89,454.099 1449.33,452.447 1449.33,446.282C1449.33,437.846 1452.47,432.782 1459.51,429.838C1464.79,427.634 1479.68,427.607 1488,429.788C1494.4,431.465 1494.96,432.872 1492.18,440.188L1490.91,443.523L1481.12,441.647C1470.63,439.637 1464.69,440.644 1463.14,444.696C1461.74,448.33 1466.35,451.437 1476.76,453.893C1483.87,455.567 1488.26,457.476 1491.45,460.279C1495.59,463.917 1496,464.934 1496,471.599C1496,480.352 1493.18,485.801 1487.19,488.645C1482.28,490.978 1460.92,491.26 1453.33,489.093ZM1292,413.333C1288.67,410.002 1288.56,403.785 1291.77,400.873C1297.78,395.434 1307.65,400.662 1306.12,408.472C1304.66,415.914 1297.16,418.495 1292,413.333ZM88.667,353.822C72.557,351.341 54.864,341.871 44.66,330.267C37.16,321.738 30.059,307.908 27.929,297.683C26.968,293.073 26.6,284.634 27.008,276.585C27.604,264.805 28.269,261.91 32.459,252.841C38.984,238.719 42.193,235.013 69.882,209.625C83.147,197.463 100.9,181.137 109.333,173.346C117.767,165.555 127.967,156.244 132,152.654C136.033,149.065 143.533,142.104 148.667,137.186C163.2,123.262 170.597,120.374 180.801,124.637C185.538,126.616 216.317,153.923 217.068,156.812C217.497,158.462 198.32,176.397 195.414,177.064C194.462,177.283 189.402,173.533 184.169,168.731C178.937,163.929 173.837,160 172.837,160C171.836,160 162.389,167.904 151.842,177.565C141.296,187.226 126.697,200.576 119.4,207.232C112.103,213.888 101.903,223.275 96.733,228.093C91.563,232.911 82.833,240.994 77.333,246.055C61.626,260.508 58.136,267.201 58.226,282.7C58.369,307.249 80.719,325.873 104.713,321.438C117.592,319.057 122.854,315.388 143.271,294.55C164.568,272.815 167.853,270.78 177.46,273.367C182.156,274.632 186.187,278.079 201.705,294.103C224.261,317.395 231.596,321.879 247.198,321.919C258.727,321.947 267.38,318.437 275.589,310.401C283.798,302.366 287.288,293.608 287.173,281.333C287.016,264.546 283.776,259.539 258.325,236.757C252.646,231.674 248,226.874 248.001,226.091C248.001,224.579 268.479,205.333 270.088,205.333C271.208,205.333 279.553,212.744 293.197,225.855C312.136,244.055 319.279,259.496 319.169,282C319.116,292.825 318.455,297.168 315.656,305.084C302.27,342.943 263.327,362.511 224.955,350.659C210.082,346.065 198.135,336.671 182.998,317.667C178.179,311.617 173.556,306.667 172.725,306.667C171.894,306.667 168.841,309.799 165.941,313.627C150.722,333.712 135.386,346.376 120.859,350.857C112.552,353.419 95.967,354.946 88.667,353.822ZM768,352.45C746.868,350.265 733.303,345.153 722.959,335.477C702.297,316.151 699.932,280.378 717.988,260.295C731.976,244.737 753.393,238.667 794.298,238.667C815.341,238.667 814.909,238.893 810.826,230C807.822,223.458 805.03,220.895 797.075,217.377C784.841,211.965 769.511,212.452 746.938,218.971C738.552,221.393 736.956,221.52 735.379,219.89C734.372,218.851 730.757,208.765 727.344,197.478C722.202,180.469 721.442,176.655 722.903,175.202C723.873,174.237 731.867,171.504 740.667,169.128C755.843,165.031 757.901,164.805 780.667,164.737C801.891,164.675 805.893,165.022 815.273,167.738C845.098,176.373 863.796,195.404 867.931,221.333C869.694,232.386 869.826,346.205 868.078,347.285C865.943,348.605 842.026,349.76 836.871,348.793C832.983,348.064 831.471,346.856 829.427,342.85C824.742,333.667 823.727,333.509 813.631,340.396C800.238,349.533 783.234,354.025 768,352.45ZM795.691,303.27C804.626,299.536 810.714,291.545 812.704,280.938L813.63,276L793.35,276C770.344,276 765.922,277.211 761.941,284.604C759.758,288.657 759.716,289.537 761.482,294.179C764.47,302.03 770.421,305.333 781.573,305.333C786.842,305.333 792.856,304.454 795.691,303.27ZM622.667,348.382C620.833,348.024 618.893,347.042 618.354,346.199C617.815,345.356 617.365,318.997 617.354,287.624C617.332,226.789 617.167,225.09 610.711,219.333C608.312,217.195 605.834,216.667 598.193,216.667C586.266,216.667 581.747,219.509 576.416,230.366L572.667,238L572,292.667L571.333,347.333L543.429,347.694C521.996,347.972 515.276,347.663 514.45,346.361C513.858,345.429 513.365,318.997 513.354,287.624C513.331,224.579 513.23,223.735 505.08,218.623C499.016,214.82 486.419,215.429 480.246,219.825C469.589,227.413 467.96,238.18 468.061,300.352C468.102,325.112 467.769,345.962 467.322,346.685C466.83,347.481 455.554,348 438.731,348C414.63,348 410.845,347.721 410.143,345.891C409.698,344.731 409.333,304.951 409.333,257.491C409.333,192.154 409.722,170.811 410.933,169.6C412.004,168.53 417.852,168.008 428.6,168.024L444.667,168.048L449.051,174.752C451.462,178.439 454.281,181.781 455.316,182.178C456.35,182.575 461.142,180.084 465.965,176.642C477.77,168.218 486.251,165.166 500.158,164.336C518.041,163.269 531.35,167.276 545.669,178.04C550.03,181.318 554.952,184 556.607,184C558.262,184 562.253,182.016 565.475,179.592C581.27,167.705 591.54,163.992 608.542,164.02C641.828,164.074 663.281,178.14 672.952,206.253C674.861,211.801 675.226,221.648 675.659,279.187C675.982,322.119 675.69,346.177 674.836,347.031C673.469,348.398 628.687,349.558 622.667,348.382ZM902.598,347.4C901.902,346.703 901.333,345.639 901.333,345.035C901.333,343.492 929.915,291.766 936.376,281.616C939.311,277.005 945.815,269.434 950.828,264.792L959.943,256.353L952.786,250.642C940.632,240.944 936.516,234.676 906.564,180.251C899.491,167.399 898.211,168 932.686,168L962.706,168L965.35,172.333C966.804,174.717 972.611,185.517 978.254,196.333C983.898,207.15 989.295,216 990.249,216C991.203,216 996.56,206.85 1002.15,195.667C1007.75,184.483 1013.49,173.683 1014.92,171.667L1017.51,168L1047.42,168C1075.64,168 1077.33,168.14 1077.33,170.467C1077.33,173.905 1043.96,233.48 1037.87,240.909C1035.13,244.253 1030.01,249.058 1026.49,251.586L1020.1,256.182L1031.1,267.091C1041.27,277.179 1043.32,280.206 1058.25,307.333C1078.64,344.387 1079.14,345.394 1077.73,346.801C1077.09,347.44 1063.92,348.229 1048.45,348.555C1025.08,349.048 1019.85,348.815 1017.51,347.173C1015.96,346.087 1010.5,336.979 1005.38,326.932C993.999,304.606 990.985,299.646 989.397,300.627C988.721,301.045 983.539,310.225 977.881,321.027C972.223,331.829 966.46,342.294 965.075,344.284L962.555,347.901L933.209,348.284C915.898,348.51 903.343,348.147 902.598,347.4ZM1153.39,348.302C1135.75,348.041 1128.49,347.475 1127.75,346.302C1127.17,345.403 1126.7,316.317 1126.69,281.667L1126.67,218.667L1116.27,218.667C1109.96,218.667 1105.24,218.038 1104.27,217.067C1102.42,215.224 1101.98,172.474 1103.78,169.646C1104.61,168.334 1113.72,168.038 1144.76,168.313L1184.67,168.667L1184.67,347.141L1181.33,347.904C1179.5,348.324 1166.93,348.503 1153.39,348.302ZM1228.86,348.234C1226.82,347.835 1226.67,340.72 1226.99,258.234L1227.33,168.667L1244.11,168.295L1260.89,167.924L1265.07,174.656C1267.37,178.358 1270.14,181.728 1271.23,182.144C1272.35,182.574 1276.83,180.309 1281.63,176.884C1295.64,166.883 1302.18,164.812 1320,164.734C1338.42,164.653 1347.13,167.369 1361.07,177.534C1365.95,181.09 1371.17,184 1372.67,184C1374.17,184 1380.17,180.684 1385.99,176.631C1399.41,167.292 1409.65,163.993 1425.14,164.02C1452.6,164.067 1473.32,174.826 1483.79,194.475C1491.62,209.162 1491.96,212.837 1491.98,282.953C1492,345.515 1491.95,346.597 1489.3,348.02C1485.17,350.227 1436.01,348.829 1434.51,346.461C1433.89,345.474 1433.37,318.505 1433.35,286.531L1433.33,228.394L1430.29,223.883C1426.38,218.075 1422.22,216.044 1414.2,216.02C1400.85,215.979 1392.25,224.485 1389.46,240.505C1388.58,245.545 1388,268.339 1388,297.697C1388,329.119 1387.52,346.806 1386.65,347.342C1384.19,348.865 1333,348.051 1331.08,346.458C1329.63,345.255 1329.31,333.983 1329.36,287.182C1329.44,225.32 1329.45,225.474 1322.66,219.33C1320.3,217.191 1317.85,216.667 1310.19,216.667C1298.62,216.667 1293.81,219.484 1289.12,229.009C1286.03,235.278 1286,235.799 1285.67,288.667C1285.48,318 1285.03,343.326 1284.65,344.947C1283.99,347.848 1283.57,347.899 1257.52,348.28C1242.97,348.493 1230.07,348.472 1228.86,348.234ZM163.153,258.286C158.573,255.681 128,227.698 128.001,226.112C128.002,224.244 148.65,205.333 150.688,205.333C151.54,205.333 156.51,209.233 161.733,214C166.955,218.767 171.992,222.667 172.925,222.667C174.533,222.667 270.518,135.634 277.123,128.188C287.341,116.666 290.103,98.971 283.81,85.333C279.261,75.475 274.928,70.638 266.444,65.944C260.238,62.511 257.976,62.01 248.667,62.006C231.095,61.996 228.031,63.769 203.095,88.363C182.644,108.534 181.208,109.675 175.45,110.324C172.053,110.707 167.647,110.292 165.449,109.381C163.289,108.486 153.07,99.115 142.74,88.556C119.225,64.518 115.027,62.028 98,62.017C84.049,62.009 80.159,63.568 70.317,73.109C59.476,83.62 55.786,100.061 60.819,115.429C62.638,120.984 65.773,124.731 81.102,139.669C96.687,154.857 98.959,157.589 97.283,159.126C96.211,160.109 90.967,164.946 85.631,169.874L75.928,178.834L70.964,174.871C68.234,172.692 59.869,164.951 52.375,157.669C40.446,146.078 38.039,142.95 33.042,132.548C27.389,120.782 27.329,120.504 26.872,103.902C26.46,88.904 26.751,86.163 29.633,77.902C37.171,56.292 53.279,39.999 74.516,32.502C86.713,28.197 109.498,28.014 121.709,32.124C135.847,36.883 153.888,52.006 166.687,69.829C169.124,73.223 171.888,76 172.829,76C173.769,76 176.498,73.15 178.893,69.667C185.057,60.701 202.121,43.76 210,38.782C220.582,32.097 231.503,29.333 247.333,29.333C257.204,29.333 263.43,30.068 269.526,31.952C290.703,38.497 308.683,56.387 316.222,78.413C320.581,91.149 320.594,111.684 316.251,124.254C310.244,141.64 306.752,145.467 245.501,201.815C213.887,230.898 186.066,255.885 183.677,257.342C178.717,260.366 167.701,260.873 163.153,258.286ZM1137.69,141.791C1125.16,137.355 1117.63,123.007 1118.99,106.139C1120.07,92.635 1126.72,83.014 1138.01,78.632C1144.16,76.243 1159.77,76.621 1166.36,79.318C1181.01,85.304 1188.16,105.981 1181.92,124.282C1176.47,140.282 1156.15,148.327 1137.69,141.791Z" style="fill-rule:nonzero;"/>
        </g>
    </g>
</svg>
