<?xml version="1.0" encoding="UTF-8" standalone="no"?>
<svg
   width="336"
   height="180"
   viewBox="0 0 336 180"
   fill="none"
   version="1.1"
   id="svg585"
   sodipodi:docname="nThrive-Logo.svg"
   xmlns:inkscape="http://www.inkscape.org/namespaces/inkscape"
   xmlns:sodipodi="http://sodipodi.sourceforge.net/DTD/sodipodi-0.dtd"
   xmlns="http://www.w3.org/2000/svg"
   xmlns:svg="http://www.w3.org/2000/svg">
  <defs
     id="defs589" />
  <sodipodi:namedview
     id="namedview587"
     pagecolor="#ffffff"
     bordercolor="#666666"
     borderopacity="1.0"
     inkscape:showpageshadow="2"
     inkscape:pageopacity="0.0"
     inkscape:pagecheckerboard="0"
     inkscape:deskcolor="#d1d1d1"
     showgrid="false" />
  <path
     d="m 141.04566,108.62363 c -6.60174,0.30861 -11.5337,-3.16378 -11.5337,-10.494404 V 74.247024 h -3.88348 v -3.163786 h 3.88348 V 56.807867 h 3.88332 v 14.275371 h 7.65038 v 3.163786 h -7.65038 v 23.882202 c 0,4.437074 2.83501,7.099254 7.65038,7.022014 z"
     fill="white"
     id="path529"
     style="fill:#000000;fill-opacity:1;stroke-width:1.63978" />
  <path
     d="m 155.71084,57.717435 v 15.558349 c 3.55618,-1.745542 6.65864,-2.124987 9.49611,-2.16303 9.87441,-0.151679 17.55463,5.957801 17.55463,16.583062 v 20.946844 h -3.78329 V 87.695816 c -0.0758,-7.930944 -6.16688,-12.93997 -13.77134,-12.93997 -3.405,0 -5.63723,0.493245 -9.49611,1.897222 v 31.989592 h -3.78346 V 57.717435 Z"
     fill="white"
     id="path531"
     style="fill:#000000;fill-opacity:1;stroke-width:1.63978" />
  <path
     d="m 195.79846,71.824909 0.56703,4.782409 c 4.34541,-6.983809 13.03623,-5.579504 17.23078,-3.795591 l -1.51188,3.11246 c -6.87722,-3.340225 -15.86976,0.417487 -15.64347,9.071409 v 23.646734 h -3.70327 V 71.787031 h 3.06081 z"
     fill="white"
     id="path533"
     style="fill:#000000;fill-opacity:1;stroke-width:1.63978" />
  <path
     d="m 226.29306,63.342017 h -4.53399 v -5.624582 h 4.53399 z m -4.44708,45.300643 V 71.664867 h 4.40444 v 36.977793 z"
     fill="white"
     id="path535"
     style="fill:#000000;fill-opacity:1;stroke-width:1.63978" />
  <path
     d="m 248.39397,105.55742 h 0.30992 l 11.62273,-34.199683 h 4.05517 l -13.09034,37.284593 h -5.48341 L 232.64063,71.357737 h 4.01582 z"
     fill="white"
     id="path537"
     style="fill:#000000;fill-opacity:1;stroke-width:1.63978" />
  <path
     d="m 301.75066,90.587886 v 0.15168 c 0,4.02057 -1.54795,7.5479 -4.64057,10.506544 -3.09426,2.92045 -6.80671,4.39969 -11.09801,4.39969 -4.40936,0 -8.15952,-1.51712 -11.098,-4.51349 -0.38699,-0.37928 -0.77398,-0.83448 -1.16097,-1.327564 l 28.61575,-19.571554 -0.0771,-0.1138 c -1.70209,-2.655127 -3.98302,-4.817008 -6.84443,-6.372172 -2.86141,-1.593043 -6.03274,-2.389483 -9.39756,-2.389483 -5.52933,0 -10.09283,1.858523 -13.6495,5.461768 -3.51896,3.641288 -5.29812,8.079016 -5.29812,13.237421 0,5.19629 1.85623,9.6719 5.52933,13.237274 3.67474,3.56536 8.39237,5.34813 13.99877,5.34813 5.10462,0 9.51234,-1.78277 13.14773,-5.31009 3.59603,-3.527494 5.4129,-7.775664 5.4129,-12.592674 v -0.15168 z M 297.49708,79.588432 271.9756,96.997946 c -1.00683,-2.04825 -1.5086,-4.32393 -1.5086,-6.75146 0,-4.286046 1.5086,-8.04097 4.44708,-11.151135 2.93848,-3.110328 6.68864,-4.703371 11.13572,-4.703371 4.71764,-0.03788 8.58587,1.706843 11.44728,5.196452 z"
     fill="white"
     id="path539"
     style="fill:#000000;fill-opacity:1;stroke-width:1.63978" />
  <path
     d="m 111.25485,114.63833 c 0.95255,1.06979 1.9433,2.13959 2.89568,3.17117 2.85764,-3.82068 6.43924,-9.13126 8.53488,-18.109864 -1.25738,-0.11462 -2.55281,-0.22924 -3.81019,-0.30565 -2.01938,8.138044 -5.14365,12.073344 -7.62037,15.244344 z"
     fill="#126F72"
     id="path541"
     style="fill:#000000;fill-opacity:1;stroke-width:1.63978" />
  <path
     d="m 119.33206,97.176676 c 1.29543,0 2.59085,0.0382 3.84823,0.0382 0.53342,-3.13296 0.72396,-6.30412 0.60967,-9.43708 -1.33363,0.34386 -2.6671,0.68772 -3.96252,1.06979 0.15234,2.71268 0,5.53998 -0.49538,8.32908 z"
     fill="#126F72"
     id="path543"
     style="fill:#000000;fill-opacity:1;stroke-width:1.63978" />
  <path
     d="m 119.56065,86.175251 c 1.33347,-0.458481 2.6671,-0.95517 4.00056,-1.413651 -0.41912,-4.049921 -1.37151,-8.023264 -2.85747,-11.805737 -1.33363,0.993377 -2.62906,1.986754 -3.96269,2.980131 1.40972,3.28562 2.36227,6.724232 2.8196,10.239257 z"
     fill="#00515B"
     id="path545"
     style="fill:#000000;fill-opacity:1;stroke-width:1.63978" />
  <path
     d="m 115.67487,73.718196 c 1.29542,-1.146204 2.59101,-2.292408 3.88644,-3.476819 -1.10505,-2.368821 -2.40047,-4.661229 -3.88644,-6.80081 -1.18113,1.528272 -2.40047,3.056544 -3.65769,4.584816 1.37168,1.795719 2.59085,3.706059 3.65769,5.692813 z"
     fill="#003247"
     id="path547"
     style="fill:#000000;fill-opacity:1;stroke-width:1.63978" />
  <path
     d="m 110.33953,66.039121 c 1.14309,-1.719305 2.28618,-3.476818 3.42926,-5.119546 -1.90509,-2.407078 -4.07697,-4.623072 -6.47728,-6.609809 -0.9145,2.177771 -1.86705,4.355542 -2.78155,6.533395 2.13368,1.528108 4.07698,3.285621 5.82957,5.19596 z"
     fill="#262261"
     id="path549"
     style="fill:#000000;fill-opacity:1;stroke-width:1.63978" />
  <path
     d="m 99.25333,57.632167 c 1.18113,0.573102 2.28601,1.222601 3.35285,1.872116 0.83825,-2.292391 1.71455,-4.622989 2.5528,-6.915381 -2.13367,-1.566462 -4.45789,-3.01832 -6.93445,-4.240921 -0.19054,-0.114621 -0.38108,-0.191034 -0.60967,-0.267448 -0.49537,2.712666 -0.95254,5.463539 -1.44792,8.176189 1.0288,0.458482 2.05759,0.878756 3.08639,1.375445 z"
     fill="#662D91"
     id="path551"
     style="fill:#000000;fill-opacity:1;stroke-width:1.63978" />
  <path
     d="m 94.03261,55.530645 c 0.34287,-2.865477 0.68591,-5.692763 1.02879,-8.558256 -3.16247,-1.260808 -6.40103,-2.177766 -9.6778,-2.712658 0.22859,3.247553 0.45717,6.456891 0.68576,9.704452 2.6671,0.229241 5.33419,0.764136 7.96325,1.566462 z"
     fill="#9E1F63"
     id="path553"
     style="fill:#000000;fill-opacity:1;stroke-width:1.63978" />
  <path
     d="M 83.59198,53.850629 C 83.28715,50.488463 82.90623,47.164488 82.4489,43.878735 78.52442,43.49667 74.5619,43.649496 70.71367,44.2608 c 1.25738,3.514997 2.5528,7.030006 3.81019,10.544999 2.97193,-0.687723 5.9819,-0.993377 9.06812,-0.95517 z"
     fill="#9E1F63"
     id="path555"
     style="fill:#000000;fill-opacity:1;stroke-width:1.63978" />
  <path
     d="m 71.82003,55.569721 c -1.48597,-3.553199 -2.97193,-7.106415 -4.4579,-10.621412 -3.16247,0.764124 -6.24869,1.872121 -9.22062,3.285757 2.24797,3.438595 4.53414,6.877174 6.78211,10.315769 2.20993,-1.222617 4.53415,-2.215978 6.89641,-2.980114 z"
     fill="#BE1E2D"
     id="path557"
     style="fill:#000000;fill-opacity:1;stroke-width:1.63978" />
  <path
     d="m 62.37049,60.155439 c -2.47656,-3.40034 -4.99132,-6.800728 -7.46787,-10.162893 -4.00073,2.330598 -7.65848,5.310712 -10.82092,8.825704 3.467242,2.827254 6.97253,5.654557 10.43983,8.48186 2.28618,-2.789096 4.91524,-5.196125 7.84896,-7.144671 z"
     fill="#DA1C5C"
     id="path559"
     style="fill:#000000;fill-opacity:1;stroke-width:1.63978" />
  <path
     d="m 103.36818,121.70741 c 0.64788,1.56632 1.33363,3.171 1.98135,4.73748 2.59101,-1.91034 4.99131,-4.12617 7.1632,-6.60961 -0.91451,-1.18441 -1.82901,-2.33062 -2.74335,-3.51503 -1.94314,2.06317 -4.11502,3.85889 -6.4012,5.38716 z"
     fill="#126F72"
     id="path561"
     style="fill:#000000;fill-opacity:1;stroke-width:1.63978" />
  <path
     d="m 91.36617,126.90206 c 0.038,2.21583 0.0382,4.39362 0.0762,6.60961 4.00072,-1.22262 7.84895,-3.01833 11.39234,-5.27237 -0.57146,-1.71931 -1.14308,-3.43861 -1.6765,-5.11971 -3.08623,1.6811 -6.36299,2.98013 -9.79209,3.78247 z"
     fill="#00515B"
     id="path563"
     style="fill:#000000;fill-opacity:1;stroke-width:1.63978" />
  <path
     d="m 81.91646,127.85674 c -0.68592,2.55985 -1.37167,5.0815 -2.05759,7.64136 2.85764,-0.11462 5.71528,-0.49669 8.49667,-1.14621 0.15249,-2.33061 0.30483,-4.62302 0.49537,-6.95363 -2.28601,0.38206 -4.61023,0.53489 -6.93445,0.45848 z"
     fill="#003247"
     id="path565"
     style="fill:#000000;fill-opacity:1;stroke-width:1.63978" />
  <path
     d="m 72.16225,126.25172 c -1.48597,2.67448 -2.97193,5.38716 -4.49594,8.06164 2.89568,0.68772 5.82957,1.06979 8.76346,1.1462 0.87629,-2.52165 1.82884,-5.15791 2.81943,-7.79418 -2.36226,-0.19104 -4.76273,-0.68773 -7.08695,-1.41366 z"
     fill="#262261"
     id="path567"
     style="fill:#000000;fill-opacity:1;stroke-width:1.63978" />
  <path
     d="m 66.67572,124.07459 c -0.95255,-0.45848 -1.86705,-0.99337 -2.74335,-1.52827 -2.36242,2.63627 -4.68664,5.27238 -6.97265,7.79402 0.30483,0.15283 0.57146,0.30566 0.83825,0.45849 2.17172,1.06979 4.38165,1.94854 6.62962,2.63626 1.75275,-2.63626 3.5816,-5.31074 5.3724,-8.02342 -1.0288,-0.38191 -2.09564,-0.80218 -3.12427,-1.33708 z"
     fill="#662D91"
     id="path569"
     style="fill:#000000;fill-opacity:1;stroke-width:1.63978" />
  <path
     d="m 55.77941,115.89752 c -3.27677,2.17779 -6.515327,4.35557 -9.792126,6.49499 2.40042,2.36882 5.105646,4.5084 8.115616,6.34233 2.5528,-2.52165 5.14382,-5.0433 7.69662,-7.56478 -2.24797,-1.56648 -4.26736,-3.32399 -6.02011,-5.27254 z"
     fill="#9E1F63"
     id="path571"
     style="fill:#000000;fill-opacity:1;stroke-width:1.63978" />
  <path
     d="m 49.759295,107.03567 c -4.03872,1.45186 -8.07749,2.94193 -12.078185,4.279 1.676491,3.13296 3.695876,6.07488 6.09628,8.78756 4.153095,-2.40702 7.42983,-4.39378 10.28747,-6.1895 -1.67651,-2.13941 -3.12427,-4.47003 -4.305565,-6.87706 z"
     fill="#9E1F63"
     id="path573"
     style="fill:#000000;fill-opacity:1;stroke-width:1.63978" />
  <path
     d="m 46.633783,97.366726 c -4.534098,0.42028 -9.030103,0.80234 -13.526105,1.18441 0.64773,3.323994 1.676472,6.571574 3.048145,9.666324 4.153079,-1.18441 8.344266,-2.36882 12.535486,-3.59144 -0.914471,-2.33061 -1.6384,-4.775854 -2.057526,-7.259294 z"
     fill="#BE1E2D"
     id="path575"
     style="fill:#000000;fill-opacity:1;stroke-width:1.63978" />
  <path
     d="m 46.786544,83.383859 c -4.534097,-1.06979 -9.068211,-2.177787 -13.60231,-3.247577 -1.028746,4.890469 -1.219254,9.857194 -0.647728,14.709454 4.572207,-0.11462 9.144413,-0.19104 13.716619,-0.30566 -0.381019,-3.66785 -0.228618,-7.412115 0.533419,-11.156217 z"
     fill="#DA1C5C"
     id="path577"
     style="fill:#000000;fill-opacity:1;stroke-width:1.63978" />
  <path
     d="m 49.834233,74.559073 c 0.800207,-1.642892 1.752757,-3.209371 2.743347,-4.699436 -3.695729,-2.674476 -7.353563,-5.310745 -11.049439,-7.985056 -1.752675,2.292407 -3.276749,4.775685 -4.610314,7.488368 -1.104947,2.215994 -1.981293,4.508402 -2.705222,6.80081 4.457897,1.337237 8.915811,2.674475 13.373707,4.011713 0.609637,-1.91034 1.333582,-3.782473 2.247921,-5.616399 z"
     fill="#EF4136"
     id="path579"
     style="fill:#000000;fill-opacity:1;stroke-width:1.63978" />
  <path
     d="m 78.52507,72.799921 c 5.48653,-1.948383 10.24926,-2.521485 15.35487,-2.521485 10.51605,0 19.12718,4.622858 19.12718,16.963654 v 21.62489 h -8.00146 V 87.24209 c 0,-7.603153 -5.71527,-9.971974 -11.84951,-9.971974 -2.13385,0 -4.4579,0.611309 -6.43924,1.107997 V 108.86698 H 78.56312 V 72.799921 Z"
     fill="white"
     id="path581"
     style="fill:#000000;fill-opacity:1;stroke-width:1.63978" />
  <path
     d="m 307.40133,75.170054 c 0,-0.649516 0.1525,-1.260824 0.4575,-1.79572 0.305,-0.573101 0.72478,-0.993376 1.25771,-1.299031 0.53292,-0.305654 1.10521,-0.496688 1.7152,-0.496688 0.60836,0 1.18064,0.152827 1.71357,0.496688 0.53457,0.305655 0.95271,0.764136 1.25771,1.299031 0.305,0.573102 0.4575,1.146204 0.4575,1.79572 0,0.649515 -0.1525,1.222617 -0.41979,1.795719 -0.30499,0.573102 -0.68542,0.993377 -1.21835,1.337238 -0.53457,0.343861 -1.10521,0.496689 -1.75292,0.496689 -0.64771,0 -1.22,-0.152828 -1.75292,-0.496689 -0.53293,-0.343861 -0.95271,-0.764136 -1.22,-1.337238 -0.26564,-0.573102 -0.49521,-1.146204 -0.49521,-1.795719 z m 0.53457,0 c 0,0.573102 0.11314,1.06979 0.38043,1.528272 0.26728,0.458481 0.60999,0.840549 1.06749,1.107997 0.45586,0.267447 0.91336,0.420275 1.44792,0.420275 0.53293,0 0.99043,-0.152828 1.44793,-0.420275 0.45585,-0.267448 0.80021,-0.649516 1.02814,-1.107997 0.26728,-0.458482 0.38042,-0.993377 0.38042,-1.528272 0,-0.534895 -0.11314,-1.06979 -0.38042,-1.528272 -0.26729,-0.458482 -0.61,-0.840549 -1.02814,-1.107997 -0.4575,-0.267448 -0.915,-0.420275 -1.44793,-0.420275 -0.49521,0 -0.99206,0.114621 -1.44792,0.382068 -0.4575,0.267448 -0.80021,0.649516 -1.06749,1.107997 -0.22793,0.496689 -0.38043,0.993377 -0.38043,1.566479 z m 2.17106,0.343861 v 1.642892 h -0.68542 V 73.06868 h 1.33313 c 0.49522,0 0.87728,0.11462 1.14293,0.305654 0.26728,0.229241 0.41978,0.534896 0.41978,0.916964 0,0.382068 -0.19021,0.687722 -0.61,0.916963 0.38043,0.152827 0.57229,0.496688 0.61,0.993376 v 0.305655 c 0,0.267447 0.0377,0.458481 0.0754,0.611309 v 0.07641 h -0.68543 c -0.0377,-0.11462 -0.0754,-0.305654 -0.0754,-0.611309 0,-0.305654 0,-0.458481 0,-0.534895 -0.0394,-0.305654 -0.26728,-0.458481 -0.64771,-0.496688 h -0.87728 z m 0,-0.611309 h 0.7625 c 0.22793,0 0.41814,-0.07641 0.57064,-0.152827 0.1525,-0.07641 0.22957,-0.229241 0.22957,-0.420275 0,-0.22924 -0.0771,-0.382068 -0.19021,-0.496688 -0.11479,-0.11462 -0.34436,-0.152827 -0.68707,-0.152827 h -0.64771 v 1.222617 z"
     fill="white"
     id="path583"
     style="fill:#000000;fill-opacity:1;stroke-width:1.63978" />
</svg>
