<?xml version="1.0" encoding="UTF-8" standalone="no"?>
<!-- Created with Inkscape (http://www.inkscape.org/) -->

<svg
   width="336"
   height="180"
   viewBox="0 0 88.9 47.625001"
   version="1.1"
   id="svg5"
   xmlns="http://www.w3.org/2000/svg"
   xmlns:svg="http://www.w3.org/2000/svg">
  <defs
     id="defs2" />
  <g
     id="layer1">
    <path
       style="fill:#000000;stroke-width:0.0178997"
       d="m 29.378149,33.570397 -0.0085,-0.02247 0.0046,-6.936122 0.0046,-6.936122 1.565228,-0.0046 1.565225,-0.0046 0.01526,0.01526 0.01526,0.01526 0.01095,0.530776 0.01095,0.530777 h 0.01581 0.01581 l 0.133537,-0.116462 0.133537,-0.116462 0.177165,-0.131851 0.177166,-0.13185 0.150794,-0.09108 0.150794,-0.09108 0.256096,-0.125069 0.256094,-0.125069 0.274624,-0.09027 0.274622,-0.09027 0.219736,-0.04344 0.219737,-0.04344 0.178996,-0.02223 0.178997,-0.02223 0.366943,-4.72e-4 0.366943,-4.73e-4 0.223746,0.03082 0.223746,0.03082 0.205846,0.04575 0.205846,0.04575 0.196897,0.06317 0.196896,0.06317 0.152147,0.06245 0.152148,0.06245 0.205846,0.104601 0.205846,0.104601 0.214796,0.140925 0.214796,0.140925 0.139481,0.111343 0.139484,0.111342 0.146911,0.134652 0.146913,0.134652 0.148906,0.164349 0.148904,0.164348 0.134503,0.175109 0.134504,0.175107 0.126817,0.200786 0.126816,0.200784 0.12052,0.241646 0.12052,0.241645 0.08125,0.205847 0.08125,0.205846 0.06277,0.208245 0.06277,0.208244 0.05408,0.268075 0.05408,0.268072 0.02921,0.275469 0.02921,0.275467 -0.0091,0.438542 -0.0091,0.438542 -0.03772,0.250595 -0.03772,0.250595 -0.06348,0.256888 -0.06348,0.256888 -0.08933,0.262202 -0.08933,0.262203 -0.167854,0.340094 -0.167856,0.340094 -0.143124,0.214796 -0.143126,0.214796 -0.154012,0.191811 -0.154014,0.191811 -0.200788,0.20087 -0.200788,0.200868 -0.178996,0.143058 -0.178997,0.143058 -0.214796,0.141622 -0.214796,0.141622 -0.286395,0.14127 -0.286394,0.141267 -0.295345,0.09722 -0.295345,0.09723 -0.223745,0.04462 -0.223746,0.04462 -0.170047,0.02352 -0.170047,0.02352 -0.393793,-8.77e-4 -0.393792,-8.6e-4 -0.214796,-0.03098 -0.214796,-0.03098 -0.196897,-0.04391 -0.196896,-0.04391 -0.220993,-0.07222 -0.220995,-0.07222 -0.181313,-0.0798 -0.181314,-0.0798 -0.197332,-0.110189 -0.197331,-0.11019 -0.132871,-0.08931 -0.132871,-0.08931 -0.18449,-0.149511 -0.18449,-0.14951 h -0.01819 -0.01819 l -0.0045,2.42988 -0.0045,2.42988 -1.624921,0.0046 -1.62492,0.0046 -0.0085,-0.02247 z m 5.993258,-6.430395 0.153078,-0.0267 0.141971,-0.04485 0.141972,-0.04485 0.133064,-0.06148 0.133064,-0.06148 0.160446,-0.105694 0.160447,-0.105694 0.138966,-0.130224 0.138968,-0.130221 0.122723,-0.163577 0.122726,-0.163576 0.08122,-0.152147 0.08122,-0.152147 0.06263,-0.170047 0.06263,-0.170047 0.03865,-0.178996 0.03865,-0.178997 0.01469,-0.223746 0.01469,-0.223746 -0.01611,-0.186149 -0.01612,-0.186151 -0.03424,-0.162893 -0.03424,-0.162894 -0.05707,-0.161097 -0.05707,-0.161097 -0.0621,-0.123366 -0.06209,-0.123367 -0.06526,-0.100379 -0.06526,-0.10038 -0.101598,-0.125297 -0.101599,-0.125298 -0.08671,-0.08296 -0.08671,-0.08296 -0.128881,-0.0984 -0.128882,-0.0984 -0.175413,-0.08961 -0.175413,-0.08961 -0.125298,-0.04434 -0.125297,-0.04434 -0.143198,-0.03373 -0.143197,-0.03374 h -0.331144 -0.331144 l -0.143197,0.03353 -0.143197,0.03353 -0.134248,0.04486 -0.134247,0.04486 -0.15257,0.07638 -0.152568,0.07638 -0.151726,0.112388 -0.151725,0.11239 -0.104914,0.09979 -0.104915,0.09979 -0.120977,0.161097 -0.120978,0.161097 -0.08335,0.154496 -0.08335,0.154496 -0.05461,0.149626 -0.05461,0.149626 -0.0427,0.17917 -0.0427,0.179168 -0.01705,0.205847 -0.01705,0.205846 0.01552,0.218036 0.01552,0.218036 0.04453,0.197683 0.04453,0.197684 0.06573,0.16602 0.06573,0.166019 0.0684,0.125298 0.06841,0.125298 0.09418,0.134077 0.09418,0.134076 0.144184,0.144405 0.144183,0.144404 0.124622,0.09199 0.124621,0.09199 0.170723,0.0885 0.170724,0.0885 0.14286,0.04863 0.142863,0.04863 0.161432,0.03236 0.161433,0.03236 0.252726,0.0015 0.252725,0.0015 0.153076,-0.02669 z m 16.972647,2.780814 -0.178997,-0.01541 -0.205846,-0.02775 -0.205846,-0.02775 -0.205846,-0.04572 -0.205847,-0.04572 -0.214796,-0.06235 -0.214796,-0.06235 -0.205846,-0.08102 -0.205846,-0.08102 -0.205846,-0.104777 -0.205846,-0.104776 -0.170047,-0.109974 -0.170047,-0.109974 -0.170047,-0.1356 -0.170047,-0.135601 -0.166622,-0.169675 -0.166623,-0.169672 -0.132932,-0.17647 -0.132932,-0.176469 -0.106913,-0.180829 -0.106915,-0.180832 -0.09181,-0.217023 -0.09181,-0.217021 -0.06206,-0.214796 -0.06206,-0.214796 -0.03504,-0.204383 -0.03504,-0.204384 -0.01753,-0.243108 -0.01753,-0.243108 1.79e-4,-3.123492 1.79e-4,-3.123493 0.01427,-0.02247 0.01427,-0.02247 1.627755,0.0046 1.627754,0.0046 0.009,3.195091 0.009,3.195091 0.04048,0.143197 0.04048,0.143198 0.05978,0.125297 0.05979,0.125298 0.08419,0.111263 0.08418,0.111262 0.101865,0.08195 0.101865,0.08195 0.143198,0.07009 0.143197,0.07009 0.152147,0.03639 0.152147,0.0364 h 0.232696 0.232696 l 0.152147,-0.03626 0.152147,-0.03626 0.152147,-0.07464 0.152148,-0.07465 0.161478,-0.161942 0.16148,-0.161944 0.05626,-0.107398 0.05626,-0.107398 0.03831,-0.114209 0.03831,-0.114207 0.02033,-0.08269 0.02033,-0.08269 0.01002,-3.186141 0.01002,-3.186141 1.63298,-0.0046 1.632981,-0.0046 0.01011,0.04037 0.01011,0.04037 -0.0064,3.25774 -0.0064,3.257739 -0.03086,0.204506 -0.03086,0.204504 -0.03568,0.162439 -0.03569,0.162438 -0.05514,0.170047 -0.05514,0.170046 -0.07341,0.170047 -0.07341,0.170047 -0.07862,0.143198 -0.07862,0.143197 -0.09818,0.146818 -0.09818,0.146819 -0.113514,0.133039 -0.113515,0.133038 -0.131004,0.129659 -0.131004,0.12966 -0.142818,0.11591 -0.142816,0.115911 -0.170428,0.112052 -0.170426,0.11205 -0.187947,0.09983 -0.187946,0.09983 -0.241646,0.09805 -0.241645,0.09805 -0.187947,0.05585 -0.187946,0.05585 -0.196897,0.04475 -0.196896,0.04475 -0.232696,0.03479 -0.232695,0.03479 -0.250596,0.01805 -0.250595,0.01805 -0.295345,-0.0023 -0.295344,-0.0023 -0.178997,-0.01541 z m -31.172273,-0.06336 -0.09845,-0.0055 -0.268495,-0.02855 -0.268495,-0.02854 -0.205846,-0.03517 -0.205847,-0.03517 -0.253594,-0.0609 -0.253595,-0.0609 -0.256546,-0.0834 -0.256546,-0.0834 -0.196896,-0.08021 -0.196896,-0.08022 -0.250596,-0.121995 -0.250595,-0.121997 -0.214796,-0.128131 -0.214796,-0.128129 -0.134248,-0.09146 -0.134247,-0.09146 -0.187947,-0.143148 -0.187946,-0.143147 -0.198901,-0.175508 -0.1989,-0.175508 -0.161012,-0.168421 -0.161011,-0.16842 -0.10602,-0.123184 -0.10602,-0.123182 -0.108703,-0.142834 -0.108703,-0.142834 -0.105885,-0.152147 -0.105885,-0.152147 -0.08256,-0.134248 -0.08255,-0.134247 -0.09948,-0.184106 -0.09948,-0.184107 -0.09168,-0.197297 -0.09168,-0.197297 -0.07889,-0.204126 -0.07889,-0.204128 -0.07171,-0.237854 -0.07171,-0.237855 -0.05232,-0.232696 -0.05232,-0.232695 -0.02919,-0.188573 -0.02919,-0.188573 -0.02598,-0.267869 -0.02598,-0.267868 -3.67e-4,-0.323795 -3.67e-4,-0.323794 0.02712,-0.284794 0.02712,-0.284795 0.03619,-0.223694 0.03619,-0.223694 0.06049,-0.250647 0.06049,-0.250647 0.0799,-0.241646 0.0799,-0.241645 0.06674,-0.170047 0.06673,-0.170047 0.130493,-0.268495 0.130494,-0.268495 0.145615,-0.241646 0.145614,-0.241645 0.115294,-0.161097 0.115293,-0.161097 0.152189,-0.190825 0.152189,-0.190825 0.242878,-0.250956 0.242879,-0.250956 0.206562,-0.175758 0.206563,-0.175757 0.226686,-0.165206 0.226686,-0.165206 0.268495,-0.159767 0.268495,-0.159767 0.187947,-0.0937 0.187946,-0.0937 0.143197,-0.0618 0.143198,-0.0618 0.214796,-0.07978 0.214796,-0.07978 0.270521,-0.07871 0.270522,-0.07871 0.221719,-0.04476 0.22172,-0.04476 0.250595,-0.03597 0.250595,-0.03597 0.304295,-0.02117 0.304294,-0.02117 0.366943,0.01093 0.366943,0.01093 0.241646,0.02854 0.241645,0.02855 0.241646,0.04448 0.241646,0.04448 0.214796,0.05417 0.214796,0.05417 0.196896,0.06336 0.196896,0.06336 0.247214,0.09611 0.247215,0.09611 0.287824,0.144433 0.287825,0.144434 0.207479,0.125883 0.207477,0.125883 0.161417,0.112757 0.161416,0.112758 0.161097,0.129054 0.161097,0.129053 0.215703,0.194324 0.215706,0.194324 0.18539,0.206711 0.185391,0.20671 0.132013,0.165341 0.132012,0.165341 0.158418,0.232907 0.158415,0.232906 0.130464,0.232696 0.130463,0.232696 0.07932,0.169242 0.07932,0.169242 0.08773,0.219495 0.08773,0.219496 0.05394,0.166152 0.05394,0.166152 0.05267,0.196897 0.05267,0.196896 0.04484,0.223746 0.04484,0.223746 0.0294,0.223746 0.0294,0.223745 0.0092,0.485885 0.0092,0.485885 -0.0207,0.239052 -0.0207,0.239052 -0.03693,0.232695 -0.03693,0.232696 -0.04392,0.196896 -0.04392,0.196897 -0.03594,0.125297 -0.03594,0.125298 -0.05508,0.170047 -0.05508,0.170047 -0.08695,0.219296 -0.08695,0.219296 -0.127423,0.255045 -0.127424,0.255045 -0.132862,0.223746 -0.132862,0.223746 -0.113749,0.158919 -0.113747,0.158917 -0.148995,0.190126 -0.148993,0.190125 -0.340738,0.340545 -0.340738,0.340543 -0.196897,0.156869 -0.196896,0.156867 -0.232696,0.158028 -0.232696,0.158027 -0.177638,0.102255 -0.17764,0.102256 -0.227443,0.113972 -0.227446,0.113973 -0.252522,0.09941 -0.252523,0.09941 -0.156829,0.05174 -0.156828,0.05173 -0.196897,0.05517 -0.196896,0.05517 -0.272878,0.05397 -0.272877,0.05398 -0.210414,0.02699 -0.210413,0.02699 -0.286395,0.01789 -0.286395,0.01789 -0.223745,-0.0032 -0.223746,-0.0032 -0.09845,-0.0055 z m 1.029231,-3.191119 0.196896,-0.03948 0.196897,-0.06316 0.196896,-0.06316 0.200711,-0.09495 0.200712,-0.09495 0.157282,-0.102467 0.157282,-0.102465 0.107398,-0.08239 0.107398,-0.0824 0.14087,-0.134369 0.140871,-0.134368 0.111532,-0.134294 0.111533,-0.134296 0.111137,-0.165633 0.111138,-0.165634 0.102783,-0.201309 0.102784,-0.20131 0.06629,-0.185077 0.06629,-0.185079 0.04389,-0.173165 0.04389,-0.173165 0.02882,-0.169797 0.02882,-0.169798 0.01017,-0.322861 0.01017,-0.322862 -0.02168,-0.210266 -0.02168,-0.210267 -0.04298,-0.207253 -0.04298,-0.207253 -0.07349,-0.21725 -0.07349,-0.217252 -0.07819,-0.166081 -0.07819,-0.166078 -0.09412,-0.155821 -0.09412,-0.155821 -0.128513,-0.17034 -0.128512,-0.170341 -0.185568,-0.180293 -0.185567,-0.180294 -0.151272,-0.11216 -0.15127,-0.11216 -0.161886,-0.09507 -0.161885,-0.09507 -0.190509,-0.08119 -0.190509,-0.08119 -0.153112,-0.0467 -0.153112,-0.0467 -0.177074,-0.03433 -0.177074,-0.03433 -0.231091,-0.01859 -0.231092,-0.01859 -0.231809,0.01777 -0.23181,0.01777 -0.108284,0.01925 -0.108284,0.01925 -0.177463,0.04459 -0.177464,0.04459 -0.18053,0.07146 -0.18053,0.07145 -0.167778,0.08953 -0.167779,0.08953 -0.131913,0.08901 -0.131914,0.08901 -0.156749,0.130538 -0.15675,0.130537 -0.114071,0.124073 -0.114071,0.124073 -0.106409,0.139254 -0.106408,0.139253 -0.09147,0.147142 -0.09147,0.147141 -0.09542,0.20034 -0.09542,0.200338 -0.06263,0.187181 -0.06264,0.18718 -0.04317,0.194219 -0.04317,0.19422 -0.0228,0.170047 -0.0228,0.170047 5.5e-4,0.340094 5.49e-4,0.340093 0.0298,0.205846 0.0298,0.205847 0.05362,0.212113 0.05362,0.212114 0.08922,0.226427 0.08922,0.226429 0.11218,0.200971 0.11218,0.200968 0.139929,0.188683 0.13993,0.188682 0.176247,0.176247 0.176247,0.176247 0.172848,0.129916 0.172848,0.129916 0.155363,0.09002 0.155364,0.09002 0.161097,0.07092 0.161097,0.07091 0.09845,0.03446 0.09845,0.03446 0.17852,0.04537 0.178521,0.04537 0.161573,0.02466 0.161573,0.02466 0.375893,-0.0058 0.375894,-0.0058 z m 22.625541,3.185349 -0.196537,-0.01541 -0.152507,-0.02092 -0.152507,-0.02092 -0.214499,-0.04454 -0.214498,-0.04454 -0.211512,-0.06945 -0.211511,-0.06945 -0.146779,-0.06595 -0.14678,-0.06595 -0.159591,-0.08961 -0.159592,-0.08961 -0.171552,-0.129425 -0.171552,-0.129425 -0.178997,-0.18548 -0.178997,-0.18548 -0.110591,-0.157111 -0.110591,-0.157109 -0.09816,-0.191935 -0.09815,-0.191932 -0.05381,-0.13551 -0.05381,-0.135509 -0.05371,-0.186685 -0.05371,-0.186685 -0.02872,-0.143949 -0.02872,-0.143949 -0.02986,-0.205094 -0.02986,-0.205095 -0.0062,-4.698663 -0.0062,-4.698663 0.01,-0.04037 0.01,-0.04037 1.62403,0.0046 1.62403,0.0046 0.009,1.270877 0.0089,1.270876 1.324575,0.0089 1.324576,0.009 0.0089,1.270877 0.0089,1.270876 -0.01405,0.03132 -0.01405,0.03132 h -1.324553 -1.324552 l 0.0058,1.937639 0.0058,1.937639 0.03192,0.107398 0.03191,0.107398 0.06296,0.13181 0.06296,0.131809 0.128121,0.12954 0.12812,0.12954 0.152148,0.07437 0.152147,0.07437 0.143197,0.03907 0.143197,0.03906 0.393793,10e-4 0.393793,0.001 0.214796,-0.03991 0.214796,-0.0399 0.161097,-0.0448 0.161097,-0.0448 0.04027,-2.15e-4 0.04027,-2.15e-4 v 1.277635 1.277634 l -0.023,0.01909 -0.023,0.01909 -0.124675,0.04431 -0.124673,0.04431 -0.125298,0.03645 -0.125297,0.03645 -0.223746,0.04471 -0.223746,0.04471 -0.259545,0.02834 -0.259546,0.02833 -0.402742,0.0071 -0.402743,0.0071 -0.196536,-0.01541 z m 13.799613,-0.16561 -0.0085,-0.02237 0.0046,-4.994007 0.0046,-4.994008 1.591953,-0.0046 1.591954,-0.0046 0.01427,0.02247 0.01427,0.02247 2.69e-4,0.476579 2.68e-4,0.476579 0.01119,0.05594 0.01119,0.05594 0.01119,-10e-4 0.01119,-0.001 0.0895,-0.116591 0.0895,-0.116591 0.162461,-0.157593 0.162463,-0.157592 0.147089,-0.10906 0.147088,-0.109061 0.173742,-0.09728 0.173739,-0.09728 0.161097,-0.06333 0.161097,-0.06333 0.160857,-0.04645 0.160856,-0.04646 0.152389,-0.02671 0.152387,-0.02671 0.232695,-0.01923 0.232696,-0.01923 0.214796,0.01163 0.214796,0.01164 0.187947,0.02694 0.187946,0.02694 0.175437,0.04386 0.175438,0.04387 0.173605,0.06455 0.173607,0.06455 0.13939,0.07199 0.13939,0.07199 0.15008,0.100581 0.150082,0.100581 0.146097,0.125061 0.146099,0.125061 0.128271,0.14911 0.12827,0.14911 0.09539,0.137521 0.09539,0.137521 0.03475,0.06712 0.03475,0.06712 0.01306,-3.72e-4 0.01306,-3.73e-4 0.06716,-0.105357 0.06716,-0.105358 0.131092,-0.158291 0.13109,-0.158291 0.132892,-0.123524 0.132895,-0.123525 0.129219,-0.09604 0.129218,-0.09604 0.157177,-0.09531 0.157175,-0.09531 0.178997,-0.08129 0.178997,-0.08129 0.134247,-0.04815 0.134248,-0.04815 0.213038,-0.05208 0.213036,-0.05208 0.189706,-0.02637 0.189705,-0.02637 0.232695,-0.01193 0.232696,-0.01193 0.231019,0.02115 0.23102,0.02115 0.198572,0.03558 0.198573,0.03558 0.212874,0.07099 0.212875,0.07099 0.182838,0.08819 0.182838,0.08819 0.194976,0.129968 0.194977,0.129967 0.233233,0.23357 0.233233,0.233569 0.120004,0.170047 0.120007,0.170047 0.13477,0.268495 0.13477,0.268495 0.08009,0.245566 0.08009,0.245565 0.0438,0.219826 0.0438,0.219826 0.02354,0.178997 0.02354,0.178996 v 3.436737 3.436736 l -1.62403,0.0046 -1.62403,0.0046 -0.0095,-0.04037 -0.0095,-0.04037 -0.0043,-3.114543 -0.0043,-3.114542 -0.03874,-0.135664 -0.03874,-0.135661 -0.04815,-0.114934 -0.04814,-0.114932 -0.07849,-0.118485 -0.07849,-0.118487 -0.121511,-0.114626 -0.12151,-0.114627 -0.146507,-0.07622 -0.146507,-0.07622 -0.137766,-0.03524 -0.137769,-0.03524 -0.180609,3.04e-4 -0.180608,3.04e-4 -0.125297,0.02614 -0.125298,0.02615 -0.161097,0.07956 -0.161097,0.07956 -0.112346,0.101758 -0.112345,0.101758 -0.08049,0.112802 -0.08049,0.112802 -0.06221,0.134648 -0.06221,0.134649 -0.03986,0.148887 -0.03986,0.148888 -0.0094,3.141392 -0.0094,3.141392 h -1.62887 -1.62887 l -0.0089,-3.141392 -0.009,-3.141392 -0.04801,-0.173806 -0.04801,-0.173804 -0.08546,-0.16629 -0.08546,-0.166287 -0.152924,-0.152805 -0.152926,-0.152804 -0.145415,-0.07515 -0.145413,-0.07515 -0.149931,-0.03594 -0.14993,-0.03594 -0.170047,1.79e-4 -0.170046,1.79e-4 -0.125298,0.02614 -0.125298,0.02615 -0.168706,0.08328 -0.168708,0.08328 -0.145513,0.145338 -0.145514,0.145336 -0.07435,0.127169 -0.07435,0.12717 -0.04761,0.141325 -0.04761,0.141326 -0.02411,0.134248 -0.02411,0.134247 -6.27e-4,3.063855 -6.26e-4,3.063854 -0.01086,0.02831 -0.01087,0.02831 h -1.618614 -1.618567 l -0.0085,-0.02237 z"
       id="path1240" />
  </g>
</svg>
