<?xml version="1.0" encoding="UTF-8" standalone="no"?>
<!-- Created with Inkscape (http://www.inkscape.org/) -->

<svg
   width="336"
   height="180"
   viewBox="0 0 88.9 47.625001"
   version="1.1"
   id="svg5"
   xmlns="http://www.w3.org/2000/svg"
   xmlns:svg="http://www.w3.org/2000/svg">
  <defs
     id="defs2" />
  <g
     id="layer1">
    <path
       style="fill:#000000;stroke-width:0.0822915"
       d="m 27.74756,37.283612 c -1.202332,-0.301114 -1.845377,-1.454388 -1.613554,-2.893861 0.09488,-0.589234 0.244755,-0.912331 0.596795,-1.28677 0.445894,-0.474214 0.829564,-0.627514 1.574901,-0.629127 0.574586,-0.0012 0.708287,0.02776 1.051062,0.229404 0.634836,0.373163 0.898022,0.869968 1.008783,1.904251 l 0.05777,0.539355 h -1.666182 -1.666186 l 0.04985,0.306664 c 0.05607,0.345183 0.244132,0.631195 0.579792,0.881483 0.356002,0.26543 1.201504,0.237561 1.725764,-0.05686 0.219944,-0.123539 0.433149,-0.204084 0.473761,-0.178992 0.04078,0.02492 0.131808,0.15775 0.202669,0.294771 0.118333,0.228837 0.117363,0.261804 -0.01187,0.404542 -0.338951,0.374524 -1.694112,0.652709 -2.363342,0.485091 z m 1.62639,-3.144779 c -0.07698,-0.369198 -0.248777,-0.61717 -0.558387,-0.805961 -0.639255,-0.38976 -1.517023,0.04022 -1.672893,0.819613 l -0.05097,0.253817 h 1.168907 1.168905 z m 2.485413,3.110719 c -0.602335,-0.214846 -0.902697,-0.65502 -0.902697,-1.322964 0,-0.983951 0.690092,-1.483349 2.183666,-1.580248 0.708851,-0.04588 0.720046,-0.04985 0.719745,-0.260841 -5.78e-4,-0.373617 -0.284518,-0.730734 -0.661816,-0.832328 -0.375713,-0.101167 -0.970068,-0.01302 -1.395196,0.206746 -0.131299,0.06786 -0.279419,0.123425 -0.329265,0.123425 -0.08575,0 -0.32904,-0.480446 -0.32904,-0.649774 0,-0.134867 0.918982,-0.430769 1.485445,-0.478237 0.62053,-0.05212 1.315811,0.113451 1.679787,0.399731 0.415646,0.326942 0.4822,0.62374 0.542017,2.415255 0.03001,0.905206 0.08299,1.72915 0.117303,1.830989 0.06044,0.179388 0.04588,0.185166 -0.471836,0.185166 -0.533973,0 -0.5342,-8.6e-5 -0.586322,-0.260558 l -0.05212,-0.260557 -0.195192,0.183352 c -0.221303,0.207879 -0.856316,0.421877 -1.236045,0.416441 -0.139908,-0.0019 -0.395708,-0.05382 -0.568412,-0.115608 z m 1.234465,-0.708735 c 0.12739,-0.04814 0.352037,-0.203404 0.499081,-0.345294 0.241355,-0.232803 0.267469,-0.304513 0.267469,-0.735577 v -0.477613 h -0.325132 c -0.971862,0 -1.567588,0.337081 -1.567588,0.886937 0,0.567777 0.54281,0.891481 1.126153,0.67156 z m 6.24876,0.742839 c -0.33459,-0.100195 -0.613494,-0.388003 -0.70896,-0.73168 -0.04475,-0.161772 -0.08191,-0.969953 -0.0822,-1.795955 l -4.58e-4,-1.50182 h -0.329151 -0.329152 v -0.370332 -0.370331 h 0.322129 0.322127 l 0.05784,-0.617187 0.05784,-0.617188 h 0.442948 0.442948 v 0.617188 0.617187 h 0.658332 0.658332 v 0.370331 0.370332 h -0.658332 -0.658332 v 1.443841 c 0,1.441745 3.28e-4,1.444152 0.211957,1.655831 0.1812,0.181202 0.264579,0.206067 0.574247,0.171176 0.356907,-0.04022 0.363025,-0.03681 0.414229,0.236258 0.02832,0.152426 0.03286,0.327565 0.0091,0.389193 -0.07466,0.194569 -0.929641,0.275568 -1.405341,0.133168 z m 8.686974,-0.06616 c -0.499195,-0.178368 -0.938477,-0.563143 -1.189559,-1.041953 -0.24617,-0.469399 -0.298226,-1.669136 -0.09856,-2.270266 0.207086,-0.623543 0.776269,-1.173784 1.40244,-1.355817 0.863764,-0.251099 1.742563,-0.04702 2.293467,0.533011 l 0.242092,0.25478 -0.275851,0.284574 -0.275851,0.284574 -0.267751,-0.235124 c -0.734354,-0.644767 -1.733433,-0.465833 -2.106376,0.377297 -0.22476,0.508144 -0.190717,1.470135 0.06418,1.814183 0.2831,0.382057 0.674894,0.60079 1.076282,0.60079 0.370786,0 0.899581,-0.216546 1.090498,-0.446573 0.154407,-0.186073 0.216827,-0.164378 0.46566,0.161829 l 0.222154,0.291314 -0.23858,0.254327 c -0.526212,0.560878 -1.598827,0.780886 -2.404261,0.493077 z m 4.017253,0.05551 c -0.645542,-0.181937 -1.057415,-0.879002 -0.948503,-1.605284 0.125408,-0.836248 1.064005,-1.343485 2.486014,-1.343485 0.484241,0 0.522419,-0.06107 0.349035,-0.558331 -0.225383,-0.646512 -1.03472,-0.728813 -2.231133,-0.226912 -0.105976,0.04475 -0.179161,-0.02096 -0.309213,-0.275737 l -0.170382,-0.333969 0.311253,-0.158827 c 1.137261,-0.580183 2.751901,-0.354812 3.206642,0.44765 0.168117,0.296695 0.184317,0.436603 0.190038,1.640997 0.0057,1.216605 0.05607,1.766779 0.20465,2.242448 0.05607,0.179049 0.04022,0.185167 -0.480105,0.185167 -0.527855,0 -0.538959,-0.0044 -0.590853,-0.240846 l -0.05267,-0.240846 -0.29256,0.198533 c -0.511827,0.347335 -1.074138,0.437964 -1.672016,0.26945 z m 1.497567,-0.903099 c 0.368688,-0.262539 0.477444,-0.482315 0.477444,-0.96498 v -0.446234 l -0.581089,0.04871 c -1.040616,0.08723 -1.511156,0.481465 -1.308294,1.096155 0.171798,0.520605 0.869912,0.652306 1.41195,0.266335 z m 7.348778,0.943066 c -0.801764,-0.180068 -1.344274,-0.624641 -1.601643,-1.312525 -0.22691,-0.606504 -0.228496,-1.589554 -0.0037,-2.190803 0.17616,-0.470873 0.597289,-0.935073 1.07032,-1.179861 0.433375,-0.224249 1.497544,-0.21275 1.933853,0.02096 0.65575,0.351186 1.007072,0.97286 1.086735,1.923029 l 0.04814,0.57343 h -1.668431 -1.668531 l 0.04985,0.306666 c 0.05607,0.345181 0.244132,0.631195 0.579792,0.881483 0.359626,0.268148 1.201346,0.237673 1.73665,-0.06294 l 0.410831,-0.230705 0.185394,0.231668 c 0.282251,0.35266 0.237843,0.482371 -0.245831,0.7182 -0.621606,0.303039 -1.40738,0.435073 -1.913279,0.321448 z m 1.522398,-3.045046 c 0,-0.07623 -0.07572,-0.294997 -0.168229,-0.48611 -0.471439,-0.973919 -1.818664,-0.718006 -2.097302,0.398427 l -0.05665,0.226288 h 1.161005 c 1.033598,0 1.161005,-0.01528 1.161005,-0.138605 z M 19.788522,34.036202 v -3.250518 h 0.534879 0.534881 v 1.316666 1.316665 h 1.563536 1.56354 V 32.10235 30.785684 h 0.493756 0.493758 v 3.250518 3.250519 H 24.479114 23.985358 V 35.764329 34.24193 h -1.563505 -1.563538 v 1.522399 1.522392 h -0.53488 -0.534879 z m 16.293732,-0.08231 v -3.332809 h 0.493756 0.493757 v 3.332809 3.33281 H 36.57601 36.082254 Z m 5.513534,0 v -3.332809 h 0.493758 0.493756 v 1.281933 1.281931 l 0.345351,-0.295617 c 0.412588,-0.353168 0.870111,-0.492398 1.409,-0.428787 0.513752,0.06067 0.905427,0.307967 1.0965,0.692284 0.133111,0.267696 0.155938,0.553798 0.177577,2.220574 l 0.02491,1.91328 h -0.493418 -0.493416 l -0.02491,-1.776543 -0.02491,-1.77655 -0.230878,-0.198477 c -0.328189,-0.282083 -0.859522,-0.274322 -1.206505,0.01756 -0.515281,0.433544 -0.578745,0.684806 -0.578745,2.290533 v 1.44338 h -0.493756 -0.493756 z m 14.565606,0.946351 v -2.38645 h 0.493757 0.493757 v 0.376619 0.37662 l 0.216093,-0.25682 c 0.309667,-0.368009 0.792871,-0.592894 1.208919,-0.562634 0.338839,0.02491 0.34388,0.02945 0.321449,0.313066 -0.04928,0.624759 -0.07301,0.658332 -0.460338,0.658332 -0.449971,0 -0.841362,0.255064 -1.07323,0.699478 -0.151067,0.289503 -0.174858,0.500214 -0.197628,1.748698 l -0.02606,1.419529 H 56.649684 56.161252 Z M 34.889024,27.79568 C 34.001111,27.564634 33.37642,27.08556 33.045682,26.381947 32.761504,25.777385 32.711658,25.065632 32.709959,21.589369 l -0.0017,-3.312237 H 31.885314 31.0624 V 17.413069 16.54901 h 0.811563 0.811564 l 0.05155,-0.596615 c 0.02832,-0.328133 0.07584,-0.994696 0.10576,-1.481247 l 0.05438,-0.884632 h 1.05767 1.057672 v 1.481246 1.481248 h 1.563539 1.563537 v 0.864059 0.864066 H 36.5727 35.005725 l 0.02379,3.394527 c 0.02323,3.252394 0.03116,3.408174 0.194965,3.720428 0.321845,0.613558 1.261205,0.875406 2.202641,0.613993 0.17395,-0.04814 0.333627,-0.07051 0.354811,-0.04929 0.08123,0.08122 0.280269,1.564687 0.217736,1.622809 -0.255744,0.237617 -2.443765,0.389646 -3.110713,0.216149 z m 8.897674,0.02039 c -1.751321,-0.237557 -3.173217,-1.243116 -3.888148,-2.749688 -0.466341,-0.982766 -0.564674,-1.491369 -0.564674,-2.921349 0,-1.479831 0.09952,-1.961347 0.628307,-3.040016 0.6326,-1.290429 1.856547,-2.257913 3.279435,-2.592271 0.700815,-0.164661 2.201671,-0.16636 2.842338,-0.0032 2.247931,0.5725 3.576402,2.572344 3.576402,5.383816 v 0.663142 h -4.032282 -4.032288 l 0.0012,0.226289 c 6.58e-4,0.124445 0.05607,0.458921 0.123086,0.743212 0.294543,1.249374 0.963949,2.02255 2.075126,2.396875 1.256793,0.423406 3.177142,0.05041 4.379582,-0.850109 0.156051,-0.116915 0.309893,-0.184656 0.341954,-0.150614 0.03229,0.03398 0.247303,0.358154 0.478405,0.720255 l 0.420178,0.658333 -0.268374,0.223457 c -1.153857,0.960731 -3.547871,1.537714 -5.360265,1.291867 z m 3.651794,-7.011564 c 0,-0.290919 -0.227647,-1.09709 -0.411625,-1.457718 -0.50616,-0.992108 -1.69465,-1.531292 -2.895429,-1.31355 -1.21285,0.219943 -2.014857,0.986091 -2.403134,2.295733 -0.0729,0.24583 -0.132545,0.495796 -0.132545,0.555498 0,0.08774 0.558217,0.108471 2.92135,0.108471 h 2.921354 z m 20.075074,7.018344 c -1.893336,-0.298338 -3.30216,-1.662498 -3.879934,-3.75698 -0.263051,-0.953668 -0.26407,-2.926753 -0.0019,-3.838171 0.308252,-1.071776 0.726685,-1.796358 1.468663,-2.543094 0.521625,-0.524967 1.325608,-0.985196 2.051312,-1.174214 0.712145,-0.185505 2.028334,-0.166133 2.694416,0.03965 0.675241,0.20856 1.460793,0.729211 1.830235,1.213054 l 0.285084,0.37339 v -3.09804 -3.09777 h 1.152078 1.152084 v 7.858848 7.858847 H 73.28179 72.298021 l -0.04361,-0.267467 c -0.02379,-0.147102 -0.08116,-0.487186 -0.127164,-0.755736 -0.04588,-0.268544 -0.0836,-0.491435 -0.0836,-0.495286 0,-0.0039 -0.233765,0.216659 -0.519472,0.489961 -0.539411,0.516074 -1.293572,0.940001 -1.949294,1.095786 -0.554024,0.131638 -1.545553,0.178256 -2.061356,0.09704 z m 2.141337,-1.8582 c 1.468275,-0.436037 2.386333,-1.937155 2.386333,-3.901912 0,-1.702154 -0.717411,-3.110645 -1.873596,-3.67841 -0.408453,-0.200574 -0.565297,-0.230425 -1.209905,-0.230425 -0.624414,0 -0.811671,0.03342 -1.193421,0.212411 -1.225851,0.575085 -2.002148,2.027258 -1.998013,3.737586 0.0031,1.305967 0.398936,2.402901 1.129341,3.130005 0.786992,0.783446 1.735744,1.034713 2.759261,0.730762 z m -52.088252,1.654093 c 0,-0.02436 1.150554,-1.769032 2.55679,-3.877652 1.575637,-2.36264 2.538703,-3.880994 2.509656,-3.95668 -0.02606,-0.06758 -1.069362,-1.700688 -2.318759,-3.629194 -1.249396,-1.928506 -2.290131,-3.554572 -2.312737,-3.613486 -0.03286,-0.08531 0.233029,-0.10682 1.304941,-0.105761 l 1.346045,0.0013 1.723759,2.914824 c 0.948073,1.603155 1.74756,2.900114 1.776645,2.882141 0.02889,-0.01813 0.827221,-1.329145 1.773628,-2.913714 l 1.720751,-2.881031 1.346041,-0.0024 c 1.081064,-0.0019 1.337844,0.01869 1.304407,0.106042 -0.02266,0.05964 -1.071061,1.698309 -2.329249,3.641405 -1.258188,1.943097 -2.286773,3.588445 -2.285735,3.656337 0.001,0.06791 1.137814,1.836948 2.526173,3.931231 1.388364,2.094289 2.524294,3.82639 2.524294,3.84912 0,0.02266 -0.615154,0.03116 -1.367005,0.0187 l -1.367009,-0.02265 -1.904082,-3.09936 c -1.047243,-1.704648 -1.932725,-3.072083 -1.967737,-3.038743 -0.03512,0.03342 -0.911271,1.428054 -1.947248,3.099362 l -1.883599,3.038741 -1.364982,0.02265 c -0.750745,0.01246 -1.364988,0.0029 -1.364988,-0.02096 z m 34.233292,-5.514857 v -5.554878 h 1.059025 1.059025 l 0.05097,0.30859 c 0.02832,0.169703 0.05212,0.493758 0.05324,0.720051 0.0041,0.82978 0.03116,0.835937 0.678304,0.154578 0.460055,-0.484297 0.793083,-0.745679 1.282306,-0.959197 0.590286,-0.257624 1.190093,-0.347448 1.900672,-0.347448 1.134802,0 1.225306,0.01187 1.679673,0.224986 0.940278,0.440512 1.420368,0.985157 1.796449,2.03803 0.18896,0.529046 0.19134,0.580852 0.216886,4.752344 l 0.02606,4.217443 h -1.156847 -1.156848 v -3.718299 c 0,-4.232237 -0.01869,-4.393164 -0.588844,-5.04077 -0.578505,-0.657217 -1.740519,-0.818694 -2.673406,-0.371521 -0.559632,0.268261 -1.273928,1.022723 -1.605226,1.695465 l -0.275739,0.559972 -0.02323,3.437582 -0.02323,3.437588 h -1.14949 -1.14949 z"
       id="path1117" />
  </g>
</svg>
